<svg width="24" height="24" viewBox="0 0 24 24" fill="none" xmlns="http://www.w3.org/2000/svg">
<path d="M16.5606 21.9999C16.9975 21.9999 17.4164 21.8264 17.7253 21.5175C18.0342 21.2086 18.2077 20.7897 18.2077 20.3529C18.2077 19.916 18.0342 19.4971 17.7253 19.1882C17.4164 18.8793 16.9975 18.7058 16.5606 18.7058C16.1238 18.7058 15.7049 18.8793 15.396 19.1882C15.0871 19.4971 14.9136 19.916 14.9136 20.3529C14.9136 20.7897 15.0871 21.2086 15.396 21.5175C15.7049 21.8264 16.1238 21.9999 16.5606 21.9999Z" fill="black"/>
<path d="M9.03121 21.9999C9.46804 21.9999 9.88697 21.8264 10.1959 21.5175C10.5047 21.2086 10.6783 20.7897 10.6783 20.3529C10.6783 19.916 10.5047 19.4971 10.1959 19.1882C9.88697 18.8793 9.46804 18.7058 9.03121 18.7058C8.59438 18.7058 8.17545 18.8793 7.86657 19.1882C7.55768 19.4971 7.38416 19.916 7.38416 20.3529C7.38416 20.7897 7.55768 21.2086 7.86657 21.5175C8.17545 21.8264 8.59438 21.9999 9.03121 21.9999Z" fill="black"/>
<path d="M5.82181 4.53176L5.63357 6.83764C5.59593 7.27999 5.94416 7.64705 6.38651 7.64705H20.7959C21.1912 7.64705 21.5206 7.34587 21.5488 6.95058C21.6712 5.2847 20.4006 3.92941 18.7347 3.92941H7.16769C7.07357 3.51529 6.88534 3.12 6.59357 2.79059C6.12298 2.29176 5.46416 2 4.78652 2H3.14887C2.76299 2 2.44299 2.32 2.44299 2.70588C2.44299 3.09176 2.76299 3.41176 3.14887 3.41176H4.78652C5.07828 3.41176 5.35122 3.53411 5.54887 3.74117C5.74652 3.95764 5.84063 4.23999 5.82181 4.53176Z" fill="black"/>
<path d="M20.5701 9.05891H6.13245C5.73715 9.05891 5.41715 9.36009 5.37951 9.74597L5.04069 13.8401C5.00837 14.2194 5.05517 14.6013 5.17812 14.9616C5.30107 15.3219 5.49749 15.6528 5.75494 15.9333C6.0124 16.2137 6.32528 16.4377 6.67378 16.5909C7.02227 16.7442 7.39879 16.8234 7.7795 16.8236H18.2454C19.6571 16.8236 20.8995 15.666 21.003 14.2542L21.3136 9.85891C21.3225 9.75638 21.3099 9.6531 21.2765 9.55576C21.243 9.45842 21.1896 9.36917 21.1195 9.29378C21.0494 9.21839 20.9643 9.15854 20.8697 9.11808C20.775 9.07762 20.673 9.05747 20.5701 9.05891Z" fill="black"/>
</svg>
