<svg width="24" height="24" viewBox="0 0 24 24" fill="none" xmlns="http://www.w3.org/2000/svg">
<path d="M5.52406 13.8152C5.49418 14.1709 5.53852 14.529 5.65427 14.8667C5.77003 15.2044 5.95466 15.5144 6.19649 15.7771C6.43832 16.0397 6.73206 16.2492 7.0591 16.3924C7.38614 16.5355 7.73936 16.6092 8.09636 16.6087H17.9154C19.243 16.6087 20.4047 15.5208 20.5061 14.2024L21.004 7.28759C21.1146 5.75711 19.9529 4.51245 18.4132 4.51245H6.51057" stroke="black" stroke-width="1.5" stroke-miterlimit="10" stroke-linecap="round" stroke-linejoin="round"/>
<path d="M2.98865 2.78027H4.59288C5.58861 2.78027 6.37229 3.63771 6.28931 4.62422L5.87632 9.74004" stroke="black" stroke-width="1.5" stroke-miterlimit="10" stroke-linecap="round" stroke-linejoin="round"/>
<path d="M16.1267 21.2197C16.4324 21.2197 16.7255 21.0983 16.9416 20.8822C17.1578 20.666 17.2792 20.3729 17.2792 20.0673C17.2792 19.7616 17.1578 19.4685 16.9416 19.2523C16.7255 19.0362 16.4324 18.9148 16.1267 18.9148C15.8211 18.9148 15.5279 19.0362 15.3118 19.2523C15.0957 19.4685 14.9742 19.7616 14.9742 20.0673C14.9742 20.3729 15.0957 20.666 15.3118 20.8822C15.5279 21.0983 15.8211 21.2197 16.1267 21.2197Z" stroke="black" stroke-width="1.2" stroke-miterlimit="10" stroke-linecap="round" stroke-linejoin="round"/>
<path d="M8.75098 21.2197C9.05663 21.2197 9.34976 21.0983 9.56589 20.8822C9.78202 20.666 9.90344 20.3729 9.90344 20.0673C9.90344 19.7616 9.78202 19.4685 9.56589 19.2523C9.34976 19.0362 9.05663 18.9148 8.75098 18.9148C8.44532 18.9148 8.15219 19.0362 7.93606 19.2523C7.71993 19.4685 7.59851 19.7616 7.59851 20.0673C7.59851 20.3729 7.71993 20.666 7.93606 20.8822C8.15219 21.0983 8.44532 21.2197 8.75098 21.2197Z" stroke="black" stroke-width="1.2" stroke-miterlimit="10" stroke-linecap="round" stroke-linejoin="round"/>
<path d="M9.4425 8.31201H20.5062" stroke="black" stroke-width="1.5" stroke-miterlimit="10" stroke-linecap="round" stroke-linejoin="round"/>
</svg>
