<svg width="24" height="24" viewBox="0 0 24 24" fill="none" xmlns="http://www.w3.org/2000/svg">
<path d="M11.03 5.098C11.025 3.39 9.669 2.005 7.995 2H5.035C3.363 2.01 2.01 3.391 2 5.098V8.12C2.01 9.826 3.365 11.205 5.035 11.208H7.995C8.8 11.211 9.571 10.888 10.14 10.308C10.71 9.728 11.03 8.941 11.03 8.12V5.098Z" fill="black"/>
<path d="M22 5.098C21.995 3.39 20.639 2.005 18.965 2H16.005C14.333 2.01 12.98 3.391 12.97 5.098V8.12C12.98 9.826 14.335 11.205 16.005 11.208H18.965C19.77 11.211 20.541 10.888 21.11 10.308C21.68 9.728 22 8.941 22 8.12V5.098Z" fill="black"/>
<path d="M11.03 15.89C11.025 14.182 9.669 12.797 7.995 12.792H5.035C3.363 12.802 2.01 14.183 2 15.89V18.912C2.01 20.618 3.365 21.997 5.035 22H7.995C8.8 22.003 9.571 21.68 10.14 21.1C10.71 20.52 11.03 19.733 11.03 18.912V15.89Z" fill="black"/>
<path d="M22 15.89C21.995 14.182 20.639 12.797 18.965 12.792H16.005C14.333 12.802 12.98 14.183 12.97 15.89V18.912C12.98 20.618 14.335 21.997 16.005 22H18.965C19.77 22.003 20.541 21.68 21.11 21.1C21.68 20.52 22 19.733 22 18.912V15.89Z" fill="black"/>
</svg>
