<svg width="24" height="24" viewBox="0 0 24 24" fill="none" xmlns="http://www.w3.org/2000/svg">
<path d="M18.965 12.791C20.635 12.796 21.99 14.175 22 15.88V18.902C21.99 20.609 20.637 21.99 18.965 22H16.005C14.335 21.99 12.985 20.607 12.979 18.902V15.88C12.979 14.174 14.334 12.791 16.005 12.791H18.965ZM6.251 12.791C6.40419 12.7749 6.55882 12.8027 6.69677 12.8712C6.83473 12.9398 6.95031 13.0462 7.03 13.178C7.11129 13.3111 7.1543 13.464 7.1543 13.62C7.1543 13.776 7.11129 13.9289 7.03 14.062C6.95024 14.194 6.83449 14.3005 6.69634 14.3691C6.55819 14.4376 6.40336 14.4653 6.25 14.449H5.036C4.26 14.449 3.63 15.089 3.626 15.879V18.864C3.645 19.649 4.266 20.28 5.036 20.294H8.015C8.388 20.297 8.747 20.148 9.012 19.879C9.277 19.61 9.426 19.245 9.426 18.864V14.383L9.413 14.271C9.40562 14.1248 9.43663 13.9792 9.50294 13.8487C9.56925 13.7182 9.66856 13.6073 9.791 13.527C9.92801 13.438 10.0889 13.3929 10.2522 13.3977C10.4155 13.4025 10.5735 13.457 10.705 13.554C10.976 13.753 11.101 14.1 11.022 14.43V18.892C11.022 20.603 9.663 21.991 7.987 21.991H5.035C3.373 21.955 2.035 20.589 2 18.892V15.88C2 15.059 2.32 14.272 2.89 13.692C3.16941 13.4065 3.50314 13.1797 3.87152 13.0252C4.23991 12.8706 4.6355 12.7913 5.035 12.792L6.251 12.791ZM18.965 14.449H16.005C15.231 14.449 14.603 15.089 14.603 15.879V18.902C14.601 19.282 14.748 19.647 15.011 19.916C15.274 20.186 15.632 20.336 16.005 20.333H18.965C19.338 20.335 19.695 20.185 19.959 19.916C20.222 19.647 20.369 19.282 20.367 18.902V15.88C20.367 15.5 20.219 15.136 19.957 14.868C19.8279 14.7356 19.6737 14.6303 19.5033 14.5583C19.333 14.4863 19.1499 14.4492 18.965 14.449ZM18.965 2C20.623 2.04 21.956 3.405 21.991 5.098V8.111C22.001 8.93 21.691 9.72 21.131 10.306C20.856 10.5951 20.526 10.8264 20.1604 10.9863C19.7948 11.1462 19.401 11.2314 19.002 11.237H17.777C17.5746 11.2129 17.3883 11.115 17.2536 10.962C17.1189 10.8091 17.0453 10.6118 17.047 10.408C17.047 9.982 17.362 9.625 17.777 9.579H18.965C19.341 9.577 19.7 9.421 19.963 9.148C20.226 8.874 20.372 8.504 20.367 8.12V5.098C20.357 4.312 19.735 3.678 18.965 3.668H16.005C15.231 3.668 14.603 4.308 14.603 5.098V9.618L14.593 9.721C14.5641 9.91897 14.4648 10.0999 14.3132 10.2305C14.1617 10.3611 13.9681 10.4327 13.768 10.432C13.6607 10.4294 13.555 10.4052 13.4573 10.3608C13.3595 10.3165 13.2717 10.253 13.199 10.174C13.0502 10.0124 12.9711 9.79857 12.979 9.579V5.1C12.975 4.2822 13.2921 3.49549 13.862 2.909C14.1405 2.62212 14.4735 2.3939 14.8416 2.23778C15.2096 2.08166 15.6052 2.00082 16.005 2H18.965ZM7.995 2C9.669 2.005 11.025 3.39 11.03 5.098V8.12C11.03 8.941 10.71 9.728 10.14 10.308C9.571 10.888 8.8 11.211 7.995 11.208H5.035C3.365 11.205 2.01 9.826 2 8.12V5.098C2.01 3.391 3.363 2.01 5.035 2H7.995ZM7.995 3.667H5.035C4.658 3.66 4.295 3.807 4.025 4.077C3.757 4.345 3.605 4.714 3.605 5.098V8.12C3.598 8.51 3.746 8.885 4.015 9.16C4.285 9.436 4.653 9.587 5.035 9.58H7.995C8.371 9.577 8.73 9.421 8.993 9.148C9.257 8.874 9.402 8.504 9.397 8.12V5.098C9.392 4.31 8.767 3.672 7.995 3.667Z" fill="black"/>
</svg>
