<svg width="24" height="24" viewBox="0 0 24 24" fill="none" xmlns="http://www.w3.org/2000/svg">
<path d="M8.28002 2.50007C8.91002 2.52007 9.52002 2.63007 10.111 2.83007H10.17C10.21 2.85007 10.24 2.87007 10.26 2.89007C10.481 2.96007 10.69 3.04007 10.89 3.15007L11.27 3.32007C11.42 3.40007 11.6 3.55007 11.7 3.61007C11.8 3.67007 11.91 3.73007 12 3.80007C13.1032 2.95095 14.4579 2.49354 15.85 2.50007C16.481 2.50007 17.111 2.59007 17.71 2.79007C21.401 3.99007 22.731 8.04007 21.62 11.5801C20.9917 13.3894 19.9631 15.0336 18.611 16.3901C16.6798 18.2601 14.5579 19.9226 12.28 21.3501L12.03 21.5001L11.77 21.3401C9.47733 19.917 7.34235 18.2543 5.40102 16.3801C4.05488 15.0223 3.02654 13.383 2.39002 11.5801C1.26002 8.04007 2.59002 3.99007 6.32102 2.77007C6.61102 2.67007 6.91002 2.60007 7.21002 2.56007H7.33002C7.61102 2.52007 7.89002 2.50007 8.17002 2.50007H8.28002ZM17.19 5.66007C16.9898 5.59329 16.7712 5.60838 16.582 5.70203C16.3928 5.79569 16.2483 5.96033 16.18 6.16007C16.04 6.58007 16.26 7.04007 16.68 7.19007C17.321 7.43007 17.75 8.06007 17.75 8.76007V8.79007C17.73 9.01361 17.7982 9.23611 17.94 9.41007C18.08 9.58007 18.29 9.68007 18.51 9.70007C18.92 9.69007 19.27 9.36007 19.3 8.94007V8.82007C19.3168 8.14011 19.1232 7.47157 18.7455 6.90592C18.3678 6.34026 17.8245 5.90513 17.19 5.66007Z" fill="black"/>
</svg>
