<svg width="24" height="24" viewBox="0 0 24 24" fill="none" xmlns="http://www.w3.org/2000/svg">
<path d="M12.006 3.53999C12.8152 3.0208 13.7286 2.68569 14.6816 2.55834C15.6345 2.43098 16.6039 2.5145 17.521 2.80299C18.324 3.05518 19.0673 3.46801 19.7058 4.0164C20.3442 4.56479 20.8645 5.23727 21.235 5.99299C22.1222 7.85925 22.2428 9.99884 21.571 11.953C20.956 13.7453 19.9422 15.3745 18.606 16.718C17.7339 17.6145 16.7927 18.441 15.791 19.19L15.738 19.235C15.659 19.2882 15.5703 19.3252 15.4769 19.3441C15.3835 19.3629 15.2874 19.3631 15.1939 19.3447C15.1005 19.3264 15.0116 19.2897 14.9323 19.2369C14.853 19.1841 14.785 19.1161 14.732 19.037C14.6751 18.9569 14.6346 18.8664 14.6127 18.7706C14.5908 18.6748 14.588 18.5757 14.6045 18.4788C14.6209 18.382 14.6563 18.2893 14.7085 18.2061C14.7608 18.1229 14.8289 18.0508 14.909 17.994C15.8487 17.2858 16.7336 16.5076 17.556 15.666C18.7458 14.4929 19.6513 13.0631 20.203 11.486C20.7367 9.90861 20.629 8.18463 19.903 6.68599C19.6176 6.10716 19.218 5.59212 18.7281 5.17191C18.2383 4.7517 17.6685 4.43503 17.053 4.24099C16.275 3.99352 15.4485 3.93866 14.6447 4.08115C13.8408 4.22364 13.0835 4.5592 12.438 5.05899C12.3111 5.15518 12.1562 5.20725 11.997 5.20725C11.8378 5.20725 11.6829 5.15518 11.556 5.05899C10.9108 4.5585 10.1535 4.22251 9.34953 4.08C8.54551 3.93749 7.7189 3.99274 6.941 4.24099C6.32149 4.43081 5.74707 4.74465 5.25265 5.16343C4.75824 5.5822 4.35416 6.09716 4.065 6.67699C3.35518 8.17425 3.25373 9.88846 3.782 11.459C4.33638 13.0324 5.24196 14.4588 6.43 15.63C8.17574 17.3362 10.1052 18.8438 12.183 20.125C12.447 20.311 12.563 20.649 12.471 20.962C12.4275 21.1138 12.3368 21.2477 12.212 21.3445C12.0872 21.4412 11.9348 21.4957 11.777 21.5C11.6323 21.5005 11.4909 21.4565 11.372 21.374C9.20729 20.0399 7.19761 18.4692 5.38 16.691C4.03672 15.352 3.01949 13.722 2.407 11.927C1.75796 9.97595 1.89058 7.84927 2.777 5.99399C3.1475 5.23799 3.66789 4.56525 4.30654 4.01668C4.94519 3.46811 5.68875 3.05518 6.492 2.80299C7.40915 2.5145 8.37846 2.43098 9.33144 2.55834C10.2844 2.68569 11.1978 3.0208 12.007 3.53999H12.006ZM15.888 6.49699C16.5362 6.70968 17.1072 7.10893 17.5295 7.64473C17.9518 8.18052 18.2066 8.82903 18.262 9.50899L18.267 9.62599C18.2626 9.78248 18.2091 9.93361 18.114 10.058C18.0555 10.1345 17.9823 10.1986 17.8987 10.2463C17.815 10.2941 17.7226 10.3246 17.627 10.336C17.5299 10.348 17.4315 10.3408 17.3372 10.3147C17.2429 10.2887 17.1547 10.2443 17.0776 10.1841C17.0006 10.1239 16.9361 10.0491 16.8879 9.96397C16.8398 9.87885 16.8089 9.78507 16.797 9.68799C16.7811 9.28552 16.6424 8.89756 16.3994 8.5763C16.1564 8.25504 15.8209 8.01588 15.438 7.89099C15.2966 7.79969 15.1894 7.66413 15.1331 7.50547C15.0768 7.34681 15.0747 7.17399 15.127 7.01399C15.177 6.85467 15.2794 6.71692 15.4175 6.62308C15.5557 6.52924 15.7215 6.48481 15.888 6.49699Z" fill="black"/>
</svg>
