<svg width="24" height="24" viewBox="0 0 24 24" fill="none" xmlns="http://www.w3.org/2000/svg">
<path d="M10.5145 20.4051H6.48198C5.85399 20.403 5.2522 20.1532 4.8073 19.71C4.3624 19.2668 4.11032 18.6659 4.10581 18.038V10.0173C4.10701 9.80117 4.15546 9.58796 4.24776 9.39256C4.34006 9.19717 4.47397 9.02432 4.64012 8.88614L5.35085 8.3599C5.47554 8.22582 5.54974 8.05256 5.56076 7.8698C5.57177 7.68703 5.5189 7.50612 5.41121 7.35804C5.30351 7.20997 5.14769 7.10393 4.97043 7.05809C4.79316 7.01226 4.60547 7.02947 4.4395 7.10678L3.71163 7.65017C3.34926 7.93052 3.05469 8.2889 2.8498 8.69869C2.6449 9.10848 2.53494 9.55916 2.52808 10.0173V18.0471C2.53047 19.0949 2.94785 20.0991 3.68886 20.8399C4.42987 21.5807 5.43417 21.9978 6.48198 21.9999H10.5145C10.7189 21.9926 10.9124 21.9063 11.0544 21.7592C11.1963 21.612 11.2757 21.4155 11.2757 21.2111C11.2757 21.0066 11.1963 20.8101 11.0544 20.663C10.9124 20.5158 10.7189 20.4295 10.5145 20.4222V20.4051Z" fill="black"/>
<path d="M21.472 9.99917C21.4675 9.54427 21.3622 9.09602 21.1636 8.68671C20.965 8.27739 20.6782 7.9172 20.3237 7.63208L14.2658 2.80211C13.6197 2.28298 12.8158 2 11.9869 2C11.1581 2 10.3541 2.28298 9.70805 2.80211L7.78756 4.19636C7.62509 4.32465 7.51833 4.51064 7.48948 4.71563C7.46063 4.92063 7.51192 5.12886 7.63268 5.297C7.75343 5.46515 7.93436 5.58028 8.13783 5.61844C8.3413 5.6566 8.55165 5.61486 8.72512 5.50189L10.6718 4.04715C11.0422 3.74212 11.5071 3.57532 11.9869 3.57532C12.4668 3.57532 12.9317 3.74212 13.3021 4.04715L19.3599 8.87712C19.7077 9.15335 19.9144 9.57273 19.9204 10.0163V18.0471C19.9204 18.6749 19.6711 19.277 19.2271 19.7209C18.7832 20.1648 18.1811 20.4142 17.5534 20.4142H15.7569C15.6686 20.4142 15.584 20.3792 15.5216 20.3168C15.4592 20.2544 15.4242 20.1698 15.4242 20.0815V16.4603C15.4242 15.9061 15.2046 15.3745 14.8134 14.9818C14.4223 14.5892 13.8915 14.3675 13.3373 14.3654H10.7071C10.1515 14.3654 9.61866 14.5861 9.22579 14.979C8.83292 15.3719 8.61221 15.9047 8.61221 16.4603V17.8455C8.60842 17.9514 8.62602 18.0571 8.66396 18.1561C8.7019 18.2551 8.7594 18.3455 8.83302 18.4218C8.90665 18.4981 8.9949 18.5588 9.09249 18.6002C9.19009 18.6417 9.29504 18.6631 9.40108 18.6631C9.50711 18.6631 9.61206 18.6417 9.70966 18.6002C9.80726 18.5588 9.8955 18.4981 9.96913 18.4218C10.0428 18.3455 10.1003 18.2551 10.1382 18.1561C10.1761 18.0571 10.1937 17.9514 10.1899 17.8455V16.4603C10.1887 16.3928 10.201 16.3258 10.226 16.2631C10.251 16.2004 10.2882 16.1433 10.3355 16.0951C10.3828 16.047 10.4392 16.0088 10.5015 15.9827C10.5637 15.9566 10.6305 15.9431 10.698 15.9431H13.3283C13.6095 15.9431 13.8364 16.171 13.8364 16.4512V20.0805C13.8385 20.5884 14.0418 21.0747 14.4018 21.4329C14.7617 21.7912 15.249 21.9922 15.7569 21.9919H17.51C18.5586 21.9919 19.5643 21.5754 20.3058 20.8339C21.0473 20.0924 21.4639 19.0867 21.4639 18.038L21.472 9.99917Z" fill="black"/>
</svg>
