<svg width="24" height="24" viewBox="0 0 24 24" fill="none" xmlns="http://www.w3.org/2000/svg">
<path d="M5.52418 13.8152C5.4943 14.1709 5.53864 14.529 5.6544 14.8667C5.77015 15.2044 5.95479 15.5144 6.19661 15.7771C6.43844 16.0397 6.73218 16.2492 7.05922 16.3924C7.38626 16.5355 7.73948 16.6092 8.09648 16.6087H17.9155C19.2431 16.6087 20.4048 15.5208 20.5062 14.2024L21.0041 7.28759C21.1147 5.75711 19.9531 4.51245 18.4134 4.51245H6.51069" stroke="white" stroke-width="1.5" stroke-miterlimit="10" stroke-linecap="round" stroke-linejoin="round"/>
<path d="M2.98877 2.78027H4.593C5.58873 2.78027 6.37241 3.63771 6.28943 4.62422L5.87645 9.74004" stroke="white" stroke-width="1.5" stroke-miterlimit="10" stroke-linecap="round" stroke-linejoin="round"/>
<path d="M16.1268 21.2197C16.4325 21.2197 16.7256 21.0983 16.9417 20.8822C17.1579 20.666 17.2793 20.3729 17.2793 20.0673C17.2793 19.7616 17.1579 19.4685 16.9417 19.2523C16.7256 19.0362 16.4325 18.9148 16.1268 18.9148C15.8212 18.9148 15.528 19.0362 15.3119 19.2523C15.0958 19.4685 14.9744 19.7616 14.9744 20.0673C14.9744 20.3729 15.0958 20.666 15.3119 20.8822C15.528 21.0983 15.8212 21.2197 16.1268 21.2197Z" stroke="white" stroke-width="1.2" stroke-miterlimit="10" stroke-linecap="round" stroke-linejoin="round"/>
<path d="M8.7511 21.2197C9.05675 21.2197 9.34989 21.0983 9.56601 20.8822C9.78214 20.666 9.90356 20.3729 9.90356 20.0673C9.90356 19.7616 9.78214 19.4685 9.56601 19.2523C9.34989 19.0362 9.05675 18.9148 8.7511 18.9148C8.44545 18.9148 8.15231 19.0362 7.93618 19.2523C7.72005 19.4685 7.59863 19.7616 7.59863 20.0673C7.59863 20.3729 7.72005 20.666 7.93618 20.8822C8.15231 21.0983 8.44545 21.2197 8.7511 21.2197Z" stroke="white" stroke-width="1.2" stroke-miterlimit="10" stroke-linecap="round" stroke-linejoin="round"/>
<path d="M10.7632 10.5605L15.7632 10.5605" stroke="white" stroke-width="1.5" stroke-linecap="round" stroke-linejoin="round"/>
<path d="M13.2632 13.0605L13.2632 8.06055" stroke="white" stroke-width="1.5" stroke-linecap="round" stroke-linejoin="round"/>
</svg>
