<svg width="30" height="30" viewBox="0 0 30 30" fill="none" xmlns="http://www.w3.org/2000/svg">
<path fill-rule="evenodd" clip-rule="evenodd" d="M25.6683 13.3365C25.6811 13.3365 25.694 13.337 25.7122 13.337H25.7154C26.6026 13.337 27.3221 12.6175 27.3221 11.7304V9.97685C27.3221 9.81184 27.2798 9.64952 27.1994 9.5054L23.2842 2.5H6.71577L2.80054 9.5054C2.72018 9.64952 2.67786 9.81184 2.67786 9.97685V11.7304C2.67786 12.6159 3.39414 13.3338 4.28348 13.337H4.2867C4.3017 13.337 4.3167 13.3371 4.3317 13.3365C5.18354 13.3135 5.86983 12.6272 5.89287 11.7754C5.9009 11.4855 6.13824 11.2546 6.42861 11.2546C6.71898 11.2546 6.95632 11.4855 6.96435 11.7754C6.98793 12.64 7.69457 13.3338 8.56944 13.337H8.57266C9.44485 13.337 10.1553 12.6422 10.1788 11.7754C10.1869 11.4855 10.4242 11.2546 10.7146 11.2546C11.0044 11.2546 11.2417 11.4855 11.2498 11.7754C11.2733 12.64 11.9805 13.3338 12.8549 13.337H12.8581C13.7303 13.337 14.4407 12.6422 14.4642 11.7754C14.4723 11.4855 14.7096 11.2546 15 11.2546C15.2904 11.2546 15.5277 11.4855 15.5357 11.7754C15.5593 12.64 16.266 13.3338 17.1408 13.337H17.144C18.0162 13.337 18.7266 12.6422 18.7502 11.7754C18.7582 11.4855 18.9956 11.2546 19.2854 11.2546C19.5758 11.2546 19.8131 11.4855 19.8212 11.7754C19.8447 12.64 20.5519 13.3338 21.4262 13.337H21.4295C22.3017 13.337 23.012 12.6422 23.0356 11.7754C23.0437 11.4855 23.281 11.2546 23.5714 11.2546C23.8617 11.2546 24.0991 11.4855 24.1071 11.7754C24.1301 12.6272 24.8164 13.3135 25.6683 13.3365ZM25.1181 16.814V14.3421C24.4902 14.1996 23.9459 13.8369 23.5714 13.3387C23.0828 13.9885 22.3054 14.4085 21.43 14.4085H21.4273C20.5519 14.4085 19.7745 13.9885 19.2854 13.3387C18.7968 13.9885 18.0194 14.4085 17.144 14.4085H17.1414C16.2659 14.4085 15.4886 13.9885 15 13.3387C14.5114 13.9885 13.734 14.4085 12.8586 14.4085H12.8559C11.9805 14.4085 11.2032 13.9885 10.714 13.3387C10.2254 13.9885 9.44807 14.4085 8.57266 14.4085H8.56998C7.69457 14.4085 6.91721 13.9885 6.42861 13.3387C6.05412 13.8364 5.5098 14.1996 4.88191 14.3421V22.4817C4.88191 22.7383 4.9837 22.9837 5.16478 23.1648C5.34586 23.3464 5.59178 23.4482 5.84786 23.4482C5.84786 23.4482 6.44789 23.4482 7.35598 23.4482V18.0334C7.35598 17.3573 7.62439 16.709 8.10227 16.2317C8.58016 15.7538 9.22788 15.4854 9.90399 15.4854H9.90506C10.5812 15.4854 11.2294 15.7538 11.7068 16.2317C12.1846 16.709 12.4531 17.3573 12.4531 18.0334V23.4482C14.3823 23.4482 15.9831 23.4476 15.9831 23.4476C15.9156 23.0806 15.8802 22.7019 15.8802 22.3151C15.8802 18.8616 18.6838 16.0581 22.1372 16.0581C23.2162 16.0581 24.2314 16.3319 25.1181 16.814ZM17.1762 23.8275C17.8239 25.9522 19.8013 27.5 22.1372 27.5C24.9986 27.5 27.3221 25.1765 27.3221 22.3151C27.3221 20.6542 26.5399 19.1756 25.3243 18.2263C24.4446 17.5394 23.3383 17.1296 22.1372 17.1296C19.2752 17.1296 16.9517 19.4531 16.9517 22.3151C16.9517 22.8412 17.0305 23.3491 17.1762 23.8275ZM21.5897 22.8508H20.1678C19.872 22.8508 19.632 22.6108 19.632 22.3151C19.632 22.0193 19.872 21.7793 20.1678 21.7793H21.5897V20.3574C21.5897 20.0617 21.8297 19.8217 22.1254 19.8217C22.4211 19.8217 22.6611 20.0617 22.6611 20.3574V21.7793H24.083C24.3787 21.7793 24.6187 22.0193 24.6187 22.3151C24.6187 22.6108 24.3787 22.8508 24.083 22.8508H22.6611V24.2727C22.6611 24.5684 22.4211 24.8084 22.1254 24.8084C21.8297 24.8084 21.5897 24.5684 21.5897 24.2727V22.8508Z" fill="black"/>
</svg>
