<svg width="30" height="30" viewBox="0 0 30 30" fill="none" xmlns="http://www.w3.org/2000/svg">
<path d="M20.9783 12.2826H21.0337C21.2848 13.5228 22.3815 14.4565 23.6957 14.4565C25.1967 14.4565 26.413 13.2402 26.413 11.7391C26.413 11.6674 26.3967 11.5989 26.3913 11.5283C26.4011 11.4293 26.4109 11.3304 26.387 11.2217L24.6848 3.56087C24.5554 2.97826 23.9598 2.5 23.362 2.5H5.55109C4.95326 2.5 4.35761 2.97826 4.22826 3.56087L2.525 11.2217C2.50217 11.3304 2.51087 11.4293 2.52065 11.5283C2.5163 11.5989 2.5 11.6674 2.5 11.7391C2.5 13.2402 3.7163 14.4565 5.21739 14.4565C6.53152 14.4565 7.62826 13.5228 7.87935 12.2826H7.93478C7.93478 13.4826 8.9087 14.4565 10.1087 14.4565C11.3087 14.4565 12.2826 13.4826 12.2826 12.2826C12.2826 13.4826 13.2565 14.4565 14.4565 14.4565C15.6565 14.4565 16.6304 13.4826 16.6304 12.2826C16.6304 13.4826 17.6043 14.4565 18.8043 14.4565C20.0043 14.4565 20.9783 13.4826 20.9783 12.2826Z" fill="black"/>
<path d="M5.76089 19.8913V15.5435H3.58698V25.3261C3.58698 25.9261 4.07284 26.413 4.67393 26.413H16.8881C16.3783 25.4369 16.087 24.3293 16.087 23.1522C16.087 21.975 16.3794 20.8674 16.8881 19.8913H5.76089Z" fill="black"/>
<path d="M24.2391 18.8042H22.0652V22.0651H18.8043V24.239H22.0652V27.4999H24.2391V24.239H27.5V22.0651H24.2391V18.8042Z" fill="black"/>
</svg>
