<svg width="400" height="401" viewBox="0 0 400 401" fill="none" xmlns="http://www.w3.org/2000/svg">
<path d="M195.763 117.596C194.681 112.387 192.621 107.539 189.805 103.241L194.939 97.0349L183.959 86.0407L177.76 91.181C173.459 88.3616 168.626 86.2899 163.424 85.2154L162.668 77.2126H147.147L146.391 85.2154C141.189 86.2985 136.347 88.3616 132.054 91.181L125.856 86.0407L114.876 97.0349L120.01 103.241C117.194 107.539 115.125 112.387 114.052 117.596L106.059 118.353V133.894L114.052 134.651C115.134 139.86 117.194 144.708 120.01 149.006L114.876 155.212L125.856 166.207L132.054 161.066C136.347 163.894 141.189 165.957 146.391 167.032L147.147 175.035H162.668L163.424 167.032C168.626 165.949 173.468 163.886 177.76 161.058L183.959 166.198L194.939 155.204L189.805 148.997C192.629 144.691 194.69 139.851 195.763 134.642L203.755 133.886V118.344L195.763 117.596ZM175.915 126.124C175.915 137.745 166.506 147.167 154.899 147.167C143.292 147.167 133.883 137.745 133.883 126.124C133.883 114.502 143.292 105.081 154.899 105.081C166.506 105.081 175.915 114.502 175.915 126.124Z" fill="#E0E0E0"/>
<path d="M87.9451 167.96L88.5632 166.164C90.5892 160.318 87.4901 153.914 81.6524 151.886L77.3771 150.399C71.5394 148.37 65.1436 151.473 63.1176 157.318L62.4909 159.115L59.5034 158.075L52.3865 178.611L83.8158 189.536L90.9326 169L87.9451 167.96ZM73.0246 173.556L71.7798 177.141L69.5048 176.35L70.7496 172.765C70.2345 172.146 70.0198 171.304 70.3031 170.487C70.7324 169.25 72.0888 168.588 73.325 169.017C74.5698 169.447 75.2223 170.805 74.793 172.043C74.5012 172.86 73.8144 173.384 73.0246 173.556ZM83.232 166.327L67.2126 160.757L67.8393 158.96C68.9639 155.72 72.5095 154 75.746 155.126L80.0298 156.613C83.2663 157.74 84.9833 161.29 83.8587 164.53L83.232 166.327Z" fill="#E6E6E6"/>
<path d="M327.558 134.625L325.721 134.04C329.756 133.31 333.276 130.473 334.606 126.287C336.521 120.261 333.19 113.823 327.172 111.914C321.154 109.998 314.724 113.333 312.818 119.359C311.487 123.545 312.732 127.894 315.608 130.826L313.771 130.241C308.182 128.462 302.216 131.556 300.438 137.152L298.601 142.937L332.623 153.768L334.46 147.983C336.237 142.387 333.147 136.404 327.558 134.625Z" fill="#E6E6E6"/>
<path d="M200 340.919C282.843 340.919 350 336.563 350 331.189C350 325.815 282.843 321.458 200 321.458C117.157 321.458 50 325.815 50 331.189C50 336.563 117.157 340.919 200 340.919Z" fill="#F5F5F5"/>
<path d="M255.428 199.129C264.785 182.771 285.69 177.089 302.027 186.459L300.627 188.9L310.311 186.27L307.684 176.573L306.285 179.015C285.844 167.29 259.695 174.407 247.985 194.866C238.911 210.716 240.902 230.599 252.921 244.327L259.368 238.67C249.77 227.693 248.182 211.8 255.428 199.129Z" fill="#2B2B2B"/>
<path d="M317.66 188.462L311.118 194.015C320.381 204.957 321.815 220.671 314.689 233.126C305.332 249.484 284.428 255.166 268.091 245.797L269.49 243.355L259.806 245.986L262.433 255.682L263.832 253.241C284.273 264.966 310.423 257.848 322.133 237.39C331.044 221.805 329.241 202.146 317.66 188.462Z" fill="#2B2B2B"/>
<g opacity="0.6">
<path opacity="0.6" d="M255.428 199.129C264.785 182.771 285.69 177.089 302.027 186.459L300.627 188.9L310.311 186.27L307.684 176.573L306.285 179.015C285.844 167.29 259.695 174.407 247.985 194.866C238.911 210.716 240.902 230.599 252.921 244.327L259.368 238.67C249.77 227.693 248.182 211.8 255.428 199.129Z" fill="white"/>
<path opacity="0.6" d="M317.66 188.462L311.118 194.015C320.381 204.957 321.815 220.671 314.689 233.126C305.332 249.484 284.428 255.166 268.091 245.797L269.49 243.355L259.806 245.986L262.433 255.682L263.832 253.241C284.273 264.966 310.423 257.848 322.133 237.39C331.044 221.805 329.241 202.146 317.66 188.462Z" fill="white"/>
</g>
<path d="M267.206 156.82H251.642V108.983C251.642 90.6997 236.781 75.8201 218.521 75.8201C200.261 75.8201 185.401 90.6997 185.401 108.983V156.82H169.836V108.983C169.836 82.1037 191.676 60.2356 218.521 60.2356C245.366 60.2356 267.206 82.1037 267.206 108.983V156.82Z" fill="#2B2B2B"/>
<g opacity="0.3">
<path opacity="0.3" d="M267.206 156.82H251.642V108.983C251.642 90.6997 236.781 75.8201 218.521 75.8201C200.261 75.8201 185.401 90.6997 185.401 108.983V156.82H169.836V108.983C169.836 82.1037 191.676 60.2356 218.521 60.2356C245.366 60.2356 267.206 82.1037 267.206 108.983V156.82Z" fill="white"/>
</g>
<path d="M285.046 144.648V222.905C285.046 227.926 280.985 231.991 275.972 231.991H161.02C156.049 231.991 151.997 227.926 151.997 222.905V144.648C151.997 139.628 156.058 135.562 161.02 135.562H275.972C277.525 135.562 279.002 135.949 280.273 136.662C283.114 138.167 285.046 141.175 285.046 144.648Z" fill="#C8A443"/>
<path opacity="0.3" d="M280.273 136.662V213.338C280.273 218.358 276.212 222.398 271.198 222.398H156.247C154.718 222.398 153.259 222.012 151.997 221.324V144.648C151.997 139.628 156.058 135.562 161.02 135.562H275.972C277.525 135.562 279.011 135.94 280.273 136.662Z" fill="#F8DC65"/>
<path d="M235.64 173.952C235.64 164.307 227.973 156.485 218.521 156.485C209.069 156.485 201.403 164.307 201.403 173.952C201.403 181.456 206.065 187.791 212.563 190.267L211.671 211.06H225.364L223.32 190.628C230.429 188.505 235.64 181.886 235.64 173.952Z" fill="#2B2B2B"/>
<path d="M111.176 93.373L114.026 102.536L116.868 93.373H111.176Z" fill="#2B2B2B"/>
<path d="M137.326 96.1581H90.7182C86.6404 96.1581 83.3438 92.8486 83.3438 88.7742V78.8372C83.3438 74.7627 86.6489 71.4533 90.7182 71.4533H137.326C141.403 71.4533 144.7 74.7627 144.7 78.8372V88.7742C144.7 92.8572 141.403 96.1581 137.326 96.1581Z" fill="#2B2B2B"/>
<path d="M97.7663 83.7971L99.3802 84.7083L98.9596 85.4561L97.3199 84.4934L97.337 86.3415H96.5215L96.5386 84.4934L94.8989 85.4561L94.4783 84.7083L96.1094 83.7971L94.4783 82.9031L94.8989 82.1381L96.5386 83.1008L96.5215 81.2699H97.337L97.3199 83.1008L98.9596 82.1381L99.3802 82.9031L97.7663 83.7971Z" fill="white"/>
<path d="M103.467 83.7971L105.081 84.7083L104.66 85.4561L103.02 84.4934L103.037 86.3415H102.222L102.239 84.4934L100.599 85.4561L100.179 84.7083L101.81 83.7971L100.179 82.9031L100.599 82.1381L102.239 83.1008L102.222 81.2699H103.037L103.02 83.1008L104.66 82.1381L105.081 82.9031L103.467 83.7971Z" fill="white"/>
<path d="M109.167 83.7971L110.781 84.7083L110.36 85.4561L108.721 84.4934L108.738 86.3415H107.922L107.939 84.4934L106.3 85.4561L105.879 84.7083L107.51 83.7971L105.879 82.9031L106.3 82.1381L107.939 83.1008L107.922 81.2699H108.738L108.721 83.1008L110.36 82.1381L110.781 82.9031L109.167 83.7971Z" fill="white"/>
<path d="M114.867 83.7971L116.481 84.7083L116.061 85.4561L114.421 84.4934L114.438 86.3415H113.623L113.64 84.4934L112 85.4561L111.579 84.7083L113.21 83.7971L111.579 82.9031L112 82.1381L113.64 83.1008L113.623 81.2699H114.438L114.421 83.1008L116.061 82.1381L116.481 82.9031L114.867 83.7971Z" fill="white"/>
<path d="M120.568 83.7971L122.182 84.7083L121.761 85.4561L120.121 84.4934L120.139 86.3415H119.323L119.34 84.4934L117.7 85.4561L117.28 84.7083L118.911 83.7971L117.28 82.9031L117.7 82.1381L119.34 83.1008L119.323 81.2699H120.139L120.121 83.1008L121.761 82.1381L122.182 82.9031L120.568 83.7971Z" fill="white"/>
<path d="M126.259 83.7971L127.873 84.7083L127.453 85.4561L125.813 84.4934L125.83 86.3415H125.015L125.032 84.4934L123.392 85.4561L122.971 84.7083L124.603 83.7971L122.971 82.9031L123.392 82.1381L125.032 83.1008L125.015 81.2699H125.83L125.813 83.1008L127.453 82.1381L127.873 82.9031L126.259 83.7971Z" fill="white"/>
<path d="M131.96 83.7971L133.574 84.7083L133.153 85.4561L131.513 84.4934L131.531 86.3415H130.715L130.732 84.4934L129.093 85.4561L128.672 84.7083L130.303 83.7971L128.672 82.9031L129.093 82.1381L130.732 83.1008L130.715 81.2699H131.531L131.513 83.1008L133.153 82.1381L133.574 82.9031L131.96 83.7971Z" fill="white"/>
<path d="M151.267 157.404L156.504 154.009L150.606 150.381C150.606 150.381 146.116 153.691 147.919 155.934L151.267 157.404Z" fill="#FFA88C"/>
<path d="M159.191 148.439L153.061 147.038L150.606 150.381L156.504 154.009L159.191 148.439Z" fill="#FFA88C"/>
<path d="M129.702 146.384C131.35 149.032 133.119 151.791 134.913 154.37C135.806 155.668 136.733 156.923 137.66 158.101C138.579 159.27 139.592 160.387 140.407 161.075C140.605 161.238 140.776 161.367 140.862 161.427C140.948 161.496 140.905 161.444 140.57 161.444C140.399 161.487 140.493 161.573 140.837 161.436C141.532 161.161 142.596 160.198 143.506 159.132C144.442 158.049 145.344 156.794 146.194 155.505C146.614 154.851 147.043 154.198 147.438 153.536L147.971 152.616C147.979 152.599 147.996 152.573 147.996 152.591C148.005 152.573 147.979 152.677 147.979 152.719C147.971 152.771 147.953 152.926 147.953 153.029L147.962 153.201C148.039 153.278 147.765 153.046 148.297 154.232C148.924 155.393 150.649 155.315 150.641 155.204C150.847 155.161 151.07 155.075 151.267 154.954C151.473 154.834 151.645 154.679 151.791 154.525L151.877 154.421C151.92 154.361 151.954 154.31 151.988 154.25L151.997 154.224C152.006 154.198 152.006 154.198 151.988 154.207C151.98 154.215 151.954 154.241 151.928 154.267C151.834 154.387 151.722 154.55 151.619 154.714L147.833 153.098C147.893 152.874 147.945 152.659 148.031 152.41C148.056 152.341 148.074 152.281 148.108 152.195C148.125 152.161 148.142 152.109 148.177 152.04L148.228 151.946C148.28 151.86 148.331 151.783 148.383 151.705C148.417 151.662 148.357 151.731 148.477 151.585C148.623 151.422 148.803 151.267 149.009 151.146C149.215 151.026 149.439 150.94 149.653 150.889C149.653 150.777 151.379 150.708 152.014 151.869C152.555 153.055 152.28 152.831 152.357 152.917L152.366 153.106C152.366 153.218 152.349 153.381 152.34 153.45L152.289 153.734L152.229 154.009C152.109 154.55 152.006 154.963 151.877 155.41C151.636 156.278 151.379 157.121 151.07 157.954C150.46 159.622 149.722 161.264 148.76 162.889C147.765 164.505 146.666 166.155 144.545 167.633C143.489 168.356 141.953 169.026 140.115 168.974C138.956 168.914 138.124 168.588 137.463 168.295C136.81 167.986 136.287 167.659 135.814 167.341C133.977 166.043 132.741 164.711 131.505 163.37C130.294 162.029 129.213 160.654 128.165 159.27C126.096 156.476 124.251 153.674 122.508 150.648L129.702 146.384Z" fill="#FFA88C"/>
<path d="M127.101 142.611C130.509 143.754 137.506 159.588 137.506 159.588L125.676 165.218C125.676 165.218 123.263 152.771 123.71 148.783C124.147 144.785 127.101 142.611 127.101 142.611Z" fill="#F66D13"/>
<path opacity="0.7" d="M127.101 142.611C130.509 143.754 137.506 159.588 137.506 159.588L125.676 165.218C125.676 165.218 123.263 152.771 123.71 148.782C124.148 144.785 127.101 142.611 127.101 142.611Z" fill="white"/>
<path d="M141.008 326.281L134.982 327.991L133.548 318.596L132.775 313.576L138.802 311.865L139.832 318.596L141.008 326.281Z" fill="#FFA88C"/>
<path d="M106.36 326.77L100.144 327.596L100.084 318.596L100.041 313.008L106.265 312.192L106.308 318.596L106.36 326.77Z" fill="#FFA88C"/>
<path opacity="0.2" d="M106.265 312.192L106.308 318.596H100.084L100.041 313.008L106.265 312.192Z" fill="black"/>
<path opacity="0.2" d="M139.832 318.596H133.548L132.775 313.576L138.802 311.865L139.832 318.596Z" fill="black"/>
<path d="M140.931 325.335L134.089 325.154C133.831 325.146 133.608 325.318 133.539 325.567L132.106 331.086C131.96 331.662 132.372 332.212 132.964 332.22C135.437 332.246 139.008 332.195 142.107 332.28C145.739 332.375 148.039 332.203 152.297 332.315C154.873 332.384 155.68 329.813 154.607 329.547C149.739 328.343 146.563 328.584 142.416 325.868C141.978 325.567 141.472 325.352 140.931 325.335Z" fill="#2B2B2B"/>
<path d="M141.429 326.1C141.42 326.04 141.455 325.98 141.515 325.954C141.807 325.816 144.365 324.604 145.112 325.051C145.258 325.137 145.335 325.275 145.344 325.455C145.352 325.748 145.249 325.988 145.043 326.169C144.331 326.753 142.545 326.461 141.54 326.238C141.532 326.238 141.523 326.238 141.523 326.229C141.472 326.203 141.429 326.152 141.429 326.1ZM142.038 326.031C143.412 326.298 144.451 326.263 144.846 325.937C144.983 325.816 145.052 325.67 145.043 325.464C145.043 325.387 145.017 325.335 144.957 325.301C144.94 325.292 144.923 325.283 144.906 325.275C144.434 325.103 143.051 325.584 142.038 326.031Z" fill="#C8A443"/>
<path d="M141.48 326.195C141.438 326.16 141.42 326.109 141.42 326.057C141.429 325.988 141.661 324.312 142.476 323.676C142.725 323.487 143.009 323.409 143.309 323.444C143.713 323.495 143.824 323.702 143.85 323.874C143.936 324.579 142.39 325.894 141.626 326.212C141.592 326.229 141.549 326.229 141.515 326.212C141.506 326.212 141.498 326.203 141.48 326.195ZM143.275 323.745C143.052 323.719 142.854 323.77 142.665 323.917C142.124 324.329 141.867 325.335 141.772 325.816C142.562 325.378 143.618 324.338 143.567 323.917C143.567 323.891 143.558 323.822 143.429 323.779C143.386 323.762 143.343 323.753 143.275 323.745Z" fill="#C8A443"/>
<path d="M106.111 325.335L99.2685 325.154C99.011 325.146 98.7877 325.318 98.7191 325.567L97.2854 331.086C97.1394 331.662 97.5515 332.212 98.1439 332.22C100.616 332.246 104.188 332.195 107.287 332.28C110.918 332.375 113.219 332.203 117.477 332.315C120.053 332.384 120.86 329.813 119.786 329.547C114.919 328.343 111.742 328.584 107.596 325.868C107.149 325.567 106.652 325.352 106.111 325.335Z" fill="#2B2B2B"/>
<path d="M106.6 326.1C106.591 326.04 106.626 325.98 106.686 325.954C106.978 325.816 109.536 324.604 110.283 325.051C110.429 325.137 110.506 325.275 110.515 325.455C110.523 325.748 110.42 325.988 110.214 326.169C109.502 326.753 107.716 326.461 106.712 326.238C106.703 326.238 106.694 326.238 106.694 326.229C106.643 326.203 106.609 326.152 106.6 326.1ZM107.218 326.031C108.592 326.298 109.63 326.263 110.025 325.937C110.163 325.816 110.231 325.67 110.223 325.464C110.223 325.387 110.197 325.335 110.137 325.301C110.12 325.292 110.103 325.283 110.085 325.275C109.613 325.103 108.231 325.584 107.218 326.031Z" fill="#C8A443"/>
<path d="M106.66 326.195C106.617 326.16 106.6 326.109 106.6 326.057C106.609 325.988 106.84 324.312 107.656 323.676C107.905 323.487 108.188 323.409 108.489 323.444C108.892 323.495 109.004 323.702 109.03 323.874C109.115 324.579 107.57 325.894 106.806 326.212C106.772 326.229 106.729 326.229 106.695 326.212C106.686 326.212 106.669 326.203 106.66 326.195ZM108.454 323.745C108.231 323.719 108.034 323.77 107.845 323.917C107.304 324.329 107.047 325.335 106.952 325.816C107.742 325.378 108.798 324.338 108.746 323.917C108.746 323.891 108.738 323.822 108.609 323.779C108.566 323.762 108.515 323.753 108.454 323.745Z" fill="#C8A443"/>
<path d="M93.5424 189.983C90.2544 204.278 95.9033 316.679 95.9033 316.679H106.823L111.493 223L128.689 316.679L140.356 315.828C132.732 243.261 125.985 199.937 125.985 199.937L126.002 194.461L93.5424 189.983Z" fill="#2B2B2B"/>
<path opacity="0.2" d="M140.347 315.828L128.672 316.679L115.142 242.934L111.485 223L106.815 316.67H95.8948C95.8948 316.67 90.2373 204.261 93.5339 189.974L125.985 194.453L125.968 199.929C125.976 199.937 132.715 243.261 140.347 315.828Z" fill="white"/>
<path d="M92.8042 141.691C94.0233 148.593 94.5555 155.565 94.7186 162.089C94.8302 166.868 94.7444 171.407 94.5555 175.516C94.1263 185.143 93.1991 192.433 93.242 194.934C98.041 195.02 116.129 195.347 125.993 195.519C133.806 161.212 127.092 142.602 127.092 142.602C127.092 142.602 123.564 141.571 119.4 140.96C118.851 140.874 118.293 140.806 117.726 140.745C114.052 140.341 107.991 140.367 103.801 140.496C102.917 140.522 102.024 140.573 101.157 140.634C96.7361 140.969 92.8042 141.691 92.8042 141.691Z" fill="#C8A443"/>
<path d="M118.748 141.846C118.748 141.846 116.799 144.674 115.228 144.871C113.013 145.172 104.909 140.212 104.909 140.212C106.78 138.828 107.699 135.811 108.103 132.622C108.454 129.846 108.403 126.94 108.266 124.817L115.829 133.052C114.833 135.622 114.241 138.381 116.198 140.316C116.207 140.324 116.224 140.324 116.224 140.324C116.808 140.926 117.632 141.433 118.748 141.846Z" fill="#FFA88C"/>
<path opacity="0.2" d="M116.207 140.324C113.013 138.579 109.785 135.631 108.111 132.622C108.463 129.846 108.412 126.94 108.274 124.817L115.837 133.052C114.842 135.631 114.249 138.39 116.207 140.324Z" fill="black"/>
<path d="M124.62 117.425C125.255 119.814 124.645 124.637 121.426 122.917C118.207 121.198 123.521 113.316 124.62 117.425Z" fill="#2B2B2B"/>
<path d="M107.527 119.874C106.9 125.917 106.231 129.424 108.746 132.966C112.532 138.296 120.387 136.705 122.808 130.963C124.989 125.788 125.641 116.78 120.164 113.479C114.781 110.23 108.145 113.831 107.527 119.874Z" fill="#FFA88C"/>
<path d="M111.905 116.763L112.197 109.998C112.197 109.998 105.029 109.155 105.183 112.851C101.114 114.657 102.728 120.949 107.948 124.224C110.978 121.998 110.892 116.324 110.892 116.324C111.21 116.47 111.553 116.616 111.905 116.763Z" fill="#2B2B2B"/>
<path d="M104.394 124.473C104.617 126.089 105.57 127.447 106.66 128.238C108.3 129.424 109.828 128.118 109.974 126.21C110.102 124.49 109.407 121.8 107.475 121.37C105.57 120.957 104.145 122.625 104.394 124.473Z" fill="#FFA88C"/>
<path d="M116.344 122.96C116.267 123.45 116.456 123.88 116.773 123.932C117.091 123.983 117.417 123.631 117.494 123.141C117.572 122.651 117.383 122.221 117.065 122.169C116.747 122.118 116.421 122.47 116.344 122.96Z" fill="#2B2B2B"/>
<path d="M121.855 123.82C121.778 124.31 121.967 124.74 122.285 124.791C122.602 124.843 122.929 124.49 123.006 124C123.083 123.51 122.894 123.081 122.577 123.029C122.267 122.978 121.941 123.339 121.855 123.82Z" fill="#2B2B2B"/>
<path d="M120.061 123.794C120.061 123.794 120.748 126.674 121.769 128.187C120.791 128.814 119.383 128.221 119.383 128.221L120.061 123.794Z" fill="#E2886A"/>
<path d="M116.464 129.665C116.661 129.725 116.867 129.768 117.091 129.803C117.168 129.811 117.245 129.76 117.254 129.682C117.271 129.605 117.211 129.528 117.134 129.519C114.987 129.184 114.24 127.533 114.232 127.516C114.198 127.447 114.112 127.413 114.043 127.447C113.966 127.482 113.94 127.568 113.966 127.637C114 127.705 114.644 129.124 116.464 129.665Z" fill="#2B2B2B"/>
<path d="M114.936 120.914C115.03 120.94 115.142 120.923 115.219 120.846C116.163 119.952 117.202 120.175 117.211 120.175C117.365 120.21 117.52 120.115 117.563 119.96C117.597 119.806 117.503 119.651 117.348 119.616C117.297 119.599 115.983 119.324 114.816 120.433C114.695 120.545 114.695 120.725 114.807 120.846C114.85 120.88 114.893 120.906 114.936 120.914Z" fill="#2B2B2B"/>
<path d="M124.551 122.298C124.603 122.316 124.663 122.316 124.723 122.298C124.877 122.255 124.963 122.092 124.92 121.937C124.465 120.399 123.186 120.029 123.126 120.003C122.971 119.96 122.808 120.046 122.765 120.201C122.722 120.356 122.808 120.51 122.963 120.562C123.014 120.579 124.002 120.88 124.371 122.109C124.388 122.204 124.457 122.273 124.551 122.298Z" fill="#2B2B2B"/>
<path d="M105.192 112.851C105.192 112.851 101.483 109.164 114.069 109.499C126.663 109.834 128.749 116.9 122.98 118.533L122.714 117.382C122.714 117.382 119.752 119.118 116.258 117.708L117.168 117.141C117.177 117.149 108.583 118.026 105.192 112.851Z" fill="#2B2B2B"/>
<path d="M115.237 144.871C115.237 144.871 113.631 146.728 111.76 148.559C109.09 147.209 102.831 143.582 103.14 140.247C103.51 139.275 106.051 138.657 106.051 138.657C106.051 138.657 108.824 142.258 115.237 144.871Z" fill="#996C22"/>
<path d="M115.237 144.871C115.237 144.871 117.323 146.496 118.679 148.559C120.645 147.287 119.658 141.063 118.928 140.376C117.374 139.439 115.546 139.49 115.546 139.49C115.546 139.49 116.945 142.318 115.237 144.871Z" fill="#996C22"/>
<g opacity="0.5">
<g opacity="0.5">
<path opacity="0.5" d="M115.237 144.871C115.237 144.871 113.631 146.728 111.76 148.559C109.09 147.209 102.831 143.582 103.14 140.247C103.51 139.275 106.051 138.657 106.051 138.657C106.051 138.657 108.824 142.258 115.237 144.871Z" fill="#C8A443"/>
</g>
<g opacity="0.5">
<path opacity="0.5" d="M115.237 144.871C115.237 144.871 117.323 146.496 118.679 148.559C120.645 147.287 119.658 141.063 118.928 140.376C117.374 139.439 115.546 139.49 115.546 139.49C115.546 139.49 116.945 142.318 115.237 144.871Z" fill="#C8A443"/>
</g>
</g>
<path opacity="0.2" d="M115.142 242.934L111.485 223L112.189 212.453C112.189 212.453 117.202 230.745 115.142 242.934Z" fill="black"/>
<path d="M96.2295 150.794L90.5978 159.983C89.662 161.513 88.752 163.052 87.8678 164.573C86.9921 166.095 86.1251 167.642 85.4297 169.078C85.0863 169.791 84.8373 170.401 84.6055 171.089C84.3823 171.846 84.1505 172.654 83.9445 173.496C83.5324 175.181 83.1461 176.934 82.777 178.688C82.0215 182.204 81.2746 185.78 80.4505 189.33L76.3555 188.969C76.2095 185.247 76.2439 181.559 76.4585 177.837C76.5787 175.972 76.716 174.115 76.965 172.207C77.0938 171.252 77.2311 170.272 77.4457 169.258C77.6775 168.184 78.0295 167.058 78.4072 166.103C79.1455 164.178 79.9697 162.485 80.8196 160.791C81.6609 159.098 82.5537 157.465 83.4552 155.831C85.2752 152.582 87.1724 149.444 89.2242 146.316L96.2295 150.794Z" fill="#FFA88C"/>
<path d="M92.8041 141.691C88.194 142.886 79.9783 159.476 79.9783 159.476L89.7736 165.828L98.6075 157.241C98.6075 157.241 99.4917 153.132 98.0409 147.914C96.59 142.705 92.8041 141.691 92.8041 141.691Z" fill="#F66D13"/>
<path opacity="0.7" d="M92.8041 141.691C88.194 142.886 79.9783 159.476 79.9783 159.476L89.7736 165.828L98.6075 157.241C98.6075 157.241 99.4917 153.132 98.0409 147.914C96.59 142.705 92.8041 141.691 92.8041 141.691Z" fill="white"/>
<path d="M171.922 127.714L103.87 199.971L96.3066 192.828L164.359 120.571C165.896 118.937 168.471 118.86 170.102 120.399L171.751 121.955C173.39 123.502 173.459 126.081 171.922 127.714Z" fill="#2B2B2B"/>
<path opacity="0.6" d="M171.922 127.714L103.87 199.971L96.3066 192.828L164.359 120.571C165.896 118.937 168.471 118.86 170.102 120.399L171.751 121.955C173.39 123.502 173.459 126.081 171.922 127.714Z" fill="white"/>
<path opacity="0.2" d="M170.609 120.889L171.751 121.963C173.382 123.502 173.468 126.081 171.923 127.714L103.87 199.971L102.728 198.897L170.781 126.639C172.326 125.006 172.249 122.436 170.609 120.889Z" fill="black"/>
<path d="M148.898 148.869L161.509 160.783L163.149 159.038L161.518 157.499L164.11 154.74L163.157 153.837L167.055 149.702L168.008 150.605L170.437 148.018L172.077 149.565L173.777 147.76L172.815 146.857L175.262 144.261L173.348 142.456L174.936 140.763L177.812 143.47L180.731 140.376L168.12 128.462L148.898 148.869Z" fill="#2B2B2B"/>
<path opacity="0.6" d="M148.898 148.869L161.509 160.783L163.149 159.038L161.518 157.499L164.11 154.74L163.157 153.837L167.055 149.702L168.008 150.605L170.437 148.018L172.077 149.565L173.777 147.76L172.815 146.857L175.262 144.261L173.348 142.456L174.936 140.763L177.812 143.47L180.731 140.376L168.12 128.462L148.898 148.869Z" fill="white"/>
<g opacity="0.2">
<path opacity="0.6" d="M162.016 157.948L160.379 159.687L161.516 160.76L163.153 159.022L162.016 157.948Z" fill="black"/>
<path opacity="0.6" d="M168.008 150.605L167.055 149.702L163.157 153.837L164.119 154.74L161.518 157.499L160.376 156.424L162.977 153.665L162.024 152.762L165.913 148.619L166.874 149.53L169.304 146.943L170.446 148.018L168.008 150.605Z" fill="black"/>
<path opacity="0.6" d="M171.673 145.774L174.111 143.187L175.262 144.261L172.815 146.857L173.777 147.76L172.077 149.565L170.935 148.49L172.635 146.685L171.673 145.774Z" fill="black"/>
<path opacity="0.6" d="M173.793 139.698L172.197 141.392L173.333 142.466L174.929 140.771L173.793 139.698Z" fill="black"/>
<path opacity="0.6" d="M179.591 139.28L176.67 142.383L177.807 143.456L180.728 140.354L179.591 139.28Z" fill="black"/>
</g>
<path d="M171.442 129.562L150.58 151.714C150.237 152.083 149.662 152.101 149.293 151.748L141.721 144.596C141.352 144.252 141.334 143.677 141.686 143.307L162.548 121.155C162.891 120.786 163.466 120.768 163.835 121.121L171.407 128.273C171.768 128.616 171.785 129.192 171.442 129.562Z" fill="#2B2B2B"/>
<path d="M104.265 223.335C97.6031 230.41 86.477 230.736 79.4203 224.066L73.7199 218.685C66.6545 212.014 66.3283 200.874 72.9902 193.808C79.6521 186.734 90.7781 186.407 97.8349 193.078L103.535 198.459C110.601 205.129 110.927 216.269 104.265 223.335Z" fill="#272727"/>
<path d="M97.7148 217.146C94.401 220.662 88.8637 220.825 85.3439 217.507L79.9097 212.375C76.3985 209.057 76.2353 203.513 79.5491 199.989C82.8629 196.473 88.4001 196.31 91.92 199.628L97.3542 204.759C100.865 208.086 101.029 213.63 97.7148 217.146Z" fill="white"/>
<path opacity="0.5" d="M171.442 129.562L150.58 151.714C150.237 152.083 149.662 152.101 149.293 151.748L141.721 144.596C141.352 144.252 141.334 143.677 141.686 143.307L162.548 121.155C162.891 120.786 163.466 120.768 163.835 121.121L171.407 128.273C171.768 128.616 171.785 129.192 171.442 129.562Z" fill="white"/>
<g opacity="0.5">
<path opacity="0.5" d="M104.265 223.335C97.6031 230.41 86.477 230.736 79.4203 224.066L73.7199 218.685C66.6545 212.014 66.3283 200.874 72.9902 193.808C79.6521 186.734 90.7781 186.407 97.8349 193.078L103.535 198.459C110.601 205.129 110.927 216.269 104.265 223.335Z" fill="white"/>
<path opacity="0.5" d="M97.7148 217.146C94.401 220.662 88.8637 220.825 85.3439 217.507L79.9097 212.375C76.3985 209.057 76.2353 203.513 79.5491 199.989C82.8629 196.473 88.4001 196.31 91.92 199.628L97.3542 204.759C100.865 208.086 101.029 213.63 97.7148 217.146Z" fill="white"/>
</g>
<path opacity="0.2" d="M169.124 126.124L171.399 128.273C171.768 128.625 171.785 129.201 171.433 129.571L150.572 151.722C150.229 152.083 149.653 152.101 149.284 151.757L147.009 149.608C147.37 149.952 147.945 149.934 148.288 149.573L169.15 127.422C169.51 127.043 169.493 126.467 169.124 126.124Z" fill="black"/>
<g opacity="0.2">
<path opacity="0.2" d="M90.2115 198.02L91.9199 199.636C90.16 197.977 87.9022 197.186 85.6529 197.255C83.4209 197.324 81.206 198.244 79.5491 200.006C76.2353 203.522 76.3898 209.066 79.9096 212.384L78.2012 210.768C74.6814 207.45 74.5183 201.897 77.8321 198.381C79.489 196.619 81.7039 195.699 83.9445 195.639C86.1852 195.562 88.4516 196.361 90.2115 198.02Z" fill="black"/>
<path d="M101.835 196.843L103.544 198.459C110.601 205.12 110.927 216.269 104.265 223.335C97.6117 230.401 86.4771 230.728 79.4203 224.066L77.7119 222.45C84.7687 229.112 95.8947 228.785 102.557 221.719C109.218 214.653 108.892 203.513 101.835 196.843Z" fill="black"/>
</g>
<g opacity="0.2">
<path opacity="0.2" d="M90.2115 198.02L91.9199 199.636C90.16 197.977 87.9022 197.186 85.6529 197.255C83.4209 197.324 81.206 198.244 79.5491 200.006C76.2353 203.522 76.3898 209.066 79.9096 212.384L78.2012 210.768C74.6814 207.45 74.5183 201.897 77.8321 198.381C79.489 196.619 81.7039 195.699 83.9445 195.639C86.1852 195.562 88.4516 196.361 90.2115 198.02Z" fill="black"/>
<path opacity="0.2" d="M90.2115 198.02L91.9199 199.636C90.16 197.977 87.9022 197.186 85.6529 197.255C83.4209 197.324 81.206 198.244 79.5491 200.006C76.2353 203.522 76.3898 209.066 79.9096 212.384L78.2012 210.768C74.6814 207.45 74.5183 201.897 77.8321 198.381C79.489 196.619 81.7039 195.699 83.9445 195.639C86.1852 195.562 88.4516 196.361 90.2115 198.02Z" fill="black"/>
</g>
<path d="M77.1882 198.785L83.4981 197.204L82.7941 192.588L75.1021 194.143L77.1882 198.785Z" fill="#FFA88C"/>
<path d="M76.5701 188.109L75.1021 194.143L82.8027 192.588C82.8027 192.588 82.9057 187.181 80.0298 186.828L76.5701 188.109Z" fill="#FFA88C"/>
</svg>
