<svg width="200" height="200" viewBox="0 0 200 200" fill="none" xmlns="http://www.w3.org/2000/svg">
<path d="M102 81.8179V120.545H155.818C153.454 133 146.363 143.546 135.726 150.636L168.181 175.818C187.09 158.364 197.999 132.728 197.999 102.273C197.999 95.1826 197.363 88.3638 196.181 81.819L102 81.8179Z" fill="#4285F4"/>
<path d="M45.9568 119.033L38.6371 124.637L12.7275 144.818C29.182 177.454 62.9068 200 101.997 200C128.997 200 151.633 191.091 168.179 175.818L135.724 150.636C126.815 156.636 115.451 160.273 101.997 160.273C75.9976 160.273 53.9073 142.728 45.9976 119.091L45.9568 119.033Z" fill="#34A853"/>
<path d="M12.7276 55.1819C5.90978 68.6359 2.0011 83.8179 2.0011 99.9995C2.0011 116.181 5.90978 131.363 12.7276 144.817C12.7276 144.907 46.0009 118.999 46.0009 118.999C44.0009 112.999 42.8188 106.636 42.8188 99.9984C42.8188 93.3612 44.0009 86.998 46.0009 80.998L12.7276 55.1819Z" fill="#FBBC05"/>
<path d="M101.999 39.8182C116.727 39.8182 129.818 44.9089 140.272 54.7273L168.908 26.0913C151.545 9.90971 129 0 101.999 0C62.9089 0 29.182 22.4545 12.7275 55.1819L45.9998 81.0001C53.9084 57.3635 75.9996 39.8182 101.999 39.8182Z" fill="#EA4335"/>
</svg>
