<svg width="108" height="108" viewBox="0 0 108 108" fill="none" xmlns="http://www.w3.org/2000/svg">
<path fill-rule="evenodd" clip-rule="evenodd" d="M31.0077 11.6652C30.3887 11.0461 29.5477 10.6724 28.6133 10.6724C27.6789 10.6724 26.8379 11.0578 26.2189 11.6652C25.5998 12.2842 25.2261 13.1252 25.2261 14.0596V26.9662C25.2261 27.9006 25.6115 28.7415 26.2189 29.3606C26.8379 29.9796 27.6789 30.3534 28.6133 30.3534C29.5477 30.3534 30.3887 29.968 31.0077 29.3606C31.6268 28.7415 32.0006 27.9006 32.0006 26.9662V14.0596C32.0006 13.1252 31.6151 12.2842 31.0077 11.6652Z" fill="black"/>
<path fill-rule="evenodd" clip-rule="evenodd" d="M79.6085 10.6724C78.6857 10.6724 77.8331 11.0461 77.2257 11.6652C76.6184 12.2725 76.2329 13.1252 76.2329 14.0479V27.1998C76.2329 28.1225 76.6067 28.9751 77.2257 29.5825C77.8331 30.1899 78.6857 30.5753 79.6085 30.5753C80.5312 30.5753 81.3839 30.2016 81.9912 29.5825C82.5986 28.9751 82.984 28.1225 82.984 27.1998V14.0479C82.984 13.1252 82.6103 12.2725 81.9912 11.6652C81.3839 11.0578 80.5312 10.6724 79.6085 10.6724Z" fill="black"/>
<path fill-rule="evenodd" clip-rule="evenodd" d="M33.3203 22.0371H74.9133V27.1881C74.9133 28.4845 75.4389 29.6526 76.2916 30.5052C77.1442 31.3579 78.3122 31.8835 79.6087 31.8835C80.9052 31.8835 82.0732 31.3579 82.9259 30.5052C83.7785 29.6526 84.3041 28.4845 84.3041 27.1881V22.0371H92.2583C94.2556 22.0371 96.066 22.8547 97.3742 24.1629C98.6824 25.4711 99.5 27.2932 99.5 29.2788V37.7819H8.5V29.2788C8.5 27.2815 9.31761 25.4711 10.6258 24.1629C11.934 22.8547 13.7561 22.0371 15.7417 22.0371H23.8944V26.9544C23.8944 28.2509 24.42 29.4306 25.2727 30.2833C26.1253 31.1359 27.305 31.6615 28.6015 31.6615C29.898 31.6615 31.0777 31.1359 31.9304 30.2833C32.783 29.4306 33.3086 28.2509 33.3086 26.9544V22.0371H33.3203Z" fill="black"/>
<path fill-rule="evenodd" clip-rule="evenodd" d="M8.51172 39.1018V90.0856C8.51172 92.0829 9.32933 93.8934 10.6375 95.2015C11.9457 96.5097 13.7678 97.3273 15.7534 97.3273H92.2583C94.2556 97.3273 96.0661 96.5097 97.3742 95.2015C98.6824 93.8934 99.5 92.0713 99.5 90.0856V39.1018H8.51172ZM37.8055 75.9176C37.8055 77.9383 36.9645 78.9545 35.2943 78.9545C34.8738 78.9545 34.5 78.896 34.1613 78.7676C33.8226 78.6508 33.5072 78.4522 33.2152 78.1952C32.9232 77.9383 32.6546 77.6229 32.3976 77.2725C32.1406 76.9221 31.8954 76.56 31.6384 76.1979L22.8783 62.7658V76.2797C22.8783 77.1557 22.6797 77.8332 22.2709 78.277C21.8621 78.7208 21.3365 78.9545 20.6941 78.9545C20.0517 78.9545 19.5027 78.7208 19.1056 78.2653C18.7085 77.8098 18.5099 77.144 18.5099 76.2797V58.4908C18.5099 57.7316 18.5917 57.1476 18.7669 56.7155C18.9654 56.2483 19.2925 55.8628 19.7597 55.5591C20.2269 55.2554 20.7175 55.1153 21.2548 55.1153C21.6752 55.1153 22.0373 55.1854 22.3293 55.3255C22.633 55.4657 22.89 55.6409 23.1119 55.8745C23.3338 56.1081 23.5674 56.4001 23.801 56.7739C24.0346 57.1359 24.2799 57.5214 24.5369 57.9185L33.5189 71.5142V57.8017C33.5189 56.914 33.7058 56.2366 34.0912 55.7927C34.4767 55.3489 34.9906 55.127 35.6447 55.127C36.2988 55.127 36.8477 55.3489 37.2332 55.7927C37.6186 56.2366 37.8172 56.9023 37.8172 57.8017V75.941L37.8055 75.9176ZM60.138 78.0551C59.7642 78.3938 59.2152 78.569 58.4794 78.569H45.7831C44.7669 78.569 44.031 78.3471 43.5872 77.8916C43.1433 77.436 42.9214 76.7119 42.9214 75.7074V58.374C42.9214 57.7083 43.0265 57.1593 43.2251 56.7271C43.4237 56.295 43.739 55.9913 44.1595 55.8044C44.58 55.6058 45.129 55.5124 45.7831 55.5124H58.1173C58.8648 55.5124 59.4138 55.6759 59.7759 56.003C60.1379 56.33 60.3132 56.7622 60.3132 57.2995C60.3132 57.8368 60.1379 58.2806 59.7759 58.6076C59.4138 58.9347 58.8648 59.0982 58.1173 59.0982H47.5935V64.7631H57.288C58.0005 64.7631 58.5378 64.9266 58.8882 65.242C59.2386 65.5573 59.4138 65.9778 59.4138 66.5034C59.4138 67.029 59.2386 67.4495 58.8999 67.7882C58.5495 68.1153 58.0238 68.2788 57.2997 68.2788H47.6052V74.843H58.4911C59.2269 74.843 59.7759 75.0182 60.1496 75.357C60.5234 75.6957 60.7103 76.1512 60.7103 76.7119C60.7103 77.2725 60.5234 77.7047 60.1496 78.0434L60.138 78.0551ZM91.1838 59.2968L87.341 74.8197C87.084 75.8709 86.8621 76.6418 86.6869 77.1207C86.5117 77.6112 86.2197 78.0317 85.8109 78.4055C85.4021 78.7676 84.8181 78.9545 84.0589 78.9545C83.3464 78.9545 82.7741 78.7793 82.3419 78.4172C81.9097 78.0551 81.6177 77.658 81.4425 77.2141C81.2673 76.7703 81.0337 75.9994 80.73 74.9248L77.0041 61.0955L73.2314 74.9248C72.9394 75.976 72.7058 76.7235 72.5306 77.1791C72.3554 77.6346 72.0517 78.0434 71.6312 78.4055C71.2107 78.7676 70.6267 78.9428 69.9142 78.9428C69.3419 78.9428 68.863 78.8377 68.4893 78.6157C68.1155 78.4055 67.8118 78.1018 67.5899 77.7047C67.3563 77.3076 67.1694 76.8403 67.0292 76.3031C66.8774 75.7658 66.7489 75.2635 66.6321 74.7963L62.7893 59.2734C62.5557 58.374 62.4389 57.6849 62.4389 57.2177C62.4389 56.622 62.6492 56.1198 63.0697 55.711C63.4902 55.3022 64.0041 55.0919 64.6231 55.0919C65.4758 55.0919 66.0481 55.3606 66.3401 55.9095C66.6321 56.4585 66.8891 57.2411 67.111 58.2806L70.1362 71.7478L73.5234 59.1449C73.7687 58.1755 74.0023 57.4396 74.2008 56.9374C74.3994 56.4351 74.7265 56.003 75.1703 55.6292C75.6258 55.2671 76.2332 55.0802 77.0158 55.0802C77.7983 55.0802 78.4174 55.2671 78.8495 55.6526C79.2817 56.038 79.5854 56.4468 79.7489 56.9023C79.9124 57.3579 80.146 58.0937 80.4264 59.1332L83.837 71.7361L86.8621 58.2689C87.0023 57.5681 87.1424 57.0191 87.2826 56.622C87.4228 56.2249 87.633 55.8628 87.9601 55.5474C88.2754 55.2321 88.7426 55.0802 89.35 55.0802C89.9574 55.0802 90.4713 55.2788 90.9034 55.6876C91.3239 56.0964 91.5459 56.5987 91.5459 57.206C91.5459 57.6382 91.429 58.3273 91.1954 59.2617L91.1838 59.2968Z" fill="black"/>
</svg>
