<svg width="126" height="24" viewBox="0 0 126 24" fill="none" xmlns="http://www.w3.org/2000/svg">
<path d="M6.60616 10.8024C6.60616 11.1686 6.51788 11.5119 6.34131 11.8323C6.17129 12.1528 5.8999 12.4111 5.52716 12.6072C5.16095 12.8034 4.69665 12.9015 4.13426 12.9015H2.98659V15.5304H1.61331V8.68359H4.13426C4.66395 8.68359 5.11517 8.77514 5.48792 8.95824C5.86067 9.14135 6.13859 9.39311 6.3217 9.71355C6.51134 10.034 6.60616 10.3969 6.60616 10.8024ZM4.0754 11.7931C4.45469 11.7931 4.73589 11.7081 4.91899 11.538C5.10209 11.3615 5.19365 11.1163 5.19365 10.8024C5.19365 10.1353 4.8209 9.80183 4.0754 9.80183H2.98659V11.7931H4.0754ZM9.99422 15.6186C9.47107 15.6186 9.00023 15.5042 8.58171 15.2753C8.16318 15.0399 7.83294 14.7097 7.59098 14.2846C7.35556 13.8595 7.23785 13.3691 7.23785 12.8132C7.23785 12.2574 7.35883 11.7669 7.60079 11.3419C7.84929 10.9168 8.18607 10.5898 8.61113 10.3609C9.0362 10.1255 9.51031 10.0078 10.0335 10.0078C10.5566 10.0078 11.0307 10.1255 11.4558 10.3609C11.8808 10.5898 12.2144 10.9168 12.4563 11.3419C12.7048 11.7669 12.8291 12.2574 12.8291 12.8132C12.8291 13.3691 12.7015 13.8595 12.4465 14.2846C12.198 14.7097 11.858 15.0399 11.4264 15.2753C11.0013 15.5042 10.5239 15.6186 9.99422 15.6186ZM9.99422 14.4219C10.2427 14.4219 10.4749 14.3631 10.6907 14.2454C10.913 14.1211 11.0896 13.938 11.2204 13.6961C11.3512 13.4541 11.4165 13.1598 11.4165 12.8132C11.4165 12.2966 11.2792 11.901 11.0046 11.6263C10.7364 11.3451 10.4062 11.2045 10.0138 11.2045C9.62148 11.2045 9.29123 11.3451 9.02312 11.6263C8.76154 11.901 8.63075 12.2966 8.63075 12.8132C8.63075 13.3298 8.75827 13.7288 9.01331 14.0099C9.27489 14.2846 9.60186 14.4219 9.99422 14.4219ZM21.3698 10.0961L19.7808 15.5304H18.2996L17.3089 11.7342L16.3181 15.5304H14.8271L13.2282 10.0961H14.6211L15.5824 14.2356L16.6222 10.0961H18.074L19.0941 14.2257L20.0554 10.0961H21.3698ZM27.1646 12.6955C27.1646 12.8917 27.1515 13.0683 27.1253 13.2252H23.1526C23.1853 13.6176 23.3227 13.9249 23.5646 14.1473C23.8066 14.3696 24.1041 14.4808 24.4573 14.4808C24.9673 14.4808 25.3303 14.2617 25.5461 13.8236H27.0273C26.8703 14.3467 26.5695 14.7783 26.1248 15.1184C25.6801 15.4519 25.1341 15.6186 24.4867 15.6186C23.9635 15.6186 23.4927 15.5042 23.0742 15.2753C22.6622 15.0399 22.3385 14.7097 22.1031 14.2846C21.8742 13.8595 21.7597 13.3691 21.7597 12.8132C21.7597 12.2508 21.8742 11.7571 22.1031 11.3321C22.3319 10.907 22.6524 10.58 23.0644 10.3511C23.4763 10.1223 23.9505 10.0078 24.4867 10.0078C25.0033 10.0078 25.4643 10.119 25.8698 10.3413C26.2818 10.5637 26.5989 10.8808 26.8213 11.2928C27.0501 11.6983 27.1646 12.1658 27.1646 12.6955ZM25.7423 12.3032C25.7357 11.95 25.6082 11.6688 25.3597 11.4596C25.1112 11.2438 24.8071 11.1359 24.4475 11.1359C24.1074 11.1359 23.8197 11.2405 23.5842 11.4498C23.3554 11.6525 23.2148 11.937 23.1625 12.3032H25.7423ZM29.5402 10.9397C29.7168 10.652 29.9457 10.4263 30.2269 10.2629C30.5146 10.0994 30.8416 10.0176 31.2078 10.0176V11.4596H30.8448C30.4132 11.4596 30.0863 11.5609 29.8639 11.7637C29.6481 11.9664 29.5402 12.3195 29.5402 12.823V15.5304H28.167V10.0961H29.5402V10.9397ZM37.1845 12.6955C37.1845 12.8917 37.1714 13.0683 37.1452 13.2252H33.1725C33.2052 13.6176 33.3426 13.9249 33.5845 14.1473C33.8265 14.3696 34.124 14.4808 34.4771 14.4808C34.9872 14.4808 35.3502 14.2617 35.566 13.8236H37.0471C36.8902 14.3467 36.5894 14.7783 36.1447 15.1184C35.7 15.4519 35.154 15.6186 34.5066 15.6186C33.9834 15.6186 33.5126 15.5042 33.0941 15.2753C32.6821 15.0399 32.3584 14.7097 32.1229 14.2846C31.8941 13.8595 31.7796 13.3691 31.7796 12.8132C31.7796 12.2508 31.8941 11.7571 32.1229 11.3321C32.3518 10.907 32.6723 10.58 33.0842 10.3511C33.4962 10.1223 33.9703 10.0078 34.5066 10.0078C35.0232 10.0078 35.4842 10.119 35.8897 10.3413C36.3016 10.5637 36.6188 10.8808 36.8411 11.2928C37.07 11.6983 37.1845 12.1658 37.1845 12.6955ZM35.7621 12.3032C35.7556 11.95 35.6281 11.6688 35.3796 11.4596C35.1311 11.2438 34.827 11.1359 34.4673 11.1359C34.1273 11.1359 33.8395 11.2405 33.6041 11.4498C33.3752 11.6525 33.2347 11.937 33.1823 12.3032H35.7621ZM37.8337 12.7936C37.8337 12.2443 37.9416 11.7571 38.1574 11.3321C38.3797 10.907 38.6806 10.58 39.0598 10.3511C39.4391 10.1223 39.8609 10.0078 40.3252 10.0078C40.6784 10.0078 41.0151 10.0863 41.3356 10.2432C41.656 10.3936 41.911 10.5964 42.1007 10.8514V8.2716H43.4936V15.5304H42.1007V14.726C41.9307 14.9941 41.692 15.2099 41.3846 15.3734C41.0773 15.5369 40.7209 15.6186 40.3154 15.6186C39.8577 15.6186 39.4391 15.5009 39.0598 15.2655C38.6806 15.0301 38.3797 14.6999 38.1574 14.2748C37.9416 13.8432 37.8337 13.3495 37.8337 12.7936ZM42.1105 12.8132C42.1105 12.4797 42.0451 12.1953 41.9143 11.9598C41.7835 11.7179 41.607 11.5348 41.3846 11.4105C41.1623 11.2797 40.9236 11.2143 40.6685 11.2143C40.4135 11.2143 40.1781 11.2765 39.9623 11.4007C39.7465 11.525 39.5699 11.7081 39.4326 11.95C39.3018 12.1854 39.2364 12.4666 39.2364 12.7936C39.2364 13.1206 39.3018 13.4083 39.4326 13.6568C39.5699 13.8988 39.7465 14.0852 39.9623 14.2159C40.1846 14.3467 40.42 14.4121 40.6685 14.4121C40.9236 14.4121 41.1623 14.35 41.3846 14.2257C41.607 14.095 41.7835 13.9119 41.9143 13.6764C42.0451 13.4345 42.1105 13.1467 42.1105 12.8132ZM51.0566 12.0187C51.4424 12.0906 51.7596 12.2835 52.0081 12.5974C52.2566 12.9113 52.3808 13.271 52.3808 13.6764C52.3808 14.0426 52.2893 14.3663 52.1062 14.6475C51.9296 14.9222 51.6713 15.138 51.3312 15.2949C50.9912 15.4519 50.589 15.5304 50.1247 15.5304H47.1722V8.68359H49.9972C50.4615 8.68359 50.8604 8.75879 51.1939 8.9092C51.534 9.0596 51.789 9.26886 51.959 9.53698C52.1356 9.8051 52.2239 10.1092 52.2239 10.4492C52.2239 10.8481 52.116 11.1816 51.9002 11.4498C51.6909 11.7179 51.4097 11.9075 51.0566 12.0187ZM48.5454 11.5086H49.801C50.128 11.5086 50.3797 11.4367 50.5563 11.2928C50.7329 11.1424 50.8212 10.9299 50.8212 10.6552C50.8212 10.3806 50.7329 10.168 50.5563 10.0176C50.3797 9.86722 50.128 9.79202 49.801 9.79202H48.5454V11.5086ZM49.9285 14.4121C50.262 14.4121 50.5203 14.3337 50.7035 14.1767C50.8931 14.0198 50.9879 13.7974 50.9879 13.5097C50.9879 13.2154 50.8898 12.9865 50.6936 12.823C50.4975 12.653 50.2326 12.568 49.8991 12.568H48.5454V14.4121H49.9285ZM58.6741 10.0961L55.3096 18.1004H53.848L55.0251 15.393L52.8475 10.0961H54.3875L55.7903 13.8922L57.2126 10.0961H58.6741Z" fill="black"/>
<path d="M61.609 11.1452H61.6733C62.4072 11.1452 62.7548 10.6946 62.7548 10.038C62.7548 9.52299 62.7291 9.02088 62.6904 8.53165C62.6647 8.02954 62.6261 7.51456 62.6261 6.96095C62.6389 5.44175 63.1539 4.84952 64.48 4.84952H64.7761C64.8534 4.84952 64.9049 4.90102 64.9049 4.97826V5.54475C64.9049 5.62199 64.8534 5.67349 64.7761 5.67349H64.5315C63.8878 5.67349 63.5917 5.87948 63.5917 7.01245C63.5917 7.47593 63.6174 7.90079 63.6303 8.35141C63.656 8.82776 63.6818 9.317 63.6818 9.87061C63.6818 10.4757 63.6045 11.1066 63.1153 11.4413C63.6045 11.7889 63.6818 12.4455 63.6818 13.012C63.6818 13.5656 63.656 14.0548 63.6303 14.5312C63.6045 14.9818 63.5917 15.4067 63.5917 15.8702C63.5917 17.0031 63.9006 17.2091 64.5315 17.2091H64.7761C64.8534 17.2091 64.9049 17.2606 64.9049 17.3379V17.9043C64.9049 17.9816 64.8534 18.0331 64.7761 18.0331H64.48C63.1539 18.0331 62.6389 17.4409 62.6389 15.9345C62.6389 15.3809 62.6647 14.8531 62.7033 14.351C62.7291 13.8617 62.7677 13.3854 62.7677 12.8833C62.7677 12.188 62.4329 11.7503 61.6862 11.7503H61.609C61.5317 11.7503 61.4802 11.6988 61.4802 11.6216V11.2739C61.4802 11.1967 61.5446 11.1452 61.609 11.1452Z" fill="#1E1E1C"/>
<path d="M125.325 11.1452H125.261C124.527 11.1452 124.18 10.6946 124.18 10.0379C124.18 9.52297 124.205 9.02086 124.244 8.53162C124.27 8.02951 124.308 7.51453 124.308 6.96092C124.308 5.4546 123.793 4.86237 122.467 4.86237H122.171C122.094 4.86237 122.042 4.91386 122.042 4.99111V5.55759C122.042 5.63484 122.094 5.68634 122.171 5.68634H122.416C123.059 5.68634 123.356 5.89233 123.356 7.0253C123.356 7.48878 123.33 7.91364 123.317 8.36425C123.291 8.84061 123.265 9.32985 123.265 9.88345C123.265 10.4886 123.343 11.1194 123.832 11.4542C123.343 11.8018 123.265 12.4584 123.265 13.0249C123.265 13.5785 123.291 14.0677 123.317 14.5441C123.343 14.9947 123.356 15.4195 123.356 15.883C123.356 17.016 123.047 17.222 122.416 17.222H122.171C122.094 17.222 122.042 17.2735 122.042 17.3507V17.9172C122.042 17.9944 122.094 18.0459 122.171 18.0459H122.467C123.793 18.0459 124.308 17.4537 124.308 15.9474C124.308 15.3938 124.283 14.8659 124.244 14.3638C124.218 13.8746 124.18 13.3982 124.18 12.8961C124.18 12.2009 124.514 11.7631 125.261 11.7631H125.325C125.403 11.7631 125.454 11.7116 125.454 11.6344V11.2868C125.454 11.1967 125.403 11.1452 125.325 11.1452Z" fill="#1E1E1C"/>
<path d="M72.7713 9.8705C72.7713 10.7073 72.3722 11.3382 71.5611 11.7373C72.1147 11.8918 72.5267 12.1751 72.797 12.5742C73.0674 12.9733 73.209 13.4496 73.209 14.0032C73.209 14.4024 73.1318 14.7628 72.9901 15.0847C72.8357 15.4066 72.6297 15.6769 72.3593 15.8958C72.0889 16.1147 71.7542 16.282 71.368 16.4108C70.9817 16.5267 70.544 16.591 70.0805 16.591H65.7289V7.66895H69.9389C71.8314 7.66895 72.7713 8.4028 72.7713 9.8705ZM70.8787 10.2181C70.8787 9.53576 70.441 9.18815 69.5526 9.18815H67.6987V11.2738H69.6943C70.4796 11.2738 70.8787 10.9262 70.8787 10.2181ZM71.2392 13.8874C71.2392 13.0376 70.7757 12.6128 69.8359 12.6128H67.6987V15.059H69.8101C70.7628 15.059 71.2392 14.6727 71.2392 13.8874Z" fill="#FDCF00"/>
<path d="M76.0157 11.3253H76.0414C76.2217 10.9004 76.492 10.5657 76.8654 10.3211C77.2388 10.0764 77.6507 9.94769 78.1014 9.94769C78.2301 9.94769 78.3588 9.97344 78.4876 10.0121V11.66C78.2816 11.6214 78.0627 11.5956 77.8567 11.5956C76.6851 11.5956 76.1058 12.2909 76.1058 13.6684V16.5781H74.3291V10.1279H76.0157V11.3253Z" fill="#FDCF00"/>
<path d="M79.3245 16.0761C78.9254 15.7284 78.7323 15.265 78.7323 14.647C78.7323 14.3509 78.7709 14.0805 78.861 13.8488C78.9512 13.617 79.0928 13.4239 79.2988 13.2565C79.5048 13.0892 79.7751 12.9604 80.1228 12.8445C80.4704 12.7415 80.8824 12.6643 81.3845 12.6128C81.745 12.5742 82.0411 12.5355 82.2599 12.4841C82.4917 12.4326 82.6462 12.3811 82.7363 12.3167C82.9294 12.2008 83.0195 12.0334 83.0195 11.8017C83.0195 11.5056 82.9294 11.2996 82.762 11.158C82.5818 11.0163 82.2986 10.952 81.8866 10.952C81.5132 10.952 81.23 11.0292 81.0368 11.1708C80.8437 11.3253 80.7279 11.57 80.7021 11.9176H78.9254C78.964 11.2095 79.2602 10.6687 79.8009 10.3082C80.3416 9.94776 81.0626 9.75464 81.9767 9.75464C83.8564 9.76751 84.7962 10.3726 84.7962 11.5957V15.0203C84.7962 15.6383 84.8735 16.1018 85.0151 16.3979H83.2127C83.174 16.2949 83.1483 16.1919 83.1354 16.0889C83.1097 15.9859 83.0968 15.8829 83.0968 15.7671C82.5689 16.2949 81.8479 16.5653 80.921 16.5653C80.2515 16.591 79.7236 16.4108 79.3245 16.0761ZM80.6892 15.0461C80.818 15.1748 80.9725 15.265 81.1527 15.3293C81.3458 15.3937 81.539 15.4195 81.7578 15.3937C81.9767 15.3808 82.1698 15.3165 82.3629 15.2006C82.5561 15.0976 82.7105 14.9302 82.8264 14.7242C82.9552 14.5182 83.0195 14.2479 83.0195 13.926V13.2437C82.865 13.3981 82.5174 13.5011 81.9509 13.5526C81.4488 13.617 81.0883 13.7071 80.8566 13.8616C80.6249 14.0033 80.509 14.2479 80.509 14.5697C80.509 14.7629 80.5734 14.9173 80.6892 15.0461Z" fill="#FDCF00"/>
<path d="M88.0019 16.5909H86.2252V10.1279H88.0019V16.5909ZM88.3367 7.93918C88.3367 8.60866 87.7959 9.16227 87.1136 9.16227C86.4441 9.16227 85.8905 8.62153 85.8905 7.93918C85.8905 7.25683 86.4312 6.71609 87.1136 6.71609C87.7831 6.71609 88.3367 7.25683 88.3367 7.93918Z" fill="#FDCF00"/>
<path d="M91.079 11.0293H91.1177C91.5554 10.3083 92.2249 9.96069 93.1003 9.96069C93.9243 9.96069 94.5165 10.1667 94.8899 10.5787C95.2633 10.9907 95.4435 11.6601 95.4435 12.5614V16.5782H93.6668V12.9218C93.6668 12.394 93.5896 11.9949 93.4222 11.7374C93.2548 11.4799 92.9587 11.3511 92.5339 11.3511C92.0446 11.3511 91.697 11.4928 91.491 11.776C91.2721 12.0593 91.1691 12.5485 91.1691 13.218V16.5782H89.3925V10.1281H91.079V11.0293Z" fill="#FDCF00"/>
<path d="M100.799 7.29584H102.615V16.411H100.799V14.1322L100.091 13.4499L98.2759 16.3982H96.0743L98.8424 12.2268L96.3705 9.80638H98.5205L100.799 12.1753V7.29584Z" fill="black"/>
<path d="M104.842 16.1919C104.327 15.9344 103.928 15.5353 103.619 14.9816C103.31 14.4409 103.155 13.8229 103.155 13.102C103.155 12.7672 103.194 12.4454 103.271 12.1364C103.349 11.8274 103.464 11.5313 103.619 11.2738C103.773 11.0034 103.954 10.7717 104.16 10.5528C104.378 10.3339 104.61 10.1666 104.868 10.0249C105.383 9.75457 105.936 9.61295 106.529 9.61295C107.147 9.61295 107.7 9.75457 108.189 10.0378C108.679 10.321 109.065 10.7459 109.335 11.2995C109.606 11.8402 109.747 12.4711 109.747 13.205V13.3337C109.747 13.3852 109.747 13.4496 109.734 13.5268H104.971C104.984 14.0676 105.125 14.4795 105.383 14.7628C105.64 15.046 106.039 15.2005 106.58 15.2005C106.915 15.2005 107.211 15.1233 107.494 14.9559C107.764 14.7885 107.945 14.5825 108.022 14.3508H109.618C109.142 15.8442 108.112 16.5781 106.529 16.5652C105.923 16.591 105.357 16.4622 104.842 16.1919ZM107.456 11.3253C107.237 11.1064 106.902 10.9905 106.464 10.9905C106.026 10.9905 105.679 11.1193 105.421 11.3639C105.164 11.6085 105.022 11.9561 104.971 12.3939H107.919C107.842 11.9046 107.687 11.5441 107.456 11.3253Z" fill="black"/>
<path d="M111.91 16.1276C111.575 15.883 111.395 15.471 111.395 14.8916V11.0293H110.301V9.81905H111.395V7.83636H113.21V9.81905H114.537V11.0293H113.21V14.2994C113.21 14.6084 113.262 14.8144 113.365 14.9174C113.468 15.0204 113.674 15.0719 113.983 15.0719C114.228 15.0719 114.408 15.059 114.549 15.0204V16.4366C114.421 16.4495 114.266 16.4623 114.086 16.4752C113.906 16.4881 113.7 16.4881 113.468 16.4881C112.773 16.4881 112.245 16.3593 111.91 16.1276Z" fill="black"/>
<path d="M115.927 15.9728C115.386 15.5609 115.116 14.9944 115.103 14.2734H116.828C116.828 14.6081 116.957 14.8785 117.214 15.0845C117.472 15.2905 117.807 15.3806 118.219 15.3806C118.553 15.3806 118.837 15.3034 119.068 15.1618C119.3 15.0073 119.403 14.8013 119.403 14.5438C119.403 14.3764 119.339 14.2348 119.197 14.1189C119.055 14.003 118.862 13.9129 118.605 13.8228C118.476 13.7842 118.322 13.7327 118.116 13.6812C117.922 13.6297 117.691 13.5782 117.407 13.5267C116.97 13.4366 116.596 13.3207 116.262 13.1791C115.94 13.0374 115.682 12.8443 115.515 12.6126C115.335 12.3808 115.245 12.0976 115.245 11.7629C115.245 11.3251 115.348 10.9518 115.554 10.6299C115.76 10.308 116.081 10.0634 116.519 9.89605C116.931 9.72868 117.459 9.65143 118.116 9.65143C119.004 9.65143 119.699 9.83167 120.201 10.1922C120.69 10.5526 120.974 11.0676 121.025 11.7629H119.3C119.274 11.4539 119.158 11.2221 118.952 11.0805C118.746 10.9389 118.45 10.8745 118.064 10.8745C117.395 10.8745 117.06 11.0805 117.06 11.4925C117.06 11.647 117.111 11.7757 117.227 11.8787C117.343 11.9817 117.51 12.0719 117.742 12.1491C117.948 12.2263 118.193 12.2907 118.476 12.3422C119.287 12.5096 119.879 12.6641 120.227 12.8443C120.562 13.0117 120.819 13.2177 120.974 13.4494C121.128 13.6812 121.205 13.9773 121.205 14.3378C121.205 15.0845 120.935 15.651 120.394 16.0501C119.854 16.4363 119.12 16.6423 118.193 16.6423C117.214 16.5908 116.455 16.3848 115.927 15.9728Z" fill="black"/>
</svg>
