<svg width="400" height="401" viewBox="0 0 400 401" fill="none" xmlns="http://www.w3.org/2000/svg">
<path d="M372.049 297.619H27.9417V297.787H372.049V297.619Z" fill="#ECECEC"/>
<path d="M86.839 304.174H64.0469V304.342H86.839V304.174Z" fill="#ECECEC"/>
<path d="M177.901 302.31H145.727V302.478H177.901V302.31Z" fill="#ECECEC"/>
<path d="M118.783 309.492H105.576V309.66H118.783V309.492Z" fill="#ECECEC"/>
<path d="M263.681 306.506H242.894V306.674H263.681V306.506Z" fill="#ECECEC"/>
<path d="M283.107 306.506H269.812V306.674H283.107V306.506Z" fill="#ECECEC"/>
<path d="M337.578 309.413H297.277V309.58H337.578V309.413Z" fill="#ECECEC"/>
<path d="M191.064 266.929H58.1634C55.999 266.929 54.2322 265.171 54.2322 262.998V76.1999C54.2322 74.0356 55.9902 72.2687 58.1634 72.2687H191.055C193.22 72.2687 194.987 74.0267 194.987 76.1999V263.007C194.987 265.171 193.229 266.938 191.055 266.938L191.064 266.929ZM58.1634 72.4366C56.0962 72.4366 54.4089 74.1239 54.4089 76.1911V262.998C54.4089 265.065 56.0962 266.752 58.1634 266.752H191.055C193.123 266.752 194.81 265.065 194.81 262.998V76.1999C194.81 74.1327 193.123 72.4454 191.055 72.4454H58.1634V72.4366Z" fill="#ECECEC"/>
<path d="M339.919 266.929H207.027C204.863 266.929 203.096 265.171 203.096 262.998V76.1999C203.096 74.0356 204.854 72.2687 207.027 72.2687H339.919C342.084 72.2687 343.851 74.0267 343.851 76.1999V263.007C343.851 265.171 342.093 266.938 339.919 266.938V266.929ZM207.027 72.4366C204.96 72.4366 203.273 74.1239 203.273 76.1911V262.998C203.273 265.065 204.96 266.752 207.027 266.752H339.919C341.987 266.752 343.674 265.065 343.674 262.998V76.1999C343.674 74.1327 341.987 72.4454 339.919 72.4454H207.027V72.4366Z" fill="#ECECEC"/>
<path d="M320.891 89.2922H268.363V286.797H320.891V89.2922Z" fill="#E7E7E7"/>
<path d="M324.098 89.2922H271.57V286.797H324.098V89.2922Z" fill="#F5F5F5"/>
<path d="M318.338 281.541V94.5397H277.33V281.541H318.338Z" fill="white"/>
<path d="M318.338 281.55V94.5485H315.909V281.55H318.338Z" fill="#E7E7E7"/>
<path d="M321.712 250.029H273.955V257.079H321.712V250.029Z" fill="#F5F5F5"/>
<path d="M321.712 103.798H273.955V110.847H321.712V103.798Z" fill="#F5F5F5"/>
<path d="M124.296 89.2922H71.7681V286.797H124.296V89.2922Z" fill="#E7E7E7"/>
<path d="M127.503 89.2922H74.9749V286.797H127.503V89.2922Z" fill="#F5F5F5"/>
<path d="M121.743 281.541L121.743 94.5397H80.7348L80.7348 281.541H121.743Z" fill="white"/>
<path d="M121.743 281.55L121.743 94.5485H119.314L119.314 281.55H121.743Z" fill="#E7E7E7"/>
<path d="M125.117 250.029H77.3601V257.079H125.117V250.029Z" fill="#F5F5F5"/>
<path d="M125.117 103.798H77.3601V110.847H125.117V103.798Z" fill="#F5F5F5"/>
<path d="M148.802 204.251H253.672V104.46L148.802 104.46V204.251Z" fill="#F5F5F5"/>
<path d="M148.811 104.46H146.319V204.251H148.811V104.46Z" fill="#F0F0F0"/>
<path d="M249.546 200.125V108.595H152.936V200.125H249.546Z" fill="#FAFAFA"/>
<path d="M152.936 154.011C184.801 150.345 216.657 157.677 248.521 154.011V152.174C216.657 155.84 184.801 148.507 152.936 152.174V154.011Z" fill="#F0F0F0"/>
<path d="M249.555 200.117V108.586H248.522V200.117H249.555Z" fill="#F0F0F0"/>
<path d="M122.75 277.274C122.361 277.274 121.963 277.15 121.628 276.885C120.85 276.267 120.718 275.136 121.336 274.359C122.352 273.078 119.879 270.092 117.255 266.938C111.663 260.215 103.226 250.056 114.755 238.413C122.034 231.063 121.875 228.015 121.469 227.052C120.744 225.329 117.343 224.941 116.239 224.967H116.23C115.241 224.967 114.437 224.172 114.428 223.183C114.428 222.193 115.214 221.38 116.204 221.372C116.893 221.354 122.988 221.416 124.782 225.647C126.328 229.305 123.889 234.314 117.317 240.948C108.085 250.277 114.428 257.91 120.029 264.641C123.615 268.952 126.999 273.025 124.163 276.603C123.81 277.053 123.28 277.283 122.75 277.283V277.274Z" fill="#E1E1E1"/>
<path d="M96.7065 261.055H135.1L126.601 297.619H105.205L96.7065 261.055Z" fill="#F5F5F5"/>
<path d="M96.3091 262.689H135.506C136.407 262.689 137.141 261.956 137.141 261.054C137.141 260.153 136.407 259.42 135.506 259.42H96.3091C95.408 259.42 94.6748 260.153 94.6748 261.054C94.6748 261.956 95.408 262.689 96.3091 262.689Z" fill="#ECECEC"/>
<path d="M129.393 222.538L93.1113 234.526C93.1113 234.526 79.9749 225.647 89.5158 221.654C84.975 213.907 84.4008 198.809 99.0036 194.427C113.615 190.046 112.591 211.389 112.591 211.389C112.591 211.389 130.603 192.334 129.764 214.967C133.192 214.021 147.768 217.467 129.384 222.538H129.393Z" fill="#E1E1E1"/>
<path d="M99.1186 238.943H143.113C143.113 238.943 154.712 230.753 142.565 231.16C144.977 220.709 138.174 209.269 122.829 208.827C107.484 208.385 112.873 225.418 112.873 225.418C112.873 225.418 87.0865 219.269 94.887 231.972C82.104 232.591 88.7119 235.859 99.1186 238.934V238.943Z" fill="#E7E7E7"/>
<path d="M134.243 241.31L99.6839 242.556C97.9878 242.618 96.3181 241.778 95.1344 240.109C93.8269 238.262 93.4912 235.957 99.0126 235.276C97.2457 229.808 101.15 220.294 115.435 219.561C129.72 218.827 122.556 232.026 122.556 232.026C122.556 232.026 144.173 222.591 136.796 236.619C140.127 236.496 152.088 240.656 134.234 241.301L134.243 241.31Z" fill="#E1E1E1"/>
<path d="M199.996 328.706C273.692 328.706 333.435 325.218 333.435 320.915C333.435 316.611 273.692 313.123 199.996 313.123C126.299 313.123 66.5559 316.611 66.5559 320.915C66.5559 325.218 126.299 328.706 199.996 328.706Z" fill="#F5F5F5"/>
<path d="M137.308 130.265C131.716 129.479 126.893 144.656 131.716 148.322C136.531 151.988 147.3 153.967 156.911 149.718C163.908 146.626 162.636 139.576 157.768 131.714C153.846 125.38 145.241 118.692 137.308 130.265Z" fill="#2B2B2B"/>
<path d="M161.523 163.587C161.841 167.395 162.07 171.211 162.274 175.028C162.503 178.844 162.653 182.66 162.804 186.485L162.698 185.894C162.592 185.576 162.494 185.478 162.459 185.434C162.415 185.39 162.433 185.425 162.468 185.47C162.547 185.558 162.724 185.708 162.927 185.858C163.343 186.167 163.881 186.477 164.438 186.777C165.569 187.369 166.797 187.943 168.042 188.482C169.297 189.03 170.578 189.551 171.859 190.072L175.737 191.618L174.986 194.595C173.537 194.41 172.141 194.153 170.728 193.88C169.314 193.597 167.919 193.261 166.505 192.881C165.101 192.484 163.696 192.069 162.265 191.486C161.549 191.194 160.825 190.876 160.047 190.434C159.659 190.213 159.252 189.957 158.802 189.577C158.581 189.383 158.342 189.171 158.086 188.853C157.839 188.535 157.547 188.137 157.335 187.475L157.265 187.254L157.229 186.883C156.849 183.075 156.47 179.268 156.178 175.452C155.851 171.635 155.56 167.819 155.348 164.003L161.532 163.587H161.523Z" fill="#FFA88C"/>
<path d="M161.09 158.472C162.424 161.379 163.175 169.171 163.334 180.31C159.57 181.052 156.629 183.641 156.629 183.641L153.616 166.14L155.295 163.225C156.205 160.69 158.431 158.861 161.099 158.472H161.09Z" fill="#C8A443"/>
<path opacity="0.1" d="M161.09 158.472C162.424 161.379 163.175 169.171 163.334 180.31C159.57 181.052 156.629 183.641 156.629 183.641L153.616 166.14L155.295 163.225C156.205 160.69 158.431 158.861 161.099 158.472H161.09Z" fill="#C8A443"/>
<path d="M174.597 191.194L180.331 190.894L176.841 195.505C176.841 195.505 173.228 194.975 172.424 192.758L174.597 191.194Z" fill="#FFA88C"/>
<path d="M182.972 195.152L181.983 196.318C181.47 196.927 180.613 197.131 179.889 196.813L176.85 195.505L180.34 190.894L182.628 192.501C183.502 193.111 183.661 194.339 182.972 195.152Z" fill="#FFA88C"/>
<path d="M160.825 160.31C160.913 164.435 160.339 173.013 157.441 190.832H134.34C134.729 181.432 135.188 175.54 130.692 156.246C130.692 156.246 135.082 155.283 140.056 155.045C143.943 154.859 147.132 154.736 150.542 155.045C152.804 155.248 155.215 155.619 157.053 155.928C159.199 156.29 160.772 158.128 160.825 160.31Z" fill="#2B2B2B"/>
<path d="M143.386 166.821C143.342 166.821 143.298 166.803 143.263 166.768C141.478 164.753 138.28 159.471 138.245 156.096C138.245 156.008 138.316 155.937 138.404 155.937C138.475 155.928 138.563 156.008 138.563 156.096C138.598 159.047 141.381 164.064 143.36 166.397C144.729 164.294 147.22 162.651 147.335 162.58C147.406 162.536 147.512 162.554 147.556 162.624C147.6 162.695 147.583 162.801 147.512 162.845C147.485 162.863 144.826 164.612 143.519 166.741C143.492 166.785 143.448 166.812 143.395 166.821C143.395 166.821 143.386 166.821 143.378 166.821H143.386Z" fill="white"/>
<path d="M152.909 166.821C152.909 166.821 152.901 166.821 152.892 166.821C152.839 166.821 152.795 166.785 152.768 166.741C151.469 164.612 148.81 162.863 148.775 162.845C148.704 162.801 148.678 162.695 148.731 162.624C148.784 162.554 148.881 162.527 148.952 162.58C149.058 162.651 151.549 164.285 152.918 166.388C154.703 164.091 154.19 158.852 152.989 155.999C152.954 155.919 152.989 155.822 153.077 155.787C153.157 155.751 153.254 155.787 153.289 155.875C154.544 158.879 155.056 164.471 153.024 166.768C152.998 166.803 152.954 166.821 152.901 166.821H152.909Z" fill="white"/>
<path d="M141.098 143.233C141.761 146.608 142.423 152.792 140.056 155.045C140.056 155.045 142.45 159.515 148.192 161.918C152.706 159.091 150.551 155.045 150.551 155.045C146.788 154.144 146.885 151.352 147.538 148.728L141.098 143.233Z" fill="#FFA88C"/>
<path opacity="0.2" d="M143.722 145.477L147.529 148.728C147.37 149.347 147.247 149.974 147.203 150.592C145.763 150.38 143.793 148.808 143.634 147.297C143.554 146.546 143.589 145.822 143.713 145.477H143.722Z" fill="black"/>
<path d="M137.538 137.041C138.863 142.527 139.305 144.877 142.609 147.226C147.582 150.76 154.031 147.942 154.376 142.165C154.685 136.97 152.468 128.869 146.646 127.624C140.913 126.396 136.213 131.546 137.538 137.041Z" fill="#FFA88C"/>
<path d="M137.688 131.086C141.16 133.003 152.795 132.323 151.063 128.825C149.332 125.327 141.929 126.184 137.688 131.086Z" fill="#2B2B2B"/>
<path d="M140.268 130.91C143.28 135.186 142.415 141.078 135.709 141.096C128.996 141.113 133.704 129.39 140.268 130.91Z" fill="#2B2B2B"/>
<path d="M145.241 141.104L151.443 141.935C151.443 141.935 150.648 143.719 147.759 143.286C145.347 142.924 145.241 141.104 145.241 141.104Z" fill="white"/>
<path d="M157.441 190.832C157.441 190.832 155.489 233.66 155.118 251.01C154.729 269.049 154.562 311.179 154.562 311.179H150.012C150.012 311.179 142.75 276.161 144.897 251.01C141.646 231.69 139.446 190.832 139.446 190.832H157.45H157.441Z" fill="#FFA88C"/>
<path d="M151.408 190.832C151.408 190.832 141.796 235.435 137.167 252.158C133.695 264.703 109.746 300.384 109.569 301.683L105.938 299.686C105.938 299.686 119.958 260.648 126.195 249.561C126.221 229.967 134.349 190.841 134.349 190.841H151.408V190.832Z" fill="#FFA88C"/>
<path d="M147.044 136.988C147.123 137.438 147.432 137.765 147.724 137.712C148.015 137.659 148.192 137.253 148.113 136.802C148.033 136.352 147.733 136.025 147.432 136.078C147.132 136.131 146.964 136.537 147.044 136.988Z" fill="#2B2B2B"/>
<path d="M152.15 136.087C152.229 136.537 152.539 136.864 152.83 136.811C153.122 136.758 153.298 136.352 153.219 135.901C153.139 135.451 152.839 135.124 152.539 135.177C152.238 135.23 152.07 135.636 152.15 136.087Z" fill="#2B2B2B"/>
<path d="M152.415 135.221L153.448 134.717C153.448 134.717 153.042 135.663 152.415 135.221Z" fill="#2B2B2B"/>
<path d="M150.498 136.891C150.498 136.891 151.611 138.702 152.618 139.488C152.123 140.15 151.063 140.08 151.063 140.08L150.498 136.891Z" fill="#E2886A"/>
<path d="M136.77 140.168C137.211 141.255 138.112 142.032 139.005 142.385C140.347 142.924 141.178 141.767 140.939 140.415C140.727 139.205 139.764 137.456 138.351 137.491C136.964 137.527 136.266 138.922 136.77 140.168Z" fill="#FFA88C"/>
<path d="M144.685 134.823C144.756 134.806 144.817 134.77 144.862 134.7C145.489 133.675 146.478 133.64 146.496 133.64C146.646 133.64 146.761 133.516 146.761 133.366C146.761 133.216 146.637 133.101 146.487 133.101C146.434 133.101 145.188 133.145 144.411 134.417C144.332 134.541 144.376 134.709 144.499 134.788C144.561 134.823 144.632 134.832 144.694 134.823H144.685Z" fill="#2B2B2B"/>
<path d="M153.192 133.383C153.263 133.375 153.325 133.339 153.369 133.286C153.457 133.171 153.44 133.004 153.325 132.906C152.159 131.979 150.975 132.359 150.922 132.376C150.781 132.42 150.701 132.579 150.754 132.721C150.798 132.862 150.957 132.942 151.099 132.889C151.143 132.871 152.07 132.588 152.998 133.33C153.06 133.375 153.13 133.392 153.201 133.383H153.192Z" fill="#2B2B2B"/>
<path d="M147.309 136.122L148.342 135.618C148.342 135.618 147.936 136.564 147.309 136.122Z" fill="#2B2B2B"/>
<path d="M157.768 193.906L156.735 251.001C156.735 251.001 149.561 252.282 141.098 247.918C132.644 243.554 124.773 244.694 124.773 244.694C122.918 210.09 128.969 199.207 133.607 193.897H157.751L157.768 193.906Z" fill="#2B2B2B"/>
<path opacity="0.2" d="M153.378 229.711L140.568 220.232L136.39 212.52L153.378 229.711Z" fill="black"/>
<path d="M158.758 187.307L157.901 195.32C151.77 196.053 142.874 195.788 133.404 195.32L134.154 187.307C143.059 187.607 151.531 187.722 158.758 187.307Z" fill="white"/>
<path d="M139.437 154.603C139.437 154.603 139.614 199.374 137.485 210.152C133.96 206.839 129.101 199.145 129.101 199.145C129.101 199.145 131.867 190.408 132.617 188.332C132.193 185.187 128.669 159.091 129.146 156.37C132.723 155.142 139.446 154.612 139.446 154.612L139.437 154.603Z" fill="#C8A443"/>
<path opacity="0.2" d="M139.437 154.603C139.437 154.603 139.614 199.374 137.485 210.152C133.96 206.839 129.101 199.145 129.101 199.145C129.101 199.145 131.867 190.408 132.617 188.332C132.193 185.187 128.669 159.091 129.146 156.37C132.723 155.142 139.446 154.612 139.446 154.612L139.437 154.603Z" fill="#C8A443"/>
<path d="M131.805 163.19C130.038 165.575 128.262 168.084 126.575 170.566C124.879 173.058 123.227 175.584 121.778 178.137C121.407 178.773 121.062 179.418 120.735 180.054C120.559 180.372 120.4 180.69 120.258 181.017L119.843 181.892C119.861 181.795 119.843 181.653 119.817 181.662C119.79 181.662 119.79 181.768 119.852 181.927C119.967 182.263 120.294 182.74 120.691 183.217C121.495 184.18 122.582 185.143 123.713 186.053C124.843 186.963 126.071 187.881 127.255 188.72L125.93 191.486C124.357 190.956 122.9 190.346 121.424 189.595C119.967 188.835 118.536 187.978 117.149 186.768C116.451 186.159 115.771 185.443 115.152 184.418C114.852 183.897 114.569 183.279 114.419 182.51C114.269 181.75 114.304 180.823 114.596 180.001L114.649 179.851L114.684 179.772L114.746 179.63L114.861 179.339L115.09 178.756C115.241 178.367 115.408 177.978 115.576 177.616C115.912 176.865 116.256 176.123 116.628 175.407C118.085 172.519 119.711 169.807 121.433 167.156C122.29 165.831 123.174 164.533 124.092 163.252C125.011 161.962 125.912 160.707 126.91 159.435L131.822 163.207L131.805 163.19Z" fill="#FFA88C"/>
<path d="M126.522 188.42L132.653 187.961L129.269 192.652C129.269 192.652 125.647 192.201 124.79 190.001L126.531 188.42H126.522Z" fill="#FFA88C"/>
<path d="M135.321 192.236L134.428 193.341C133.916 193.968 133.059 194.206 132.299 193.924L129.26 192.652L132.644 187.961L134.897 189.463C135.824 190.081 136.019 191.362 135.321 192.228V192.236Z" fill="#FFA88C"/>
<path d="M152.388 154.603C152.388 154.603 154.968 172.386 155.445 186.618C155.728 195.161 154.173 206.027 154.349 210.152C157.874 206.839 159.464 202.201 159.464 202.201C159.464 202.201 160.516 198.465 159.217 188.323C159.562 185.761 161.116 168.181 161.417 160.283C161.496 158.128 160.047 156.211 157.945 155.707C155.091 155.027 152.379 154.603 152.379 154.603H152.388Z" fill="#C8A443"/>
<g opacity="0.2">
<path d="M152.388 154.603C152.388 154.603 154.968 172.386 155.445 186.618C155.728 195.161 154.173 206.027 154.349 210.152C157.874 206.839 159.464 202.201 159.464 202.201C159.464 202.201 160.516 198.465 159.217 188.323C159.562 185.761 161.116 168.181 161.417 160.283C161.496 158.128 160.047 156.211 157.945 155.707C155.091 155.027 152.379 154.603 152.379 154.603H152.388Z" fill="#C8A443"/>
</g>
<path d="M148.545 166.017C148.289 166.017 148.033 165.681 147.936 165.204C147.821 164.692 147.936 164.268 148.21 164.206C148.484 164.153 148.784 164.506 148.899 165.018C148.969 165.354 148.943 165.681 148.819 165.867C148.766 165.946 148.687 165.999 148.607 166.017C148.59 166.017 148.572 166.017 148.554 166.017H148.545ZM148.086 165.169C148.183 165.61 148.422 165.884 148.563 165.858C148.607 165.858 148.643 165.822 148.669 165.778C148.766 165.628 148.793 165.345 148.731 165.054C148.634 164.621 148.386 164.338 148.236 164.365C148.086 164.4 147.989 164.736 148.077 165.177L148.086 165.169Z" fill="white"/>
<path d="M149.27 170.84C149.005 170.84 148.766 170.478 148.713 169.983C148.66 169.471 148.819 169.064 149.093 169.029C149.181 169.02 149.27 169.047 149.349 169.109C149.526 169.25 149.659 169.55 149.694 169.886C149.729 170.222 149.667 170.54 149.526 170.708C149.464 170.787 149.376 170.831 149.296 170.84H149.279H149.27ZM149.128 169.188C149.128 169.188 149.12 169.188 149.111 169.188C148.961 169.206 148.819 169.524 148.872 169.966C148.916 170.398 149.111 170.681 149.27 170.681C149.27 170.681 149.27 170.681 149.279 170.681C149.323 170.681 149.358 170.655 149.402 170.61C149.517 170.478 149.57 170.195 149.535 169.904C149.5 169.612 149.393 169.347 149.252 169.232C149.208 169.197 149.173 169.179 149.128 169.179V169.188Z" fill="white"/>
<path d="M149.491 175.646C149.217 175.646 149.005 175.248 149.005 174.745C149.005 174.232 149.208 173.853 149.482 173.844C149.561 173.844 149.65 173.879 149.729 173.95C149.888 174.1 149.985 174.409 149.994 174.745C149.994 175.072 149.906 175.381 149.747 175.531C149.676 175.602 149.588 175.637 149.508 175.637L149.491 175.646ZM149.155 174.745C149.155 175.178 149.332 175.478 149.491 175.487C149.491 175.487 149.579 175.469 149.614 175.425C149.738 175.301 149.818 175.036 149.818 174.754C149.818 174.462 149.729 174.197 149.606 174.073C149.561 174.029 149.517 174.012 149.482 174.012C149.332 174.012 149.164 174.321 149.164 174.745H149.155Z" fill="white"/>
<path d="M149.235 180.39C149.235 180.39 149.208 180.39 149.199 180.39C148.925 180.355 148.758 179.957 148.802 179.453C148.846 178.95 149.093 178.588 149.367 178.614C149.455 178.614 149.535 178.667 149.597 178.747C149.738 178.915 149.809 179.224 149.773 179.551C149.738 179.877 149.614 180.169 149.447 180.302C149.376 180.355 149.305 180.39 149.226 180.39H149.235ZM148.961 179.471C148.925 179.904 149.058 180.213 149.217 180.231C149.261 180.231 149.305 180.222 149.349 180.187C149.482 180.081 149.588 179.824 149.614 179.542C149.641 179.259 149.588 178.994 149.473 178.853C149.438 178.809 149.394 178.782 149.349 178.773C149.349 178.773 149.349 178.773 149.341 178.773C149.19 178.773 148.996 179.047 148.961 179.471Z" fill="white"/>
<path d="M148.819 185.037C148.819 185.037 148.793 185.037 148.784 185.037C148.51 185.001 148.342 184.604 148.386 184.109C148.431 183.632 148.66 183.279 148.925 183.279C148.925 183.279 148.943 183.279 148.952 183.279C149.04 183.279 149.12 183.332 149.182 183.411C149.323 183.579 149.394 183.888 149.358 184.206C149.323 184.533 149.199 184.816 149.031 184.948C148.961 185.001 148.881 185.037 148.81 185.037H148.819ZM148.934 183.438C148.775 183.438 148.59 183.711 148.554 184.127C148.51 184.551 148.651 184.86 148.81 184.878C148.863 184.878 148.899 184.869 148.952 184.825C149.084 184.719 149.19 184.471 149.217 184.189C149.243 183.906 149.19 183.641 149.075 183.508C149.04 183.464 148.996 183.438 148.952 183.438C148.952 183.438 148.952 183.438 148.943 183.438H148.934Z" fill="white"/>
<path opacity="0.2" d="M131.716 166.238C131.522 167.554 131.089 169.462 130.4 171.079C130.259 169.904 130.126 168.729 129.994 167.598L131.707 166.238H131.716Z" fill="black"/>
<path d="M129.137 156.361C126.575 158.278 121.442 166.193 115.992 175.92C118.942 178.367 121.071 180.62 121.071 180.62L132.061 166.662L131.973 163.305C132.388 160.646 131.292 157.969 129.128 156.361H129.137Z" fill="#C8A443"/>
<path opacity="0.2" d="M129.137 156.361C126.575 158.278 121.442 166.193 115.992 175.92C118.942 178.367 121.071 180.62 121.071 180.62L132.061 166.662L131.973 163.305C132.388 160.646 131.292 157.969 129.128 156.361H129.137Z" fill="#C8A443"/>
<path d="M154.579 307.036C155.383 313.777 159.685 318.998 159.685 318.998L152.689 317.204L149.491 312.186L150.197 310.861L154.579 307.036Z" fill="#FFA88C"/>
<path d="M149.208 310.49C148.917 311.073 148.819 311.718 148.828 312.346C148.872 314.687 149.129 320.879 149.129 320.879H149.676C149.676 320.879 149.694 316.701 149.968 315.164C150.242 313.626 151.328 315.446 151.938 317.187C152.547 318.927 154.994 320.791 158.563 320.87C162.733 320.968 164.42 320.791 163.21 319.775C162 318.759 159.235 318.114 159.235 318.114C159.235 318.114 155.666 318.194 153.758 314.748C152.521 312.513 151.019 310.287 149.977 309.766C149.632 309.828 149.394 310.119 149.217 310.473L149.208 310.49Z" fill="#2B2B2B"/>
<path d="M110.329 300.243C108.412 304.978 108.191 312.133 108.191 312.133L103.65 305.455L104.534 299.571L105.938 299.032L110.329 300.234V300.243Z" fill="#FFA88C"/>
<path d="M105.444 298.114C104.843 298.361 104.339 298.776 103.933 299.262C102.431 301.056 98.553 305.897 98.553 305.897L98.9682 306.259C98.9682 306.259 101.724 303.123 102.935 302.142C104.154 301.161 103.774 303.246 103.094 304.96C102.413 306.674 103.041 309.686 105.664 312.089C108.748 314.907 110.135 315.879 109.887 314.316C109.64 312.761 107.979 310.455 107.979 310.455C107.979 310.455 105.232 308.176 106.053 304.315C106.583 301.815 106.919 299.156 106.468 298.078C106.168 297.902 105.797 297.964 105.435 298.114H105.444Z" fill="#2B2B2B"/>
<path d="M181.391 195.231H288.222C294.291 195.231 299.574 200.196 299.963 206.265L304.15 271.876C304.539 277.945 299.892 282.91 293.823 282.91H186.992C180.923 282.91 175.64 277.945 175.251 271.876L171.064 206.265C170.675 200.196 175.322 195.231 181.391 195.231Z" fill="#C8A443"/>
<path opacity="0.3" d="M181.391 195.231H288.222C294.291 195.231 299.574 200.196 299.963 206.265L304.15 271.876C304.539 277.945 299.892 282.91 293.823 282.91H186.992C180.923 282.91 175.64 277.945 175.251 271.876L171.064 206.265C170.675 200.196 175.322 195.231 181.391 195.231Z" fill="#C8A443"/>
<path d="M187 282.91H293.823C296.588 282.91 299.07 281.885 300.89 280.163L237.002 229.79L179.553 280.163C181.594 281.885 184.209 282.91 186.992 282.91H187Z" fill="#C8A443"/>
<path opacity="0.5" d="M187 282.91H293.823C296.588 282.91 299.07 281.885 300.89 280.163L237.002 229.79L179.553 280.163C181.594 281.885 184.209 282.91 186.992 282.91H187Z" fill="#F8DC65"/>
<path d="M238.026 245.745L293.894 196.768C292.197 195.797 290.263 195.24 288.222 195.24H181.4C179.359 195.24 177.477 195.797 175.905 196.768L238.026 245.745Z" fill="#996C22"/>
<path d="M276.464 195.47L272.736 137.173C272.524 133.896 269.706 131.254 266.437 131.254H183.158C186.435 131.254 189.244 133.905 189.456 137.173L193.149 194.993" fill="white"/>
<path opacity="0.3" d="M276.464 196.336C276.005 196.336 275.625 195.982 275.598 195.523L271.87 137.226C271.694 134.408 269.255 132.12 266.437 132.12H187.787C189.227 133.357 190.199 135.133 190.331 137.111L194.024 194.931C194.05 195.408 193.688 195.823 193.211 195.858C192.725 195.885 192.319 195.523 192.283 195.046L188.591 137.226C188.414 134.408 185.976 132.12 183.158 132.12C182.681 132.12 182.283 131.731 182.283 131.246C182.283 130.76 182.672 130.371 183.158 130.371H266.437C270.156 130.371 273.372 133.392 273.611 137.111L277.339 195.408C277.374 195.885 277.003 196.3 276.526 196.336C276.508 196.336 276.491 196.336 276.473 196.336H276.464Z" fill="#C8A443"/>
<path d="M183.158 131.254C179.88 131.254 177.398 133.905 177.61 137.182H189.465C189.253 133.905 186.435 131.254 183.158 131.254Z" fill="#996C22"/>
<path d="M189.465 138.048H177.61C177.15 138.048 176.771 137.694 176.744 137.235C176.629 135.406 177.23 133.684 178.449 132.385C179.659 131.095 181.338 130.38 183.158 130.38C186.877 130.38 190.092 133.401 190.331 137.12C190.349 137.359 190.26 137.597 190.101 137.774C189.942 137.951 189.704 138.048 189.465 138.048ZM178.493 136.308H188.449C187.857 133.931 185.658 132.12 183.158 132.12C181.824 132.12 180.596 132.641 179.712 133.578C179.006 134.329 178.59 135.274 178.484 136.308H178.493Z" fill="#996C22"/>
<path d="M266.437 131.254H183.158C186.435 131.254 189.244 133.905 189.456 137.173L194.183 211.168L238.018 245.745L277.489 211.636L272.736 137.173C272.524 133.896 269.706 131.254 266.437 131.254Z" fill="white"/>
<path opacity="0.3" d="M194.192 211.168L238.027 245.745L277.498 211.636L234.899 239.764L194.192 211.168Z" fill="#C8A443"/>
<path d="M268.46 178.084H198.953L198.609 172.66H268.116L268.46 178.084Z" fill="#1A2E35"/>
<path d="M254.149 194.86H200.031L199.686 189.445H253.804L254.149 194.86Z" fill="#1A2E35"/>
<path d="M270.607 211.645H229.758L229.413 206.23H270.262L270.607 211.645Z" fill="#1A2E35"/>
<path d="M201.1 211.645H222.964L222.62 206.23H200.755L201.1 211.645Z" fill="#1A2E35"/>
<path d="M266.022 152.533C265.664 152.533 265.321 152.486 264.992 152.392C264.664 152.294 264.4 152.169 264.199 152.015L264.551 151.235C264.743 151.371 264.969 151.484 265.229 151.574C265.493 151.659 265.76 151.702 266.028 151.702C266.233 151.702 266.397 151.682 266.521 151.644C266.649 151.601 266.743 151.544 266.802 151.471C266.862 151.399 266.892 151.316 266.892 151.222C266.892 151.103 266.845 151.009 266.751 150.941C266.657 150.868 266.534 150.81 266.38 150.768C266.227 150.721 266.056 150.678 265.869 150.64C265.685 150.597 265.5 150.546 265.312 150.486C265.129 150.427 264.96 150.35 264.807 150.256C264.653 150.162 264.528 150.039 264.429 149.885C264.336 149.732 264.289 149.536 264.289 149.297C264.289 149.041 264.357 148.809 264.493 148.6C264.634 148.386 264.843 148.218 265.12 148.094C265.402 147.966 265.753 147.902 266.176 147.902C266.457 147.902 266.734 147.937 267.007 148.005C267.28 148.069 267.521 148.167 267.73 148.299L267.41 149.086C267.201 148.966 266.992 148.879 266.783 148.823C266.574 148.764 266.37 148.734 266.169 148.734C265.969 148.734 265.805 148.757 265.677 148.804C265.549 148.851 265.457 148.913 265.402 148.99C265.346 149.062 265.319 149.148 265.319 149.246C265.319 149.361 265.365 149.455 265.459 149.527C265.553 149.595 265.677 149.651 265.83 149.693C265.984 149.736 266.152 149.779 266.335 149.821C266.523 149.864 266.709 149.913 266.892 149.968C267.08 150.024 267.25 150.098 267.404 150.192C267.557 150.286 267.681 150.41 267.775 150.563C267.873 150.717 267.922 150.911 267.922 151.145C267.922 151.397 267.851 151.627 267.711 151.836C267.57 152.045 267.359 152.213 267.077 152.341C266.8 152.469 266.448 152.533 266.022 152.533Z" fill="#996C22"/>
<path d="M259.385 152.456V147.979H260.243L262.884 151.203H262.468V147.979H263.492V152.456H262.641L259.993 149.233H260.409V152.456H259.385Z" fill="#996C22"/>
<path d="M256.164 152.533C255.81 152.533 255.481 152.476 255.179 152.36C254.88 152.245 254.62 152.083 254.398 151.874C254.181 151.665 254.01 151.42 253.887 151.139C253.767 150.857 253.708 150.55 253.708 150.218C253.708 149.885 253.767 149.578 253.887 149.297C254.01 149.015 254.183 148.77 254.405 148.561C254.626 148.352 254.887 148.19 255.185 148.075C255.483 147.96 255.808 147.902 256.157 147.902C256.511 147.902 256.835 147.96 257.129 148.075C257.428 148.19 257.686 148.352 257.903 148.561C258.125 148.77 258.298 149.015 258.421 149.297C258.545 149.574 258.607 149.881 258.607 150.218C258.607 150.55 258.545 150.86 258.421 151.145C258.298 151.427 258.125 151.672 257.903 151.881C257.686 152.085 257.428 152.245 257.129 152.36C256.835 152.476 256.513 152.533 256.164 152.533ZM256.157 151.65C256.358 151.65 256.541 151.616 256.707 151.548C256.878 151.48 257.027 151.382 257.155 151.254C257.283 151.126 257.381 150.975 257.449 150.8C257.522 150.625 257.558 150.431 257.558 150.218C257.558 150.005 257.522 149.811 257.449 149.636C257.381 149.461 257.283 149.31 257.155 149.182C257.031 149.054 256.884 148.956 256.714 148.887C256.543 148.819 256.358 148.785 256.157 148.785C255.957 148.785 255.771 148.819 255.601 148.887C255.434 148.956 255.287 149.054 255.159 149.182C255.031 149.31 254.931 149.461 254.859 149.636C254.791 149.811 254.756 150.005 254.756 150.218C254.756 150.427 254.791 150.621 254.859 150.8C254.931 150.975 255.029 151.126 255.153 151.254C255.281 151.382 255.43 151.48 255.601 151.548C255.771 151.616 255.957 151.65 256.157 151.65Z" fill="#996C22"/>
<path d="M251.89 152.456V147.979H252.927V152.456H251.89Z" fill="#996C22"/>
<path d="M248.864 152.456V148.823H247.431V147.979H251.333V148.823H249.9V152.456H248.864Z" fill="#996C22"/>
<path d="M242.676 152.456L244.672 147.979H245.695L247.697 152.456H246.61L244.972 148.504H245.382L243.738 152.456H242.676ZM243.674 151.497L243.949 150.71H246.252L246.533 151.497H243.674Z" fill="#996C22"/>
<path d="M238.043 152.456V147.979H240.077C240.563 147.979 240.991 148.073 241.362 148.261C241.733 148.444 242.023 148.702 242.232 149.035C242.441 149.367 242.546 149.762 242.546 150.218C242.546 150.67 242.441 151.064 242.232 151.401C242.023 151.734 241.733 151.994 241.362 152.181C240.991 152.365 240.563 152.456 240.077 152.456H238.043ZM239.079 151.606H240.026C240.324 151.606 240.582 151.55 240.8 151.439C241.021 151.324 241.192 151.162 241.311 150.953C241.435 150.744 241.497 150.499 241.497 150.218C241.497 149.932 241.435 149.687 241.311 149.482C241.192 149.273 241.021 149.113 240.8 149.003C240.582 148.887 240.324 148.83 240.026 148.83H239.079V151.606Z" fill="#996C22"/>
<path d="M232.877 152.456V147.979H233.734L236.376 151.203H235.96V147.979H236.984V152.456H236.133L233.485 149.233H233.901V152.456H232.877Z" fill="#996C22"/>
<path d="M229.539 149.783H231.695V150.589H229.539V149.783ZM229.616 151.625H232.053V152.456H228.586V147.979H231.97V148.811H229.616V151.625Z" fill="#996C22"/>
<path d="M222.478 152.456V147.979H223.335L225.241 151.139H224.787L226.661 147.979H227.511L227.524 152.456H226.552L226.546 149.469H226.725L225.228 151.983H224.761L223.233 149.469H223.45V152.456H222.478Z" fill="#996C22"/>
<path d="M216.369 152.456V147.979H217.226L219.132 151.139H218.678L220.552 147.979H221.403L221.416 152.456H220.443L220.437 149.469H220.616L219.119 151.983H218.652L217.124 149.469H217.341V152.456H216.369Z" fill="#996C22"/>
<path d="M213.147 152.533C212.793 152.533 212.465 152.476 212.162 152.36C211.864 152.245 211.604 152.083 211.382 151.874C211.164 151.665 210.994 151.42 210.87 151.139C210.751 150.857 210.691 150.55 210.691 150.218C210.691 149.885 210.751 149.578 210.87 149.297C210.994 149.015 211.167 148.77 211.388 148.561C211.61 148.352 211.87 148.19 212.169 148.075C212.467 147.96 212.791 147.902 213.141 147.902C213.495 147.902 213.819 147.96 214.113 148.075C214.411 148.19 214.669 148.352 214.887 148.561C215.109 148.77 215.281 149.015 215.405 149.297C215.529 149.574 215.59 149.881 215.59 150.218C215.59 150.55 215.529 150.86 215.405 151.145C215.281 151.427 215.109 151.672 214.887 151.881C214.669 152.085 214.411 152.245 214.113 152.36C213.819 152.476 213.497 152.533 213.147 152.533ZM213.141 151.65C213.341 151.65 213.525 151.616 213.691 151.548C213.861 151.48 214.011 151.382 214.139 151.254C214.266 151.126 214.365 150.975 214.433 150.8C214.505 150.625 214.542 150.431 214.542 150.218C214.542 150.005 214.505 149.811 214.433 149.636C214.365 149.461 214.266 149.31 214.139 149.182C214.015 149.054 213.868 148.956 213.697 148.887C213.527 148.819 213.341 148.785 213.141 148.785C212.94 148.785 212.755 148.819 212.584 148.887C212.418 148.956 212.271 149.054 212.143 149.182C212.015 149.31 211.915 149.461 211.842 149.636C211.774 149.811 211.74 150.005 211.74 150.218C211.74 150.427 211.774 150.621 211.842 150.8C211.915 150.975 212.013 151.126 212.137 151.254C212.265 151.382 212.414 151.48 212.584 151.548C212.755 151.616 212.94 151.65 213.141 151.65Z" fill="#996C22"/>
<path d="M208.518 152.533C208.173 152.533 207.851 152.478 207.553 152.367C207.258 152.252 207.002 152.09 206.785 151.881C206.568 151.672 206.397 151.427 206.273 151.145C206.154 150.864 206.094 150.555 206.094 150.218C206.094 149.881 206.154 149.572 206.273 149.29C206.397 149.009 206.568 148.764 206.785 148.555C207.007 148.346 207.265 148.186 207.559 148.075C207.853 147.96 208.175 147.902 208.525 147.902C208.913 147.902 209.262 147.971 209.574 148.107C209.889 148.239 210.154 148.435 210.367 148.696L209.702 149.31C209.548 149.135 209.377 149.005 209.19 148.919C209.002 148.83 208.798 148.785 208.576 148.785C208.367 148.785 208.175 148.819 208 148.887C207.825 148.956 207.674 149.054 207.546 149.182C207.418 149.31 207.318 149.461 207.246 149.636C207.177 149.811 207.143 150.005 207.143 150.218C207.143 150.431 207.177 150.625 207.246 150.8C207.318 150.975 207.418 151.126 207.546 151.254C207.674 151.382 207.825 151.48 208 151.548C208.175 151.616 208.367 151.65 208.576 151.65C208.798 151.65 209.002 151.608 209.19 151.523C209.377 151.433 209.548 151.299 209.702 151.12L210.367 151.734C210.154 151.994 209.889 152.192 209.574 152.328C209.262 152.465 208.911 152.533 208.518 152.533Z" fill="#996C22"/>
<path d="M203.038 149.783H205.193V150.589H203.038V149.783ZM203.114 151.625H205.551V152.456H202.085V147.979H205.468V148.811H203.114V151.625Z" fill="#996C22"/>
<path d="M197.381 152.456V147.979H199.319C199.72 147.979 200.066 148.045 200.355 148.177C200.645 148.305 200.869 148.491 201.027 148.734C201.185 148.977 201.264 149.267 201.264 149.604C201.264 149.936 201.185 150.224 201.027 150.467C200.869 150.706 200.645 150.889 200.355 151.017C200.066 151.145 199.72 151.209 199.319 151.209H197.957L198.417 150.755V152.456H197.381ZM200.228 152.456L199.108 150.832H200.215L201.347 152.456H200.228ZM198.417 150.87L197.957 150.384H199.262C199.582 150.384 199.82 150.316 199.978 150.179C200.136 150.039 200.215 149.847 200.215 149.604C200.215 149.356 200.136 149.165 199.978 149.028C199.82 148.892 199.582 148.823 199.262 148.823H197.957L198.417 148.331V150.87Z" fill="#996C22"/>
<path d="M267.623 160.124V156.491H266.19V155.647H270.092V156.491H268.659V160.124H267.623Z" fill="#996C22"/>
<path d="M262.055 160.124V155.647H263.993C264.394 155.647 264.739 155.713 265.029 155.845C265.319 155.973 265.543 156.159 265.701 156.402C265.858 156.645 265.937 156.935 265.937 157.272C265.937 157.604 265.858 157.892 265.701 158.135C265.543 158.374 265.319 158.557 265.029 158.685C264.739 158.813 264.394 158.877 263.993 158.877H262.631L263.091 158.423V160.124H262.055ZM264.901 160.124L263.782 158.5H264.888L266.02 160.124H264.901ZM263.091 158.538L262.631 158.052H263.935C264.255 158.052 264.494 157.984 264.652 157.847C264.809 157.707 264.888 157.515 264.888 157.272C264.888 157.024 264.809 156.833 264.652 156.696C264.494 156.56 264.255 156.491 263.935 156.491H262.631L263.091 155.999V158.538Z" fill="#996C22"/>
<path d="M258.833 160.201C258.479 160.201 258.151 160.144 257.848 160.028C257.55 159.913 257.289 159.751 257.068 159.542C256.85 159.333 256.68 159.088 256.556 158.807C256.437 158.525 256.377 158.218 256.377 157.886C256.377 157.553 256.437 157.246 256.556 156.965C256.68 156.683 256.852 156.438 257.074 156.229C257.296 156.02 257.556 155.858 257.854 155.743C258.153 155.628 258.477 155.57 258.827 155.57C259.181 155.57 259.505 155.628 259.799 155.743C260.097 155.858 260.355 156.02 260.573 156.229C260.794 156.438 260.967 156.683 261.091 156.965C261.214 157.242 261.276 157.549 261.276 157.886C261.276 158.218 261.214 158.528 261.091 158.813C260.967 159.095 260.794 159.34 260.573 159.549C260.355 159.753 260.097 159.913 259.799 160.028C259.505 160.144 259.183 160.201 258.833 160.201ZM258.827 159.319C259.027 159.319 259.21 159.284 259.377 159.216C259.547 159.148 259.696 159.05 259.824 158.922C259.952 158.794 260.05 158.643 260.119 158.468C260.191 158.293 260.227 158.099 260.227 157.886C260.227 157.673 260.191 157.479 260.119 157.304C260.05 157.129 259.952 156.978 259.824 156.85C259.701 156.722 259.554 156.624 259.383 156.555C259.212 156.487 259.027 156.453 258.827 156.453C258.626 156.453 258.441 156.487 258.27 156.555C258.104 156.624 257.957 156.722 257.829 156.85C257.701 156.978 257.601 157.129 257.528 157.304C257.46 157.479 257.426 157.673 257.426 157.886C257.426 158.095 257.46 158.289 257.528 158.468C257.601 158.643 257.699 158.794 257.822 158.922C257.95 159.05 258.1 159.148 258.27 159.216C258.441 159.284 258.626 159.319 258.827 159.319Z" fill="#996C22"/>
<path d="M251.974 160.124V155.647H253.912C254.313 155.647 254.658 155.713 254.948 155.845C255.238 155.973 255.462 156.159 255.62 156.402C255.777 156.645 255.856 156.935 255.856 157.272C255.856 157.604 255.777 157.892 255.62 158.135C255.462 158.378 255.238 158.566 254.948 158.698C254.658 158.826 254.313 158.89 253.912 158.89H252.55L253.01 158.423V160.124H251.974ZM253.01 158.538L252.55 158.046H253.854C254.174 158.046 254.413 157.977 254.571 157.841C254.728 157.705 254.807 157.515 254.807 157.272C254.807 157.024 254.728 156.833 254.571 156.696C254.413 156.56 254.174 156.491 253.854 156.491H252.55L253.01 155.999V158.538Z" fill="#996C22"/>
<path d="M248.636 157.451H250.791V158.257H248.636V157.451ZM248.713 159.293H251.149V160.124H247.683V155.647H251.066V156.479H248.713V159.293Z" fill="#996C22"/>
<path d="M242.979 160.124V155.647H244.917C245.318 155.647 245.664 155.713 245.954 155.845C246.244 155.973 246.467 156.159 246.625 156.402C246.783 156.645 246.862 156.935 246.862 157.272C246.862 157.604 246.783 157.892 246.625 158.135C246.467 158.374 246.244 158.557 245.954 158.685C245.664 158.813 245.318 158.877 244.917 158.877H243.555L244.016 158.423V160.124H242.979ZM245.826 160.124L244.706 158.5H245.813L246.945 160.124H245.826ZM244.016 158.538L243.555 158.052H244.86C245.18 158.052 245.418 157.984 245.576 157.847C245.734 157.707 245.813 157.515 245.813 157.272C245.813 157.024 245.734 156.833 245.576 156.696C245.418 156.56 245.18 156.491 244.86 156.491H243.555L244.016 155.999V158.538Z" fill="#996C22"/>
<path d="M235.06 160.124V155.647H235.917L237.823 158.807H237.368L239.243 155.647H240.093L240.106 160.124H239.134L239.127 157.137H239.306L237.81 159.651H237.343L235.814 157.137H236.032V160.124H235.06Z" fill="#996C22"/>
<path d="M231.722 157.451H233.877V158.257H231.722V157.451ZM231.798 159.293H234.235V160.124H230.769V155.647H234.152V156.479H231.798V159.293Z" fill="#996C22"/>
<path d="M226.909 160.124V155.647H227.945V159.28H230.19V160.124H226.909Z" fill="#996C22"/>
<path d="M222.018 160.124V155.647H224.205C224.768 155.647 225.19 155.754 225.472 155.967C225.758 156.18 225.9 156.462 225.9 156.811C225.9 157.046 225.843 157.25 225.728 157.425C225.613 157.596 225.455 157.728 225.254 157.822C225.054 157.916 224.824 157.963 224.564 157.963L224.685 157.7C224.967 157.7 225.216 157.747 225.433 157.841C225.651 157.931 225.819 158.065 225.939 158.244C226.062 158.423 226.124 158.643 226.124 158.903C226.124 159.286 225.973 159.587 225.67 159.805C225.367 160.018 224.922 160.124 224.333 160.124H222.018ZM223.048 159.344H224.257C224.525 159.344 224.728 159.301 224.864 159.216C225.005 159.127 225.075 158.986 225.075 158.794C225.075 158.606 225.005 158.468 224.864 158.378C224.728 158.284 224.525 158.238 224.257 158.238H222.971V157.483H224.078C224.329 157.483 224.521 157.44 224.653 157.355C224.79 157.265 224.858 157.131 224.858 156.952C224.858 156.777 224.79 156.647 224.653 156.562C224.521 156.472 224.329 156.428 224.078 156.428H223.048V159.344Z" fill="#996C22"/>
<path d="M218.796 160.201C218.442 160.201 218.114 160.144 217.811 160.028C217.513 159.913 217.253 159.751 217.031 159.542C216.813 159.333 216.643 159.088 216.519 158.807C216.4 158.525 216.34 158.218 216.34 157.886C216.34 157.553 216.4 157.246 216.519 156.965C216.643 156.683 216.816 156.438 217.037 156.229C217.259 156.02 217.519 155.858 217.818 155.743C218.116 155.628 218.44 155.57 218.79 155.57C219.144 155.57 219.468 155.628 219.762 155.743C220.06 155.858 220.318 156.02 220.536 156.229C220.758 156.438 220.93 156.683 221.054 156.965C221.178 157.242 221.239 157.549 221.239 157.886C221.239 158.218 221.178 158.528 221.054 158.813C220.93 159.095 220.758 159.34 220.536 159.549C220.318 159.753 220.06 159.913 219.762 160.028C219.468 160.144 219.146 160.201 218.796 160.201ZM218.79 159.319C218.99 159.319 219.173 159.284 219.34 159.216C219.51 159.148 219.66 159.05 219.787 158.922C219.915 158.794 220.013 158.643 220.082 158.468C220.154 158.293 220.19 158.099 220.19 157.886C220.19 157.673 220.154 157.479 220.082 157.304C220.013 157.129 219.915 156.978 219.787 156.85C219.664 156.722 219.517 156.624 219.346 156.555C219.176 156.487 218.99 156.453 218.79 156.453C218.589 156.453 218.404 156.487 218.233 156.555C218.067 156.624 217.92 156.722 217.792 156.85C217.664 156.978 217.564 157.129 217.491 157.304C217.423 157.479 217.389 157.673 217.389 157.886C217.389 158.095 217.423 158.289 217.491 158.468C217.564 158.643 217.662 158.794 217.786 158.922C217.913 159.05 218.063 159.148 218.233 159.216C218.404 159.284 218.589 159.319 218.79 159.319Z" fill="#996C22"/>
<path d="M211.918 160.124V155.647H213.856C214.257 155.647 214.602 155.713 214.892 155.845C215.182 155.973 215.406 156.159 215.564 156.402C215.722 156.645 215.801 156.935 215.801 157.272C215.801 157.604 215.722 157.892 215.564 158.135C215.406 158.374 215.182 158.557 214.892 158.685C214.602 158.813 214.257 158.877 213.856 158.877H212.494L212.954 158.423V160.124H211.918ZM214.764 160.124L213.645 158.5H214.752L215.884 160.124H214.764ZM212.954 158.538L212.494 158.052H213.799C214.118 158.052 214.357 157.984 214.515 157.847C214.673 157.707 214.752 157.515 214.752 157.272C214.752 157.024 214.673 156.833 214.515 156.696C214.357 156.56 214.118 156.491 213.799 156.491H212.494L212.954 155.999V158.538Z" fill="#996C22"/>
<path d="M207.296 160.124V155.647H209.234C209.635 155.647 209.98 155.713 210.27 155.845C210.56 155.973 210.784 156.159 210.942 156.402C211.1 156.645 211.178 156.935 211.178 157.272C211.178 157.604 211.1 157.892 210.942 158.135C210.784 158.378 210.56 158.566 210.27 158.698C209.98 158.826 209.635 158.89 209.234 158.89H207.872L208.332 158.423V160.124H207.296ZM208.332 158.538L207.872 158.046H209.177C209.496 158.046 209.735 157.977 209.893 157.841C210.051 157.705 210.13 157.515 210.13 157.272C210.13 157.024 210.051 156.833 209.893 156.696C209.735 156.56 209.496 156.491 209.177 156.491H207.872L208.332 155.999V158.538Z" fill="#996C22"/>
<path d="M200.781 160.124V155.647H202.719C203.12 155.647 203.466 155.713 203.756 155.845C204.046 155.973 204.269 156.159 204.427 156.402C204.585 156.645 204.664 156.935 204.664 157.272C204.664 157.604 204.585 157.892 204.427 158.135C204.269 158.374 204.046 158.557 203.756 158.685C203.466 158.813 203.12 158.877 202.719 158.877H201.357L201.818 158.423V160.124H200.781ZM203.628 160.124L202.508 158.5H203.615L204.747 160.124H203.628ZM201.818 158.538L201.357 158.052H202.662C202.982 158.052 203.22 157.984 203.378 157.847C203.536 157.707 203.615 157.515 203.615 157.272C203.615 157.024 203.536 156.833 203.378 156.696C203.22 156.56 202.982 156.491 202.662 156.491H201.357L201.818 155.999V158.538Z" fill="#996C22"/>
<path d="M197.56 160.201C197.206 160.201 196.877 160.144 196.575 160.028C196.276 159.913 196.016 159.751 195.794 159.542C195.577 159.333 195.406 159.088 195.283 158.807C195.163 158.525 195.104 158.218 195.104 157.886C195.104 157.553 195.163 157.246 195.283 156.965C195.406 156.683 195.579 156.438 195.801 156.229C196.022 156.02 196.282 155.858 196.581 155.743C196.879 155.628 197.204 155.57 197.553 155.57C197.907 155.57 198.231 155.628 198.525 155.743C198.824 155.858 199.082 156.02 199.299 156.229C199.521 156.438 199.694 156.683 199.817 156.965C199.941 157.242 200.003 157.549 200.003 157.886C200.003 158.218 199.941 158.528 199.817 158.813C199.694 159.095 199.521 159.34 199.299 159.549C199.082 159.753 198.824 159.913 198.525 160.028C198.231 160.144 197.909 160.201 197.56 160.201ZM197.553 159.319C197.754 159.319 197.937 159.284 198.103 159.216C198.274 159.148 198.423 159.05 198.551 158.922C198.679 158.794 198.777 158.643 198.845 158.468C198.918 158.293 198.954 158.099 198.954 157.886C198.954 157.673 198.918 157.479 198.845 157.304C198.777 157.129 198.679 156.978 198.551 156.85C198.427 156.722 198.28 156.624 198.11 156.555C197.939 156.487 197.754 156.453 197.553 156.453C197.353 156.453 197.167 156.487 196.997 156.555C196.83 156.624 196.683 156.722 196.555 156.85C196.427 156.978 196.327 157.129 196.255 157.304C196.187 157.479 196.152 157.673 196.152 157.886C196.152 158.095 196.187 158.289 196.255 158.468C196.327 158.643 196.425 158.794 196.549 158.922C196.677 159.05 196.826 159.148 196.997 159.216C197.167 159.284 197.353 159.319 197.553 159.319Z" fill="#996C22"/>
</svg>
