<svg id="Layer_1" data-name="Layer 1" xmlns="http://www.w3.org/2000/svg" viewBox="0 0 28.35 28.35"><path d="M9.06,6.46h8.21V7.83H9.06Z"/><path d="M5,8.92l1-1,1,1,.78-.78-1-1,1-1L7,5.41l-1,1-1-1-.78.77,1,1-1,1Z"/><path d="M7.24,11.46l-1.7,1.7-.81-.8L4,13.13l1.58,1.58L8,12.23Z"/><path d="M4.73,18.38,4,19.16l1.58,1.58L8,18.26l-.78-.77-1.7,1.7Z"/><path d="M2.63,24.66V2.76H20.42v7.82a2.28,2.28,0,0,1,1.4-.48,2.37,2.37,0,0,1,.65.09V2.08A1.38,1.38,0,0,0,21.1.71H1.94A1.38,1.38,0,0,0,.57,2.08V25.34a1.38,1.38,0,0,0,1.37,1.37h8.72a2.31,2.31,0,0,1,.52-2.05Z"/><path d="M9.06,19.87h1.4A2.3,2.3,0,0,1,12.23,19h.35l0-.07-.49-.46H9.06Z"/><path d="M15.52,13.31a2.19,2.19,0,0,1-.16-.83H9.06v1.37H15.2a3.65,3.65,0,0,1,.32-.54Z"/><path d="M13.46,15.85a.51.51,0,0,0-.72,0,.52.52,0,0,0,0,.73L14,17.74c.1.1.23.07.37.07h1a6.77,6.77,0,0,0-1.35,3H12.23a.53.53,0,0,0-.51.53.54.54,0,0,0,.51.54H13.9a5.28,5.28,0,0,0,.63,2.49h-.38a.54.54,0,0,0-.36.18l-1.23,1.24a.52.52,0,0,0,0,.73.55.55,0,0,0,.37.15.51.51,0,0,0,.36-.15l1.08-1.08h.82a5.93,5.93,0,0,0,4.2,2.15V16.92H14.54Z"/><path d="M27.26,20.85H25.48a8.13,8.13,0,0,0-1.45-3h1.14c.13,0,.26,0,.36-.07l1.23-1.19a.48.48,0,0,0,0-.7.52.52,0,0,0-.73,0L25,16.92H20.1V27.63a6.66,6.66,0,0,0,4.17-2.15h.86l1.07,1.08a.52.52,0,0,0,.37.16.55.55,0,0,0,.36-.15.52.52,0,0,0,0-.73L25.7,24.59a.52.52,0,0,0-.36-.18H25a5.4,5.4,0,0,0,.63-2.49h1.68a.54.54,0,0,0,.51-.54.53.53,0,0,0-.51-.53Z"/><path d="M16.43,16.21h6.63a3.19,3.19,0,0,0-1.55-2.78l.67-.65a.51.51,0,1,0-.72-.71l-1,1a3.65,3.65,0,0,0-.74-.08A3.08,3.08,0,0,0,19,13l-1-1a.52.52,0,0,0-.73,0,.51.51,0,0,0,0,.72l.67.64a3.19,3.19,0,0,0-1.55,2.78Z"/></svg>