<svg width="400" height="401" viewBox="0 0 400 401" fill="none" xmlns="http://www.w3.org/2000/svg">
<g clip-path="url(#clip0_1936_2191)">
<path d="M374.863 299.301H25V299.469H374.863V299.301Z" fill="#ECECEC"/>
<path d="M339.919 310.531H316.707V310.699H339.919V310.531Z" fill="#ECECEC"/>
<path d="M256.873 312.459H250.755V312.626H256.873V312.459Z" fill="#ECECEC"/>
<path d="M315.952 303.995H302.544V304.163H315.952V303.995Z" fill="#ECECEC"/>
<path d="M91.956 305.251H61.7043V305.419H91.956V305.251Z" fill="#ECECEC"/>
<path d="M102.599 305.251H98.1567V305.419H102.599V305.251Z" fill="#ECECEC"/>
<path d="M182.543 308.184H117.012V308.352H182.543V308.184Z" fill="#ECECEC"/>
<path d="M190.923 268.044H55.7543C53.5755 268.044 51.7319 266.285 51.7319 264.023V74.1327C51.7319 71.9539 53.4917 70.1104 55.7543 70.1104H190.923C193.101 70.1104 194.945 71.8701 194.945 74.1327V264.106C194.861 266.285 193.101 268.044 190.923 268.044ZM55.7543 70.278C53.6593 70.278 51.8995 71.9539 51.8995 74.1327V264.106C51.8995 266.201 53.5755 267.961 55.7543 267.961H190.923C193.018 267.961 194.777 266.285 194.777 264.106V74.1327C194.777 72.0377 193.101 70.278 190.923 70.278H55.7543Z" fill="#ECECEC"/>
<path d="M342.265 268.044H207.096C204.918 268.044 203.074 266.285 203.074 264.023V74.1327C203.074 71.9539 204.834 70.1104 207.096 70.1104H342.265C344.443 70.1104 346.288 71.8701 346.288 74.1327V264.106C346.204 266.285 344.443 268.044 342.265 268.044ZM207.096 70.278C205.002 70.278 203.242 71.9539 203.242 74.1327V264.106C203.242 266.201 204.918 267.961 207.096 267.961H342.265C344.359 267.961 346.12 266.285 346.12 264.106V74.1327C346.12 72.0377 344.443 70.278 342.265 70.278H207.096Z" fill="#ECECEC"/>
<path d="M194.61 153.323H95.2241V298.966H194.61V153.323Z" fill="#F0F0F0"/>
<path d="M191.091 157.932H98.7434V184.832H191.091V157.932Z" fill="#E1E1E1"/>
<path d="M104.023 162.29H98.7434V184.832H104.023V162.29Z" fill="#ECECEC"/>
<path d="M129.414 162.29H124.135V184.832H129.414V162.29Z" fill="#ECECEC"/>
<path d="M158.217 161.759L153.014 162.655L156.842 184.87L162.045 183.974L158.217 161.759Z" fill="#ECECEC"/>
<path d="M110.559 165.223H105.28V184.832H110.559V165.223Z" fill="#ECECEC"/>
<path d="M122.626 165.223H117.347V184.832H122.626V165.223Z" fill="#ECECEC"/>
<path d="M153.046 165.223H147.766V184.832H153.046V165.223Z" fill="#ECECEC"/>
<path d="M136.269 164.552L131.115 165.698L135.368 184.84L140.522 183.695L136.269 164.552Z" fill="#ECECEC"/>
<path d="M115 161.2H112.403V184.832H115V161.2Z" fill="#ECECEC"/>
<path d="M146.258 161.2H143.66V184.832H146.258V161.2Z" fill="#ECECEC"/>
<path d="M98.7734 215.999H191.121V189.099H98.7734V215.999Z" fill="#E1E1E1"/>
<path d="M185.779 215.996H191.059V193.454H185.779V215.996Z" fill="#ECECEC"/>
<path d="M160.446 215.996H165.725V193.454H160.446V215.996Z" fill="#ECECEC"/>
<path d="M127.829 215.069L133.031 215.966L136.859 193.75L131.656 192.853L127.829 215.069Z" fill="#ECECEC"/>
<path d="M179.317 216.034H184.597V196.426H179.317V216.034Z" fill="#ECECEC"/>
<path d="M167.271 216.034H172.552V196.426H167.271V216.034Z" fill="#ECECEC"/>
<path d="M136.829 216.034H142.108V196.426H136.829V216.034Z" fill="#ECECEC"/>
<path d="M149.281 214.879L154.434 216.023L158.688 196.881L153.534 195.736L149.281 214.879Z" fill="#ECECEC"/>
<path d="M174.83 215.967H177.428V192.335H174.83V215.967Z" fill="#ECECEC"/>
<path d="M143.606 215.967H146.204V192.335H143.606V215.967Z" fill="#ECECEC"/>
<path d="M104.023 193.464H98.7434V216.005H104.023V193.464Z" fill="#ECECEC"/>
<path d="M110.559 196.396H105.28V216.005H110.559V196.396Z" fill="#ECECEC"/>
<path d="M122.626 196.396H117.347V216.005H122.626V196.396Z" fill="#ECECEC"/>
<path d="M115 192.375H112.403V216.005H115V192.375Z" fill="#ECECEC"/>
<path d="M191.091 220.28H98.7439V247.179H191.091V220.28Z" fill="#E1E1E1"/>
<path d="M157.068 224.636H151.789V247.179H157.068V224.636Z" fill="#ECECEC"/>
<path d="M185.857 224.022L180.655 224.919L184.482 247.133L189.685 246.237L185.857 224.022Z" fill="#ECECEC"/>
<path d="M138.213 227.569H132.934V247.179H138.213V227.569Z" fill="#ECECEC"/>
<path d="M150.197 227.569H144.917V247.179H150.197V227.569Z" fill="#ECECEC"/>
<path d="M180.699 227.569H175.42V247.179H180.699V227.569Z" fill="#ECECEC"/>
<path d="M163.927 226.894L158.773 228.039L163.026 247.182L168.18 246.035L163.927 226.894Z" fill="#ECECEC"/>
<path d="M142.654 223.464H140.057V247.095H142.654V223.464Z" fill="#ECECEC"/>
<path d="M173.828 223.464H171.23V247.095H173.828V223.464Z" fill="#ECECEC"/>
<path d="M125.437 224.032L120.234 224.928L124.062 247.143L129.265 246.247L125.437 224.032Z" fill="#ECECEC"/>
<path d="M120.28 227.569H115V247.179H120.28V227.569Z" fill="#ECECEC"/>
<path d="M103.591 226.891L98.4373 228.036L102.69 247.179L107.844 246.034L103.591 226.891Z" fill="#ECECEC"/>
<path d="M113.492 223.464H110.895V247.095H113.492V223.464Z" fill="#ECECEC"/>
<path d="M78.0554 299.432H95.2344V153.369H78.0554V299.432Z" fill="#E1E1E1"/>
<path d="M252.766 295.615H238.186L245.812 233.268C246.147 230.67 248.577 228.491 251.174 228.491H256.203H314.778L305.476 295.615H252.766Z" fill="#F5F5F5"/>
<path d="M298.94 295.615H313.522L321.148 233.268C321.483 230.67 319.556 228.491 316.958 228.491H311.93C309.332 228.491 306.902 230.67 306.566 233.268L298.94 295.615Z" fill="#F0F0F0"/>
<path d="M293.578 295.531L296.176 265.364C296.26 264.023 297.348 262.933 298.689 262.765L299.779 262.598C301.538 262.347 302.963 260.922 303.131 259.079L303.634 253.547C303.802 251.285 302.042 249.358 299.779 249.358H324.081C326.343 249.358 328.103 251.285 327.935 253.547L327.433 259.079C327.265 260.922 325.841 262.347 324.081 262.598L322.991 262.765C321.65 262.933 320.644 264.023 320.477 265.364L317.88 295.531C317.712 297.711 315.868 299.386 313.606 299.386H289.303C291.567 299.386 293.41 297.711 293.578 295.531Z" fill="#E7E7E7"/>
<path d="M226.622 257.822C226.202 253.045 222.264 249.442 217.488 249.442H229.302H238.688C243.466 249.442 247.404 253.045 247.822 257.822L249.918 281.705H228.716L226.622 257.822Z" fill="#E7E7E7"/>
<path d="M208.018 249.442H217.404C222.18 249.442 226.118 253.045 226.538 257.822L228.633 281.705H279.079L281.175 257.822C281.594 253.045 285.533 249.442 290.31 249.442H299.695C301.957 249.442 303.717 251.369 303.549 253.631L303.047 259.163C302.879 261.006 301.455 262.431 299.695 262.682L298.605 262.849C297.264 263.017 296.258 264.106 296.091 265.447L293.494 295.615C293.327 297.794 291.482 299.47 289.22 299.47H218.409C216.23 299.47 214.387 297.794 214.136 295.615L211.538 265.447C211.454 264.106 210.364 263.017 209.023 262.849L207.935 262.682C206.175 262.431 204.75 261.006 204.583 259.163L204.079 253.631C203.996 251.369 205.755 249.442 208.018 249.442Z" fill="#F0F0F0"/>
<path d="M96.481 146.033C96.481 146.033 95.7268 140.921 99.414 137.653C103.101 134.385 102.85 132.457 101.76 132.206C100.671 131.954 99.7492 135.223 98.0732 136.144C98.0732 136.144 97.9894 131.452 99.6653 129.776C101.341 128.016 102.179 123.658 100.587 123.574C98.995 123.491 98.8274 126.172 98.4922 128.1C98.157 130.027 96.3971 132.708 96.3971 132.708C96.3971 132.708 96.062 128.519 94.9726 126.843C93.8832 125.083 96.7325 121.228 95.6431 119.468C94.5537 117.708 92.5425 121.06 92.7101 124.748C92.8777 128.435 95.3078 132.373 94.7213 136.228C94.7213 136.228 93.6319 133.547 92.6262 133.295C91.6207 133.044 90.6989 131.284 90.0284 130.614C89.358 129.943 88.5201 132.206 90.0284 134.385C91.5368 136.48 95.3078 142.178 94.7213 146.787L96.481 146.033Z" fill="#E7E7E7"/>
<path d="M98.7437 143.77L100.001 151.396C100.336 153.742 98.5762 155.921 96.1461 155.921H94.8052C92.375 155.921 90.6152 153.742 90.9504 151.396L92.2074 143.77H98.7437Z" fill="#E7E7E7"/>
<path d="M172.085 154.408H175.856V138.067H172.085V154.408Z" fill="#ECECEC"/>
<path d="M153.677 154.408H157.448V138.067H153.677V154.408Z" fill="#ECECEC"/>
<path d="M130.042 153.736L133.759 154.376L136.533 138.272L132.817 137.632L130.042 153.736Z" fill="#ECECEC"/>
<path d="M167.358 154.383H171.129V140.221H167.358V154.383Z" fill="#ECECEC"/>
<path d="M158.599 154.383H162.37V140.221H158.599V154.383Z" fill="#ECECEC"/>
<path d="M136.532 154.383H140.303V140.221H136.532V154.383Z" fill="#ECECEC"/>
<path d="M145.57 153.566L149.251 154.384L152.323 140.559L148.641 139.741L145.57 153.566Z" fill="#ECECEC"/>
<path d="M163.995 154.435H165.922V137.256H163.995V154.435Z" fill="#ECECEC"/>
<path d="M141.402 154.435H143.329V137.256H141.402V154.435Z" fill="#ECECEC"/>
<path d="M127.822 141.424H109.302V154.245H127.822V141.424Z" fill="#ECECEC"/>
<path d="M191.342 146.703H175.839V156.256H191.342V146.703Z" fill="#ECECEC"/>
<path d="M187.823 138.323H180.029V147.876H187.823V138.323Z" fill="#ECECEC"/>
<path d="M317.376 125.67H298.94V202.598H317.376V125.67Z" fill="#E1E1E1"/>
<path d="M246.391 202.741H315.441V125.646H246.391V202.741Z" fill="#E1E1E1"/>
<path d="M244.195 202.741H315.76V125.646H244.195V202.741Z" fill="#F0F0F0"/>
<path d="M247.243 199.228H312.858V128.166H247.243V199.228Z" fill="white"/>
<path d="M247.217 199.227H248.474V128.165H247.217V199.227Z" fill="#E1E1E1"/>
<path d="M248.23 179.244V181.171H313.007V179.244H248.23Z" fill="#E1E1E1"/>
<path d="M247.266 179.231H313.887V176.047H247.266V179.231Z" fill="#F0F0F0"/>
<path d="M199.974 330.895C274.903 330.895 335.645 327.33 335.645 322.934C335.645 318.536 274.903 314.973 199.974 314.973C125.044 314.973 64.302 318.536 64.302 322.934C64.302 327.33 125.044 330.895 199.974 330.895Z" fill="#F5F5F5"/>
<path d="M249.331 296.284H126.146C122.794 296.284 120.029 293.52 120.029 290.167V144.776C120.029 141.424 122.794 138.658 126.146 138.658H249.331C252.683 138.658 255.448 141.424 255.448 144.776V290.167C255.448 293.52 252.683 296.284 249.331 296.284Z" fill="#C8A443"/>
<path opacity="0.7" d="M249.331 296.284H126.146C122.794 296.284 120.029 293.52 120.029 290.167V144.776C120.029 141.424 122.794 138.658 126.146 138.658H249.331C252.683 138.658 255.448 141.424 255.448 144.776V290.167C255.448 293.52 252.683 296.284 249.331 296.284Z" fill="white"/>
<path d="M233.577 210.894H141.984V226.564H233.577V210.894Z" fill="white"/>
<g opacity="0.4">
<path d="M149.945 216.592C150.281 216.844 150.448 217.263 150.448 217.681C150.448 218.101 150.281 218.52 149.945 218.771C149.61 219.022 149.191 219.191 148.604 219.191H147.431V220.616H146.928V216.173H148.604C149.191 216.257 149.61 216.34 149.945 216.592ZM149.61 218.52C149.862 218.353 149.945 218.018 149.945 217.681C149.945 217.347 149.862 217.012 149.61 216.844C149.359 216.677 149.023 216.592 148.604 216.592H147.431V218.771H148.604C149.023 218.855 149.359 218.771 149.61 218.52Z" fill="#2B2B2B"/>
<path d="M154.052 217.681C154.303 217.934 154.387 218.269 154.387 218.771V220.7H153.968V218.855C153.968 218.52 153.884 218.269 153.716 218.101C153.549 217.934 153.297 217.849 152.962 217.849C152.627 217.849 152.291 217.934 152.124 218.185C151.956 218.436 151.789 218.687 151.789 219.107V220.867H151.369V215.922H151.789V217.849C151.872 217.681 152.04 217.514 152.291 217.43C152.543 217.346 152.794 217.263 153.046 217.263C153.549 217.263 153.884 217.43 154.052 217.681Z" fill="#2B2B2B"/>
<path d="M156.146 220.447C155.895 220.28 155.727 220.112 155.559 219.861C155.392 219.61 155.308 219.273 155.308 219.022C155.308 218.771 155.392 218.436 155.559 218.184C155.727 217.933 155.895 217.765 156.146 217.598C156.398 217.43 156.733 217.346 156.984 217.346C157.236 217.346 157.571 217.43 157.823 217.598C158.074 217.765 158.242 217.933 158.409 218.184C158.577 218.436 158.661 218.771 158.661 219.022C158.661 219.273 158.577 219.61 158.409 219.861C158.242 220.112 158.074 220.28 157.823 220.447C157.571 220.614 157.236 220.698 156.984 220.698C156.733 220.698 156.481 220.614 156.146 220.447ZM157.655 220.112C157.823 220.028 157.99 219.861 158.074 219.693C158.158 219.526 158.242 219.273 158.242 219.022C158.242 218.771 158.158 218.52 158.074 218.353C157.99 218.184 157.823 218.016 157.655 217.933C157.487 217.849 157.236 217.765 156.984 217.765C156.733 217.765 156.565 217.849 156.314 217.933C156.146 218.016 155.978 218.184 155.895 218.353C155.811 218.52 155.727 218.771 155.727 219.022C155.727 219.273 155.811 219.526 155.895 219.693C155.978 219.861 156.146 220.028 156.314 220.112C156.481 220.196 156.733 220.28 156.984 220.28C157.236 220.28 157.487 220.196 157.655 220.112Z" fill="#2B2B2B"/>
<path d="M162.348 217.681C162.599 217.933 162.683 218.267 162.683 218.771V220.698H162.264V218.855C162.264 218.52 162.18 218.267 162.012 218.1C161.845 217.933 161.593 217.849 161.258 217.849C160.923 217.849 160.587 217.933 160.42 218.184C160.252 218.436 160.084 218.687 160.084 219.106V220.867H159.665V217.514H160.084V218.1C160.168 217.933 160.336 217.765 160.587 217.598C160.839 217.514 161.09 217.43 161.342 217.43C161.761 217.263 162.096 217.43 162.348 217.681Z" fill="#2B2B2B"/>
<path d="M166.873 219.106H164.106C164.106 219.441 164.275 219.693 164.526 219.945C164.778 220.196 165.029 220.28 165.449 220.28C165.616 220.28 165.867 220.28 166.035 220.196C166.202 220.112 166.37 220.028 166.453 219.861L166.706 220.112C166.537 220.28 166.37 220.447 166.119 220.531C165.867 220.614 165.616 220.698 165.364 220.698C165.029 220.698 164.694 220.614 164.443 220.447C164.191 220.28 163.939 220.112 163.855 219.861C163.688 219.61 163.604 219.273 163.604 219.022C163.604 218.771 163.688 218.436 163.855 218.184C164.023 217.933 164.191 217.765 164.443 217.598C164.694 217.43 164.945 217.346 165.28 217.346C165.616 217.346 165.867 217.43 166.119 217.598C166.37 217.765 166.537 217.933 166.706 218.184C166.873 218.436 166.873 218.771 166.873 219.022V219.106ZM164.443 218.016C164.191 218.184 164.106 218.52 164.106 218.855H166.453C166.453 218.52 166.286 218.267 166.119 218.016C165.867 217.849 165.616 217.681 165.28 217.681C164.945 217.681 164.61 217.765 164.443 218.016Z" fill="#2B2B2B"/>
</g>
<path d="M233.577 232.346H141.984V248.016H233.577V232.346Z" fill="white"/>
<g opacity="0.4">
<path d="M150.448 239.218C150.448 240.14 149.778 240.728 148.604 240.728H147.431V242.153H146.928V237.626H148.604C149.778 237.626 150.448 238.213 150.448 239.218ZM150.029 239.218C150.029 238.464 149.526 238.13 148.688 238.13H147.515V240.392H148.688C149.526 240.308 150.029 239.889 150.029 239.218Z" fill="#2B2B2B"/>
<path d="M153.884 240.057V242.151H153.465V241.649C153.297 241.984 152.878 242.235 152.291 242.235C151.537 242.235 151.034 241.816 151.034 241.23C151.034 240.726 151.369 240.308 152.375 240.308H153.465V240.14C153.465 239.553 153.13 239.218 152.543 239.218C152.124 239.218 151.705 239.385 151.453 239.637L151.286 239.302C151.621 239.051 152.124 238.883 152.627 238.883C153.465 238.714 153.884 239.134 153.884 240.057ZM153.465 241.146V240.559H152.375C151.705 240.559 151.537 240.81 151.537 241.146C151.537 241.565 151.872 241.816 152.375 241.816C152.878 241.816 153.297 241.565 153.465 241.146Z" fill="#2B2B2B"/>
<path d="M154.721 241.732L154.889 241.396C155.14 241.649 155.643 241.816 156.063 241.816C156.733 241.816 156.984 241.565 156.984 241.229C156.984 240.391 154.805 241.061 154.805 239.72C154.805 239.134 155.308 238.798 156.146 238.798C156.565 238.798 157.068 238.882 157.32 239.134L157.152 239.469C156.817 239.302 156.482 239.218 156.146 239.218C155.56 239.218 155.308 239.469 155.308 239.804C155.308 240.726 157.487 240.055 157.487 241.312C157.487 241.9 156.984 242.235 156.063 242.235C155.476 242.151 154.973 241.984 154.721 241.732Z" fill="#2B2B2B"/>
<path d="M157.822 241.732L157.99 241.396C158.241 241.649 158.744 241.816 159.163 241.816C159.834 241.816 160.085 241.565 160.085 241.229C160.085 240.391 157.906 241.061 157.906 239.72C157.906 239.134 158.409 238.798 159.247 238.798C159.666 238.798 160.169 238.882 160.42 239.134L160.253 239.469C159.917 239.302 159.582 239.218 159.247 239.218C158.66 239.218 158.409 239.469 158.409 239.804C158.409 240.726 160.588 240.055 160.588 241.312C160.588 241.9 160.085 242.235 159.163 242.235C158.66 242.151 158.073 241.984 157.822 241.732Z" fill="#2B2B2B"/>
<path d="M166.287 238.798L165.03 242.151H164.61L163.522 239.385L162.432 242.151H162.012L160.755 238.798H161.174L162.263 241.649L163.353 238.798H163.773L164.863 241.649L165.952 238.798H166.287Z" fill="#2B2B2B"/>
<path d="M166.537 240.475C166.537 239.469 167.292 238.798 168.297 238.798C169.303 238.798 169.974 239.469 169.974 240.475C169.974 241.48 169.219 242.235 168.297 242.235C167.292 242.151 166.537 241.48 166.537 240.475ZM169.554 240.475C169.554 239.72 169.052 239.134 168.297 239.134C167.543 239.134 167.039 239.637 167.039 240.475C167.039 241.229 167.543 241.816 168.297 241.816C169.052 241.732 169.554 241.229 169.554 240.475Z" fill="#2B2B2B"/>
<path d="M172.655 238.714V239.134H172.571C171.9 239.134 171.397 239.553 171.397 240.391V242.151H170.979V238.799H171.397V239.469C171.565 238.967 171.985 238.714 172.655 238.714Z" fill="#2B2B2B"/>
<path d="M176.51 237.375V242.151H176.091V241.481C175.839 241.9 175.337 242.151 174.749 242.151C173.828 242.151 173.073 241.481 173.073 240.391C173.073 239.385 173.828 238.716 174.749 238.716C175.253 238.716 175.755 238.967 176.006 239.385V237.375H176.51ZM176.091 240.475C176.091 239.72 175.588 239.134 174.834 239.134C174.079 239.134 173.576 239.637 173.576 240.475C173.576 241.23 174.079 241.816 174.834 241.816C175.504 241.732 176.091 241.23 176.091 240.475Z" fill="#2B2B2B"/>
</g>
<path opacity="0.2" d="M230.56 279.693H144.833C143.241 279.693 141.9 278.352 141.9 276.76V266.871C141.9 265.279 143.241 263.939 144.833 263.939H230.56C232.152 263.939 233.493 265.279 233.493 266.871V276.76C233.493 278.352 232.236 279.693 230.56 279.693Z" fill="black"/>
<g opacity="0.5">
<path d="M164.192 256.815H162.683L162.347 257.57H162.012L163.269 254.888H163.521L164.778 257.57H164.443L164.192 256.815ZM164.108 256.564L163.437 255.14L162.767 256.564H164.108Z" fill="black"/>
<path d="M165.196 254.636H165.447V257.487H165.196V254.636Z" fill="black"/>
<path d="M167.292 255.474V255.726H167.207C166.788 255.726 166.537 255.977 166.537 256.481V257.485H166.286V255.474H166.537V255.893C166.621 255.642 166.872 255.474 167.292 255.474Z" fill="black"/>
<path d="M169.471 256.564H167.795C167.795 256.983 168.13 257.234 168.548 257.234C168.799 257.234 169.052 257.15 169.136 256.983L169.303 257.15C169.136 257.402 168.884 257.485 168.548 257.485C167.962 257.485 167.46 257.067 167.46 256.481C167.46 255.893 167.878 255.474 168.464 255.474C169.052 255.474 169.471 255.893 169.471 256.481C169.471 256.564 169.471 256.564 169.471 256.564ZM167.795 256.395H169.219C169.219 255.977 168.884 255.726 168.464 255.726C168.13 255.726 167.878 255.977 167.795 256.395Z" fill="black"/>
<path d="M171.481 256.228V257.485H171.23V257.15C171.146 257.318 170.895 257.485 170.56 257.485C170.14 257.485 169.805 257.234 169.805 256.899C169.805 256.564 169.973 256.312 170.56 256.312H171.23V256.228C171.23 255.893 171.063 255.726 170.644 255.726C170.391 255.726 170.14 255.809 169.973 255.977L169.889 255.809C170.057 255.642 170.391 255.558 170.728 255.558C171.23 255.474 171.481 255.726 171.481 256.228ZM171.23 256.899V256.564H170.56C170.14 256.564 170.057 256.732 170.057 256.899C170.057 257.15 170.224 257.318 170.56 257.318C170.895 257.318 171.146 257.15 171.23 256.899Z" fill="black"/>
<path d="M174.08 254.636V257.487H173.828V257.067C173.661 257.319 173.41 257.487 173.074 257.487C172.487 257.487 172.069 257.067 172.069 256.481C172.069 255.893 172.487 255.474 173.074 255.474C173.41 255.474 173.661 255.642 173.828 255.893V254.72H174.08V254.636ZM173.828 256.481C173.828 255.978 173.494 255.726 173.074 255.726C172.655 255.726 172.32 256.062 172.32 256.481C172.32 256.899 172.655 257.235 173.074 257.235C173.494 257.319 173.828 256.983 173.828 256.481Z" fill="black"/>
<path d="M176.594 255.474L175.588 257.738C175.42 258.156 175.169 258.24 174.918 258.24C174.749 258.24 174.582 258.156 174.414 258.073L174.582 257.905C174.665 257.989 174.833 258.073 174.918 258.073C175.085 258.073 175.253 257.989 175.337 257.738L175.42 257.57L174.498 255.558H174.749L175.504 257.234L176.259 255.558H176.594V255.474Z" fill="black"/>
<path d="M179.442 256.228V257.485H179.191V257.15C179.107 257.318 178.856 257.485 178.521 257.485C178.101 257.485 177.766 257.234 177.766 256.899C177.766 256.564 177.934 256.312 178.521 256.312H179.191V256.228C179.191 255.893 179.023 255.726 178.605 255.726C178.354 255.726 178.101 255.809 177.934 255.977L177.85 255.809C178.017 255.642 178.354 255.558 178.688 255.558C179.191 255.474 179.442 255.726 179.442 256.228ZM179.191 256.899V256.564H178.521C178.101 256.564 178.017 256.732 178.017 256.899C178.017 257.15 178.186 257.318 178.521 257.318C178.856 257.318 179.107 257.15 179.191 256.899Z" fill="black"/>
<path d="M184.555 256.313V257.487H184.304V256.313C184.304 255.894 184.052 255.642 183.716 255.642C183.298 255.642 183.046 255.894 183.046 256.397V257.487H182.795V256.313C182.795 255.894 182.544 255.642 182.208 255.642C181.789 255.642 181.538 255.894 181.538 256.397V257.487H181.285V255.474H181.538V255.809C181.705 255.558 181.957 255.391 182.291 255.391C182.628 255.391 182.879 255.558 183.046 255.809C183.214 255.558 183.465 255.391 183.885 255.391C184.22 255.474 184.555 255.726 184.555 256.313Z" fill="black"/>
<path d="M187.068 256.564H185.392C185.392 256.983 185.727 257.234 186.146 257.234C186.398 257.234 186.649 257.15 186.733 256.983L186.9 257.15C186.733 257.402 186.482 257.485 186.146 257.485C185.559 257.485 185.057 257.067 185.057 256.481C185.057 255.893 185.476 255.474 186.062 255.474C186.649 255.474 187.068 255.893 187.068 256.481C187.068 256.564 187.068 256.564 187.068 256.564ZM185.392 256.395H186.817C186.817 255.977 186.482 255.726 186.062 255.726C185.727 255.726 185.392 255.977 185.392 256.395Z" fill="black"/>
<path d="M190.923 256.313V257.487H190.672V256.313C190.672 255.894 190.421 255.642 190.086 255.642C189.666 255.642 189.415 255.894 189.415 256.397V257.487H189.164V256.313C189.164 255.894 188.913 255.642 188.576 255.642C188.158 255.642 187.906 255.894 187.906 256.397V257.487H187.655V255.474H187.906V255.809C188.074 255.558 188.325 255.391 188.66 255.391C188.996 255.391 189.247 255.558 189.415 255.809C189.582 255.558 189.834 255.391 190.254 255.391C190.588 255.474 190.923 255.726 190.923 256.313Z" fill="black"/>
<path d="M193.773 256.481C193.773 257.067 193.354 257.487 192.767 257.487C192.432 257.487 192.181 257.319 192.012 257.067V257.487H191.761V254.636H192.012V255.809C192.181 255.558 192.432 255.391 192.767 255.391C193.269 255.474 193.773 255.893 193.773 256.481ZM193.438 256.481C193.438 255.978 193.102 255.726 192.683 255.726C192.264 255.726 191.928 256.062 191.928 256.481C191.928 256.899 192.264 257.235 192.683 257.235C193.102 257.319 193.438 256.983 193.438 256.481Z" fill="black"/>
<path d="M196.035 256.564H194.359C194.359 256.983 194.694 257.234 195.112 257.234C195.364 257.234 195.616 257.15 195.7 256.983L195.867 257.15C195.7 257.402 195.449 257.485 195.112 257.485C194.526 257.485 194.024 257.067 194.024 256.481C194.024 255.893 194.443 255.474 195.029 255.474C195.616 255.474 196.035 255.893 196.035 256.481C196.035 256.564 196.035 256.564 196.035 256.564ZM194.359 256.395H195.784C195.784 255.977 195.449 255.726 195.029 255.726C194.694 255.726 194.359 255.977 194.359 256.395Z" fill="black"/>
<path d="M197.627 255.474V255.726H197.543C197.125 255.726 196.872 255.977 196.872 256.481V257.485H196.621V255.474H196.872V255.893C196.957 255.642 197.292 255.474 197.627 255.474Z" fill="black"/>
<path d="M199.387 255.558C199.387 255.307 199.135 255.056 198.801 255.056C198.466 255.056 198.213 255.14 198.046 255.391L197.878 255.223C198.046 254.972 198.382 254.805 198.801 254.805C199.303 254.805 199.723 255.056 199.723 255.474C199.723 256.146 199.052 256.146 199.052 256.732H198.801C198.717 256.062 199.387 256.062 199.387 255.558ZM198.633 257.319C198.633 257.235 198.717 257.152 198.801 257.152C198.884 257.152 198.968 257.235 198.968 257.319C198.968 257.403 198.884 257.487 198.801 257.487C198.717 257.57 198.633 257.403 198.633 257.319Z" fill="black"/>
<path d="M201.314 254.805H201.901V256.984H203.242V257.487H201.314V254.805Z" fill="black"/>
<path d="M203.409 256.481C203.409 255.893 203.912 255.391 204.583 255.391C205.253 255.391 205.671 255.809 205.671 256.481C205.671 257.067 205.169 257.57 204.583 257.57C203.828 257.57 203.409 257.067 203.409 256.481ZM205.085 256.481C205.085 256.146 204.834 255.893 204.583 255.893C204.247 255.893 204.079 256.146 204.079 256.481C204.079 256.815 204.33 257.067 204.583 257.067C204.834 257.067 205.085 256.815 205.085 256.481Z" fill="black"/>
<path d="M208.186 255.474V257.152C208.186 257.905 207.767 258.24 207.012 258.24C206.594 258.24 206.259 258.156 206.008 257.989L206.259 257.57C206.426 257.738 206.761 257.822 207.012 257.822C207.432 257.822 207.6 257.654 207.6 257.235V257.152C207.432 257.319 207.18 257.403 206.929 257.403C206.343 257.403 205.923 256.983 205.923 256.397C205.923 255.809 206.343 255.391 206.929 255.391C207.18 255.391 207.432 255.474 207.6 255.726V255.474H208.186ZM207.6 256.397C207.6 256.062 207.349 255.894 207.096 255.894C206.761 255.894 206.594 256.062 206.594 256.397C206.594 256.732 206.845 256.899 207.096 256.899C207.349 256.899 207.6 256.732 207.6 256.397Z" fill="black"/>
<path d="M209.778 254.805C209.778 254.637 209.946 254.468 210.113 254.468C210.364 254.468 210.448 254.637 210.448 254.805C210.448 254.972 210.28 255.14 210.113 255.14C209.862 255.14 209.778 255.056 209.778 254.805ZM209.862 255.474H210.448V257.57H209.862V255.474Z" fill="black"/>
<path d="M213.046 256.313V257.485H212.46V256.397C212.46 256.062 212.293 255.893 212.04 255.893C211.789 255.893 211.538 256.062 211.538 256.481V257.485H210.952V255.391H211.538V255.642C211.705 255.474 211.956 255.391 212.208 255.391C212.711 255.391 213.046 255.726 213.046 256.313Z" fill="black"/>
</g>
<path d="M230.058 278.687H145.336C143.493 278.687 141.9 277.179 141.9 275.251V266.368C141.9 264.525 143.409 262.933 145.336 262.933H230.058C231.901 262.933 233.493 264.441 233.493 266.368V275.251C233.493 277.179 231.985 278.687 230.058 278.687Z" fill="#C8A443"/>
<path d="M175.924 273.326L174.751 271.65C174.667 271.65 174.499 271.65 174.414 271.65H173.073V273.242H172.32V267.877H174.414C175.84 267.877 176.678 268.548 176.678 269.722C176.678 270.56 176.259 271.146 175.504 271.397L176.761 273.158H175.924V273.326ZM175.84 269.805C175.84 269.05 175.337 268.632 174.331 268.632H172.99V271.063H174.331C175.337 271.063 175.84 270.56 175.84 269.805Z" fill="white"/>
<path d="M181.454 271.565H178.186C178.27 272.32 178.856 272.738 179.695 272.738C180.197 272.738 180.533 272.571 180.868 272.236L181.287 272.738C180.952 273.157 180.366 273.41 179.695 273.41C178.354 273.41 177.515 272.571 177.515 271.314C177.515 270.14 178.354 269.218 179.527 269.218C180.701 269.218 181.538 270.056 181.538 271.314C181.454 271.397 181.454 271.481 181.454 271.565ZM178.102 270.979H180.701C180.617 270.308 180.113 269.805 179.36 269.805C178.772 269.805 178.186 270.308 178.102 270.979Z" fill="white"/>
<path d="M186.398 269.218V272.737C186.398 274.162 185.643 274.833 184.302 274.833C183.549 274.833 182.794 274.665 182.375 274.245L182.71 273.659C183.046 273.994 183.716 274.162 184.302 274.162C185.225 274.162 185.727 273.743 185.727 272.822V272.486C185.392 272.906 184.806 273.157 184.302 273.157C183.13 273.157 182.208 272.318 182.208 271.145C182.208 269.973 183.13 269.218 184.302 269.218C184.89 269.218 185.476 269.469 185.811 269.889V269.218H186.398ZM185.643 271.145C185.643 270.391 185.057 269.805 184.219 269.805C183.381 269.805 182.794 270.308 182.794 271.145C182.794 271.9 183.381 272.486 184.219 272.486C185.057 272.486 185.643 271.983 185.643 271.145Z" fill="white"/>
<path d="M187.655 267.96C187.655 267.709 187.906 267.458 188.158 267.458C188.409 267.458 188.66 267.626 188.66 267.96C188.66 268.213 188.493 268.464 188.158 268.464C187.823 268.464 187.655 268.297 187.655 267.96ZM187.739 269.218H188.493V273.241H187.739V269.218Z" fill="white"/>
<path d="M189.415 272.906L189.75 272.318C190.085 272.571 190.672 272.738 191.174 272.738C191.846 272.738 192.18 272.571 192.18 272.151C192.18 271.229 189.582 272.067 189.582 270.391C189.582 269.636 190.253 269.134 191.258 269.134C191.762 269.134 192.348 269.301 192.768 269.469L192.432 270.055C192.097 269.804 191.678 269.72 191.258 269.72C190.588 269.72 190.337 269.971 190.337 270.308C190.337 271.229 192.935 270.475 192.935 272.067C192.935 272.822 192.264 273.241 191.174 273.241C190.421 273.324 189.75 273.157 189.415 272.906Z" fill="white"/>
<path d="M196.036 273.075C195.784 273.242 195.449 273.326 195.114 273.326C194.275 273.326 193.856 272.906 193.856 272.069V269.805H193.185V269.218H193.856V268.297H194.61V269.218H195.784V269.805H194.61V271.985C194.61 272.404 194.863 272.655 195.281 272.655C195.532 272.655 195.7 272.571 195.867 272.487L196.036 273.075Z" fill="white"/>
<path d="M200.478 271.565H197.208C197.292 272.32 197.879 272.738 198.717 272.738C199.22 272.738 199.555 272.571 199.89 272.236L200.31 272.738C199.974 273.157 199.388 273.41 198.717 273.41C197.376 273.41 196.537 272.571 196.537 271.314C196.537 270.14 197.376 269.218 198.549 269.218C199.723 269.218 200.561 270.056 200.561 271.314C200.478 271.397 200.478 271.481 200.478 271.565ZM197.125 270.979H199.723C199.639 270.308 199.137 269.805 198.382 269.805C197.711 269.805 197.208 270.308 197.125 270.979Z" fill="white"/>
<path d="M203.661 269.218V269.973C203.577 269.973 203.577 269.973 203.493 269.973C202.74 269.973 202.236 270.475 202.236 271.314V273.326H201.482V269.302H202.152V269.973C202.487 269.469 202.991 269.218 203.661 269.218Z" fill="white"/>
<g opacity="0.6">
<path d="M171.732 155.921L172.067 155.25C172.487 155.669 173.241 155.921 173.996 155.921C175 155.921 175.42 155.502 175.42 154.999C175.42 153.574 171.9 154.496 171.9 152.317C171.9 151.396 172.571 150.641 174.163 150.641C174.833 150.641 175.588 150.809 176.09 151.144L175.839 151.815C175.337 151.479 174.749 151.312 174.247 151.312C173.241 151.312 172.822 151.731 172.822 152.234C172.822 153.658 176.341 152.736 176.341 154.915C176.341 155.837 175.588 156.591 174.079 156.591C173.073 156.675 172.152 156.423 171.732 155.921Z" fill="#2B2B2B"/>
<path d="M177.18 150.809C177.18 150.474 177.431 150.306 177.766 150.306C178.101 150.306 178.354 150.557 178.354 150.809C178.354 151.144 178.101 151.312 177.766 151.312C177.431 151.312 177.18 151.06 177.18 150.809ZM177.348 152.15H178.185V156.591H177.348V152.15Z" fill="#2B2B2B"/>
<path d="M183.967 152.15V156.005C183.967 157.597 183.13 158.268 181.622 158.268C180.783 158.268 179.946 158.016 179.526 157.597L179.946 157.011C180.364 157.346 181.034 157.597 181.622 157.597C182.71 157.597 183.13 157.094 183.13 156.089V155.754C182.71 156.256 182.124 156.424 181.538 156.424C180.281 156.424 179.275 155.586 179.275 154.245C179.275 152.988 180.281 152.066 181.538 152.066C182.208 152.066 182.794 152.318 183.214 152.821V152.15H183.967ZM183.13 154.329C183.13 153.491 182.459 152.904 181.622 152.904C180.699 152.904 180.113 153.491 180.113 154.329C180.113 155.167 180.783 155.754 181.622 155.754C182.543 155.754 183.13 155.167 183.13 154.329Z" fill="#2B2B2B"/>
<path d="M189.668 154.078V156.676H188.829V154.246C188.829 153.407 188.41 152.904 187.655 152.904C186.817 152.904 186.231 153.407 186.231 154.413V156.676H185.392V152.234H186.147V152.904C186.482 152.485 187.069 152.15 187.739 152.15C188.913 152.15 189.668 152.737 189.668 154.078Z" fill="#2B2B2B"/>
<path d="M197.628 152.15V156.592H196.873V155.922C196.538 156.425 195.951 156.676 195.365 156.676C194.191 156.676 193.437 156.006 193.437 154.748V152.15H194.275V154.581C194.275 155.419 194.694 155.922 195.449 155.922C196.287 155.922 196.79 155.419 196.79 154.413V152.15H197.628Z" fill="#2B2B2B"/>
<path d="M203.745 154.412C203.745 155.753 202.822 156.675 201.481 156.675C200.811 156.675 200.309 156.423 199.889 155.921V158.183H199.052V152.066H199.805V152.736C200.142 152.234 200.728 151.982 201.397 151.982C202.822 152.15 203.745 153.071 203.745 154.412ZM202.906 154.412C202.906 153.49 202.236 152.82 201.397 152.82C200.56 152.82 199.889 153.407 199.889 154.412C199.889 155.334 200.56 156.004 201.397 156.004C202.236 156.004 202.906 155.334 202.906 154.412Z" fill="#2B2B2B"/>
</g>
<path d="M233.577 189.525H141.984V205.195H233.577V189.525Z" fill="white"/>
<g opacity="0.4">
<path d="M146.928 194.804H147.431V198.911H149.945V199.33H146.928V194.804Z" fill="#2B2B2B"/>
<path d="M153.213 197.151V199.246H152.794V198.743C152.627 199.078 152.208 199.33 151.621 199.33C150.866 199.33 150.364 198.911 150.364 198.324C150.364 197.821 150.699 197.402 151.705 197.402H152.794V197.234C152.794 196.648 152.459 196.313 151.872 196.313C151.453 196.313 151.034 196.48 150.783 196.732L150.615 196.396C150.95 196.145 151.453 195.977 151.956 195.977C152.711 195.893 153.213 196.313 153.213 197.151ZM152.711 198.24V197.654H151.705C151.034 197.654 150.866 197.905 150.866 198.24C150.866 198.659 151.202 198.911 151.705 198.911C152.208 198.995 152.543 198.743 152.711 198.24Z" fill="#2B2B2B"/>
<path d="M153.967 198.911L154.135 198.576C154.386 198.827 154.889 198.995 155.308 198.995C155.979 198.995 156.23 198.743 156.23 198.408C156.23 197.57 154.051 198.24 154.051 196.899C154.051 196.312 154.554 195.977 155.392 195.977C155.811 195.977 156.314 196.061 156.565 196.312L156.398 196.648C156.063 196.48 155.727 196.396 155.392 196.396C154.805 196.396 154.554 196.648 154.554 196.983C154.554 197.905 156.733 197.234 156.733 198.492C156.733 199.079 156.23 199.414 155.308 199.414C154.805 199.33 154.218 199.162 153.967 198.911Z" fill="#2B2B2B"/>
<path d="M159.331 199.079C159.163 199.246 158.912 199.33 158.576 199.33C157.906 199.33 157.571 198.995 157.571 198.324V196.313H156.984V195.894H157.571V195.139H157.99V195.894H158.995V196.313H157.99V198.324C157.99 198.743 158.157 198.911 158.576 198.911C158.744 198.911 158.912 198.827 159.079 198.743L159.331 199.079Z" fill="#2B2B2B"/>
<path d="M165.7 194.804V199.33H165.281L162.431 195.726V199.33H161.928V194.804H162.347L165.281 198.408V194.804H165.7Z" fill="#2B2B2B"/>
<path d="M169.638 197.151V199.246H169.219V198.743C169.052 199.078 168.632 199.33 168.046 199.33C167.291 199.33 166.788 198.911 166.788 198.324C166.788 197.821 167.123 197.402 168.129 197.402H169.219V197.234C169.219 196.648 168.884 196.313 168.297 196.313C167.878 196.313 167.46 196.48 167.207 196.732L167.04 196.396C167.374 196.145 167.878 195.977 168.38 195.977C169.135 195.893 169.638 196.313 169.638 197.151ZM169.135 198.24V197.654H168.046C167.374 197.654 167.207 197.905 167.207 198.24C167.207 198.659 167.543 198.911 168.046 198.911C168.632 198.995 168.968 198.743 169.135 198.24Z" fill="#2B2B2B"/>
<path d="M176.426 197.318V199.246H176.008V197.318C176.008 196.564 175.673 196.228 175.002 196.228C174.331 196.228 173.912 196.647 173.912 197.486V199.246H173.493V197.318C173.493 196.564 173.158 196.228 172.487 196.228C171.816 196.228 171.397 196.647 171.397 197.486V199.246H170.979V195.893H171.397V196.48C171.649 196.061 172.069 195.809 172.655 195.809C173.242 195.809 173.661 196.061 173.828 196.564C174.079 196.144 174.583 195.809 175.169 195.809C175.924 195.893 176.426 196.312 176.426 197.318Z" fill="#2B2B2B"/>
<path d="M180.617 197.737H177.766C177.85 198.408 178.353 198.911 179.107 198.911C179.527 198.911 179.862 198.743 180.113 198.492L180.364 198.827C180.029 199.162 179.611 199.414 179.023 199.414C177.933 199.414 177.264 198.659 177.264 197.654C177.264 196.648 177.933 195.977 178.94 195.977C179.862 195.977 180.617 196.648 180.617 197.654C180.617 197.654 180.617 197.654 180.617 197.737ZM177.766 197.402H180.197C180.113 196.732 179.694 196.312 179.023 196.312C178.353 196.229 177.85 196.732 177.766 197.402Z" fill="#2B2B2B"/>
</g>
<path d="M233.577 168.072H141.984V183.742H233.577V168.072Z" fill="white"/>
<g opacity="0.4">
<path d="M147.431 173.771V175.531H149.778V175.95H147.431V177.878H146.928V173.352H150.029V173.771H147.431Z" fill="#2B2B2B"/>
<path d="M150.783 173.435C150.783 173.268 150.95 173.1 151.118 173.1C151.286 173.1 151.453 173.268 151.453 173.435C151.453 173.603 151.286 173.77 151.118 173.77C150.867 173.77 150.783 173.603 150.783 173.435ZM150.867 174.525H151.286V177.878H150.867V174.525Z" fill="#2B2B2B"/>
<path d="M154.303 174.441V174.86H154.219C153.549 174.86 153.046 175.279 153.046 176.117V177.877H152.543V174.524H152.962V175.195C153.213 174.692 153.632 174.441 154.303 174.441Z" fill="#2B2B2B"/>
<path d="M154.637 177.458L154.805 177.123C155.056 177.374 155.56 177.542 155.979 177.542C156.649 177.542 156.901 177.29 156.901 176.955C156.901 176.117 154.721 176.787 154.721 175.446C154.721 174.86 155.224 174.524 156.062 174.524C156.481 174.524 156.984 174.608 157.236 174.86L157.068 175.195C156.733 175.027 156.398 174.943 156.062 174.943C155.476 174.943 155.224 175.195 155.224 175.53C155.224 176.452 157.404 175.782 157.404 177.039C157.404 177.626 156.901 177.961 155.979 177.961C155.476 177.877 154.973 177.709 154.637 177.458Z" fill="#2B2B2B"/>
<path d="M160.085 177.626C159.917 177.793 159.666 177.877 159.331 177.877C158.66 177.877 158.325 177.542 158.325 176.871V174.859H157.738V174.44H158.325V173.686H158.744V174.44H159.75V174.859H158.744V176.871C158.744 177.29 158.912 177.458 159.331 177.458C159.498 177.458 159.666 177.374 159.834 177.29L160.085 177.626Z" fill="#2B2B2B"/>
<path d="M166.37 173.351V177.878H165.951L163.102 174.274V177.878H162.598V173.351H163.018L165.951 176.956V173.351H166.37Z" fill="#2B2B2B"/>
<path d="M170.309 175.782V177.877H169.89V177.374C169.721 177.71 169.303 177.961 168.717 177.961C167.962 177.961 167.459 177.542 167.459 176.955C167.459 176.452 167.794 176.033 168.8 176.033H169.89V175.866C169.89 175.279 169.554 174.943 168.968 174.943C168.548 174.943 168.129 175.111 167.878 175.363L167.711 175.027C168.046 174.776 168.548 174.608 169.052 174.608C169.805 174.441 170.309 174.86 170.309 175.782ZM169.89 176.871V176.285H168.8C168.129 176.285 167.962 176.536 167.962 176.871C167.962 177.29 168.297 177.542 168.8 177.542C169.303 177.542 169.721 177.29 169.89 176.871Z" fill="#2B2B2B"/>
<path d="M177.097 175.866V177.794H176.677V175.866C176.677 175.111 176.343 174.776 175.671 174.776C175.002 174.776 174.583 175.195 174.583 176.033V177.794H174.163V175.866C174.163 175.111 173.828 174.776 173.157 174.776C172.487 174.776 172.067 175.195 172.067 176.033V177.794H171.648V174.441H172.067V175.028C172.32 174.608 172.738 174.357 173.324 174.357C173.912 174.357 174.33 174.609 174.498 175.111C174.75 174.692 175.253 174.357 175.84 174.357C176.594 174.441 177.097 174.944 177.097 175.866Z" fill="#2B2B2B"/>
<path d="M181.286 176.284H178.521C178.605 176.955 179.107 177.458 179.862 177.458C180.28 177.458 180.615 177.29 180.868 177.039L181.119 177.374C180.784 177.709 180.364 177.961 179.778 177.961C178.688 177.961 178.017 177.207 178.017 176.201C178.017 175.195 178.688 174.524 179.694 174.524C180.615 174.524 181.37 175.195 181.37 176.201C181.287 176.201 181.286 176.284 181.286 176.284ZM178.521 175.949H180.952C180.868 175.279 180.448 174.86 179.778 174.86C179.023 174.86 178.521 175.279 178.521 175.949Z" fill="#2B2B2B"/>
</g>
<path d="M107.543 301.313H106.788C106.788 300.307 107.626 277.179 111.649 273.241C115.839 269.218 120.699 273.157 120.783 273.241L120.28 273.827C120.112 273.659 115.839 270.224 112.235 273.827C108.38 277.515 107.543 301.062 107.543 301.313Z" fill="#996C22"/>
<path d="M107.207 305.923L106.453 305.839C106.453 305.588 109.051 277.766 98.9949 266.285L99.5815 265.782C104.945 271.984 106.788 282.543 107.291 290.42C107.878 298.799 107.207 305.839 107.207 305.923Z" fill="#996C22"/>
<path d="M107.375 302.989C107.291 301.648 105.364 270.726 113.073 263.604L113.576 264.19C106.118 271.062 108.045 302.654 108.129 302.906L107.375 302.989Z" fill="#996C22"/>
<path d="M106.453 302.906C106.453 302.738 106.202 281.956 100.755 278.856C99.6654 278.185 98.576 278.101 97.5703 278.521C94.386 279.862 92.6263 285.978 92.6263 286.063L91.8721 285.894C91.9558 285.643 93.7157 279.358 97.2352 277.85C98.4922 277.347 99.7491 277.431 101.09 278.185C106.956 281.538 107.207 302.068 107.207 302.906H106.453Z" fill="#996C22"/>
<path d="M108.716 302.989C108.716 302.32 107.794 286.566 112.319 280.699C113.492 279.107 114.833 278.436 116.341 278.52C119.526 278.772 122.04 283.045 122.124 283.212L121.453 283.632C121.453 283.632 119.107 279.526 116.341 279.275C115.168 279.191 114.079 279.861 113.073 281.202C108.8 286.817 109.637 302.822 109.637 302.989H108.716Z" fill="#996C22"/>
<path d="M107.962 305.169L107.207 305.085C107.207 304.665 109.973 267.207 105.364 261.006L106.034 260.503C110.811 266.956 108.045 303.577 107.962 305.169Z" fill="#996C22"/>
<path d="M95.9783 281.621C95.9783 281.621 98.8276 282.711 97.9895 285.141C97.1515 287.655 88.1012 291.76 88.1012 291.76C88.1012 291.76 84.3302 288.325 87.7661 282.628C91.2855 277.012 95.9783 279.862 95.9783 281.621Z" fill="#FBB73E"/>
<path opacity="0.2" d="M95.9783 281.621C95.9783 281.621 98.8276 282.711 97.9895 285.141C97.1515 287.655 88.1012 291.76 88.1012 291.76C88.1012 291.76 84.3302 288.325 87.7661 282.628C91.2855 277.012 95.9783 279.862 95.9783 281.621Z" fill="#C8A443"/>
<path d="M108.464 276.844C108.464 276.844 105.448 276.676 105.28 279.358C105.112 281.956 111.9 289.246 111.9 289.246C111.9 289.246 116.76 287.486 115.671 280.95C114.582 274.414 109.218 275.252 108.464 276.844Z" fill="#FBB73E"/>
<path opacity="0.2" d="M108.464 276.844C108.464 276.844 105.448 276.676 105.28 279.358C105.112 281.956 111.9 289.246 111.9 289.246C111.9 289.246 116.76 287.486 115.671 280.95C114.582 274.414 109.218 275.252 108.464 276.844Z" fill="#C8A443"/>
<path d="M110.978 264.358C110.978 264.358 108.967 264.106 109.135 262.933C109.302 261.676 117.012 258.491 121.537 263.688C121.537 263.688 118.604 268.715 114.414 268.799C110.224 268.715 110.978 264.358 110.978 264.358Z" fill="#FBB73E"/>
<path opacity="0.2" d="M110.978 264.358C110.978 264.358 108.967 264.106 109.135 262.933C109.302 261.676 117.012 258.491 121.537 263.688C121.537 263.688 118.604 268.715 114.414 268.799C110.224 268.715 110.978 264.358 110.978 264.358Z" fill="#C8A443"/>
<path d="M107.207 261.341C107.207 261.341 109.051 262.263 109.554 261.09C110.057 259.916 105.196 253.213 98.576 255.14C98.576 255.14 98.4084 260.922 101.928 263.185C105.531 265.447 107.207 261.341 107.207 261.341Z" fill="#FBB73E"/>
<path opacity="0.2" d="M107.207 261.341C107.207 261.341 109.051 262.263 109.554 261.09C110.057 259.916 105.196 253.213 98.576 255.14C98.576 255.14 98.4084 260.922 101.928 263.185C105.531 265.447 107.207 261.341 107.207 261.341Z" fill="#C8A443"/>
<path d="M116.844 280.615C116.844 280.615 115.42 279.526 116.928 278.94C118.436 278.352 125.811 278.521 125.895 285.894C125.895 285.894 117.263 287.319 116.174 284.553C115.168 281.705 116.844 280.615 116.844 280.615Z" fill="#FBB73E"/>
<path opacity="0.2" d="M116.844 280.615C116.844 280.615 115.42 279.526 116.928 278.94C118.436 278.352 125.811 278.521 125.895 285.894C125.895 285.894 117.263 287.319 116.174 284.553C115.168 281.705 116.844 280.615 116.844 280.615Z" fill="#C8A443"/>
<path d="M99.2464 264.106C99.2464 264.106 100.671 263.017 99.1625 262.431C97.6542 261.844 90.2798 262.012 90.196 269.385C90.196 269.385 98.8273 270.81 99.9167 268.046C100.922 265.28 99.2464 264.106 99.2464 264.106Z" fill="#FBB73E"/>
<path opacity="0.2" d="M99.2464 264.106C99.2464 264.106 100.671 263.017 99.1625 262.431C97.6542 261.844 90.2798 262.012 90.196 269.385C90.196 269.385 98.8273 270.81 99.9167 268.046C100.922 265.28 99.2464 264.106 99.2464 264.106Z" fill="#C8A443"/>
<path d="M103.772 270.056C103.772 270.056 103.855 268.715 102.766 269.218C101.677 269.721 97.8219 273.91 101.76 277.85C101.76 277.85 107.124 273.827 106.202 271.816C105.28 269.721 103.772 270.056 103.772 270.056Z" fill="#FBB73E"/>
<path opacity="0.2" d="M103.772 270.056C103.772 270.056 103.855 268.715 102.766 269.218C101.677 269.721 97.8219 273.91 101.76 277.85C101.76 277.85 107.124 273.827 106.202 271.816C105.28 269.721 103.772 270.056 103.772 270.056Z" fill="#C8A443"/>
<path d="M118.101 271.984C118.101 271.984 117.263 270.894 118.52 270.726C119.777 270.559 125.224 272.067 123.967 277.515C123.967 277.515 117.263 277.011 117.012 274.749C116.677 272.57 118.101 271.984 118.101 271.984Z" fill="#FBB73E"/>
<path opacity="0.2" d="M118.101 271.984C118.101 271.984 117.263 270.894 118.52 270.726C119.777 270.559 125.224 272.067 123.967 277.515C123.967 277.515 117.263 277.011 117.012 274.749C116.677 272.57 118.101 271.984 118.101 271.984Z" fill="#C8A443"/>
<path d="M96.4812 323.269H118.185L121.034 302.236H93.6321L96.4812 323.269Z" fill="#2B2B2B"/>
<path opacity="0.2" d="M96.4812 323.269H118.185L121.034 302.236H93.6321L96.4812 323.269Z" fill="white"/>
<path d="M123.716 300.56V302.571C123.716 303.912 122.626 305.001 121.286 305.001H93.0451C91.7044 305.001 90.615 303.912 90.615 302.571V300.56H123.716Z" fill="#2B2B2B"/>
<path d="M303.969 101.2H283.857C280.422 101.2 277.656 103.965 277.656 107.401V124.915C277.656 128.351 280.422 131.116 283.857 131.116H289.723L288.299 136.647L293.912 131.116H303.969C307.405 131.116 310.17 128.351 310.17 124.915V107.401C310.17 103.965 307.405 101.2 303.969 101.2Z" fill="#C8A443"/>
<path opacity="0.7" d="M303.969 101.2H283.857C280.422 101.2 277.656 103.965 277.656 107.401V124.915C277.656 128.351 280.422 131.116 283.857 131.116H289.723L288.299 136.647L293.912 131.116H303.969C307.405 131.116 310.17 128.351 310.17 124.915V107.401C310.17 103.965 307.405 101.2 303.969 101.2Z" fill="white"/>
<path d="M300.967 123.091C304.861 119.197 304.861 112.883 300.967 108.989C297.074 105.094 290.76 105.094 286.865 108.989C282.971 112.883 282.971 119.197 286.865 123.091C290.76 126.986 297.074 126.986 300.967 123.091Z" fill="#C8A443"/>
<path d="M292.908 120.474C292.657 120.474 292.404 120.39 292.237 120.139L288.299 115.53C287.964 115.111 288.048 114.524 288.383 114.273C288.801 113.938 289.387 114.021 289.64 114.357L292.824 118.128L298.103 111.843C298.438 111.424 299.025 111.424 299.36 111.759C299.779 112.094 299.779 112.681 299.444 113.016L293.41 120.055C293.41 120.39 293.159 120.474 292.908 120.474Z" fill="white"/>
<path d="M300.532 209.133C300.532 209.133 288.381 207.625 269.863 212.654C269.863 212.654 266.93 179.636 267.264 175.111C267.599 170.586 295.756 171.927 295.756 171.927C295.756 171.927 296.511 185.167 298.27 193.128C300.114 201.005 301.455 207.541 300.532 209.133Z" fill="#C8A443"/>
<path opacity="0.2" d="M300.532 209.133C300.532 209.133 288.381 207.625 269.863 212.654C269.863 212.654 266.93 179.636 267.264 175.111C267.599 170.586 295.756 171.927 295.756 171.927C295.756 171.927 296.511 185.167 298.27 193.128C300.114 201.005 301.455 207.541 300.532 209.133Z" fill="black"/>
<path d="M260.979 318.323L265.923 319.748L267.097 311.955L267.767 307.85L262.739 306.425L261.9 311.955L260.979 318.323Z" fill="#FD897B"/>
<path d="M289.471 318.743L294.667 319.415V311.956L294.751 307.431L289.555 306.676V311.956L289.471 318.743Z" fill="#FD897B"/>
<path opacity="0.2" d="M289.556 306.676V311.958H294.669L294.753 307.431L289.556 306.676Z" fill="black"/>
<path opacity="0.2" d="M261.901 311.955H267.097L267.767 307.85L262.739 306.425L261.901 311.955Z" fill="black"/>
<path d="M238.857 177.793L233.912 176.368L234.834 181.983C234.834 181.983 239.276 182.988 239.778 180.726L238.857 177.793Z" fill="#FFA88C"/>
<path d="M229.051 177.625L231.482 182.234L234.834 181.983L233.911 176.368L229.051 177.625Z" fill="#FFA88C"/>
<path d="M245.728 179.217L237.6 177.457L236.845 181.396L244.219 183.156L245.728 179.217Z" fill="#FFA88C"/>
<path d="M270.198 175.698C270.198 175.698 270.03 175.949 269.694 176.285C268.689 177.458 266.175 180.391 263.578 182.821C261.482 184.832 259.387 186.592 257.963 187.011C254.023 188.016 239.61 183.826 239.61 183.826L241.119 177.961C241.119 177.961 254.527 179.72 255.616 179.72C256.371 179.72 264.583 167.905 266.593 166.899L270.198 175.698Z" fill="#C8A443"/>
<path opacity="0.2" d="M269.694 176.285C268.689 177.458 266.175 180.391 263.578 182.821C264.08 178.715 265.589 174.944 267.599 172.597C267.851 172.346 268.018 172.095 268.271 172.011L269.694 176.285Z" fill="black"/>
<path d="M260.98 317.571L266.593 317.402C266.846 317.402 267.013 317.571 267.013 317.739L268.186 322.264C268.269 322.766 267.934 323.185 267.516 323.185C265.505 323.185 262.572 323.185 259.974 323.269C256.957 323.352 255.113 323.185 251.594 323.269C249.498 323.352 248.829 321.174 249.667 321.007C253.689 320.001 256.287 320.252 259.722 317.99C260.141 317.739 260.561 317.571 260.98 317.571Z" fill="#2B2B2B"/>
<path d="M260.561 318.241C260.477 318.241 260.477 318.241 260.561 318.241C259.722 318.409 258.214 318.66 257.628 318.157C257.46 317.99 257.375 317.821 257.375 317.57C257.375 317.403 257.46 317.319 257.544 317.235C258.13 316.9 260.31 317.821 260.477 317.99C260.561 317.99 260.561 318.074 260.561 318.074C260.561 318.241 260.561 318.241 260.561 318.241ZM257.712 317.486C257.628 317.57 257.628 317.57 257.628 317.654C257.628 317.821 257.712 317.905 257.795 318.074C258.13 318.325 258.969 318.409 260.142 318.157C259.22 317.737 258.13 317.319 257.712 317.486Z" fill="#996C22"/>
<path d="M260.56 318.241H260.476C259.806 317.99 258.549 316.9 258.633 316.314C258.633 316.147 258.716 315.978 259.053 315.978C259.304 315.978 259.555 315.978 259.722 316.147C260.392 316.649 260.56 318.074 260.56 318.074C260.645 318.157 260.56 318.241 260.56 318.241ZM258.968 316.23C258.884 316.23 258.884 316.314 258.884 316.314C258.8 316.649 259.722 317.486 260.392 317.906C260.309 317.486 260.057 316.649 259.639 316.314C259.471 316.23 259.304 316.147 259.136 316.147C259.053 316.23 258.968 316.23 258.968 316.23Z" fill="#996C22"/>
<path d="M289.722 317.57L295.337 317.402C295.589 317.402 295.756 317.57 295.756 317.737L296.93 322.263C297.013 322.765 296.678 323.185 296.26 323.185C294.248 323.185 291.314 323.185 288.718 323.269C285.701 323.352 283.857 323.185 280.337 323.269C278.242 323.352 277.572 321.173 278.41 321.005C282.433 320.001 285.03 320.252 288.466 317.989C288.885 317.737 289.304 317.57 289.722 317.57Z" fill="#2B2B2B"/>
<path d="M289.221 318.241C288.382 318.409 286.874 318.66 286.287 318.157C286.119 317.99 286.035 317.822 286.035 317.57C286.035 317.402 286.119 317.319 286.203 317.235C286.79 316.9 288.97 317.822 289.137 317.99C289.221 317.99 289.221 318.074 289.221 318.074C289.305 318.241 289.305 318.241 289.221 318.241ZM286.455 317.486C286.372 317.57 286.372 317.57 286.372 317.655C286.372 317.822 286.455 317.906 286.539 318.074C286.874 318.325 287.713 318.409 288.886 318.157C287.964 317.739 286.79 317.319 286.455 317.486Z" fill="#996C22"/>
<path d="M289.22 318.241H289.136C288.466 317.99 287.209 316.9 287.293 316.314C287.293 316.147 287.377 315.979 287.711 315.979C287.963 315.979 288.215 315.979 288.383 316.147C289.052 316.649 289.22 318.074 289.22 318.074C289.304 318.157 289.304 318.241 289.22 318.241ZM287.628 316.23C287.544 316.23 287.544 316.314 287.544 316.314C287.46 316.649 288.383 317.488 289.052 317.906C288.969 317.488 288.718 316.649 288.299 316.314C288.131 316.23 287.963 316.147 287.795 316.147C287.711 316.23 287.711 316.23 287.628 316.23Z" fill="#996C22"/>
<path d="M300.114 206.117C302.796 217.849 298.187 310.448 298.187 310.448H289.136L285.281 233.352L271.119 310.448L261.482 309.777C267.767 250.028 273.298 214.33 273.298 214.33V209.804L300.114 206.117Z" fill="#2B2B2B"/>
<path opacity="0.4" d="M261.482 309.693L271.119 310.363L282.265 249.608L285.281 233.184L289.136 310.279H298.103C298.103 310.279 302.796 217.765 300.03 205.949L273.298 209.637V214.161C273.298 214.33 267.767 249.943 261.482 309.693Z" fill="#1A1A1A"/>
<path d="M295.254 162.541C294.919 168.324 295.17 174.022 295.672 179.385C296.007 183.324 296.595 187.011 297.097 190.363C298.354 198.156 299.863 204.022 300.03 206.117C296.091 206.62 281.343 208.714 273.298 209.804C263.578 182.569 267.181 166.647 267.181 166.647C267.181 166.647 269.947 165.474 273.298 164.552C273.717 164.469 274.219 164.301 274.639 164.217C277.572 163.547 282.6 162.96 286.036 162.625C286.789 162.541 287.46 162.541 288.214 162.458C291.902 162.29 295.254 162.541 295.254 162.541Z" fill="#2B2B2B"/>
<path d="M280.924 150.222C281.091 153.993 281.51 161.032 284.611 162.792C284.611 162.792 282.684 166.479 278.493 166.898C275.309 167.15 275.56 164.049 275.56 164.049C277.403 162.708 276.985 160.362 275.56 157.764L280.924 150.222Z" fill="#FFA88C"/>
<path opacity="0.2" d="M278.745 153.323L275.56 157.765C275.895 158.351 276.231 159.022 276.399 159.692C277.907 159.106 279.583 156.927 279.332 155.251C279.163 154.413 278.912 153.659 278.745 153.323Z" fill="black"/>
<path d="M267.265 142.68C266.677 144.608 267.013 148.63 269.694 147.289C272.376 146.032 268.354 139.412 267.265 142.68Z" fill="#2B2B2B"/>
<path d="M281.259 145.362C281.594 150.39 282.013 153.239 279.751 156.088C276.399 160.362 270.03 158.77 268.269 153.91C266.677 149.552 266.426 142.178 271.035 139.664C275.644 137.15 280.924 140.334 281.259 145.362Z" fill="#FFA88C"/>
<path d="M271.436 152.87C271.113 152.822 270.786 152.815 270.463 152.848C270.313 152.857 270.167 152.851 270.126 152.753C270.093 152.602 270.107 152.443 270.167 152.3C270.25 151.921 270.335 151.523 270.427 151.107C270.781 149.409 271.009 148.022 270.942 148.009C270.874 147.997 270.531 149.361 270.178 151.058C270.092 151.476 270.014 151.874 269.937 152.256C269.872 152.449 269.878 152.659 269.952 152.848C269.982 152.896 270.023 152.937 270.071 152.968C270.119 152.998 270.173 153.018 270.229 153.025C270.314 153.036 270.402 153.034 270.486 153.019C270.808 153.009 271.127 152.959 271.436 152.87Z" fill="#2B2B2B"/>
<path d="M277.74 142.597V136.982C277.74 136.982 283.688 136.563 283.437 139.58C286.705 141.172 285.197 146.284 280.755 148.798C278.326 146.871 278.577 142.178 278.577 142.178C278.326 142.429 278.075 142.513 277.74 142.597Z" fill="#2B2B2B"/>
<path d="M283.688 149.217C283.437 150.558 282.6 151.647 281.678 152.234C280.253 153.156 279.079 152.066 278.996 150.474C278.912 149.049 279.583 146.871 281.259 146.619C282.851 146.284 283.941 147.709 283.688 149.217Z" fill="#FFA88C"/>
<path d="M273.886 147.541C273.969 147.96 273.801 148.296 273.466 148.296C273.215 148.296 272.962 148.044 272.878 147.625C272.795 147.205 272.962 146.87 273.298 146.87C273.549 146.87 273.801 147.205 273.886 147.541Z" fill="#2B2B2B"/>
<path d="M269.277 148.044C269.36 148.464 269.193 148.799 268.857 148.799C268.606 148.799 268.354 148.547 268.269 148.128C268.186 147.709 268.354 147.373 268.689 147.373C269.024 147.373 269.277 147.709 269.277 148.044Z" fill="#2B2B2B"/>
<path d="M273.549 153.072C273.382 153.072 273.214 153.156 273.047 153.156C272.962 153.156 272.962 153.156 272.878 153.072C272.878 152.988 272.878 152.988 272.962 152.905C274.723 152.737 275.393 151.396 275.393 151.396C275.393 151.312 275.478 151.312 275.562 151.312C275.645 151.312 275.645 151.396 275.645 151.48C275.645 151.563 275.058 152.737 273.549 153.072Z" fill="#2B2B2B"/>
<path d="M275.142 145.949C275.058 145.949 274.974 145.949 274.89 145.865C274.136 145.111 273.298 145.278 273.298 145.278C273.131 145.278 273.047 145.195 273.047 145.111C273.047 144.943 273.131 144.859 273.215 144.859C273.298 144.859 274.387 144.692 275.309 145.614C275.393 145.697 275.393 145.865 275.309 145.949C275.225 145.949 275.142 145.949 275.142 145.949Z" fill="#2B2B2B"/>
<path d="M267.181 146.703C267.097 146.703 267.097 146.703 267.013 146.703C266.93 146.619 266.846 146.536 266.846 146.368C267.265 145.111 268.354 144.859 268.354 144.859C268.522 144.859 268.606 144.943 268.606 145.027C268.606 145.195 268.522 145.279 268.438 145.279C268.354 145.279 267.599 145.53 267.265 146.536C267.265 146.619 267.265 146.703 267.181 146.703Z" fill="#2B2B2B"/>
<path d="M280.42 144.692C280.42 144.692 276.901 143.435 275.309 141.424C275.309 141.424 272.125 142.262 271.454 143.519C271.454 143.519 270.365 142.597 271.202 141.424C271.202 141.424 268.857 141.927 268.354 143.519C268.354 143.519 267.181 143.1 267.265 141.424C267.265 141.424 266.175 141.843 265.84 143.519C265.84 143.519 263.242 138.072 271.874 136.48C271.874 136.48 271.202 136.228 269.861 136.144C269.861 136.144 275.895 133.714 280.672 135.977C285.533 138.156 284.611 142.429 280.42 144.692Z" fill="#2B2B2B"/>
<path d="M302.126 210.81L293.745 211.9C293.745 211.9 290.31 187.681 288.718 179.888V163.212L293.075 162.039L296.427 163.212C297.264 165.893 297.936 169.497 298.605 173.436C299.025 176.033 299.36 178.882 299.695 181.648C300.114 185.503 300.534 189.441 300.869 193.128C301.371 199.078 301.706 204.358 301.873 207.542C302.126 209.637 302.126 210.81 302.126 210.81Z" fill="#C8A443"/>
<path d="M288.801 179.888C288.801 179.888 289.471 168.072 293.159 162.039C293.159 162.039 293.075 160.279 292.32 160.028C291.567 159.776 288.801 161.452 288.801 161.452C288.801 161.452 287.042 160.279 286.623 160.782C286.203 161.368 285.282 165.056 288.801 179.888Z" fill="#996C22"/>
<path opacity="0.7" d="M288.801 179.888C288.801 179.888 289.471 168.072 293.159 162.039C293.159 162.039 293.075 160.279 292.32 160.028C291.567 159.776 288.801 161.452 288.801 161.452C288.801 161.452 287.042 160.279 286.623 160.782C286.203 161.368 285.282 165.056 288.801 179.888Z" fill="white"/>
<path d="M269.694 214.078L270.616 214.748C270.616 214.748 269.192 206.955 269.779 187.179C269.779 186.257 269.863 185.335 269.863 184.413C270.616 167.737 273.131 164.72 273.298 164.469L270.868 165.307L266.51 166.815C265.254 181.145 269.694 214.078 269.694 214.078Z" fill="#C8A443"/>
<path d="M270.03 181.564C270.03 181.564 267.599 170.083 268.354 166.144C269.108 162.206 271.622 163.966 271.622 163.966C271.622 163.966 273.968 162.038 274.723 164.133C274.723 164.217 271.455 166.48 270.03 181.564Z" fill="#996C22"/>
<path opacity="0.7" d="M270.03 181.564C270.03 181.564 267.599 170.083 268.354 166.144C269.108 162.206 271.622 163.966 271.622 163.966C271.622 163.966 273.968 162.038 274.723 164.133C274.723 164.217 271.455 166.48 270.03 181.564Z" fill="white"/>
<path opacity="0.2" d="M299.779 181.648C296.176 179.637 295.756 174.357 295.756 174.357C296.008 174.273 297.264 173.855 298.689 173.352C299.109 176.033 299.444 178.882 299.779 181.648Z" fill="black"/>
<path opacity="0.2" d="M282.264 249.692L285.281 233.268L284.695 224.552C284.695 224.636 280.588 239.637 282.264 249.692Z" fill="black"/>
<path opacity="0.2" d="M301.957 207.541C299.695 207.373 297.768 207.206 297.768 207.206L297.348 198.072C297.348 198.072 298.103 197.486 299.695 197.653C299.695 197.653 300.449 195.893 300.952 193.128C301.455 199.078 301.79 204.357 301.957 207.541Z" fill="black"/>
<path d="M302.712 193.128L298.354 200.167L301.789 202.178L305.98 195.81L302.712 193.128Z" fill="#FFA88C"/>
<path d="M296.343 163.128C299.276 163.463 311.846 180.642 312.432 185.838C313.02 191.033 305.058 200 305.058 200L299.779 196.899C299.779 196.899 305.141 188.603 305.394 186.424C305.645 184.245 295.588 175.195 295.588 175.195C295.588 175.195 294.5 172.514 294.333 168.742C294.164 164.888 296.343 163.128 296.343 163.128Z" fill="#C8A443"/>
<path d="M297.349 198.072C297.349 198.072 301.873 199.078 303.718 201.843C303.718 201.843 301.873 207.793 300.45 208.38C299.109 209.051 295.756 209.051 295.756 209.051C295.756 209.051 295.505 202.514 297.349 198.072Z" fill="#C8A443"/>
</g>
<defs>
<clipPath id="clip0_1936_2191">
<rect width="350" height="260.784" fill="white" transform="translate(25 70.1104)"/>
</clipPath>
</defs>
</svg>
