<svg width="400" height="401" viewBox="0 0 400 401" fill="none" xmlns="http://www.w3.org/2000/svg">
<path d="M374.053 299.436H25.4771V299.611H374.053V299.436Z" fill="#EBEBEB"/>
<path d="M339.125 310.654H324.011V310.828H339.125V310.654Z" fill="#EBEBEB"/>
<path d="M265.765 307.042H241.984V307.217H265.765V307.042Z" fill="#EBEBEB"/>
<path d="M333.004 304.185H301.959V304.358H333.004V304.185Z" fill="#EBEBEB"/>
<path d="M146.098 307.698H138.332V307.872H146.098V307.698Z" fill="#EBEBEB"/>
<path d="M132.12 307.698H105.357V307.872H132.12V307.698Z" fill="#EBEBEB"/>
<path d="M91.0162 304.756H71.7051V304.93H91.0162V304.756Z" fill="#EBEBEB"/>
<path d="M190.709 268.344H56.0889C53.8929 268.344 52.1082 266.56 52.1082 264.362V75.1354C52.1082 72.9394 53.8929 71.1547 56.0889 71.1547H190.709C192.904 71.1547 194.69 72.9394 194.69 75.1354V264.362C194.69 266.56 192.904 268.344 190.709 268.344ZM56.0889 71.329C53.9905 71.329 52.2825 73.037 52.2825 75.1354V264.362C52.2825 266.461 53.9905 268.17 56.0889 268.17H190.709C192.807 268.17 194.515 266.461 194.515 264.362V75.1354C194.515 73.037 192.807 71.329 190.709 71.329H56.0889Z" fill="#EBEBEB"/>
<path d="M341.503 268.344H206.882C204.687 268.344 202.903 266.56 202.903 264.362V75.1354C202.903 72.9394 204.687 71.1547 206.882 71.1547H341.503C343.698 71.1547 345.484 72.9394 345.484 75.1354V264.362C345.484 266.56 343.698 268.344 341.503 268.344ZM206.882 71.329C204.784 71.329 203.076 73.037 203.076 75.1354V264.362C203.076 266.461 204.784 268.17 206.882 268.17H341.503C343.601 268.17 345.309 266.461 345.309 264.362V75.1354C345.309 73.037 343.601 71.329 341.503 71.329H206.882Z" fill="#EBEBEB"/>
<path d="M118.881 253.048H129.485V211.965H118.881V253.048Z" fill="#E6E6E6"/>
<path d="M90.1377 253.041H125.323L130.635 204.959H95.45L90.1377 253.041Z" fill="#F0F0F0"/>
<path d="M86.3245 253.041H122.674L127.986 204.959H91.6436L86.3245 253.041Z" fill="#F5F5F5"/>
<path d="M120.046 249.256L124.521 208.751H94.2649L89.7893 249.256H120.046Z" fill="white"/>
<path d="M113.799 239.433L113.98 237.78C115.103 227.617 108.759 218.56 100.518 218.56L100.337 220.212C99.2146 230.377 105.559 239.433 113.799 239.433Z" fill="#F5F5F5"/>
<path d="M66.6716 299.436H97.9318V253.041H66.6716V299.436Z" fill="#E6E6E6"/>
<path d="M69.8088 299.436H66.6646V290.492H73.1063L69.8088 299.436Z" fill="#F0F0F0"/>
<path d="M154.283 299.436H185.543V253.041H154.283V299.436Z" fill="#E6E6E6"/>
<path d="M66.6646 293.95H157.022V253.048H66.6646V293.95Z" fill="#F0F0F0"/>
<path d="M153.878 299.436H157.022V290.492H150.581L153.878 299.436Z" fill="#F0F0F0"/>
<path d="M69.1047 272.109H154.582V255.6H69.1047V272.109Z" fill="#E6E6E6"/>
<path d="M106.144 266.364H117.543C122.493 266.364 127.226 264.328 130.635 260.731H93.052C96.4611 264.328 101.195 266.364 106.144 266.364Z" fill="#F0F0F0"/>
<path d="M69.1047 291.28H154.582V274.771H69.1047V291.28Z" fill="#E6E6E6"/>
<path d="M106.144 285.536H117.543C122.493 285.536 127.226 283.5 130.635 279.902H93.052C96.4611 283.5 101.195 285.536 106.144 285.536Z" fill="#F0F0F0"/>
<path d="M151.299 251.153H152.108C152.101 249.486 152.108 245.268 152.191 235.598C152.338 218.072 152.616 216.999 152.616 216.999L150.692 225.093C149.472 234.051 151.048 243.058 151.299 251.153Z" fill="#E6E6E6"/>
<path d="M149.702 223.887C146.935 220.589 141.023 219.627 134.972 218.804C132.594 218.484 141.218 223.914 145.429 227.77C148.705 230.768 150.797 231.597 151.696 234.581C152.163 230.858 152.087 226.724 149.702 223.88V223.887Z" fill="#E6E6E6"/>
<path d="M153.376 229.777C156.144 226.48 162.056 225.518 168.108 224.695C170.484 224.375 161.861 229.805 157.65 233.661C154.373 236.658 152.282 237.488 151.382 240.472C150.915 236.749 150.992 232.615 153.376 229.77V229.777Z" fill="#E6E6E6"/>
<path d="M152.191 216.225C154.269 212.286 159.49 208.57 165.346 207.162C167.647 206.611 160.02 214.44 157.12 219.494C154.868 223.419 151.878 228.028 151.417 231.339C150.713 224.778 150.121 220.171 152.191 216.225Z" fill="#E6E6E6"/>
<path d="M151.94 253.041C149.465 253.041 147.423 251.801 147.283 250.218L146.872 247.506H157.008L156.597 250.218C156.458 251.801 154.415 253.041 151.94 253.041Z" fill="#F0F0F0"/>
<path d="M157.671 248.552H146.217L145.889 245.534H157.999L157.671 248.552Z" fill="#F0F0F0"/>
<path d="M143.672 190.904H255.363V89.0298H143.672V190.904Z" fill="#E6E6E6"/>
<path d="M141.162 190.904H254.268V89.0298H141.162V190.904Z" fill="#F5F5F5"/>
<path d="M249.751 186.345V93.5961H145.666V186.345H249.751Z" fill="#FAFAFA"/>
<path d="M236.985 186.345L196.021 93.5961H182.106L223.07 186.345H236.985Z" fill="white"/>
<path d="M219.124 186.345L178.16 93.5961H168.581L209.546 186.345H219.124Z" fill="white"/>
<path d="M184.316 186.338V93.589H178.934V186.338H184.316Z" fill="#E6E6E6"/>
<path d="M220.094 186.338V93.589H214.712V186.338H220.094Z" fill="#E6E6E6"/>
<path d="M183.346 189.238V90.2009H176.543V189.238H183.346Z" fill="#F5F5F5"/>
<path d="M219.124 189.238V90.2009H212.321V189.238H219.124Z" fill="#F5F5F5"/>
<path d="M146.154 186.345V93.5961H145.673V186.345H146.154Z" fill="#E6E6E6"/>
<path d="M139.266 83.1597H260.271C260.591 83.1597 260.85 83.4246 260.85 83.7383C260.85 84.0589 260.584 84.3169 260.271 84.3169H139.266C138.945 84.3169 138.688 84.052 138.688 83.7383C138.688 83.4176 138.952 83.1597 139.266 83.1597Z" fill="#E6E6E6"/>
<path d="M255.363 87.0009C255.795 87.0009 256.15 86.6453 256.15 86.2132V84.5261C256.15 84.0938 255.795 83.7383 255.363 83.7383C254.931 83.7383 254.574 84.0938 254.574 84.5261V86.2132C254.574 86.6453 254.931 87.0009 255.363 87.0009Z" fill="#E6E6E6"/>
<path d="M148.036 87.0009C148.468 87.0009 148.824 86.6453 148.824 86.2132V84.5261C148.824 84.0938 148.468 83.7383 148.036 83.7383C147.604 83.7383 147.249 84.0938 147.249 84.5261V86.2132C147.249 86.6453 147.604 87.0009 148.036 87.0009Z" fill="#E6E6E6"/>
<path opacity="0.6" d="M139.447 163.52H252.477V83.7383H139.447V163.52Z" fill="#E0E0E0"/>
<path d="M272.239 214.084H291.733C293.804 214.084 295.483 215.763 295.483 217.836V226.856C295.483 228.928 293.804 230.607 291.733 230.607H272.239C270.168 230.607 268.489 228.928 268.489 226.856V217.836C268.489 215.763 270.168 214.084 272.239 214.084Z" fill="#FAFAFA"/>
<path d="M269.751 211.031H294.221C294.918 211.031 295.483 211.596 295.483 212.293V213.31C295.483 214.008 294.918 214.572 294.221 214.572H269.751C269.054 214.572 268.489 214.008 268.489 213.31V212.293C268.489 211.596 269.054 211.031 269.751 211.031Z" fill="#E6E6E6"/>
<path d="M295.085 248.928C295.085 248.928 294.73 260.543 281.192 260.543C267.653 260.543 267.297 248.928 267.297 248.928H295.078H295.085Z" fill="#F0F0F0"/>
<path d="M264.215 248.928C264.215 248.928 263.86 260.543 250.321 260.543C236.783 260.543 236.427 248.928 236.427 248.928H264.209H264.215Z" fill="#F0F0F0"/>
<path d="M305.284 299.436H301.771V241.824H305.284V299.436Z" fill="#E6E6E6"/>
<path d="M203.828 230.607H222.854V241.818H203.828V230.607Z" fill="#E6E6E6"/>
<path d="M317.45 241.824H222.861V230.614H317.45V241.824Z" fill="#F5F5F5"/>
<path d="M203.828 260.549H222.854V271.76H203.828V260.549Z" fill="#E6E6E6"/>
<path d="M317.45 271.76H222.861V260.549H317.45V271.76Z" fill="#F5F5F5"/>
<path d="M210.696 299.436H207.182V241.824H210.696V299.436Z" fill="#E6E6E6"/>
<path d="M226.368 299.436H222.854V241.824H226.368V299.436Z" fill="#F5F5F5"/>
<path d="M317.45 299.436H313.936V241.824H317.45V299.436Z" fill="#F5F5F5"/>
<path d="M199.765 330.92C274.417 330.92 334.935 327.387 334.935 323.029C334.935 318.67 274.417 315.137 199.765 315.137C125.112 315.137 64.5942 318.67 64.5942 323.029C64.5942 327.387 125.112 330.92 199.765 330.92Z" fill="#F5F5F5"/>
<path d="M207.022 287.655H118.087C115.145 287.655 112.642 285.271 112.488 282.336L104.527 127.882C104.374 124.947 106.632 122.563 109.574 122.563H198.51C201.452 122.563 203.954 124.947 204.108 127.882L212.07 282.336C212.223 285.278 209.964 287.655 207.022 287.655Z" fill="#C8A443"/>
<path opacity="0.85" d="M207.022 287.655H118.087C115.145 287.655 112.642 285.271 112.488 282.336L104.527 127.882C104.374 124.947 106.632 122.563 109.574 122.563H198.51C201.452 122.563 203.954 124.947 204.108 127.882L212.07 282.336C212.223 285.278 209.964 287.655 207.022 287.655Z" fill="white"/>
<path d="M210.849 277.853H125.79C122.98 277.853 120.582 275.574 120.436 272.764L112.823 125.045C112.677 122.235 114.838 119.955 117.647 119.955H202.707C205.517 119.955 207.915 122.235 208.061 125.045L215.673 272.764C215.82 275.574 213.658 277.853 210.849 277.853Z" fill="#C8A443"/>
<path opacity="0.7" d="M210.849 277.853H125.79C122.98 277.853 120.582 275.574 120.436 272.764L112.823 125.045C112.677 122.235 114.838 119.955 117.647 119.955H202.707C205.517 119.955 207.915 122.235 208.061 125.045L215.673 272.764C215.82 275.574 213.658 277.853 210.849 277.853Z" fill="white"/>
<path d="M210.85 274.458H125.79C124.8 274.458 123.887 273.587 123.831 272.596L116.218 124.877C116.19 124.34 116.406 123.992 116.595 123.79C116.783 123.594 117.118 123.357 117.647 123.357H202.707C203.697 123.357 204.61 124.229 204.666 125.226L212.279 272.944C212.306 273.482 212.09 273.83 211.903 274.033C211.714 274.228 211.379 274.465 210.85 274.465V274.458ZM117.654 123.532C117.18 123.532 116.888 123.734 116.727 123.908C116.56 124.082 116.372 124.389 116.399 124.863L124.012 272.582C124.061 273.489 124.891 274.283 125.797 274.283H210.857C211.33 274.283 211.624 274.082 211.784 273.907C211.951 273.733 212.139 273.426 212.111 272.953L204.498 125.233C204.45 124.326 203.62 123.532 202.714 123.532H117.654Z" fill="white"/>
<path opacity="0.3" d="M181.1 177.195C190.773 167.268 190.144 150.965 179.693 140.781C169.242 130.596 152.928 130.388 143.254 140.315C133.58 150.242 134.21 166.545 144.661 176.729C155.112 186.914 171.426 187.122 181.1 177.195Z" fill="white"/>
<path d="M183.013 158.759C183.2 162.356 182.462 165.737 181.004 168.679C177.826 175.17 171.167 179.589 163.247 179.589C155.328 179.589 148.217 175.176 144.369 168.679C142.612 165.73 141.525 162.356 141.344 158.759C140.751 147.249 149.598 137.928 161.101 137.928C172.604 137.928 182.413 147.256 183.005 158.759H183.013Z" fill="white"/>
<path d="M181.011 168.686C177.833 175.177 171.174 179.597 163.256 179.597C155.335 179.597 148.224 175.184 144.376 168.686C149.438 165.18 155.628 163.137 162.404 163.137C169.181 163.137 175.581 165.18 181.004 168.686H181.011Z" fill="#2B2B2B"/>
<path d="M168.635 158.274C172.12 154.698 171.892 148.823 168.126 145.152C164.359 141.482 158.48 141.405 154.995 144.982C151.509 148.558 151.738 154.433 155.504 158.104C159.271 161.774 165.151 161.851 168.635 158.274Z" fill="#2B2B2B"/>
<path d="M198.656 220.394H132.057C130.865 220.394 129.854 219.431 129.792 218.239L129.29 208.451C129.227 207.259 130.14 206.297 131.332 206.297H197.931C199.124 206.297 200.134 207.259 200.197 208.451L200.699 218.239C200.762 219.431 199.848 220.394 198.656 220.394Z" fill="white"/>
<path d="M199.876 243.986H133.277C132.085 243.986 131.074 243.023 131.012 241.831L130.51 232.044C130.447 230.851 131.36 229.889 132.552 229.889H199.151C200.343 229.889 201.353 230.851 201.416 232.044L201.918 241.831C201.981 243.023 201.068 243.986 199.876 243.986Z" fill="white"/>
<path d="M140.528 213.346C140.598 214.664 139.587 215.73 138.269 215.73C136.951 215.73 135.829 214.664 135.759 213.346C135.69 212.028 136.7 210.962 138.018 210.962C139.336 210.962 140.458 212.028 140.528 213.346Z" fill="#2B2B2B"/>
<path d="M147.848 213.346C147.918 214.664 146.907 215.73 145.589 215.73C144.271 215.73 143.149 214.664 143.079 213.346C143.01 212.028 144.02 210.962 145.338 210.962C146.656 210.962 147.778 212.028 147.848 213.346Z" fill="#2B2B2B"/>
<path d="M155.175 213.346C155.245 214.664 154.234 215.73 152.916 215.73C151.599 215.73 150.476 214.664 150.406 213.346C150.337 212.028 151.348 210.962 152.665 210.962C153.983 210.962 155.105 212.028 155.175 213.346Z" fill="#2B2B2B"/>
<path d="M162.502 213.346C162.572 214.664 161.561 215.73 160.243 215.73C158.926 215.73 157.803 214.664 157.733 213.346C157.664 212.028 158.675 210.962 159.992 210.962C161.31 210.962 162.432 212.028 162.502 213.346Z" fill="#2B2B2B"/>
<path d="M141.741 236.937C141.81 238.255 140.799 239.321 139.482 239.321C138.164 239.321 137.042 238.255 136.972 236.937C136.902 235.62 137.913 234.552 139.231 234.552C140.549 234.552 141.671 235.62 141.741 236.937Z" fill="#2B2B2B"/>
<path d="M149.068 236.937C149.137 238.255 148.127 239.321 146.809 239.321C145.491 239.321 144.369 238.255 144.299 236.937C144.23 235.62 145.24 234.552 146.558 234.552C147.876 234.552 148.998 235.62 149.068 236.937Z" fill="#2B2B2B"/>
<path d="M156.395 236.937C156.465 238.255 155.454 239.321 154.136 239.321C152.819 239.321 151.696 238.255 151.626 236.937C151.557 235.62 152.568 234.552 153.885 234.552C155.203 234.552 156.325 235.62 156.395 236.937Z" fill="#2B2B2B"/>
<path d="M163.715 236.937C163.784 238.255 162.774 239.321 161.456 239.321C160.138 239.321 159.016 238.255 158.946 236.937C158.877 235.62 159.887 234.552 161.205 234.552C162.523 234.552 163.645 235.62 163.715 236.937Z" fill="#2B2B2B"/>
<path d="M171.042 236.937C171.111 238.255 170.101 239.321 168.783 239.321C167.465 239.321 166.343 238.255 166.273 236.937C166.203 235.62 167.215 234.552 168.533 234.552C169.849 234.552 170.972 235.62 171.042 236.937Z" fill="#2B2B2B"/>
<path d="M178.368 236.937C178.438 238.255 177.428 239.321 176.11 239.321C174.793 239.321 173.671 238.255 173.601 236.937C173.531 235.62 174.542 234.552 175.86 234.552C177.178 234.552 178.299 235.62 178.368 236.937Z" fill="#2B2B2B"/>
<path d="M188.603 267.305H146.942C144.913 267.305 143.191 265.66 143.086 263.638L142.835 258.835C142.731 256.806 144.285 255.168 146.314 255.168H187.976C190.005 255.168 191.726 256.813 191.831 258.835L192.083 263.638C192.187 265.667 190.632 267.305 188.603 267.305Z" fill="#C8A443"/>
<path d="M257.649 155.977C257.824 156.235 257.914 156.374 258.026 156.563L258.339 157.085C258.542 157.427 258.715 157.776 258.897 158.117C259.246 158.807 259.574 159.498 259.873 160.195C260.472 161.589 260.96 163.011 261.385 164.447C262.244 167.313 262.766 170.248 263.038 173.19L263.094 173.74C263.101 173.817 263.108 173.943 263.115 174.075L263.128 174.451C263.135 174.947 263.115 175.434 263.045 175.902C262.912 176.836 262.662 177.7 262.355 178.495C261.727 180.084 260.87 181.437 259.943 182.664C258.053 185.111 255.906 187.07 253.453 188.806L251.535 186.554C253.257 184.56 254.931 182.35 256.164 180.147C256.792 179.046 257.28 177.916 257.579 176.857C257.718 176.327 257.795 175.818 257.81 175.365C257.824 175.135 257.81 174.919 257.788 174.716L257.768 174.57C257.768 174.528 257.761 174.472 257.74 174.382L257.649 173.894C257.196 171.279 256.569 168.707 255.752 166.225C255.356 164.977 254.853 163.778 254.351 162.593C254.101 162 253.829 161.422 253.55 160.864L253.118 160.048L252.902 159.658L252.727 159.351L257.662 155.991L257.649 155.977Z" fill="#FFA88C"/>
<path d="M251.145 188.848L253.669 194.181L255.669 189.677C255.669 189.677 253.899 185.773 251.494 186.129L251.145 188.855V188.848Z" fill="#FFA88C"/>
<path d="M255.474 194.446L257.482 191.155L255.669 189.67L253.669 194.181L255.474 194.446Z" fill="#FFA88C"/>
<path d="M244.125 317.437C244.661 317.437 245.254 317.326 245.666 317.228C245.722 317.214 245.763 317.173 245.769 317.117C245.776 317.061 245.756 317.005 245.707 316.977C245.504 316.845 243.734 315.702 243.051 316.008C242.946 316.057 242.807 316.161 242.779 316.399C242.737 316.705 242.814 316.955 243.009 317.13C243.261 317.36 243.671 317.437 244.125 317.437ZM245.275 317.033C244.257 317.234 243.497 317.2 243.198 316.928C243.072 316.816 243.023 316.649 243.058 316.433C243.072 316.314 243.128 316.28 243.176 316.26C243.531 316.091 244.557 316.593 245.281 317.025L245.275 317.033Z" fill="#407BFF"/>
<path d="M245.637 317.228C245.637 317.228 245.686 317.228 245.706 317.207C245.749 317.18 245.776 317.137 245.776 317.088C245.776 317.018 245.769 315.338 245.135 314.773C244.968 314.627 244.766 314.564 244.55 314.586C244.201 314.627 244.111 314.843 244.082 314.969C243.95 315.624 245.009 316.886 245.567 317.2C245.589 317.214 245.609 317.221 245.637 317.221V317.228ZM244.64 314.865C244.752 314.865 244.856 314.906 244.948 314.983C245.324 315.318 245.456 316.266 245.49 316.824C244.933 316.377 244.271 315.437 244.354 315.032C244.368 314.969 244.403 314.886 244.584 314.865C244.606 314.865 244.626 314.865 244.647 314.865H244.64Z" fill="#407BFF"/>
<path d="M237.543 314.593C237.579 314.558 237.585 314.51 237.572 314.46C237.557 314.404 237.502 314.363 237.446 314.363C237.153 314.348 234.65 314.244 234.085 314.858C234.072 314.872 234.065 314.886 234.051 314.899C233.96 315.025 233.939 315.178 233.988 315.331C234.079 315.59 234.252 315.763 234.497 315.841C235.305 316.091 236.735 315.185 237.516 314.62C237.523 314.62 237.529 314.607 237.536 314.6L237.543 314.593ZM234.295 315.032C234.609 314.697 235.982 314.607 237.021 314.62C235.933 315.36 235.041 315.709 234.58 315.569C234.42 315.52 234.315 315.408 234.252 315.234C234.225 315.165 234.232 315.108 234.274 315.059C234.274 315.052 234.288 315.046 234.295 315.039V315.032Z" fill="black"/>
<path d="M237.543 314.593C237.543 314.593 237.557 314.579 237.565 314.573C237.592 314.53 237.592 314.474 237.565 314.433C237.529 314.377 236.756 313.003 235.829 312.753C235.55 312.676 235.278 312.71 235.034 312.857C234.699 313.052 234.686 313.275 234.727 313.428C234.908 314.076 236.686 314.642 237.446 314.642C237.487 314.642 237.523 314.627 237.543 314.6V314.593ZM235.041 313.198C235.041 313.198 235.111 313.136 235.174 313.093C235.354 312.989 235.543 312.962 235.759 313.017C236.364 313.178 236.937 313.959 237.188 314.341C236.364 314.244 235.104 313.736 234.992 313.352C234.992 313.331 234.971 313.268 235.041 313.192V313.198Z" fill="black"/>
<path d="M245.218 135.557C244.543 139.022 243.016 146.579 245.436 148.894C245.436 148.894 244.487 152.408 238.053 152.408C230.97 152.408 234.67 148.894 234.67 148.894C238.533 147.974 238.436 145.101 237.759 142.411L245.218 135.557Z" fill="#FFA88C"/>
<path d="M233.424 127.387C233.465 127.387 233.507 127.38 233.548 127.359C233.687 127.289 233.743 127.122 233.674 126.989C232.992 125.623 231.721 125.463 231.667 125.456C231.512 125.435 231.381 125.546 231.359 125.7C231.345 125.853 231.451 125.986 231.604 126.007C231.645 126.007 232.635 126.146 233.179 127.24C233.228 127.338 233.325 127.394 233.424 127.394V127.387Z" fill="#2B2B2B"/>
<path d="M231.311 130.412C231.311 130.412 230.265 132.33 229.276 133.187C229.818 133.842 230.9 133.703 230.9 133.703L231.311 130.406V130.412Z" fill="#FF9371"/>
<path d="M231.827 129.66C231.771 130.127 231.471 130.475 231.172 130.44C230.864 130.406 230.662 129.994 230.725 129.527C230.788 129.06 231.08 128.711 231.381 128.746C231.687 128.781 231.89 129.193 231.827 129.66Z" fill="#2B2B2B"/>
<path d="M231.512 128.788L230.432 128.328C230.432 128.328 230.9 129.276 231.512 128.788Z" fill="#2B2B2B"/>
<path d="M243.699 313.268L238.011 314.593L234.553 301.515L240.242 300.183L243.699 313.268Z" fill="#FFA88C"/>
<path d="M252.427 317.088H246.585L247.045 303.571H252.887L252.427 317.088Z" fill="#FFA88C"/>
<path d="M246.125 316.413H252.686C252.922 316.413 253.118 316.58 253.152 316.809L253.899 322.003C253.975 322.54 253.514 323.049 252.965 323.042C250.677 323 249.575 322.869 246.689 322.869C244.912 322.869 242.318 323.049 239.871 323.049C237.425 323.049 237.293 320.624 238.31 320.408C242.883 319.425 243.609 318.064 245.149 316.768C245.427 316.537 245.776 316.406 246.125 316.406V316.413Z" fill="#2B2B2B"/>
<path d="M237.509 313.721L243.47 310.981C243.686 310.884 243.929 310.954 244.062 311.149L246.914 315.554C247.206 316.015 247.004 316.67 246.495 316.886C244.404 317.807 243.344 318.148 240.722 319.355C239.113 320.093 235.849 321.801 233.626 322.819C231.451 323.823 230.265 321.697 231.102 321.069C234.846 318.26 235.919 316.28 236.776 314.454C236.93 314.125 237.194 313.868 237.516 313.721H237.509Z" fill="#2B2B2B"/>
<path opacity="0.2" d="M234.56 301.514L236.407 308.528L242.026 306.931L240.249 300.19L234.56 301.514Z" fill="black"/>
<path opacity="0.2" d="M252.888 303.571H247.045L246.815 310.542H252.657L252.888 303.571Z" fill="black"/>
<path d="M255.509 150.219C257.934 150.748 260.528 159.477 260.528 159.477L253.669 166.769C253.669 166.769 247.98 158.57 249.137 155.559C250.342 152.422 252.643 149.591 255.509 150.219Z" fill="#C8A443"/>
<path opacity="0.4" d="M251.661 155.775C250.434 154.652 249.604 154.987 249.04 155.879C248.482 158.473 251.786 163.904 253.118 165.96C253.73 163.506 254.436 158.326 251.661 155.775Z" fill="black"/>
<path d="M224.799 150.393C224.799 150.393 222.017 151.376 227.588 185.634H251.305C250.907 175.978 250.894 170.032 255.509 150.219C255.509 150.219 250.538 149.138 245.436 148.894C241.448 148.699 238.177 148.573 234.664 148.894C230.043 149.319 224.793 150.393 224.793 150.393H224.799Z" fill="#C8A443"/>
<path opacity="0.4" d="M224.583 163.541C224.737 165.207 224.939 167.083 225.204 169.202C227.148 167.452 228.732 162.475 228.153 159.574C226.793 160.585 225.538 162.147 224.583 163.541Z" fill="black"/>
<path d="M227.121 158.347C225.832 161.603 224.408 164.705 222.813 167.801C221.216 170.889 219.508 173.922 217.242 176.864L216.796 177.415L216.573 177.686C216.496 177.777 216.434 177.861 216.315 177.986C215.883 178.46 215.416 178.872 214.935 179.213C213.973 179.896 212.983 180.336 212.02 180.67C210.097 181.319 208.228 181.549 206.415 181.66C202.77 181.806 199.326 181.472 195.846 180.719L196.231 177.784C197.833 177.791 199.513 177.756 201.131 177.651C202.763 177.568 204.372 177.394 205.92 177.115C207.461 176.857 208.954 176.466 210.201 175.922C210.814 175.651 211.352 175.316 211.741 174.981C211.937 174.814 212.097 174.647 212.216 174.479C212.243 174.459 212.306 174.361 212.355 174.291L212.515 174.061L212.843 173.601C214.558 171.063 216.071 168.108 217.507 165.158C218.922 162.196 220.289 159.121 221.565 156.116L227.107 158.34L227.121 158.347Z" fill="#FFA88C"/>
<path d="M224.799 150.393C221.9 151.097 218.323 159.065 218.323 159.065L224.347 167.919C224.347 167.919 232.364 157.824 231.415 154.736C230.425 151.522 228.32 149.535 224.799 150.393Z" fill="#C8A443"/>
<path d="M197.903 178.209L192.877 175.888L192.375 180.886C192.375 180.886 196.571 182.12 198.642 180.858L197.903 178.216V178.209Z" fill="#FFA88C"/>
<path d="M189.872 175.386L189.391 179.192L192.375 180.886L192.877 175.888L189.872 175.386Z" fill="#FFA88C"/>
<path d="M247.742 130.001C246.683 135.697 246.348 138.13 243.085 140.723C238.177 144.613 231.408 142.062 230.753 136.164C230.16 130.852 231.993 122.43 237.898 120.841C243.713 119.272 248.809 124.306 247.742 130.001Z" fill="#FFA88C"/>
<path d="M235.228 131.2C234.902 134.107 234.776 141.651 241.162 141.888C248.984 142.18 251.326 135.495 250.628 132.825C254.693 129.513 255.286 123.817 250.713 119.46C246.14 115.103 236.072 117.536 233.262 121.782C229.777 127.045 235.235 131.193 235.235 131.193L235.228 131.2Z" fill="#2B2B2B"/>
<path d="M243.058 121.161C242.681 118.101 242.975 115.982 245.839 115.982C248.705 115.982 252.63 117.02 254.065 119.955C255.502 122.89 255.62 127.485 251.611 127.017C247.603 126.55 243.511 124.828 243.058 121.154V121.161Z" fill="#C8A443"/>
<path d="M247.506 120.422C246.822 116.769 250.079 106.479 258.026 105.81C261.707 105.503 263.407 109.463 261.484 110.111C264.962 110.07 267.2 114.678 263.952 115.368C266.523 117.013 265.882 120.387 262.222 122.047C259.525 123.267 248.461 125.477 247.513 120.415L247.506 120.422Z" fill="#2B2B2B"/>
<path d="M255.991 124.347C253.431 124.347 250.761 123.971 249.103 122.862C248.098 122.186 247.548 121.294 247.463 120.206C247.457 120.109 247.526 120.025 247.625 120.018C247.729 120.011 247.805 120.081 247.812 120.178C247.889 121.154 248.383 121.956 249.297 122.57C252.448 124.682 259.741 123.999 262.027 123.253C263.993 122.611 265.324 121.37 265.59 119.927C265.785 118.868 265.367 117.871 264.426 117.104C264.349 117.041 264.341 116.937 264.397 116.86C264.46 116.783 264.566 116.776 264.642 116.832C265.68 117.669 266.147 118.819 265.931 119.99C265.646 121.559 264.224 122.904 262.139 123.58C260.94 123.971 258.528 124.34 255.991 124.34V124.347Z" fill="#2B2B2B"/>
<path d="M233.451 130.433C232.754 131.402 232.551 132.609 232.704 133.578C232.935 135.042 234.364 135.139 235.396 134.198C236.323 133.355 237.32 131.577 236.56 130.364C235.815 129.172 234.252 129.318 233.451 130.426V130.433Z" fill="#FFA88C"/>
<path d="M233.849 185.634C233.849 185.634 237.237 225.713 240.75 248.301C243.587 266.545 245.832 309.19 245.832 309.19H253.793C253.793 309.19 256.625 267.821 255.181 249.772C251.535 204.108 259.671 200.392 251.298 185.627H233.842L233.849 185.634Z" fill="#2B2B2B"/>
<path opacity="0.4" d="M243.873 200.783C240.66 204.066 238.213 207.992 236.351 212.132C237.278 221.14 238.38 231.137 239.551 239.893C243.176 230.739 246.278 216.657 243.873 200.783Z" fill="black"/>
<path d="M228.277 185.383C228.277 185.383 220.923 229.157 219.765 248.886C222.652 267.131 234.461 305.697 234.461 305.697L241.705 303.076C241.705 303.076 237.696 261.024 233.318 249.513C243.128 216.489 250.336 208.145 248.237 185.641C243.232 185.641 228.277 185.39 228.277 185.39V185.383Z" fill="#2B2B2B"/>
<path d="M233.493 307.622L243.281 304.965L242.723 301.061L232.245 303.899L233.493 307.622Z" fill="#2B2B2B"/>
<path d="M244.745 309.35H254.888L255.418 305.795L244.689 305.433L244.745 309.35Z" fill="#2B2B2B"/>
<path d="M251.661 184.239L252.727 186.366C252.81 186.533 252.616 186.7 252.344 186.7H227.47C227.254 186.7 227.079 186.596 227.065 186.463L226.849 184.337C226.835 184.191 227.016 184.065 227.254 184.065H251.27C251.445 184.065 251.605 184.135 251.654 184.246L251.661 184.239Z" fill="black"/>
<path d="M248.433 186.93H249.074C249.2 186.93 249.297 186.868 249.29 186.784L248.99 184.023C248.984 183.94 248.872 183.877 248.739 183.877H248.098C247.973 183.877 247.875 183.94 247.882 184.023L248.182 186.784C248.189 186.868 248.3 186.93 248.433 186.93Z" fill="#407BFF"/>
<path d="M239.802 166.616C239.642 166.616 239.509 166.511 239.468 166.358C237.194 157.957 232.468 151.041 230.209 149.975C229.958 149.856 229.749 149.821 229.624 149.877C229.449 149.954 229.24 149.877 229.163 149.703C229.087 149.528 229.163 149.319 229.338 149.243C229.665 149.096 230.056 149.131 230.509 149.347C232.914 150.483 237.682 157.316 240.067 165.918C241.774 165.897 244.41 165.681 245.052 165.633C245.846 164.684 251.696 157.378 249.506 149.389C249.458 149.201 249.562 149.013 249.751 148.964C249.931 148.915 250.127 149.02 250.176 149.208C252.609 158.103 245.553 166.128 245.477 166.204C245.421 166.267 245.337 166.309 245.247 166.316C245.211 166.316 241.733 166.623 239.795 166.623L239.802 166.616Z" fill="#996C22"/>
<path d="M251.347 171.538C247.548 164.413 245.992 163.918 245.317 161.624C245.317 161.624 245.931 159.895 247.485 158.145C247.018 158.013 246.035 157.818 245.414 157.699C245.484 157.385 245.553 157.079 245.63 156.786C245.114 156.646 244.048 156.786 243.504 156.883L243.483 156.179C243.483 156.179 241.558 155.796 240.778 156.005C240.854 156.326 240.931 156.667 241.009 157.009C240.332 157.141 239.244 157.357 238.735 157.497C240.213 159.163 240.75 160.941 240.862 161.38C238.812 164.894 230.851 187.53 243.803 189.231C256.764 190.932 255.154 178.655 251.354 171.531L251.347 171.538Z" fill="#C8A443"/>
<path opacity="0.4" d="M251.347 171.538C247.548 164.413 245.992 163.918 245.317 161.624C245.317 161.624 245.931 159.895 247.485 158.145C247.018 158.013 246.035 157.818 245.414 157.699C245.484 157.385 245.553 157.079 245.63 156.786C245.114 156.646 244.048 156.786 243.504 156.883L243.483 156.179C243.483 156.179 241.558 155.796 240.778 156.005C240.854 156.326 240.931 156.667 241.009 157.009C240.332 157.141 239.244 157.357 238.735 157.497C240.213 159.163 240.75 160.941 240.862 161.38C238.812 164.894 230.851 187.53 243.803 189.231C256.764 190.932 255.154 178.655 251.354 171.531L251.347 171.538Z" fill="white"/>
<path d="M240.381 160.711C240.283 160.885 240.297 161.54 240.276 161.798C240.256 162.056 240.96 162.231 241.74 162.307C242.521 162.384 245.763 162.509 245.659 162.147C245.553 161.784 245.819 161.289 245.832 160.983C245.846 160.676 244.543 160.662 243.448 160.704C242.354 160.746 240.591 160.313 240.366 160.704L240.381 160.711Z" fill="#996C22"/>
<path d="M232.844 186.93H233.487C233.611 186.93 233.709 186.868 233.703 186.784L233.402 184.023C233.395 183.94 233.284 183.877 233.152 183.877H232.51C232.385 183.877 232.286 183.94 232.294 184.023L232.594 186.784C232.601 186.868 232.713 186.93 232.844 186.93Z" fill="#2B2B2B"/>
<path d="M174.803 196.573V199.714H174V194.493H174.775V195.309H174.844C174.965 195.044 175.151 194.831 175.4 194.67C175.65 194.507 175.972 194.426 176.365 194.426C176.72 194.426 177.029 194.498 177.294 194.643C177.559 194.786 177.765 195.003 177.912 195.296C178.059 195.586 178.133 195.953 178.133 196.397V199.714H177.331V196.451C177.331 196.041 177.224 195.721 177.012 195.493C176.799 195.262 176.506 195.146 176.134 195.146C175.879 195.146 175.65 195.202 175.448 195.313C175.248 195.424 175.091 195.586 174.976 195.799C174.86 196.011 174.803 196.27 174.803 196.573Z" fill="#736F68"/>
<path d="M171.729 199.714V194.494H172.532V199.714H171.729ZM172.137 193.624C171.981 193.624 171.846 193.57 171.733 193.464C171.621 193.357 171.567 193.229 171.567 193.08C171.567 192.93 171.621 192.802 171.733 192.696C171.846 192.589 171.981 192.536 172.137 192.536C172.294 192.536 172.427 192.589 172.539 192.696C172.651 192.802 172.708 192.93 172.708 193.08C172.708 193.229 172.651 193.357 172.539 193.464C172.427 193.57 172.294 193.624 172.137 193.624Z" fill="#736F68"/>
<path d="M164.241 196.573V199.714H163.44V194.493H164.214V195.309H164.282C164.405 195.044 164.59 194.831 164.84 194.67C165.089 194.507 165.41 194.426 165.805 194.426C166.158 194.426 166.467 194.498 166.732 194.643C166.997 194.786 167.204 195.003 167.351 195.296C167.498 195.586 167.572 195.953 167.572 196.397V199.714H166.77V196.451C166.77 196.041 166.664 195.721 166.45 195.493C166.237 195.262 165.945 195.146 165.574 195.146C165.317 195.146 165.089 195.202 164.886 195.313C164.688 195.424 164.53 195.586 164.415 195.799C164.299 196.011 164.241 196.27 164.241 196.573Z" fill="#736F68"/>
<path d="M159.714 201.78C159.327 201.78 158.994 201.73 158.715 201.63C158.437 201.533 158.204 201.404 158.019 201.243C157.835 201.084 157.689 200.914 157.58 200.733L158.219 200.285C158.292 200.38 158.383 200.489 158.494 200.611C158.605 200.736 158.757 200.843 158.95 200.934C159.145 201.027 159.4 201.073 159.714 201.073C160.136 201.073 160.484 200.971 160.758 200.767C161.032 200.563 161.169 200.244 161.169 199.809V198.748H161.101C161.042 198.844 160.958 198.961 160.85 199.102C160.743 199.24 160.589 199.364 160.387 199.472C160.188 199.579 159.918 199.632 159.579 199.632C159.157 199.632 158.779 199.532 158.443 199.333C158.11 199.134 157.846 198.844 157.652 198.463C157.459 198.082 157.363 197.62 157.363 197.076C157.363 196.542 157.457 196.076 157.645 195.68C157.833 195.281 158.095 194.973 158.43 194.755C158.765 194.535 159.153 194.426 159.592 194.426C159.932 194.426 160.202 194.482 160.401 194.595C160.603 194.706 160.757 194.833 160.863 194.976C160.972 195.117 161.056 195.232 161.115 195.323H161.196V194.493H161.972V199.863C161.972 200.312 161.869 200.677 161.665 200.958C161.464 201.241 161.192 201.448 160.85 201.579C160.51 201.713 160.131 201.78 159.714 201.78ZM159.687 198.912C160.009 198.912 160.281 198.838 160.503 198.691C160.725 198.544 160.894 198.332 161.009 198.055C161.125 197.779 161.183 197.448 161.183 197.063C161.183 196.687 161.126 196.355 161.013 196.067C160.899 195.779 160.732 195.554 160.51 195.391C160.288 195.228 160.014 195.146 159.687 195.146C159.348 195.146 159.064 195.232 158.838 195.404C158.613 195.577 158.445 195.808 158.331 196.098C158.22 196.388 158.165 196.709 158.165 197.063C158.165 197.425 158.221 197.746 158.335 198.025C158.45 198.301 158.62 198.518 158.845 198.677C159.071 198.833 159.352 198.912 159.687 198.912Z" fill="#736F68"/>
<path d="M155.336 199.714V194.494H156.138V199.714H155.336ZM155.744 193.624C155.588 193.624 155.453 193.57 155.34 193.464C155.229 193.357 155.173 193.229 155.173 193.08C155.173 192.93 155.229 192.802 155.34 192.696C155.453 192.589 155.588 192.536 155.744 192.536C155.901 192.536 156.034 192.589 156.145 192.696C156.259 192.802 156.315 192.93 156.315 193.08C156.315 193.229 156.259 193.357 156.145 193.464C156.034 193.57 155.901 193.624 155.744 193.624Z" fill="#736F68"/>
<path d="M153.149 194.494C153.108 194.149 152.942 193.882 152.652 193.692C152.362 193.501 152.007 193.406 151.585 193.406C151.277 193.406 151.008 193.456 150.777 193.555C150.548 193.655 150.369 193.792 150.24 193.967C150.113 194.141 150.049 194.339 150.049 194.561C150.049 194.747 150.093 194.907 150.182 195.041C150.272 195.172 150.388 195.282 150.528 195.37C150.669 195.456 150.816 195.528 150.97 195.585C151.124 195.639 151.266 195.683 151.395 195.717L152.102 195.907C152.283 195.955 152.485 196.021 152.707 196.104C152.931 196.188 153.145 196.303 153.349 196.448C153.555 196.591 153.725 196.774 153.859 196.998C153.993 197.223 154.059 197.498 154.059 197.824C154.059 198.2 153.961 198.54 153.764 198.844C153.569 199.147 153.283 199.389 152.907 199.568C152.534 199.747 152.079 199.836 151.544 199.836C151.046 199.836 150.615 199.756 150.25 199.595C149.887 199.434 149.602 199.21 149.393 198.922C149.187 198.634 149.07 198.3 149.043 197.919H149.913C149.936 198.182 150.024 198.4 150.178 198.572C150.335 198.742 150.532 198.869 150.77 198.952C151.01 199.034 151.268 199.075 151.544 199.075C151.866 199.075 152.155 199.023 152.411 198.918C152.667 198.812 152.87 198.665 153.02 198.477C153.169 198.286 153.244 198.064 153.244 197.811C153.244 197.579 153.179 197.391 153.05 197.246C152.921 197.101 152.751 196.984 152.54 196.893C152.33 196.802 152.102 196.723 151.857 196.655L151.001 196.41C150.457 196.254 150.026 196.031 149.709 195.741C149.392 195.451 149.234 195.071 149.234 194.602C149.234 194.213 149.339 193.873 149.55 193.583C149.763 193.29 150.048 193.064 150.406 192.903C150.766 192.74 151.168 192.658 151.613 192.658C152.061 192.658 152.46 192.739 152.809 192.9C153.158 193.058 153.434 193.276 153.638 193.552C153.844 193.829 153.953 194.142 153.964 194.494H153.149Z" fill="#736F68"/>
<path d="M175.499 260.872V262.828H175V259.577H175.482V260.085H175.525C175.6 259.919 175.716 259.786 175.872 259.687C176.026 259.586 176.227 259.535 176.472 259.535C176.692 259.535 176.885 259.58 177.05 259.67C177.216 259.759 177.343 259.894 177.436 260.076C177.527 260.257 177.573 260.485 177.573 260.763V262.828H177.074V260.795C177.074 260.541 177.007 260.342 176.874 260.199C176.741 260.056 176.559 259.983 176.328 259.983C176.168 259.983 176.026 260.018 175.9 260.087C175.776 260.156 175.679 260.257 175.607 260.389C175.534 260.522 175.499 260.683 175.499 260.872Z" fill="white"/>
<path d="M173.585 262.829V259.577H174.084V262.829H173.585ZM173.839 259.035C173.742 259.035 173.657 259.002 173.587 258.936C173.518 258.869 173.483 258.79 173.483 258.697C173.483 258.604 173.518 258.523 173.587 258.458C173.657 258.391 173.742 258.358 173.839 258.358C173.936 258.358 174.019 258.391 174.089 258.458C174.159 258.523 174.194 258.604 174.194 258.697C174.194 258.79 174.159 258.869 174.089 258.936C174.019 259.002 173.936 259.035 173.839 259.035Z" fill="white"/>
<path d="M168.921 260.872V262.828H168.422V259.577H168.905V260.085H168.947C169.024 259.919 169.139 259.786 169.294 259.687C169.449 259.586 169.65 259.535 169.895 259.535C170.115 259.535 170.307 259.58 170.473 259.67C170.638 259.759 170.767 259.894 170.858 260.076C170.95 260.257 170.995 260.485 170.995 260.763V262.828H170.496V260.795C170.496 260.541 170.431 260.342 170.298 260.199C170.165 260.056 169.982 259.983 169.751 259.983C169.591 259.983 169.449 260.018 169.323 260.087C169.2 260.156 169.102 260.257 169.029 260.389C168.958 260.522 168.921 260.683 168.921 260.872Z" fill="white"/>
<path d="M166.102 264.115C165.861 264.115 165.654 264.084 165.48 264.022C165.306 263.961 165.161 263.881 165.046 263.78C164.932 263.682 164.84 263.576 164.773 263.463L165.171 263.184C165.216 263.243 165.273 263.311 165.342 263.386C165.412 263.464 165.506 263.531 165.626 263.587C165.748 263.646 165.906 263.675 166.102 263.675C166.364 263.675 166.582 263.611 166.751 263.485C166.922 263.358 167.008 263.158 167.008 262.887V262.227H166.966C166.929 262.286 166.877 262.36 166.809 262.447C166.743 262.533 166.647 262.61 166.522 262.678C166.397 262.744 166.229 262.777 166.017 262.777C165.755 262.777 165.52 262.715 165.31 262.591C165.103 262.466 164.938 262.286 164.817 262.049C164.698 261.813 164.638 261.524 164.638 261.185C164.638 260.853 164.696 260.563 164.813 260.316C164.93 260.067 165.093 259.875 165.302 259.74C165.511 259.603 165.752 259.535 166.025 259.535C166.237 259.535 166.405 259.57 166.53 259.64C166.656 259.71 166.751 259.788 166.817 259.878C166.885 259.966 166.937 260.037 166.974 260.093H167.025V259.577H167.507V262.921C167.507 263.2 167.445 263.427 167.317 263.602C167.192 263.779 167.022 263.909 166.809 263.991C166.597 264.073 166.362 264.115 166.102 264.115ZM166.086 262.328C166.285 262.328 166.455 262.283 166.593 262.191C166.731 262.1 166.836 261.967 166.909 261.795C166.981 261.623 167.017 261.418 167.017 261.177C167.017 260.943 166.981 260.737 166.911 260.556C166.84 260.377 166.736 260.238 166.597 260.135C166.459 260.034 166.288 259.983 166.086 259.983C165.874 259.983 165.697 260.037 165.556 260.145C165.417 260.251 165.312 260.395 165.241 260.575C165.171 260.757 165.137 260.957 165.137 261.177C165.137 261.402 165.172 261.602 165.243 261.776C165.314 261.948 165.421 262.083 165.561 262.182C165.701 262.28 165.876 262.328 166.086 262.328Z" fill="white"/>
<path d="M163.376 262.829V259.577H163.875V262.829H163.376ZM163.629 259.035C163.532 259.035 163.448 259.002 163.377 258.936C163.309 258.869 163.273 258.79 163.273 258.697C163.273 258.604 163.309 258.523 163.377 258.458C163.448 258.391 163.532 258.358 163.629 258.358C163.727 258.358 163.81 258.391 163.879 258.458C163.95 258.523 163.985 258.604 163.985 258.697C163.985 258.79 163.95 258.869 163.879 258.936C163.81 259.002 163.727 259.035 163.629 259.035Z" fill="white"/>
<path d="M162.013 259.577C161.988 259.363 161.884 259.196 161.704 259.077C161.523 258.959 161.302 258.899 161.039 258.899C160.847 258.899 160.679 258.931 160.535 258.992C160.393 259.055 160.281 259.14 160.201 259.249C160.122 259.357 160.082 259.48 160.082 259.62C160.082 259.735 160.11 259.834 160.165 259.918C160.222 260 160.293 260.068 160.381 260.123C160.468 260.176 160.56 260.221 160.656 260.257C160.752 260.29 160.84 260.318 160.921 260.339L161.361 260.458C161.474 260.486 161.599 260.527 161.738 260.579C161.877 260.633 162.011 260.704 162.137 260.794C162.266 260.883 162.372 260.996 162.456 261.137C162.539 261.277 162.58 261.448 162.58 261.651C162.58 261.885 162.519 262.097 162.396 262.286C162.275 262.476 162.097 262.625 161.862 262.737C161.63 262.849 161.347 262.904 161.014 262.904C160.703 262.904 160.435 262.854 160.207 262.753C159.982 262.653 159.804 262.514 159.674 262.335C159.546 262.156 159.473 261.948 159.456 261.71H159.998C160.012 261.874 160.067 262.01 160.163 262.116C160.26 262.223 160.383 262.302 160.531 262.354C160.681 262.405 160.842 262.431 161.014 262.431C161.214 262.431 161.394 262.398 161.554 262.332C161.713 262.267 161.839 262.175 161.932 262.057C162.025 261.938 162.071 261.8 162.071 261.643C162.071 261.498 162.032 261.382 161.951 261.292C161.871 261.202 161.765 261.128 161.634 261.072C161.503 261.014 161.361 260.965 161.209 260.923L160.675 260.771C160.337 260.674 160.068 260.534 159.871 260.354C159.673 260.173 159.575 259.937 159.575 259.644C159.575 259.402 159.64 259.19 159.771 259.01C159.904 258.828 160.082 258.686 160.305 258.586C160.529 258.485 160.78 258.434 161.056 258.434C161.336 258.434 161.584 258.484 161.801 258.585C162.018 258.683 162.19 258.819 162.318 258.991C162.446 259.163 162.514 259.359 162.521 259.577H162.013Z" fill="white"/>
</svg>
