<svg width="26" height="25" viewBox="0 0 26 25" fill="none" xmlns="http://www.w3.org/2000/svg">
<path d="M17.1125 1.50027H17.2286C17.3043 1.50027 17.3759 1.53138 17.4277 1.58633L21.2986 5.63774V5.63671C21.3307 5.673 21.3525 5.71655 21.3629 5.76425H19.007C17.9607 5.76321 17.1135 4.91603 17.1125 3.86976L17.1125 1.50027ZM17.7958 19.6456H8.73389C8.39379 19.6674 8.12936 19.9505 8.12936 20.2906C8.12936 20.6318 8.39378 20.9148 8.73389 20.9366H17.7958C17.9742 20.948 18.1494 20.8858 18.2801 20.7634C18.4107 20.6411 18.4843 20.47 18.4843 20.2906C18.4843 20.1122 18.4107 19.9412 18.2801 19.8188C18.1494 19.6964 17.9742 19.6332 17.7958 19.6456ZM21.3909 6.31779V21.5266L21.3899 21.5256C21.3878 22.0534 21.1742 22.5574 20.7988 22.9286C20.4234 23.2988 19.9153 23.5041 19.3885 23.4999H7.22105C6.12604 23.4999 5.23736 22.6123 5.23633 21.5173V3.48265C5.23737 2.38764 6.12604 1.5 7.22105 1.5H16.5598V3.86942C16.5609 5.22054 17.6559 6.31556 19.007 6.31662L21.3909 6.31779ZM7.56535 4.65868L7.56431 4.65764C7.56431 4.73126 7.59335 4.80178 7.64519 4.85362C7.69704 4.90547 7.76755 4.93451 7.84117 4.93451H10.8276C10.98 4.93451 11.1034 4.81111 11.1034 4.65763C11.1034 4.5052 10.98 4.3818 10.8276 4.3818H7.8133C7.7376 4.3818 7.66605 4.41187 7.61421 4.46683C7.56132 4.52075 7.53333 4.59333 7.53644 4.66903L7.56535 4.65868ZM9.87358 14.436C9.87358 14.3624 9.84454 14.2919 9.7927 14.24C9.74085 14.1882 9.67034 14.1591 9.59671 14.1591C8.76302 14.155 8.00811 14.6538 7.68563 15.4232C7.36316 16.1926 7.53631 17.0802 8.12528 17.6723C8.71322 18.2634 9.59982 18.4417 10.3713 18.1234C11.1428 17.805 11.6457 17.0533 11.6457 16.2195C11.6457 16.0661 11.5223 15.9427 11.3688 15.9427C11.2164 15.9427 11.093 16.0661 11.093 16.2195C11.093 16.8293 10.7238 17.3799 10.1597 17.6122C9.59565 17.8455 8.94653 17.7138 8.5162 17.2803C8.08586 16.8479 7.95935 16.1978 8.19682 15.6347C8.43325 15.0716 8.98595 14.7077 9.59669 14.7118C9.67031 14.7118 9.74082 14.6828 9.79267 14.6309C9.84452 14.5791 9.87358 14.5086 9.87358 14.436ZM9.59671 16.344L9.15706 15.8317C9.05544 15.7177 8.88018 15.7073 8.76612 15.8089C8.65102 15.9105 8.64065 16.0858 8.74227 16.1999L9.40073 16.9413C9.45258 17.0004 9.5262 17.0336 9.60501 17.0346C9.68278 17.0346 9.75744 17.0014 9.80929 16.9433L11.5597 15.0074V15.0084C11.6623 14.8943 11.653 14.7191 11.5389 14.6164C11.4259 14.5148 11.2507 14.5241 11.148 14.6372L9.59671 16.344ZM18.9987 20.2895C18.9966 19.6279 18.4595 19.0918 17.7979 19.0918H8.73386C8.09406 19.1229 7.59115 19.6507 7.59115 20.2905C7.59115 20.9313 8.09406 21.4591 8.73386 21.4892H17.7958C18.4574 21.4882 18.9945 20.9521 18.9955 20.2895H18.9987ZM18.9987 17.2088C18.9987 17.1363 18.9696 17.0657 18.9178 17.0139C18.8659 16.962 18.7954 16.933 18.7218 16.933H13.3049C13.1525 16.933 13.028 17.0564 13.028 17.2088C13.028 17.3623 13.1524 17.4857 13.3049 17.4857H18.7189C18.7935 17.4857 18.8661 17.4556 18.918 17.4017C18.9698 17.3478 18.9978 17.2752 18.9958 17.2006L18.9987 17.2088ZM13.3049 15.893H14.964C15.1164 15.893 15.2409 15.7696 15.2409 15.6161C15.2409 15.4637 15.1164 15.3403 14.964 15.3403H13.3049C13.1524 15.3403 13.028 15.4637 13.028 15.6161C13.028 15.7696 13.1524 15.893 13.3049 15.893ZM19.0733 12.7489C19.0733 12.6753 19.0442 12.6048 18.9924 12.5529C18.9405 12.5011 18.87 12.472 18.7964 12.472H7.81311C7.66068 12.472 7.53623 12.5965 7.53623 12.7489C7.53623 12.9013 7.66067 13.0258 7.81311 13.0258H18.7964C18.87 13.0258 18.9405 12.9967 18.9924 12.9449C19.0442 12.893 19.0733 12.8225 19.0733 12.7489ZM19.0733 11.0431C19.0733 10.9695 19.0442 10.899 18.9924 10.8471C18.9405 10.7953 18.87 10.7662 18.7964 10.7662H7.81311C7.66068 10.7662 7.53623 10.8896 7.53623 11.0431C7.53623 11.1956 7.66067 11.319 7.81311 11.319H18.7964C18.87 11.319 18.9405 11.2899 18.9924 11.2381C19.0442 11.1862 19.0733 11.1157 19.0733 11.0431ZM19.0733 9.33423C19.0733 9.26061 19.0442 9.1901 18.9924 9.13825C18.9405 9.0864 18.87 9.05737 18.7964 9.05737H7.81311C7.66068 9.05737 7.53623 9.18076 7.53623 9.33424C7.53623 9.48667 7.66067 9.61008 7.81311 9.61008H18.7964C18.87 9.61008 18.9405 9.58104 18.9924 9.52919C19.0442 9.47735 19.0733 9.40682 19.0733 9.33423ZM19.0733 7.62742C19.0733 7.55483 19.0442 7.48432 18.9924 7.43247C18.9405 7.38063 18.87 7.35159 18.7964 7.35159H7.81311C7.66068 7.35159 7.53623 7.47499 7.53623 7.62743C7.53623 7.78089 7.66067 7.9043 7.81311 7.9043H18.7964C18.9488 7.9043 19.0733 7.7809 19.0733 7.62742Z" fill="#C8A443"/>
</svg>
