<svg width="24" height="24" viewBox="0 0 24 24" fill="none" xmlns="http://www.w3.org/2000/svg">
<path fill-rule="evenodd" clip-rule="evenodd" d="M8.43056 10.9903C8.31125 10.7548 7.97743 10.6108 7.64423 10.701C7.51057 10.7371 7.52925 10.8328 7.54838 10.9308C7.55942 10.9873 7.57061 11.0447 7.55273 11.0917C7.54777 11.1218 7.54777 11.1525 7.55273 11.1826V11.5733C7.55273 11.6007 7.55273 11.6304 7.56252 11.6534C7.57153 11.6772 7.59006 11.6944 7.62815 11.6957C7.64318 11.6962 7.65823 11.6967 7.67329 11.6972C7.89544 11.7049 8.11942 11.7127 8.30816 11.5535C8.39015 11.488 8.44708 11.3962 8.46937 11.2936C8.49166 11.1911 8.47796 11.084 8.43056 10.9903ZM11.4824 11.9786C11.53 11.8364 11.5788 11.6903 11.6297 11.538C11.6301 11.5392 11.6304 11.5403 11.6308 11.5414C11.6313 11.5401 11.6317 11.5387 11.6322 11.5374C11.6818 11.686 11.7297 11.829 11.7764 11.9687C11.8785 12.2741 11.9753 12.5634 12.0742 12.8603H12.0715C12.0716 12.8606 12.0716 12.8608 12.0717 12.861H11.1871C11.1873 12.8602 11.1876 12.8594 11.1878 12.8587L11.1871 12.8579C11.2027 12.8113 11.2182 12.7649 11.2338 12.7185C11.3156 12.4745 11.3967 12.2323 11.4824 11.9786ZM4.73488 10.8044C4.8039 10.8723 4.84423 10.9641 4.84754 11.0608C4.85194 11.1112 4.84628 11.162 4.83089 11.2102C4.81551 11.2584 4.79071 11.303 4.75793 11.3415C4.72515 11.3801 4.68504 11.4117 4.63994 11.4346C4.59483 11.4575 4.54562 11.4712 4.49517 11.475C4.41866 11.4808 4.34188 11.4822 4.26521 11.4793C4.05976 11.4799 3.95745 11.4802 3.9065 11.4292C3.85596 11.3787 3.85596 11.2776 3.85596 11.0763C3.85596 10.8978 3.85596 10.8038 3.89714 10.7542C3.9419 10.6961 4.03845 10.6961 4.24666 10.6961C4.27221 10.6961 4.29776 10.6955 4.32332 10.6948C4.37442 10.6936 4.42552 10.6924 4.47663 10.6961C4.57341 10.6978 4.66586 10.7365 4.73488 10.8044ZM3.86439 12.6582C3.86438 12.6553 3.86446 12.6524 3.86462 12.6495C3.86833 12.6359 3.86833 12.623 3.86833 12.6112L3.87204 12.5877C3.8728 12.5831 3.87409 12.5786 3.87534 12.5741C3.87712 12.5678 3.87884 12.5617 3.87884 12.5562C3.88044 12.5493 3.88251 12.5425 3.88502 12.5358C3.88681 12.5295 3.88908 12.5233 3.89182 12.5173C3.89275 12.5152 3.8942 12.5131 3.89564 12.511C3.89806 12.5075 3.90047 12.504 3.90047 12.5006C3.90285 12.4952 3.90597 12.4902 3.90975 12.4857C3.91292 12.4808 3.91666 12.4762 3.92087 12.4721L3.93015 12.4629C3.93469 12.4585 3.93966 12.4545 3.94498 12.4511C3.95053 12.4472 3.95631 12.4437 3.96229 12.4406L3.97713 12.4332C3.98437 12.43 3.9918 12.4273 3.99938 12.4251L4.03277 12.4165L4.05811 12.4122C4.06746 12.4089 4.07849 12.4086 4.08924 12.4083C4.09697 12.4081 4.10456 12.4079 4.11128 12.4066C4.12735 12.4035 4.14404 12.4035 4.16259 12.4035H4.19041H4.39688C4.42704 12.4035 4.45753 12.403 4.48816 12.4024C4.54984 12.4013 4.61208 12.4002 4.67321 12.4035L4.68063 12.4029C4.81453 12.4073 4.94176 12.4623 5.03661 12.557C5.13145 12.6516 5.18683 12.7787 5.19154 12.9126C5.19616 13.0437 5.15185 13.1717 5.06741 13.2719C5.06622 13.2733 5.06502 13.2748 5.06382 13.2763C4.97724 13.3809 4.85286 13.4471 4.71772 13.4606C4.56696 13.4737 4.41428 13.4722 4.26087 13.4706C4.16771 13.4697 4.07427 13.4688 3.98084 13.4711C3.8912 13.4711 3.86401 13.4368 3.86438 13.359C3.86438 13.3586 3.86437 13.3582 3.86437 13.3577C3.86436 13.3532 3.86445 13.3486 3.86462 13.3438V13.0545V13.0514V13.0508V12.9308V12.9277V12.9271V12.7583V12.7553V12.7546V12.6916V12.6885V12.6879V12.6699C3.86444 12.6667 3.86436 12.6634 3.8644 12.6601C3.86439 12.6594 3.86439 12.6588 3.86439 12.6582ZM22.7206 10.4408C22.1387 11.4196 22.1362 12.4035 22.7132 13.3926C23.1911 14.2092 23.0588 15.0914 22.4134 15.6818C22.3503 15.7555 22.2817 15.8244 22.2081 15.8876C22.1083 15.972 22.0005 16.0463 21.8861 16.1096C21.6658 16.2302 21.4599 16.3754 21.2722 16.5423C20.7882 17.0566 20.5502 17.7113 20.5502 18.5069C20.5508 19.1269 20.3208 19.6351 19.9264 19.9664C19.6532 20.2664 19.2869 20.4657 18.8866 20.5321C18.7411 20.5576 18.5943 20.5568 18.4472 20.556C18.3093 20.5552 18.1711 20.5544 18.0335 20.5753C17.4666 20.6619 16.99 20.8727 16.6012 21.2115C16.422 21.4009 16.2666 21.6114 16.1381 21.8383C16.0267 22.0358 15.8861 22.2153 15.7209 22.3706C15.3666 22.786 14.895 23.0005 14.2935 22.9962C13.976 22.9863 13.6672 22.8908 13.3996 22.7198C12.4208 22.1383 11.4368 22.1361 10.4477 22.713C9.48087 23.2762 8.42995 22.9912 7.87358 22.0176C7.30979 21.0328 6.45792 20.5481 5.33158 20.5494C4.20524 20.5506 3.44858 19.7872 3.44981 18.6664C3.45105 17.5456 2.9769 16.6993 2.00016 16.138C0.998695 15.5625 0.72051 14.5258 1.29728 13.5311C1.85654 12.5659 1.85757 11.6015 1.30037 10.638C0.962222 10.0525 0.914003 9.4566 1.13346 8.94783C1.28801 8.58619 1.57732 8.26906 1.99336 8.02982C2.76919 7.58225 3.23221 6.95726 3.38738 6.15361C3.42892 5.93934 3.44962 5.72154 3.4492 5.50328C3.44858 4.88509 3.67174 4.38127 4.05873 4.04992C4.39564 3.67097 4.89452 3.44904 5.4682 3.45336C6.25083 3.46016 6.90796 3.23391 7.43342 2.75357C7.60142 2.56982 7.74804 2.36762 7.87048 2.15084C7.98079 1.95495 8.12071 1.77729 8.28529 1.62414C8.85464 0.967008 9.77142 0.799479 10.5652 1.26436C11.129 1.59756 11.7199 1.75891 12.3728 1.69709C12.8191 1.65691 13.2172 1.48814 13.6017 1.26436C13.8074 1.14041 14.0357 1.05855 14.2733 1.02353C14.5109 0.988507 14.7531 1.00102 14.9858 1.06035C15.3365 1.15447 15.65 1.35331 15.8847 1.63032C15.9125 1.66247 15.9385 1.69585 15.9638 1.72985C16.0162 1.80099 16.0641 1.87531 16.1072 1.9524C16.1894 2.10061 16.2824 2.24256 16.3854 2.3771C16.7022 2.80373 17.1411 3.12408 17.6441 3.29573C17.9922 3.40992 18.3572 3.46406 18.7234 3.45584C19.1554 3.4436 19.5771 3.58878 19.9099 3.86434C20.2428 4.1399 20.4642 4.52706 20.5329 4.95371C20.5584 5.09919 20.5576 5.24599 20.5567 5.39309C20.556 5.53102 20.5552 5.6692 20.5761 5.80681C20.7152 6.72111 21.1813 7.40792 21.9887 7.85734C22.6539 8.22702 23.0019 8.78215 22.9963 9.54685C22.987 9.86427 22.8917 10.1732 22.7206 10.4408ZM8.07696 3.95286C7.16171 4.3831 6.32782 4.96851 5.61224 5.68317C5.39031 5.90263 5.36496 6.17958 5.56155 6.37802C5.75813 6.57646 6.01901 6.56286 6.25887 6.34093C6.28977 6.31218 6.32068 6.28282 6.35159 6.25346C6.3825 6.22409 6.41341 6.19473 6.44432 6.16598C7.85379 4.87644 9.51116 4.14759 11.4164 4.04312C13.7816 3.91082 15.8352 4.678 17.5526 6.32176C17.8054 6.56162 18.0632 6.58449 18.2666 6.38358C18.47 6.18267 18.4428 5.89459 18.1955 5.65535C16.4435 3.96955 14.3491 3.12511 11.9221 3.09667C10.5925 3.09062 9.27842 3.38321 8.07696 3.95286ZM14.7092 12.9449C14.7092 12.6369 14.7092 12.3287 14.7107 12.0196C14.7107 12.0052 14.7093 11.9904 14.7078 11.9754C14.7025 11.9231 14.697 11.8677 14.7522 11.8168C14.7985 11.8787 14.8437 11.9405 14.8863 12.0023C14.9588 12.1099 15.0314 12.2176 15.104 12.3253C15.5034 12.9182 15.9038 13.5125 16.3081 14.1041C16.4577 14.323 16.6741 14.4058 16.8874 14.3316C16.9928 14.3023 17.0853 14.2384 17.15 14.1501C17.2147 14.0619 17.2478 13.9545 17.2441 13.8451C17.2499 12.6355 17.2499 11.4255 17.2441 10.2151C17.246 10.1018 17.2041 9.99213 17.127 9.90905C17.0499 9.82597 16.9437 9.77593 16.8305 9.7694C16.7139 9.75868 16.5976 9.79309 16.5056 9.86554C16.4136 9.938 16.3529 10.043 16.336 10.1589C16.3239 10.2504 16.3196 10.3429 16.323 10.4352V12.3899L16.2723 12.401C15.7386 11.6098 15.2039 10.8191 14.6681 10.029C14.5154 9.80464 14.3367 9.72737 14.1198 9.79475C13.9028 9.86213 13.7853 10.021 13.7853 10.2893C13.7812 11.4845 13.7812 12.6796 13.7853 13.8748C13.7866 14.1938 13.9751 14.3965 14.2521 14.3947C14.529 14.3928 14.7077 14.1963 14.7077 13.8692C14.7092 13.5608 14.7092 13.2529 14.7092 12.9449ZM10.7716 16.7463C10.7192 16.8322 10.6942 16.932 10.6999 17.0325C10.7018 17.218 10.8315 17.3267 10.9572 17.4322L10.9583 17.4331C10.7018 17.6692 10.64 17.8745 10.7506 18.089C10.7968 18.1786 10.8714 18.2503 10.9627 18.293C11.1246 18.3715 11.2835 18.3245 11.4393 18.2627C11.5017 18.5978 11.6513 18.7659 11.8986 18.7789C12.1459 18.7919 12.2998 18.6386 12.4136 18.2676C12.7239 18.3826 12.9328 18.3369 13.0682 18.1242C13.1801 17.9487 13.1684 17.6872 13.0008 17.5549C12.8605 17.443 12.9063 17.3966 13.0113 17.3113C13.0539 17.2724 13.0871 17.2244 13.1085 17.1709C13.1299 17.1174 13.1389 17.0597 13.135 17.0022C13.1375 16.6332 12.8172 16.4619 12.4018 16.6109C12.3245 16.2579 12.191 16.1114 11.9369 16.1028C11.6699 16.0929 11.5271 16.235 11.4263 16.6097C11.1191 16.499 10.9058 16.5417 10.7716 16.7463ZM12.4513 13.9848C12.5545 14.3125 12.7869 14.4565 13.0491 14.3743L13.0521 14.3737C13.3316 14.2859 13.4404 14.0281 13.3272 13.698C12.9411 12.5395 12.5535 11.3812 12.1644 10.2232C12.0587 9.91468 11.8782 9.76878 11.626 9.77002C11.3738 9.77126 11.1926 9.92333 11.0894 10.2287C10.702 11.3785 10.315 12.5284 9.92844 13.6782C9.90866 13.7352 9.89401 13.7974 9.88374 13.841C9.8802 13.856 9.87718 13.8689 9.87465 13.8785C9.87033 14.2667 10.2072 14.4899 10.5163 14.3527C10.6882 14.2766 10.7667 14.1307 10.8069 13.9607C10.8378 13.8284 10.9058 13.7821 11.0467 13.7858C11.4238 13.7975 11.8015 13.8 12.178 13.7858C12.3412 13.7796 12.4043 13.8352 12.4513 13.9848ZM11.4306 5.89088C11.0987 5.78332 10.894 5.83154 10.7618 6.04852L10.763 6.0479C10.6344 6.25933 10.6882 6.45776 10.9466 6.73224C10.6925 6.9585 10.6307 7.16621 10.7543 7.39123C10.878 7.61625 11.0863 7.66756 11.4343 7.55876C11.498 7.9 11.6439 8.05578 11.9029 8.06073C12.1725 8.06567 12.3239 7.91051 12.3938 7.55629C12.7239 7.66571 12.931 7.62367 13.0645 7.40978C13.198 7.19588 13.1368 6.96653 12.8828 6.72977C13.143 6.46704 13.1993 6.25685 13.0682 6.04481C12.9372 5.83277 12.7381 5.78579 12.3993 5.88779C12.3233 5.54964 12.1725 5.38892 11.9252 5.38273C11.6779 5.37655 11.5129 5.54346 11.4306 5.89088ZM9.40359 13.996C9.43265 13.8303 9.35723 13.7017 9.25152 13.5781C8.95417 13.2424 8.66053 12.9067 8.36627 12.5686C8.37342 12.5652 8.38026 12.5619 8.38683 12.5588C8.42575 12.5403 8.45544 12.5261 8.48558 12.5129C9.11119 12.2415 9.48334 11.6536 9.40483 11.0596C9.31581 10.3808 8.82682 9.87264 8.13507 9.78795C7.90051 9.75886 7.66161 9.76319 7.42278 9.76752C7.33682 9.76908 7.25087 9.77064 7.16513 9.77064C6.8004 9.77126 6.62298 9.93693 6.62298 10.3078C6.61968 11.4869 6.61968 12.666 6.62298 13.8451C6.6236 14.1851 6.80225 14.3935 7.08291 14.3953C7.36357 14.3972 7.54284 14.1888 7.54903 13.8507C7.55143 13.6903 7.55072 13.5317 7.54992 13.3545C7.54948 13.2585 7.54903 13.1571 7.54903 13.047C7.63121 13.1415 7.68345 13.1999 7.72806 13.2498C7.74184 13.2651 7.75489 13.2797 7.76787 13.2943C7.85327 13.3912 7.93838 13.4884 8.02349 13.5856C8.21251 13.8013 8.40152 14.0171 8.59377 14.2303C8.64955 14.3005 8.72542 14.352 8.81124 14.3779C8.89706 14.4039 8.98876 14.403 9.0741 14.3755C9.16051 14.3521 9.238 14.3035 9.29668 14.2359C9.35536 14.1683 9.39258 14.0848 9.40359 13.996ZM3.63024 14.3966C3.96926 14.3991 4.31207 14.4016 4.65219 14.3916L4.64972 14.3904C5.27718 14.3712 5.7501 14.0782 5.99304 13.5014C6.23599 12.9246 6.13152 12.3819 5.69879 11.9226C5.60111 11.8187 5.59988 11.7569 5.65675 11.6332C5.7502 11.4338 5.79174 11.214 5.77749 10.9942C5.76325 10.7744 5.69369 10.5618 5.57527 10.3761C5.45685 10.1904 5.29342 10.0376 5.10016 9.93199C4.9069 9.82635 4.69007 9.77128 4.46983 9.77188C4.25428 9.76899 4.03874 9.76995 3.8232 9.77091C3.71543 9.77139 3.60766 9.77188 3.49989 9.77188C3.09868 9.77188 2.9361 9.92951 2.9361 10.3282V12.0592C2.9361 12.2619 2.93562 12.4647 2.93514 12.6675C2.93418 13.073 2.93321 13.4785 2.9361 13.8841C2.93857 14.2228 3.1129 14.3953 3.45167 14.3953C3.51105 14.3957 3.57058 14.3961 3.63024 14.3966ZM15.6504 20.2644C16.6134 19.8264 17.4901 19.2192 18.2388 18.4717L18.2363 18.4686C18.4465 18.2602 18.4644 17.9876 18.2789 17.7923C18.0935 17.5969 17.8258 17.6019 17.5989 17.8059C17.5624 17.8388 17.5268 17.8735 17.4915 17.9081C17.4604 17.9384 17.4295 17.9686 17.398 17.9975C14.8628 20.3676 11.0041 20.827 7.98485 19.1207C7.3554 18.7628 6.7738 18.3266 6.25392 17.8226C5.98563 17.5648 5.62893 17.6124 5.48057 17.9128C5.38104 18.1143 5.42987 18.3078 5.63882 18.5087C7.3883 20.1976 9.48458 21.0371 11.3503 21.068C13.2265 21.068 14.4493 20.8109 15.6504 20.2644ZM19.0473 14.3873C19.7595 14.3391 20.2899 13.9855 20.6058 13.3549L20.6033 13.3518C21.0249 12.5092 21.02 11.6425 20.6194 10.7999C20.3295 10.191 19.8207 9.85595 19.1518 9.78548C18.8981 9.76836 18.6437 9.76485 18.3896 9.77497C17.9902 9.77497 17.8283 9.93199 17.8283 10.3313V12.087H17.8363C17.8363 12.2898 17.8357 12.4925 17.8351 12.6953C17.8338 13.1008 17.8326 13.5064 17.8363 13.9119C17.8388 14.2105 18.0181 14.3897 18.3086 14.3959C18.5528 14.4015 18.8001 14.404 19.0473 14.3873ZM19.8263 12.8498C20.0325 12.3697 20.0416 11.8277 19.8516 11.3408C19.702 10.9372 19.3991 10.7152 18.9546 10.6911C18.8019 10.6831 18.7383 10.7128 18.7445 10.8858C18.7541 11.1692 18.7522 11.455 18.7503 11.7406C18.7496 11.8564 18.7488 11.9721 18.7488 12.0876H18.7531C18.7531 12.2236 18.7539 12.3596 18.7546 12.4956C18.7561 12.7676 18.7576 13.0396 18.7531 13.3116C18.7513 13.4334 18.7865 13.468 18.9101 13.468C19.3231 13.468 19.6526 13.2603 19.8263 12.8498Z" fill="#EB6309"/>
</svg>
