<svg width="24" height="24" viewBox="0 0 24 24" fill="none" xmlns="http://www.w3.org/2000/svg">
<g clip-path="url(#clip0_137_736)">
<path d="M13.0724 0.0612793H1.63953V20.5174H12.1615V18.8144H3.34258V1.76434H11.8676V6.87935H16.9826V13.4035L17.3544 13.7792C17.6461 13.748 17.9404 13.748 18.2322 13.7792L18.6876 13.3218V5.67456L13.0724 0.0612793Z" fill="#EB6309"/>
<path d="M5.04764 5.17432H10.1627V6.87932H5.04764V5.17432Z" fill="#EB6309"/>
<path d="M5.04764 9.43677H15.2777V11.1418H5.04764V9.43677Z" fill="#EB6309"/>
<path d="M5.04764 13.6995H12.8583V15.4045H5.04764V13.6995Z" fill="#EB6309"/>
<path d="M22.3507 16.5333H20.7508C20.4936 16.088 20.1389 15.7067 19.7134 15.418L20.6418 14.4877L19.8379 13.6858L18.602 14.9217C18.3368 14.8577 18.0651 14.825 17.7923 14.8244C17.5214 14.8248 17.2516 14.8574 16.9885 14.9217L15.7467 13.6858L14.9409 14.4877L15.8654 15.418C15.4425 15.708 15.09 16.0891 14.8338 16.5333H13.2339V17.6719H14.4251C14.3935 17.8604 14.3766 18.0511 14.3745 18.2422V18.8105H13.2339V19.9511H14.3745V20.5214C14.3767 20.7125 14.3936 20.9031 14.4251 21.0917H13.2339V22.2303H14.8358C15.1353 22.7497 15.5663 23.1811 16.0855 23.481C16.6047 23.781 17.1937 23.9389 17.7933 23.9389C18.3929 23.9389 18.9819 23.781 19.5011 23.481C20.0202 23.1811 20.4513 22.7497 20.7508 22.2303H22.3507V21.0917H21.1692C21.2014 20.9032 21.2189 20.7125 21.2218 20.5214V19.9511H22.3604V18.8105H21.2218V18.2422C21.219 18.051 21.2015 17.8604 21.1692 17.6719H22.3604L22.3507 16.5333ZM18.9329 21.0936H16.6537V19.953H18.9329V21.0936ZM18.9329 18.8125H16.6537V17.6719H18.9329V18.8125Z" fill="#EB6309"/>
</g>
<defs>
<clipPath id="clip0_137_736">
<rect width="24" height="24" fill="white"/>
</clipPath>
</defs>
</svg>
