<svg width="24" height="24" viewBox="0 0 24 24" fill="none" xmlns="http://www.w3.org/2000/svg">
<g clip-path="url(#clip0_137_728)">
<path d="M20.0401 2.81134H18.8916V0.51416H16.5944V2.81134H7.40566V0.51416H5.10849V2.81134H3.9599C3.35065 2.81134 2.76635 3.05336 2.33555 3.48416C1.90474 3.91497 1.66272 4.49926 1.66272 5.10851V21.1888C1.66272 21.798 1.90474 22.3823 2.33555 22.8131C2.76635 23.2439 3.35065 23.4859 3.9599 23.4859H20.0401C21.3036 23.4859 22.3373 22.4522 22.3373 21.1888V5.10851C22.3373 3.84507 21.3036 2.81134 20.0401 2.81134ZM12 6.2571C13.9067 6.2571 15.4458 7.79621 15.4458 9.70287C15.4458 11.6095 13.9067 13.1486 12 13.1486C10.0934 13.1486 8.55425 11.6095 8.55425 9.70287C8.55425 7.79621 10.0934 6.2571 12 6.2571ZM18.8916 20.0402H5.10849V18.8916C5.10849 16.5944 9.70284 15.331 12 15.331C14.2972 15.331 18.8916 16.5944 18.8916 18.8916V20.0402Z" fill="#EB6309"/>
</g>
<defs>
<clipPath id="clip0_137_728">
<rect width="24" height="24" fill="white"/>
</clipPath>
</defs>
</svg>
