<svg width="400" height="401" viewBox="0 0 400 401" fill="none" xmlns="http://www.w3.org/2000/svg">
<g clip-path="url(#clip0_1936_2327)">
<path d="M277.45 51.2915C317.459 56.5472 374.404 111.428 328.992 206.537C283.586 301.645 200.011 320.371 146.13 310.853C94.6801 301.765 38.383 257.804 58.3839 189.361C74.031 135.825 147.666 149.169 179.883 116.952C198.996 97.8383 216.701 43.3165 277.45 51.2915Z" fill="#C8A443"/>
<path d="M222.46 261.092L215.287 268.405L234.996 287.739L242.169 280.427L222.46 261.092Z" fill="url(#paint0_linear_1936_2327)"/>
<path d="M293.083 350.503C289.977 350.503 286.87 349.333 284.481 346.987L232.841 296.333C227.994 291.578 227.924 283.8 232.672 278.953C237.427 274.106 245.205 274.028 250.052 278.784L301.693 329.438C306.54 334.193 306.61 341.971 301.862 346.818C299.452 349.27 296.275 350.503 293.09 350.503H293.083Z" fill="#2B2B2B"/>
<path d="M175.177 83.6144C175.684 84.2273 176.1 84.96 176.396 85.8195C176.903 87.2708 176.755 88.87 176.509 90.3918C174.339 103.806 164.405 114.437 153.218 121.39C144.728 126.66 135.267 130.147 125.749 133.183C113.42 137.122 97.9492 140.947 86.2263 133.254C83.3026 131.331 81.034 128.012 81.3652 124.532C82.1965 115.684 94.2999 110.815 101.141 107.554C113.61 101.615 126.01 95.5276 138.719 90.1029C145.271 87.306 151.9 84.6853 158.635 82.3674C163.172 80.8034 171.535 79.2042 175.17 83.6144H175.177Z" fill="#C8A443"/>
<path d="M71.0579 323.224C76.6686 323.224 81.2169 318.676 81.2169 313.065C81.2169 307.454 76.6686 302.906 71.0579 302.906C65.4473 302.906 60.8989 307.454 60.8989 313.065C60.8989 318.676 65.4473 323.224 71.0579 323.224Z" fill="#996C22"/>
<path d="M283.572 242.142C287.81 242.142 291.245 238.707 291.245 234.47C291.245 230.233 287.81 226.798 283.572 226.798C279.335 226.798 275.9 230.233 275.9 234.47C275.9 238.707 279.335 242.142 283.572 242.142Z" fill="#996C22"/>
<path d="M125.474 68.6436C129.101 68.6436 132.04 65.7039 132.04 62.0776C132.04 58.4513 129.101 55.5116 125.474 55.5116C121.848 55.5116 118.908 58.4513 118.908 62.0776C118.908 65.7039 121.848 68.6436 125.474 68.6436Z" fill="#996C22"/>
<path d="M158.917 292.374C206.818 292.374 245.649 253.543 245.649 205.642C245.649 157.741 206.818 118.91 158.917 118.91C111.016 118.91 72.1851 157.741 72.1851 205.642C72.1851 253.543 111.016 292.374 158.917 292.374Z" fill="#2B2B2B"/>
<path d="M233.503 205.642C233.503 246.834 200.116 280.242 158.924 280.242C130.927 280.242 106.53 264.82 93.7853 242.002C87.7617 231.251 84.3237 218.837 84.3237 205.642C84.3237 164.449 117.71 131.042 158.924 131.042C173.817 131.042 187.661 135.403 199.299 142.92C219.885 156.171 233.503 179.322 233.503 205.642Z" fill="#DADADA"/>
<g style="mix-blend-mode:screen" opacity="0.5">
<path d="M179.488 186.754C151.055 214.674 132.089 241.832 118.753 244.904C111.151 246.665 101.507 245.151 93.7853 241.994C87.7617 231.244 84.3237 218.83 84.3237 205.635C84.3237 164.442 117.71 131.035 158.924 131.035C173.817 131.035 187.661 135.396 199.299 142.913C200.941 152.748 199.179 167.408 179.488 186.747V186.754Z" fill="#B2B2B2"/>
</g>
<path d="M131.941 211.609C137.124 211.609 141.325 207.408 141.325 202.225C141.325 197.042 137.124 192.841 131.941 192.841C126.759 192.841 122.557 197.042 122.557 202.225C122.557 207.408 126.759 211.609 131.941 211.609Z" fill="#2B2B2B"/>
<path d="M118.499 187.346C117.682 187.346 116.914 186.853 116.597 186.05C116.182 185 116.696 183.809 117.746 183.394L138.676 175.095C139.726 174.679 140.917 175.193 141.339 176.243C141.755 177.293 141.241 178.483 140.191 178.899L119.26 187.198C119.014 187.297 118.753 187.346 118.506 187.346H118.499Z" fill="#2B2B2B"/>
<path d="M185.956 211.609C191.138 211.609 195.34 207.408 195.34 202.225C195.34 197.042 191.138 192.841 185.956 192.841C180.773 192.841 176.572 197.042 176.572 202.225C176.572 207.408 180.773 211.609 185.956 211.609Z" fill="#2B2B2B"/>
<path d="M199.391 187.346C200.208 187.346 200.976 186.853 201.293 186.05C201.709 185 201.194 183.809 200.145 183.394L179.214 175.095C178.164 174.679 176.974 175.193 176.551 176.243C176.135 177.293 176.649 178.483 177.699 178.899L198.63 187.198C198.877 187.297 199.137 187.346 199.384 187.346H199.391Z" fill="#2B2B2B"/>
<path d="M165.138 235.598H152.745C151.611 235.598 150.695 234.682 150.695 233.547C150.695 232.413 151.611 231.497 152.745 231.497H165.138C166.272 231.497 167.188 232.413 167.188 233.547C167.188 234.682 166.272 235.598 165.138 235.598Z" fill="#2B2B2B"/>
<g style="mix-blend-mode:overlay">
<path d="M95.8779 220.303C94.9198 220.303 94.0674 219.626 93.8701 218.654C93.0176 214.399 92.5879 210.024 92.5879 205.642C92.5879 204.508 93.5038 203.592 94.638 203.592C95.7723 203.592 96.6881 204.508 96.6881 205.642C96.6881 209.749 97.0897 213.863 97.8858 217.851C98.1112 218.957 97.3856 220.042 96.2795 220.26C96.1456 220.289 96.0118 220.303 95.8779 220.303Z" fill="#B8FCFF"/>
<path d="M95.385 197.864C95.2863 197.864 95.1736 197.857 95.075 197.843C93.9548 197.674 93.1869 196.624 93.363 195.511C98.2734 163.47 126.461 139.306 158.924 139.306C163.278 139.306 167.639 139.728 171.873 140.574C172.986 140.792 173.705 141.87 173.487 142.983C173.268 144.089 172.19 144.822 171.077 144.596C167.104 143.807 163.011 143.406 158.924 143.406C128.462 143.406 102.014 166.07 97.4069 196.131C97.2519 197.146 96.3783 197.871 95.385 197.871V197.864Z" fill="#B8FCFF"/>
</g>
<g style="mix-blend-mode:multiply">
<path d="M211.086 178.624C211.086 178.624 224.817 194.144 245.536 210.087C245.536 210.087 246.114 195.941 243.719 187.353L227.487 172.643L211.086 178.631V178.624Z" fill="#2B2B2B"/>
</g>
<path d="M287.757 80.7469H232.862C217.947 80.7469 205.851 92.8433 205.851 107.758V162.653C205.851 177.567 217.947 189.664 232.862 189.664H269.095L269.348 207.319L287.757 189.664C302.671 189.664 314.768 177.567 314.768 162.653V107.758C314.768 92.8433 302.671 80.7469 287.757 80.7469Z" fill="#FDFEFD"/>
<path d="M266.101 134.853L283.643 117.311C285.242 115.712 285.242 113.119 283.643 111.52C282.044 109.921 279.451 109.921 277.852 111.52L260.31 129.062L242.767 111.52C241.168 109.921 238.576 109.921 236.976 111.52C235.377 113.119 235.377 115.712 236.976 117.311L254.518 134.853L236.976 152.395C235.377 153.994 235.377 156.587 236.976 158.186C237.779 158.989 238.822 159.384 239.872 159.384C240.922 159.384 241.971 158.982 242.767 158.186L260.31 140.644L277.852 158.186C278.655 158.989 279.698 159.384 280.747 159.384C281.797 159.384 282.847 158.982 283.643 158.186C285.242 156.587 285.242 153.994 283.643 152.395L266.101 134.853Z" fill="#996C22"/>
</g>
<defs>
<linearGradient id="paint0_linear_1936_2327" x1="238.535" y1="283.85" x2="216.745" y2="262.834" gradientUnits="userSpaceOnUse">
<stop stop-color="#86A1B3"/>
<stop offset="0.18" stop-color="#839EAF"/>
<stop offset="0.33" stop-color="#7B94A5"/>
<stop offset="0.47" stop-color="#6E8594"/>
<stop offset="0.61" stop-color="#5C6F7B"/>
<stop offset="0.73" stop-color="#45535C"/>
<stop offset="0.86" stop-color="#283036"/>
<stop offset="0.98" stop-color="#070809"/>
<stop offset="1"/>
</linearGradient>
<clipPath id="clip0_1936_2327">
<rect width="291.504" height="300" fill="white" transform="translate(54.2485 50.5026)"/>
</clipPath>
</defs>
</svg>
