<svg xmlns="http://www.w3.org/2000/svg" viewBox="0 0 455.6 306.16"><g style="isolation:isolate"><g id="Layer_1" data-name="Layer 1"><path d="M422.45,43.13C449.15,77.21,428.81,191.4,308,187S205.8,123,137,146.48,51.16,185.41,27.31,154,52.75,61.41,92.5,55.85s33.79,5.17,60.83-6S347.71-52.28,422.45,43.13Z" fill="#d3efee"/><path d="M145.4,70a20.27,20.27,0,0,1-6.26,23.28c-3.44,2.61-8,4.4-9.54,8.45-1.44,3.81.47,8,2,11.74s2.38,8.6-.47,11.5c-3.6,3.67-10.21,1.36-14.58,4.07s-4.55,8.9-3.23,13.8,3.73,9.8,2.89,14.8-4.7,8.84-9.19,10.94-9.55,2.59-14.5,2.79c-6,.25-12.22.08-18-1.77s-11.15-5.57-13.89-11-2.36-12.55,1.8-17c2.43-2.58,6.1-4.35,7-7.77,1-3.63-1.65-7.14-4.06-10s-4.89-6.57-3.64-10.11c2.27-6.43,13.82-4.94,16.08-11.37.88-2.5-.1-5.21-.77-7.77a32.46,32.46,0,0,1,36-40.42c4.29.54,7.8,2.82,11.87,3.68,3.9.83,7.33.35,11.1,2.24A20,20,0,0,1,145.4,70Z" fill="#bf360c"/><path d="M62.41,141.64c2.43-2.58,6.1-4.35,7-7.77,1-3.63-1.65-7.14-4.06-10s-4.89-6.57-3.64-10.11c2.27-6.43,13.82-4.94,16.08-11.37.88-2.5-.1-5.21-.77-7.77A33.46,33.46,0,0,1,88.8,60.46a37.53,37.53,0,0,0-8.38,26.42,38.24,38.24,0,0,0,2.13,9.31c1.47,4.23,5.89,8.74,1.07,12.49-3.39,2.63-7.74,3.47-9.57,7.89-1.07,2.58-.25,5,1.29,7.21s2.62,4,2.55,6.74a20.43,20.43,0,0,1-2.13,7.59c-1,2.16-1.94,4.38-1.24,6.78a9.74,9.74,0,0,0,4.73,5.44c4,2.17,9.14,2.16,13.48,1.45,4.08-.66,7.82-2.33,10-6,2-3.42,2.27-7.7,2.51-11.57.14-2.2.2-4.34,1.35-6.3a12,12,0,0,1,4.2-3.94c3.87-2.4,8.9-3.5,12.17-6.74,2.92-2.91,2.33-6.85,1-10.35s-3.38-7.26-1.07-10.64a14.74,14.74,0,0,1,5-4,65.86,65.86,0,0,0,5.63-3.56c3.93-2.84,7.41-6.39,9-11.07a18,18,0,0,0-.79-12.5c-.16-.4-.34-.8-.53-1.2A18.9,18.9,0,0,1,145.4,70a20.27,20.27,0,0,1-6.26,23.28c-3.44,2.61-8,4.4-9.54,8.45-1.44,3.81.47,8,2,11.74s2.38,8.6-.47,11.5c-3.6,3.67-10.21,1.36-14.58,4.07s-4.55,8.9-3.23,13.8,3.73,9.8,2.89,14.8-4.7,8.84-9.19,10.94-9.55,2.59-14.5,2.79c-6,.25-12.22.08-18-1.77s-11.15-5.57-13.89-11S58.25,146,62.41,141.64Z" fill="#92360c"/><path d="M427.78,264.44c-2.06,15.23-75.31,44-144.86,41.57s-105.77-19.64-141.57-20.73S-9.28,269,.6,242.63s96.69-12.07,147.74-20.58c34.57-5.76,118.53-12.08,164.21-6.86S430.47,244.52,427.78,264.44Z" fill="#d3efee"/><rect x="261.15" y="132.41" width="68.92" height="13" rx="3.49" transform="translate(26.99 324.72) rotate(-59.84)" fill="#292466"/><rect x="336.93" y="104.45" width="13" height="68.92" rx="3.49" transform="translate(-23.3 191.34) rotate(-30.16)" fill="#292466"/><rect x="235.83" y="154.02" width="167.38" height="17" rx="4.9" fill="#231c50"/><path d="M382,259.35H257.05a6.12,6.12,0,0,1-6.08-5.43L241.58,171H397.46l-9.39,82.9A6.12,6.12,0,0,1,382,259.35Z" fill="#292466"/><path d="M270.39,211.28h-4.51c-1,0-1.74-1-1.74-2.32v-27c0-1.28.78-2.32,1.74-2.32h4.51c1,0,1.75,1,1.75,2.32v27C272.14,210.24,271.35,211.28,270.39,211.28Z" fill="#fff"/><path d="M296.08,211.28h-4.5c-1,0-1.75-1-1.75-2.32v-27c0-1.28.78-2.32,1.75-2.32h4.5c1,0,1.75,1,1.75,2.32v27C297.83,210.24,297.05,211.28,296.08,211.28Z" fill="#fff"/><path d="M321.77,211.28h-4.5c-1,0-1.75-1-1.75-2.32v-27c0-1.28.78-2.32,1.75-2.32h4.5c1,0,1.75,1,1.75,2.32v27C323.52,210.24,322.74,211.28,321.77,211.28Z" fill="#fff"/><path d="M347.46,211.28H343c-1,0-1.75-1-1.75-2.32v-27c0-1.28.79-2.32,1.75-2.32h4.5c1,0,1.75,1,1.75,2.32v27C349.21,210.24,348.43,211.28,347.46,211.28Z" fill="#fff"/><path d="M373.16,211.28h-4.51c-1,0-1.74-1-1.74-2.32v-27c0-1.28.78-2.32,1.74-2.32h4.51c1,0,1.75,1,1.75,2.32v27C374.91,210.24,374.12,211.28,373.16,211.28Z" fill="#fff"/><path d="M270.39,250h-4.51c-1,0-1.74-1-1.74-2.32V220.66c0-1.28.78-2.32,1.74-2.32h4.51c1,0,1.75,1,1.75,2.32v27.05C272.14,249,271.35,250,270.39,250Z" fill="#fff"/><path d="M296.08,250h-4.5c-1,0-1.75-1-1.75-2.32V220.66c0-1.28.78-2.32,1.75-2.32h4.5c1,0,1.75,1,1.75,2.32v27.05C297.83,249,297.05,250,296.08,250Z" fill="#fff"/><path d="M321.77,250h-4.5c-1,0-1.75-1-1.75-2.32V220.66c0-1.28.78-2.32,1.75-2.32h4.5c1,0,1.75,1,1.75,2.32v27.05C323.52,249,322.74,250,321.77,250Z" fill="#fff"/><path d="M347.46,250H343c-1,0-1.75-1-1.75-2.32V220.66c0-1.28.79-2.32,1.75-2.32h4.5c1,0,1.75,1,1.75,2.32v27.05C349.21,249,348.43,250,347.46,250Z" fill="#fff"/><path d="M373.16,250h-4.51c-1,0-1.74-1-1.74-2.32V220.66c0-1.28.78-2.32,1.74-2.32h4.51c1,0,1.75,1,1.75,2.32v27.05C374.91,249,374.12,250,373.16,250Z" fill="#fff"/><circle cx="397.46" cy="160.23" r="25.36" fill="#eb4d25"/><path d="M408.43,128.75a1.51,1.51,0,0,1-1.5-1.5V100.17a1.5,1.5,0,0,1,3,0v27.08A1.5,1.5,0,0,1,408.43,128.75Z" fill="#eb4d25"/><path d="M425.52,145.22a1.5,1.5,0,0,1,1.5-1.5H454.1a1.5,1.5,0,0,1,0,3H427A1.5,1.5,0,0,1,425.52,145.22Z" fill="#eb4d25"/><path d="M420.38,133.36a1.49,1.49,0,0,1,0-2.12l19-19.31a1.5,1.5,0,0,1,2.14,2.1l-19,19.31A1.5,1.5,0,0,1,420.38,133.36Z" fill="#eb4d25"/><path d="M212.28,226.47l0,.19-.85,4-5.56,25.87-11.43-1.9-.48-21.5-.12-5.19v-.18S204.32,225.77,212.28,226.47Z" fill="#f9ae94"/><path d="M208.88,242.46a56.54,56.54,0,0,1-14.78-.86l.3,13.19,11.43,1.9Z" fill="#fff"/><path d="M234.47,137.44c-2.36.31-5.13.57-8.34.76-1.74,0-3.2-.07-4.46-.15-3.68-.24-5.71-.52-8.48.86-3.22,1.61-17.45,16-42.07,12.76a64.2,64.2,0,0,1-12.45-3s-6.85-12.73-2.47-24.16q.24-.6.51-1.2s24.91,14.48,31.71,14.33,39-9.66,44.62-11.78-2.3,2.21-3.37,2.83-2.13,1.09-2.39,1.79,1.95,2.73,9,1.14,10.46-1.33,10.73.71C247.26,134,244.3,136.15,234.47,137.44Z" fill="#f9ae94"/><path d="M79,173.37v17.7l-7.48,10.37-6,8.27C56.42,222.22,45.6,235,44.44,235.43s-20.92-1.57-20.92-1.57c6.86-.58,17.28-3.31,18.6-4.55s28-65.52,28-65.52l4.14,1.78Z" fill="#f9ae94"/><path d="M212.88,223.88c-.37,1.77-.6,2.78-.6,2.78h0a62.51,62.51,0,0,0-18.44,1.25c-15.16,3.34-24,11.32-24.36,11.63.78-1.23,1.53-4.92,2.19-9.32.13-.9.26-1.83.39-2.78.41-3.09.78-6.32,1.08-9.18.51-4.91.82-8.7.82-8.7-6,8.93-12.07,13.69-16.3,16.34l0,0q-.93.59-1.74,1.05a40.45,40.45,0,0,0-3.64,2.07,0,0,0,0,1,0,0,.45.45,0,0,0-.16.19,31.54,31.54,0,0,0-2.18,9.72c0,2,.39,3.84,1.6,5,3.71,3.47,41.67,3.7,41.67,3.7,3.58,13.2-.2,25.39-4.2,33.54a55.58,55.58,0,0,1-6.38,10.27c-.75-1-5.62-2.13-13-5-4.76-1.86-31.91-11.42-52.35-19.89-11.37-4.7-20.65-9.07-22.89-11.59-3.45-3.89-2.14-13.84-.28-22,1.51-6.62,3.4-12.05,3.4-12.05l11.35-11.7,18.32-11.86,32.26-20.89s42.83-30,54.6-19.68C224.17,165.74,215.34,212,212.88,223.88Z" fill="#231c50"/><path d="M214,268.93c0,.44,0,.87,0,1.3a15.69,15.69,0,0,1-5.07,11.32c-9.73,8.83-16.89-3.74-16.88-7.9a8.42,8.42,0,0,1,.37-2.29c1-3.52,3.36-8.26,1-22.77l.88-.35s8.65-8.41,13.32.34C210.42,253.89,213.88,261.66,214,268.93Z" fill="#eb4d25"/><path d="M193.13,247.64s19.59-1.14,21.14,1.77,3.4,10.14-4.15,13.29H194.27A140.92,140.92,0,0,0,193.13,247.64Z" fill="#f9ae94"/><path d="M202.71,247.43s4.14,3.89,2.34,15.27h5.07s8.76-2.79,4.15-13.29C214.27,249.41,213.28,247.56,202.71,247.43Z" fill="#fff"/><path d="M214,268.93c0,.44,0,.87,0,1.3a15.69,15.69,0,0,1-5.07,11.32c-9.73,8.83-16.89-3.74-16.88-7.9a8.42,8.42,0,0,1,.37-2.29l.29-.18s3.5,10.71,10.37,10.39,9.24-12.3,9.24-12.3Z" fill="#f66d13" style="mix-blend-mode:multiply"/><path d="M232.35,263.4c-1.48,3.63-.26,10.26,0,15.14a8.83,8.83,0,0,1-5.15,8.7h0a10,10,0,0,1-4,.8c-6.05,0-9.43-16.87-10.1-18.78s-7.45-3.56-6.21-4.39c6.79-3.56,8.45-7.53,8.36-11.58s-4.13-5.13-5.79-5.31-3.82-1.71-3.31-2.14c2.32-2,8.28-.34,14.81-2.81a30.8,30.8,0,0,0,8.25-4.86,8.14,8.14,0,0,1,3-1.44c3.39-.74,4,2.65,5.22,11.09S233.83,259.75,232.35,263.4Z" fill="#eb4d25"/><path d="M232.35,263.4c-1.48,3.63-.26,10.26,0,15.14a8.83,8.83,0,0,1-5.15,8.7c2.78-6.61,1.93-22.52,2-27.57s3.75-11.42,3.51-15.9-3.51-5.59-3.51-5.59a8.14,8.14,0,0,1,3-1.44c3.39-.74,4,2.65,5.22,11.09S233.83,259.75,232.35,263.4Z" fill="#f66d13" style="mix-blend-mode:multiply"/><path d="M193.92,233.1c-7.85,2.91-24.49,6.45-24.49,6.45h0c.34-.31,9.2-8.29,24.36-11.63Z" fill="#0d1416"/><path d="M173.1,218.26c.51-4.91.82-8.7.82-8.7-6,8.93-12.07,13.69-16.3,16.34,12.67-10.84,19.66-25.72,21.13-29.07C176.83,201.75,173.1,218.26,173.1,218.26Z" fill="#1a2e35" style="mix-blend-mode:multiply"/><path d="M149.86,239c0,2,.39,3.84,1.6,5a21.26,21.26,0,0,1-8.81.66A17.42,17.42,0,0,0,149.86,239Z" fill="#1a2e35" style="mix-blend-mode:multiply"/><path d="M155.84,227h0a40.45,40.45,0,0,0-3.64,2.07,31.39,31.39,0,0,0,6-11.17C157.52,225.84,155.84,227,155.84,227Z" fill="#1a2e35" style="mix-blend-mode:multiply"/><path d="M188.93,281.18a55.58,55.58,0,0,1-6.38,10.27c-.75-1-5.62-2.13-13-5-4.76-1.86-31.91-11.42-52.35-19.89C179.61,286.72,188.93,281.18,188.93,281.18Z" fill="#1a2e35" style="mix-blend-mode:multiply"/><path d="M138.8,213.6c-8.14,5.47-20.51,9.09-30.22,11.12A26.25,26.25,0,0,0,94,233c1.51-6.62,3.4-12.05,3.4-12.05l11.35-11.7,18.32-11.86C128.4,198.09,146.63,208.33,138.8,213.6Z" fill="#1a2e35" style="mix-blend-mode:multiply"/><path d="M171.12,151.67a64.2,64.2,0,0,1-12.45-3s-6.85-12.73-2.47-24.16c.06.46.12,1,.16,1.55C157.24,137.62,166,147.1,171.12,151.67Z" fill="#f9ae94" style="mix-blend-mode:multiply"/><path d="M79,173.37v17.7l-7.48,10.37a141,141,0,0,0-1.38-37.65l4.14,1.78Z" fill="#f9ae94" style="mix-blend-mode:multiply"/><path d="M167,171.41a8.78,8.78,0,0,1-.15,1.66c-1.38,8.3-12.5,29.63-22.75,37.51-3,2.3-7.54,4.11-12.64,5.54a120.69,120.69,0,0,1-13.56,2.82,175.64,175.64,0,0,1-20.54,2c-3.63,0-11.8,2.54-12.5,1.06-.91-1.91.67-5.71,3.39-12.07s5.53-28.37,5.53-28.37C90.37,187.58,79.94,198,79.94,198c-.36-3.44-.87-6.7-1.48-9.74h0a92.8,92.8,0,0,0-8.33-24.47c5.28-19,16-41,24.53-42.29l.22,0,.34,0c8.25-.68,9.4,6.17,13.47,5.58,5.48-.52,5.78-6.83,7-7.37a41.68,41.68,0,0,1,10.11-2.83l.61-.1c14.92-2.23,31.46,1.16,31.46,1.16a54.18,54.18,0,0,0-1.47,8.2,55.69,55.69,0,0,0,3.79,26.71,34.73,34.73,0,0,0,1.82,3.83l-15.53-6.24c7.36,12,21.36,12.67,21.36,12.67C166.67,163.77,166.88,164.79,167,171.41Z" fill="#eb4d25"/><path d="M93.82,181.53C90.37,187.58,79.94,198,79.94,198c-.36-3.44-.87-6.7-1.48-9.74h0A41.36,41.36,0,0,0,93.82,181.53Z" fill="#f66d13" style="mix-blend-mode:multiply"/><path d="M105.91,129.43s3.86,23-3.33,37.7c0,0,3.36-10.91,1.24-19.35a6.81,6.81,0,0,1,1.48,4.57S106.78,143.9,105.91,129.43Z" fill="#f66d13" style="mix-blend-mode:multiply"/><path d="M167,171.41a8.78,8.78,0,0,1-.15,1.66c-15.86-10.72-20.45-22.69-20.45-22.69,7.36,12,21.36,12.67,21.36,12.67C166.67,163.77,166.88,164.79,167,171.41Z" fill="#f66d13" style="mix-blend-mode:multiply"/><path d="M157.83,117.88a54.18,54.18,0,0,0-1.47,8.2c-4.93-3.39-15.45-8.91-30.64-8l-.58,0a61.6,61.6,0,0,0-9.49,1.48,41.68,41.68,0,0,1,10.11-2.83l.61-.1C141.29,114.49,157.83,117.88,157.83,117.88Z" fill="#f66d13" style="mix-blend-mode:multiply"/><path d="M142.58,204.1s-2.46,6.06-11.08,12a120.69,120.69,0,0,1-13.56,2.82S136.53,213,142.58,204.1Z" fill="#f66d13" style="mix-blend-mode:multiply"/><path d="M234.47,137.44c-2.36.31-5.13.57-8.34.76-1.74,0-3.2-.07-4.46-.15A26.81,26.81,0,0,1,234.47,137.44Z" fill="#f9ae94" style="mix-blend-mode:multiply"/><path d="M119.88,77c-5.73,5.55-13.53,13.92-22.3,11.43a9.71,9.71,0,0,1-3.89-2.11,3.83,3.83,0,0,0-2.26,1.52,7.09,7.09,0,0,0,.06,8.22c1.86,2.48,4.41,2.72,7.46,2.17,2,8.2,1.71,15,1.9,23.85,2.23,3.85,4.5,5.76,8.29,6.27s4.57.19,7.61-2.15c-.56-4.29-1.42-10.08-1.29-14.4,3.12.88,9.82.79,12.56-.18,1-.37,6.64-20.89-.77-44.32A39.39,39.39,0,0,1,119.88,77Z" fill="#f9ae94"/><path d="M122.22,112.4a25.67,25.67,0,0,1-6.76-.6,86.14,86.14,0,0,0,1.06,12.66l-4.38-14.71Z" fill="#fda98f"/><path d="M97.39,89.54a7.48,7.48,0,0,0-3.51-1.22c-.66-.06-.63,1.07,0,1.14A6.47,6.47,0,0,1,97,90.65a7.26,7.26,0,0,1,1.24,1.12c.33.38.51.73,1,.91a.39.39,0,0,0,.51-.41C99.63,91.14,98.21,90.1,97.39,89.54Z" fill="#fda98f"/><path d="M116.7,86.34a3,3,0,0,0-.35-1.4,1,1,0,0,0-1.63,0,3,3,0,0,0-.29,1.41,6.27,6.27,0,0,0,0,1.3,1.14,1.14,0,0,0,2.27,0A6.27,6.27,0,0,0,116.7,86.34Z" fill="#472c1f"/><path d="M128.73,84a3.18,3.18,0,0,0-.39-1.39,1,1,0,0,0-1.64.09,3.09,3.09,0,0,0-.24,1.42,7.09,7.09,0,0,0,.07,1.3,1.14,1.14,0,0,0,2.27-.12A7,7,0,0,0,128.73,84Z" fill="#472c1f"/><path d="M125.73,103.81a10.46,10.46,0,0,0,0,1.12c-3.09-.9-6.33-1.33-9.44-.22l-.48,0S119.08,102.42,125.73,103.81Z" fill="#b51c1c"/><path d="M117.66,76.46a12.74,12.74,0,0,0-8.52,3.6c-.55.54.31,1.38.86.84a11.35,11.35,0,0,1,7.66-3.23C118.43,77.64,118.44,76.44,117.66,76.46Z" fill="#bf360c"/><path d="M129.1,77.27a5.1,5.1,0,0,0-3.56-1.54.6.6,0,0,0,0,1.2,3.89,3.89,0,0,1,2.72,1.2C128.8,78.68,129.64,77.82,129.1,77.27Z" fill="#bf360c"/><path d="M125.47,97.52a5.86,5.86,0,0,1,2.14-1.16c.41-.2,1-.57,1-1.07,0-.33-.26-.61-.45-.84s-.58-.69-.86-1a24.47,24.47,0,0,1-1.66-2.14.54.54,0,0,1,.82-.68,26.52,26.52,0,0,1,2.08,2.29c.61.71,1.45,1.47,1.36,2.5a2.6,2.6,0,0,1-1.3,1.87,6.91,6.91,0,0,1-1.23.58,7.17,7.17,0,0,0-1.16.62A.61.61,0,0,1,125.47,97.52Z" fill="#472c1f"/><path d="M311.18,6.13a.24.24,0,0,1-.12,0l-.87-.5a.26.26,0,0,1-.1-.34.25.25,0,0,1,.34-.09l.87.49a.26.26,0,0,1,.1.34A.24.24,0,0,1,311.18,6.13Z" fill="#f9ae94"/><path d="M361.6,79.22a.28.28,0,0,1-.2-.1c-.38-.55-.76-1.11-1.11-1.67a.25.25,0,0,1,.43-.27c.34.56.71,1.11,1.09,1.65a.25.25,0,0,1-.06.35A.26.26,0,0,1,361.6,79.22Zm-2.09-3.37a.25.25,0,0,1-.22-.13c-.32-.58-.62-1.18-.91-1.79a.25.25,0,0,1,.12-.33.24.24,0,0,1,.33.12c.29.59.58,1.19.9,1.76a.26.26,0,0,1-.1.34A.27.27,0,0,1,359.51,75.85Zm-1.7-3.6a.25.25,0,0,1-.23-.15c-.25-.61-.48-1.24-.7-1.88a.25.25,0,1,1,.48-.16c.21.63.44,1.25.68,1.85a.25.25,0,0,1-.13.33Zm-1.27-3.76a.27.27,0,0,1-.25-.18c-.17-.65-.34-1.3-.48-1.94a.26.26,0,0,1,.2-.3.24.24,0,0,1,.29.19q.21,1,.48,1.92a.24.24,0,0,1-.18.3Zm-.85-3.88a.25.25,0,0,1-.24-.21c-.11-.66-.19-1.33-.26-2a.25.25,0,0,1,.23-.27.24.24,0,0,1,.27.22c.06.66.15,1.31.25,2a.26.26,0,0,1-.21.29Zm-.38-4a.25.25,0,0,1-.25-.24c0-.45,0-.89,0-1.33,0-.23,0-.45,0-.68a.25.25,0,0,1,.25-.24h0a.25.25,0,0,1,.25.25c0,.23,0,.45,0,.67,0,.43,0,.87,0,1.3a.27.27,0,0,1-.24.27Zm.08-4h0a.24.24,0,0,1-.23-.27c.05-.66.12-1.33.22-2a.25.25,0,0,1,.49.07c-.09.65-.16,1.31-.22,2A.25.25,0,0,1,355.39,56.68Zm.55-3.93h-.05a.25.25,0,0,1-.19-.3q.19-1,.45-2a.25.25,0,0,1,.3-.18.25.25,0,0,1,.18.31c-.17.64-.32,1.28-.44,1.92A.26.26,0,0,1,355.94,52.75Zm23.4-.28h0a19.49,19.49,0,0,1-2-.11.24.24,0,0,1-.22-.27.24.24,0,0,1,.27-.23,18.69,18.69,0,0,0,2,.11.25.25,0,0,1,0,.5Zm2-.1a.25.25,0,0,1,0-.5,15.39,15.39,0,0,0,1.94-.32.26.26,0,0,1,.3.19.25.25,0,0,1-.19.3,16.52,16.52,0,0,1-2,.33Zm-5.93-.3h-.05c-.65-.12-1.3-.28-1.95-.46a.25.25,0,1,1,.13-.49c.64.18,1.28.34,1.92.46a.25.25,0,0,1,.19.3A.25.25,0,0,1,375.39,52.07Zm9.8-.58a.26.26,0,0,1-.24-.16.26.26,0,0,1,.15-.32,12.86,12.86,0,0,0,1.78-.81.26.26,0,0,1,.34.1.25.25,0,0,1-.1.34,13.32,13.32,0,0,1-1.85.84ZM371.57,51h-.09c-.62-.23-1.24-.48-1.86-.76a.25.25,0,0,1,.21-.46c.6.28,1.21.53,1.82.75a.25.25,0,0,1-.08.48Zm17.1-1.38a.25.25,0,0,1-.2-.1.25.25,0,0,1,.06-.35A16.27,16.27,0,0,0,390,47.9a.25.25,0,0,1,.35,0,.24.24,0,0,1,0,.35,14.81,14.81,0,0,1-1.55,1.3A.25.25,0,0,1,388.67,49.61Zm-20.73-.24a.27.27,0,0,1-.12,0l-1.16-.65-.57-.35a.25.25,0,1,1,.26-.42l.56.33c.38.23.76.44,1.15.65a.24.24,0,0,1,.1.33A.24.24,0,0,1,367.94,49.37Zm-11-.46h-.08a.26.26,0,0,1-.16-.32c.21-.64.44-1.27.68-1.88a.25.25,0,0,1,.32-.15.25.25,0,0,1,.14.33c-.23.6-.45,1.23-.66,1.86A.25.25,0,0,1,357,48.91Zm7.6-1.62a.23.23,0,0,1-.14,0c-.53-.37-1.08-.76-1.62-1.17a.25.25,0,0,1,.3-.4c.53.41,1.07.79,1.6,1.16a.25.25,0,0,1,.07.35A.25.25,0,0,1,364.55,47.29Zm27-.43a.3.3,0,0,1-.16,0,.26.26,0,0,1,0-.36,12.38,12.38,0,0,0,1.1-1.61.25.25,0,1,1,.43.25,13.31,13.31,0,0,1-1.14,1.67A.23.23,0,0,1,391.53,46.86Zm-33.14-1.65a.19.19,0,0,1-.1,0,.24.24,0,0,1-.12-.33c.28-.61.57-1.21.88-1.79a.25.25,0,1,1,.44.23c-.3.57-.59,1.17-.87,1.77A.25.25,0,0,1,358.39,45.21Zm3-.3a.23.23,0,0,1-.16-.06c-.52-.42-1-.85-1.53-1.28a.25.25,0,1,1,.33-.38c.5.43,1,.86,1.51,1.27a.24.24,0,0,1,0,.35A.23.23,0,0,1,361.38,44.91Zm32.13-1.48-.09,0a.25.25,0,0,1-.15-.32,10.51,10.51,0,0,0,.55-1.87.25.25,0,0,1,.3-.19.25.25,0,0,1,.19.29,11.68,11.68,0,0,1-.57,2A.25.25,0,0,1,393.51,43.43Zm-35.15-1.12a.23.23,0,0,1-.16-.06l-1.47-1.35a.25.25,0,1,1,.34-.36l1.46,1.34a.25.25,0,0,1,0,.35A.24.24,0,0,1,358.36,42.31Zm1.89-.62a.28.28,0,0,1-.13,0,.26.26,0,0,1-.09-.35c.34-.56.71-1.13,1.08-1.68a.25.25,0,0,1,.42.28c-.37.54-.73,1.1-1.07,1.66A.25.25,0,0,1,360.25,41.69Zm-4.8-2.08a.28.28,0,0,1-.17-.07l-1.44-1.37a.25.25,0,1,1,.35-.37l1.44,1.37a.26.26,0,0,1,0,.36A.27.27,0,0,1,355.45,39.61Zm38.83-.06a.25.25,0,0,1-.25-.25v-.12a9.91,9.91,0,0,0-.17-1.81.24.24,0,0,1,.2-.29.25.25,0,0,1,.29.2,10.05,10.05,0,0,1,.18,1.91v.11A.25.25,0,0,1,394.28,39.55Zm-31.79-1.14a.3.3,0,0,1-.16,0,.24.24,0,0,1,0-.35c.41-.53.84-1,1.27-1.55a.25.25,0,0,1,.35,0,.24.24,0,0,1,0,.35c-.43.49-.85,1-1.26,1.52A.23.23,0,0,1,362.49,38.41Zm-9.92-1.54a.28.28,0,0,1-.17-.07l-.06-.06L351,35.44a.25.25,0,0,1,.34-.36l1.4,1.3.05.06a.24.24,0,0,1,0,.35A.25.25,0,0,1,352.57,36.87Zm41-1.2a.26.26,0,0,1-.23-.16,10,10,0,0,0-.89-1.72.25.25,0,0,1,.08-.34.26.26,0,0,1,.35.07,11.91,11.91,0,0,1,.93,1.81.24.24,0,0,1-.14.32Zm-28.44-.26a.25.25,0,0,1-.18-.42c.31-.32.64-.64,1-1l.47-.44a.25.25,0,0,1,.35,0,.24.24,0,0,1,0,.35l-.47.44q-.5.45-1,.93A.22.22,0,0,1,365.1,35.41Zm-15.44-1.24a.28.28,0,0,1-.17-.07L348,32.77a.25.25,0,0,1,0-.35.26.26,0,0,1,.36,0l1.47,1.33a.25.25,0,0,1-.16.44Zm18.39-1.41a.23.23,0,0,1-.2-.1.26.26,0,0,1,0-.35c.53-.41,1.08-.81,1.62-1.18a.25.25,0,0,1,.35.07.24.24,0,0,1-.07.34c-.53.37-1.07.76-1.59,1.16A.22.22,0,0,1,368.05,32.76Zm23.38-.43a.24.24,0,0,1-.19-.08,13.82,13.82,0,0,0-1.41-1.34.24.24,0,0,1,0-.35.25.25,0,0,1,.35,0,12.05,12.05,0,0,1,1.47,1.38.25.25,0,0,1,0,.36A.27.27,0,0,1,391.43,32.33Zm-44.74-.81a.27.27,0,0,1-.17-.06c-.49-.44-1-.87-1.49-1.3a.25.25,0,0,1,0-.36.25.25,0,0,1,.35,0c.51.43,1,.86,1.5,1.3a.24.24,0,0,1,0,.35A.25.25,0,0,1,346.69,31.52Zm24.65-1a.25.25,0,0,1-.22-.12.26.26,0,0,1,.1-.34,18.76,18.76,0,0,1,1.78-.92.25.25,0,1,1,.21.45c-.58.27-1.17.57-1.75.9A.24.24,0,0,1,371.34,30.53Zm17-.7a.28.28,0,0,1-.13,0,14.19,14.19,0,0,0-1.74-.88.26.26,0,0,1-.14-.33.25.25,0,0,1,.33-.13,14.45,14.45,0,0,1,1.8.91.25.25,0,0,1-.12.46Zm-44.68-.9a.23.23,0,0,1-.16-.06L342,27.59a.24.24,0,0,1,0-.35.25.25,0,0,1,.36,0l1.52,1.27a.25.25,0,0,1,0,.36A.25.25,0,0,1,343.68,28.93Zm31.26-.06a.26.26,0,0,1-.23-.17.25.25,0,0,1,.15-.32c.64-.23,1.29-.42,1.93-.58a.25.25,0,0,1,.12.49,19.13,19.13,0,0,0-1.88.56Zm9.77-.59h-.07a14,14,0,0,0-1.91-.38.26.26,0,0,1-.22-.28.24.24,0,0,1,.28-.21,13.59,13.59,0,0,1,2,.39.25.25,0,0,1,.18.31A.25.25,0,0,1,384.71,28.28Zm-5.91-.35a.26.26,0,0,1-.25-.22.25.25,0,0,1,.22-.28,16.83,16.83,0,0,1,2-.15h0a.25.25,0,0,1,.25.25.25.25,0,0,1-.25.25,18.45,18.45,0,0,0-1.95.14Zm-38.18-1.54a.25.25,0,0,1-.16-.06l-1.54-1.25a.24.24,0,0,1,0-.35.25.25,0,0,1,.35,0l1.55,1.25a.26.26,0,0,1,0,.36A.25.25,0,0,1,340.62,26.39Zm-3.11-2.49a.23.23,0,0,1-.15,0l-1.57-1.22a.25.25,0,0,1,.31-.39l1.57,1.22a.24.24,0,0,1,0,.35A.25.25,0,0,1,337.51,23.9Zm-3.14-2.42a.27.27,0,0,1-.15-.05l-1.59-1.19a.25.25,0,0,1-.05-.35.25.25,0,0,1,.35-.06l1.59,1.2a.25.25,0,0,1,.05.35A.28.28,0,0,1,334.37,21.48Zm-3.19-2.37a.3.3,0,0,1-.15-.05l-1.61-1.16a.25.25,0,0,1-.06-.35.25.25,0,0,1,.35-.06c.54.39,1.08.77,1.62,1.17a.24.24,0,0,1,.05.34A.26.26,0,0,1,331.18,19.11Zm-3.24-2.31a.24.24,0,0,1-.14-.05l-1.63-1.13a.25.25,0,0,1-.06-.35.24.24,0,0,1,.34-.06l1.64,1.13a.25.25,0,0,1,.06.35A.26.26,0,0,1,327.94,16.8Zm-3.27-2.26a.23.23,0,0,1-.14,0l-1.65-1.1a.25.25,0,0,1-.07-.35.24.24,0,0,1,.34-.07c.56.37,1.11.73,1.66,1.11a.24.24,0,0,1,.06.34A.23.23,0,0,1,324.67,14.54Zm-3.32-2.19a.33.33,0,0,1-.13,0l-1.67-1.08a.24.24,0,0,1-.08-.34.26.26,0,0,1,.35-.08l1.67,1.08a.24.24,0,0,1,.07.34A.22.22,0,0,1,321.35,12.35ZM318,10.22a.33.33,0,0,1-.13,0l-1.69-1a.24.24,0,0,1-.08-.34.24.24,0,0,1,.34-.08l1.69,1a.25.25,0,0,1,.08.35A.27.27,0,0,1,318,10.22Zm-3.39-2.08a.28.28,0,0,1-.13,0l-1.71-1a.25.25,0,0,1-.09-.34.26.26,0,0,1,.35-.09l1.71,1a.25.25,0,0,1,.08.34A.24.24,0,0,1,314.61,8.14Z" fill="#f9ae94"/><path d="M363.48,81.63a.25.25,0,0,1-.19-.09c-.22-.25-.43-.51-.64-.77a.25.25,0,0,1,0-.35.26.26,0,0,1,.36,0c.2.26.41.52.63.77a.25.25,0,0,1-.19.41Z" fill="#f9ae94"/><path d="M284.79,57a.13.13,0,0,1-.08,0,.25.25,0,0,1-.15-.32c.12-.31.24-.62.35-.93a.25.25,0,0,1,.47.17c-.11.31-.23.63-.35.94A.25.25,0,0,1,284.79,57Z" fill="#f9ae94"/><path d="M207,118.26a.25.25,0,0,1-.25-.23.26.26,0,0,1,.23-.27c.66,0,1.33-.11,2-.19a.24.24,0,0,1,.28.21.25.25,0,0,1-.22.28c-.66.09-1.34.15-2,.2Zm4-.5a.26.26,0,0,1-.25-.21.26.26,0,0,1,.21-.29c.65-.11,1.31-.25,2-.39a.23.23,0,0,1,.29.18.24.24,0,0,1-.18.3c-.66.15-1.33.29-2,.41Zm3.92-.9a.25.25,0,0,1-.24-.18.25.25,0,0,1,.17-.31c.64-.18,1.28-.37,1.92-.58a.24.24,0,0,1,.31.16.26.26,0,0,1-.16.32c-.64.21-1.29.4-1.93.58Zm3.82-1.25a.24.24,0,0,1-.23-.16.25.25,0,0,1,.14-.33c.62-.23,1.24-.48,1.86-.74a.25.25,0,0,1,.33.13.26.26,0,0,1-.14.33c-.62.26-1.24.51-1.87.75Zm3.7-1.58a.28.28,0,0,1-.23-.15.25.25,0,0,1,.12-.33c.6-.28,1.2-.58,1.79-.89a.25.25,0,0,1,.34.1.25.25,0,0,1-.11.34c-.59.31-1.2.61-1.8.9A.23.23,0,0,1,222.39,114Zm3.56-1.87a.26.26,0,0,1-.22-.13.25.25,0,0,1,.1-.34c.57-.33,1.15-.67,1.71-1a.25.25,0,1,1,.27.43c-.57.35-1.15.7-1.74,1A.24.24,0,0,1,226,112.16Zm3.41-2.13a.23.23,0,0,1-.2-.11.25.25,0,0,1,.06-.35c.56-.37,1.1-.75,1.65-1.15a.24.24,0,0,1,.34.06.25.25,0,0,1-.05.35c-.55.39-1.1.78-1.66,1.16A.23.23,0,0,1,229.36,110Zm3.26-2.36a.23.23,0,0,1-.2-.1.25.25,0,0,1,.05-.35L234,106a.24.24,0,0,1,.35,0,.25.25,0,0,1,0,.35c-.52.43-1,.85-1.58,1.27A.27.27,0,0,1,232.62,107.67Zm3.09-2.57a.25.25,0,0,1-.19-.09.25.25,0,0,1,0-.35c.45-.39.88-.79,1.31-1.2l.17-.16a.25.25,0,0,1,.35,0,.25.25,0,0,1,0,.36l-.16.16c-.44.4-.88.81-1.32,1.2A.28.28,0,0,1,235.71,105.1Zm2.92-2.77a.23.23,0,0,1-.17-.07.24.24,0,0,1,0-.35l1.39-1.44a.25.25,0,0,1,.36,0,.25.25,0,0,1,0,.35c-.47.49-.93,1-1.41,1.45A.24.24,0,0,1,238.63,102.33Zm2.77-2.92a.27.27,0,0,1-.17-.06.26.26,0,0,1,0-.36c.45-.49.89-1,1.32-1.5a.25.25,0,1,1,.38.32c-.43.51-.88,1-1.33,1.52A.25.25,0,0,1,241.4,99.41ZM244,96.35a.24.24,0,0,1-.19-.4c.42-.52.84-1,1.25-1.57a.25.25,0,0,1,.39.31c-.41.53-.83,1-1.25,1.57A.27.27,0,0,1,244,96.35Zm2.48-3.16a.27.27,0,0,1-.15,0,.25.25,0,0,1-.05-.35l1.19-1.62a.24.24,0,0,1,.34-.06.25.25,0,0,1,.06.35c-.39.55-.79,1.09-1.19,1.63A.26.26,0,0,1,246.49,93.19Zm2.35-3.27a.23.23,0,0,1-.14,0,.25.25,0,0,1-.06-.35l1.13-1.66a.25.25,0,0,1,.34-.07.25.25,0,0,1,.07.35c-.37.56-.75,1.11-1.13,1.66A.26.26,0,0,1,248.84,89.92Zm2.24-3.34a.22.22,0,0,1-.13,0,.25.25,0,0,1-.08-.34L252,84.5a.25.25,0,0,1,.42.27c-.36.57-.72,1.14-1.09,1.7A.26.26,0,0,1,251.08,86.58Zm2.15-3.4a.22.22,0,0,1-.13,0,.24.24,0,0,1-.08-.34l.35-.58h-.12c-.43,0-.85,0-1.28,0a.25.25,0,0,1-.24-.26.25.25,0,0,1,.27-.24c.43,0,.85,0,1.3,0h.38l.38-.64a.24.24,0,0,1,.34-.08.25.25,0,0,1,.09.34l-.29.48a.23.23,0,0,1,0,.14.24.24,0,0,1-.24.25h0c-.17.29-.34.57-.52.85A.22.22,0,0,1,253.23,83.18Zm2.77-1.1a.25.25,0,0,1-.25-.23.25.25,0,0,1,.22-.27c.66-.07,1.32-.16,2-.28a.26.26,0,0,1,.29.2.25.25,0,0,1-.21.29c-.66.12-1.34.22-2,.29ZM250,82h0l-.87-.13c-.38-.06-.76-.14-1.13-.22a.25.25,0,1,1,.1-.49l1.11.22.85.12a.25.25,0,0,1,0,.5Zm10-.64a.25.25,0,0,1-.25-.18.26.26,0,0,1,.19-.31c.63-.16,1.28-.34,1.91-.55a.25.25,0,1,1,.16.48c-.65.2-1.3.39-2,.56Zm-13.9-.23H246c-.64-.2-1.28-.44-1.91-.7a.25.25,0,0,1-.13-.32.25.25,0,0,1,.33-.14c.6.25,1.23.48,1.86.68a.26.26,0,0,1,.17.32A.27.27,0,0,1,246.06,81.14Zm17.72-1a.25.25,0,0,1-.09-.48c.61-.24,1.22-.51,1.83-.8a.25.25,0,0,1,.33.12.24.24,0,0,1-.12.33c-.61.3-1.24.57-1.86.81A.15.15,0,0,1,263.78,80.13Zm-8.48-.4a.31.31,0,0,1-.13,0,.27.27,0,0,1-.08-.35c.34-.57.67-1.15,1-1.73a.25.25,0,1,1,.43.25l-1,1.74A.25.25,0,0,1,255.3,79.73Zm-13-.12a.27.27,0,0,1-.12,0c-.6-.31-1.19-.65-1.76-1a.26.26,0,0,1-.08-.35.26.26,0,0,1,.34-.08c.57.36,1.15.69,1.73,1a.26.26,0,0,1,.11.34A.25.25,0,0,1,242.35,79.61Zm25.06-1.2a.26.26,0,0,1-.22-.13.26.26,0,0,1,.1-.34c.58-.32,1.16-.67,1.71-1a.25.25,0,0,1,.27.43c-.56.36-1.15.71-1.74,1A.19.19,0,0,1,267.41,78.41Zm-28.46-1a.27.27,0,0,1-.15,0c-.54-.41-1.07-.85-1.57-1.3a.25.25,0,0,1,.34-.37c.49.44,1,.87,1.53,1.27a.25.25,0,0,1,.05.35A.25.25,0,0,1,239,77.46Zm18.36-1.21a.19.19,0,0,1-.12,0,.24.24,0,0,1-.09-.34c.33-.58.66-1.16,1-1.75a.25.25,0,0,1,.44.25l-1,1.75A.25.25,0,0,1,257.31,76.25Zm13.49,0a.25.25,0,0,1-.15-.45c.28-.21.57-.42.84-.64l.73-.59a.25.25,0,0,1,.36,0,.25.25,0,0,1,0,.35c-.24.21-.49.41-.74.6l-.86.65A.24.24,0,0,1,270.8,76.24ZM236,74.76a.27.27,0,0,1-.18-.08c-.46-.51-.9-1-1.3-1.56a.24.24,0,0,1,0-.35.23.23,0,0,1,.34,0c.4.52.83,1,1.28,1.53a.25.25,0,0,1,0,.35A.23.23,0,0,1,236,74.76Zm37.92-1.09a.26.26,0,0,1-.18-.07.26.26,0,0,1,0-.36c.49-.45,1-.92,1.43-1.4a.24.24,0,0,1,.35,0,.25.25,0,0,1,0,.35c-.47.48-1,1-1.45,1.42A.27.27,0,0,1,273.89,73.67Zm-14.61-.93a.27.27,0,0,1-.12,0,.25.25,0,0,1-.1-.34c.32-.59.63-1.18.94-1.77a.24.24,0,0,1,.33-.11.25.25,0,0,1,.11.33c-.3.6-.62,1.2-.94,1.79A.26.26,0,0,1,259.28,72.74Zm-25.73-1.19a.24.24,0,0,1-.21-.12,17.18,17.18,0,0,1-1-1.78.26.26,0,0,1,.11-.34.27.27,0,0,1,.34.12,18.35,18.35,0,0,0,.94,1.74.25.25,0,0,1-.08.35A.28.28,0,0,1,233.55,71.55Zm43.13-.77a.27.27,0,0,1-.16-.06.25.25,0,0,1,0-.35c.43-.5.86-1,1.27-1.55a.26.26,0,0,1,.35,0,.24.24,0,0,1,0,.35c-.41.53-.85,1.06-1.29,1.56A.25.25,0,0,1,276.68,70.78Zm-15.6-1.64a.18.18,0,0,1-.1,0,.26.26,0,0,1-.13-.33c.29-.65.53-1.25.74-1.85a.25.25,0,1,1,.47.17c-.21.61-.46,1.22-.75,1.88A.24.24,0,0,1,261.08,69.14Zm-29.26-1.21a.26.26,0,0,1-.24-.16l-.24-.74c-.12-.4-.23-.81-.32-1.22a.25.25,0,0,1,.19-.3.25.25,0,0,1,.3.19c.09.4.19.8.31,1.19.08.24.15.47.24.71a.26.26,0,0,1-.16.32Zm47.34-.31a.27.27,0,0,1-.14-.05.25.25,0,0,1-.06-.35c.38-.54.76-1.1,1.12-1.66a.24.24,0,0,1,.34-.07.25.25,0,0,1,.08.34c-.36.57-.74,1.13-1.13,1.68A.26.26,0,0,1,279.16,67.62ZM262.4,65.35h-.06a.25.25,0,0,1-.18-.3c.06-.26.12-.53.17-.8s.13-.76.18-1.15a.24.24,0,0,1,.27-.22.25.25,0,0,1,.22.28,11.77,11.77,0,0,1-.18,1.19c-.05.27-.11.55-.17.82A.26.26,0,0,1,262.4,65.35Zm18.94-1.12a.28.28,0,0,1-.13,0,.25.25,0,0,1-.09-.34c.34-.58.66-1.16,1-1.76a.25.25,0,0,1,.34-.1.26.26,0,0,1,.1.34c-.31.59-.64,1.18-1,1.77A.24.24,0,0,1,281.34,64.23ZM231,64a.27.27,0,0,1-.25-.23c0-.51-.07-1-.07-1.52,0-.17,0-.35,0-.52a.25.25,0,0,1,.26-.24.24.24,0,0,1,.24.25c0,.17,0,.34,0,.51,0,.49,0,1,.07,1.47A.25.25,0,0,1,231,64Zm31.88-2.66a.25.25,0,0,1-.25-.24,12.24,12.24,0,0,0-.23-1.95.26.26,0,0,1,.2-.3.24.24,0,0,1,.29.2,13.26,13.26,0,0,1,.24,2,.25.25,0,0,1-.24.26Zm20.38-.69-.11,0a.26.26,0,0,1-.12-.34c.29-.6.56-1.21.83-1.82a.25.25,0,0,1,.33-.13.26.26,0,0,1,.13.33c-.27.62-.54,1.23-.83,1.84A.27.27,0,0,1,283.21,60.67ZM231.09,60h0a.24.24,0,0,1-.2-.29,14,14,0,0,1,.48-2,.26.26,0,0,1,.32-.16.25.25,0,0,1,.16.31,13.45,13.45,0,0,0-.47,1.92A.26.26,0,0,1,231.09,60ZM262,57.44a.27.27,0,0,1-.24-.15,8.82,8.82,0,0,0-.92-1.72.25.25,0,1,1,.41-.29,9.9,9.9,0,0,1,1,1.82.24.24,0,0,1-.14.32A.15.15,0,0,1,262,57.44Zm-29.67-1.23a.27.27,0,0,1-.12,0,.25.25,0,0,1-.1-.34,10.64,10.64,0,0,1,1.13-1.72.25.25,0,0,1,.39.32,10,10,0,0,0-1.08,1.63A.25.25,0,0,1,232.36,56.21Zm27.39-2a.23.23,0,0,1-.17-.07A8.86,8.86,0,0,0,258,53a.26.26,0,0,1-.09-.35.25.25,0,0,1,.34-.09,11,11,0,0,1,1.67,1.21.26.26,0,0,1,0,.36A.27.27,0,0,1,259.75,54.17Zm-24.86-1.06a.25.25,0,0,1-.2-.09.24.24,0,0,1,0-.35l.26-.2a10.9,10.9,0,0,1,1.46-.92.25.25,0,0,1,.34.11.24.24,0,0,1-.11.33,9.9,9.9,0,0,0-1.39.88l-.25.19A.21.21,0,0,1,234.89,53.11Zm21.42-1-.09,0a17.56,17.56,0,0,0-1.89-.58.25.25,0,1,1,.11-.48,18.21,18.21,0,0,1,2,.59.24.24,0,0,1,.14.32A.26.26,0,0,1,256.31,52.14Zm-17.88-.88a.25.25,0,0,1-.07-.49,14,14,0,0,1,2-.46.24.24,0,0,1,.29.2.24.24,0,0,1-.2.29,13.64,13.64,0,0,0-1.93.45Zm14-.1h0c-.61-.1-1.26-.18-2-.25a.26.26,0,0,1-.23-.28.24.24,0,0,1,.28-.22c.73.07,1.39.16,2,.25a.26.26,0,0,1,.21.29A.26.26,0,0,1,252.41,51.16Zm-4-.43h0c-.66,0-1.33-.1-2-.13a.26.26,0,0,1-.24-.27.24.24,0,0,1,.27-.23c.67,0,1.35.08,2,.13a.25.25,0,0,1,0,.5Zm-6-.15a.25.25,0,0,1,0-.5c.55,0,1.12,0,1.73,0h.3a.25.25,0,0,1,0,.5h-.29c-.6,0-1.16,0-1.7,0Z" fill="#f9ae94"/><path d="M204.19,118.37h-.32a.26.26,0,0,1-.24-.26.25.25,0,0,1,.25-.24h1a.25.25,0,1,1,0,.5Z" fill="#f9ae94"/><path d="M200.89,223.45s9.3-56.29,3.5-56.32-26,7.42-41.47,20" fill="none" stroke="#fff" stroke-linecap="round" stroke-miterlimit="10" stroke-width="0.5" stroke-dasharray="2"/><path d="M120.77,222.43s-12,20.86-7.17,25,43.34,16.44,78.41,19.11" fill="none" stroke="#fff" stroke-linecap="round" stroke-miterlimit="10" stroke-width="0.5" stroke-dasharray="2"/><path d="M94.66,121.5c1.93,3,6.65,7,11.37,10.14l.22.14c4.46,3,8.89,5.18,10.92,5.18l.34,0a1,1,0,0,0,1-.91c.45-3,5.15-13.41,7.23-17.9.26-.58.49-1.06.65-1.41l-.61.1-.62,1.35C123,122.81,118.45,132.91,118,136c0,.2-.12.42-.57.49-1.77.27-6.52-2.14-11.27-5.34L106,131c-4.45-3-8.87-6.72-10.78-9.55Z" fill="#fff"/><path d="M396.7,162.72a5.67,5.67,0,0,1-3.21-.84,5.12,5.12,0,0,1-1.9-2.26,7.65,7.65,0,0,1-.63-3.16,12.31,12.31,0,0,1,.45-3.18,15.73,15.73,0,0,1,1.31-3.31,13.9,13.9,0,0,1,2.11-2.93,9.75,9.75,0,0,1,2.82-2.1,7.82,7.82,0,0,1,3.5-.78,6.35,6.35,0,0,1,3.11.73,5.11,5.11,0,0,1,2.08,2.16,7.61,7.61,0,0,1,.73,3.5,12.28,12.28,0,0,1-.5,3.4,14.36,14.36,0,0,1-1.44,3.29,13.18,13.18,0,0,1-2.21,2.81,9.77,9.77,0,0,1-2.85,1.95A8,8,0,0,1,396.7,162.72Zm.38-1.11a4.13,4.13,0,0,0,2.36-.76,8.08,8.08,0,0,0,2.06-2,15.69,15.69,0,0,0,1.63-2.85,18.94,18.94,0,0,0,1.08-3.21,14,14,0,0,0,.38-3.11,7.57,7.57,0,0,0-.34-2.33,3.43,3.43,0,0,0-1.1-1.62,3.1,3.1,0,0,0-2-.6,4.53,4.53,0,0,0-2.25.57,6.85,6.85,0,0,0-1.86,1.56,11.07,11.07,0,0,0-1.46,2.2,16.16,16.16,0,0,0-1,2.56,22.31,22.31,0,0,0-.63,2.57,14.1,14.1,0,0,0-.22,2.29,6,6,0,0,0,.9,3.46A2.86,2.86,0,0,0,397.08,161.61Z" fill="#fff"/><path d="M384.13,174a1.25,1.25,0,0,1-1-.39,1.43,1.43,0,0,1-.33-.95,4.05,4.05,0,0,1,.12-.88,8.13,8.13,0,0,1,.34-1.11,8.56,8.56,0,0,1,.51-1.1,3.81,3.81,0,0,1,.62-.84.93.93,0,0,1,.66-.32.46.46,0,0,1,.32.11.4.4,0,0,1,.14.32,1.28,1.28,0,0,1-.24.59c-.15.27-.34.57-.54.91a9,9,0,0,0-.55,1.07,2.81,2.81,0,0,0-.23,1,.89.89,0,0,0,.17.64.73.73,0,0,0,.51.16,1.8,1.8,0,0,0,1.12-.51,6.06,6.06,0,0,0,1.25-1.8l.23.24a5.32,5.32,0,0,1-1.35,2.07A2.56,2.56,0,0,1,384.13,174Zm1.78-6.82a1,1,0,0,1-.52-.14.51.51,0,0,1-.23-.45.74.74,0,0,1,.39-.62,1.5,1.5,0,0,1,.82-.26.78.78,0,0,1,.46.13.46.46,0,0,1,.19.43.84.84,0,0,1-.35.62A1.17,1.17,0,0,1,385.91,167.14Z" fill="#fff"/><path d="M388,174.2a1.49,1.49,0,0,1-1.08-.39,1.59,1.59,0,0,1-.4-1.19,6.3,6.3,0,0,1,.23-1.55c.16-.61.36-1.25.6-1.9l-.25-.06a.9.9,0,0,1-.28-.08v-.47l.4.05.32,0c.21-.54.44-1,.69-1.55s.5-1,.74-1.34a5.59,5.59,0,0,1,.71-.93.87.87,0,0,1,.59-.34.45.45,0,0,1,.28.11.42.42,0,0,1,.14.33,2,2,0,0,1-.31.86c-.21.37-.46.81-.77,1.31s-.59,1-.87,1.59h.47c.44,0,.84,0,1.2,0s.72,0,1.1-.08v.5l-1.53.12-1.33.06h-.18a13.13,13.13,0,0,0-.56,1.52,5.45,5.45,0,0,0-.23,1.52,1.45,1.45,0,0,0,.2.88.72.72,0,0,0,.62.25,2.41,2.41,0,0,0,1.55-.69,5.82,5.82,0,0,0,1.38-1.86l.21.15a7.73,7.73,0,0,1-1,1.62,5,5,0,0,1-1.27,1.14A2.61,2.61,0,0,1,388,174.2Z" fill="#fff"/><path d="M392.72,174.17a2,2,0,0,1-1.49-.52,1.76,1.76,0,0,1-.52-1.31,3.38,3.38,0,0,1,.34-1.41,6,6,0,0,1,.91-1.41,5.23,5.23,0,0,1,1.27-1.06,2.78,2.78,0,0,1,1.4-.41,1.49,1.49,0,0,1,.74.2.86.86,0,0,1,.36.81,1.93,1.93,0,0,1-.33,1.08,3.42,3.42,0,0,1-.89.89,5.81,5.81,0,0,1-1.24.64,5.54,5.54,0,0,1-1.35.33.5.5,0,0,0,0,.12,1.28,1.28,0,0,0,0,.22c0,.06,0,.14,0,.27a1.43,1.43,0,0,0,.13.4.92.92,0,0,0,.35.36,1.24,1.24,0,0,0,.66.15,2.68,2.68,0,0,0,1.28-.35,5.06,5.06,0,0,0,1.21-.95,5.85,5.85,0,0,0,.95-1.31l.3.24a5.78,5.78,0,0,1-1.05,1.59,5.12,5.12,0,0,1-1.42,1.06A3.64,3.64,0,0,1,392.72,174.17Zm-.63-2.73a2.65,2.65,0,0,0,.87-.28,4.47,4.47,0,0,0,.93-.57,3.78,3.78,0,0,0,.74-.76,1.48,1.48,0,0,0,.28-.84.33.33,0,0,0-.06-.23.25.25,0,0,0-.19-.06,1.28,1.28,0,0,0-.73.25,3.63,3.63,0,0,0-.74.65,5.72,5.72,0,0,0-.65.88A5.5,5.5,0,0,0,392.09,171.44Z" fill="#fff"/><path d="M404,174a1.07,1.07,0,0,1-.87-.35,1.22,1.22,0,0,1-.29-.83,2.42,2.42,0,0,1,.1-.7c.07-.23.15-.46.22-.69a2,2,0,0,0,.1-.61.46.46,0,0,0-.1-.35.32.32,0,0,0-.25-.1c-.23,0-.5.17-.8.53a15.65,15.65,0,0,0-1.15,1.54c-.16.24-.31.5-.45.76s-.27.49-.38.68a1.82,1.82,0,0,1-.35-.05,1.37,1.37,0,0,1-.39-.13.25.25,0,0,1-.17-.22,1.78,1.78,0,0,1,.16-.53l.34-.91c.13-.35.25-.69.35-1a3.11,3.11,0,0,0,.15-.85.64.64,0,0,0-.07-.34.27.27,0,0,0-.25-.12,1.31,1.31,0,0,0-.76.38,7,7,0,0,0-.94,1,11.94,11.94,0,0,0-.92,1.36,8.9,8.9,0,0,0-.7,1.51,1.85,1.85,0,0,1-.41-.07,2,2,0,0,1-.42-.17c-.13-.06-.19-.12-.19-.17l.11-.43c.07-.28.16-.62.26-1s.2-.84.31-1.27.21-.81.29-1.13q0-.16.33-.3a1.42,1.42,0,0,1,.5-.13.55.55,0,0,1,.37.14.46.46,0,0,1,.15.36,2.34,2.34,0,0,1-.06.44c0,.19-.09.41-.15.65.21-.28.43-.56.67-.84a7.51,7.51,0,0,1,.74-.75,4.43,4.43,0,0,1,.77-.53,1.67,1.67,0,0,1,.76-.19.75.75,0,0,1,.76.4,2,2,0,0,1,.2.87,2.51,2.51,0,0,1-.12.76,4.39,4.39,0,0,1-.14.45,6,6,0,0,1,.63-.78,3,3,0,0,1,.73-.57,1.73,1.73,0,0,1,.83-.21.89.89,0,0,1,.82.36,1.39,1.39,0,0,1,.23.77,3.11,3.11,0,0,1-.13.83c-.09.29-.17.56-.26.82a2.25,2.25,0,0,0-.13.65.54.54,0,0,0,.08.28.31.31,0,0,0,.3.13,1.09,1.09,0,0,0,.79-.38,4.7,4.7,0,0,0,.7-.93,9.73,9.73,0,0,0,.55-1.05l.26.32a8.22,8.22,0,0,1-.63,1.26,4,4,0,0,1-.9,1.08A1.8,1.8,0,0,1,404,174Z" fill="#fff"/><path d="M407.87,174.28a2.09,2.09,0,0,1-1.21-.31,1.73,1.73,0,0,1-.66-.79,2.51,2.51,0,0,1-.2-1,1.56,1.56,0,0,1,.12-.68.85.85,0,0,1,.31-.36,2.15,2.15,0,0,1,.34-.17.7.7,0,0,0,.23-.14c.25-.26.51-.57.78-.91a5.83,5.83,0,0,0,.69-1.16v-.15a1.45,1.45,0,0,1,.2-.86.64.64,0,0,1,.48-.25.33.33,0,0,1,.26.1.35.35,0,0,1,.1.21.59.59,0,0,1,0,.21,1.42,1.42,0,0,0,0,.33,3.14,3.14,0,0,0,.21,1c.15.39.3.8.44,1.23a4,4,0,0,1,.22,1.33c0,.12,0,.23,0,.33a2.5,2.5,0,0,1-.05.29,2.3,2.3,0,0,0,.93-.52,4.25,4.25,0,0,0,.86-1.19l.18.14a3.38,3.38,0,0,1-.83,1.38,2.37,2.37,0,0,1-1.27.64,1.79,1.79,0,0,1-.8.93A2.57,2.57,0,0,1,407.87,174.28Zm-.1-.67a1.09,1.09,0,0,0,.56-.15,1,1,0,0,0,.41-.44,3,3,0,0,1-1.12-.48,3.16,3.16,0,0,1-.77-.71c-.15,0-.22.17-.22.41a1.73,1.73,0,0,0,.29.94A.94.94,0,0,0,407.77,173.61Zm1.09-1a.9.9,0,0,0,0-.25,1.94,1.94,0,0,0,0-.22,6.09,6.09,0,0,0-.18-1.34c-.11-.45-.22-.9-.33-1.37-.18.32-.39.66-.64,1a7.36,7.36,0,0,1-.68.88,3,3,0,0,0,.71.77A2.91,2.91,0,0,0,408.86,172.57Z" fill="#fff"/><path d="M289.83,283s2.53-2.13,3.85-2.15c0,0,.74-1.73,0-2.39,0,0,1.78-.91,6.62,1,0,0-2.86-2.89-3.27-4.82,0,0,4.49-1.72,8.65-.4,0,0,.38-.56,0-.81,0,0,3,.2,6.21,5.35,0,0,1.23,5.39-1.66,7.59a1.81,1.81,0,0,0-.07-1.18,11.25,11.25,0,0,1-8.38,5.43,5.16,5.16,0,0,1,.45-3.95s-3.48,1.18-6,.72a4.54,4.54,0,0,0,1.41-.87,21.56,21.56,0,0,1-3.19,0,2.32,2.32,0,0,1,.46-1.48A6.73,6.73,0,0,1,289.83,283Z" fill="#efc68f"/><path d="M317.37,275.78l-.63-.51a20.89,20.89,0,0,1-6.58,4.75,23.93,23.93,0,0,0-8.54-3.86l0,.1c.76.22,1.51.44,2.25.72a20.21,20.21,0,0,1,5.67,3.32,34.78,34.78,0,0,1-9,2.45c-1.43-1.27-3.54-1.36-5.37-1.3v.1a20.78,20.78,0,0,1,5,1.25,64.08,64.08,0,0,1-7.22.56v.1a45.7,45.7,0,0,0,10.08-.73A21,21,0,0,1,299.1,286l0,.09c1.65-.72,3.47-1.7,4.23-3.42a36,36,0,0,0,4.91-1.36,25.14,25.14,0,0,1-4.51,6.84l.07.07a19.67,19.67,0,0,0,3-3.21,8.68,8.68,0,0,0,1.68-3.78A25.45,25.45,0,0,0,317.37,275.78Z" fill="#d8a96f"/><path d="M189.33,113.34s2.19-.43,3,0c0,0,1-.78.77-1.4,0,0,1.35,0,3.58,2.74,0,0-.75-2.64-.36-3.91a10,10,0,0,1,5.23,2.58s.41-.21.27-.48c0,0,1.68,1.09,1.92,5.18,0,0-1,3.57-3.46,3.93a1.18,1.18,0,0,0,.34-.72,7.56,7.56,0,0,1-6.7.47,3.44,3.44,0,0,1,1.55-2.18,10,10,0,0,1-3.76-1.52,3.16,3.16,0,0,0,1.11-.06,15.28,15.28,0,0,1-1.89-1,1.54,1.54,0,0,1,.75-.73A4.54,4.54,0,0,1,189.33,113.34Z" fill="#efc68f"/><path d="M207.91,118.07l-.21-.51a13.92,13.92,0,0,1-5.42.66,16.1,16.1,0,0,0-3.78-5.06l-.05,0c.37.38.75.76,1.09,1.16a13.42,13.42,0,0,1,2.26,3.8,23.84,23.84,0,0,1-6.1-1.48,5.07,5.07,0,0,0-2.73-2.52l0,.06a14.16,14.16,0,0,1,2.57,2.38,43,43,0,0,1-4.45-2l0,0a30.74,30.74,0,0,0,6.18,2.86,14.5,14.5,0,0,1-3.39.64v.07a5.13,5.13,0,0,0,3.6-.65,22.85,22.85,0,0,0,3.34.8,16.71,16.71,0,0,1-4.89,2.57l0,.06a13.31,13.31,0,0,0,2.8-.92,5.93,5.93,0,0,0,2.22-1.68A17.12,17.12,0,0,0,207.91,118.07Z" fill="#d8a96f"/><path d="M376.6,87.24s-1.26-1.85-2.1-2.11c0,0-.16-1.25.43-1.54,0,0-1-.92-4.47-.58,0,0,2.39-1.34,3-2.52a10,10,0,0,0-5.53-1.85s-.14-.44.15-.53c0,0-2-.41-5,2.32,0,0-1.78,3.27-.32,5.23a1.18,1.18,0,0,1,.27-.75,7.53,7.53,0,0,0,4.42,5,3.41,3.41,0,0,0,.44-2.63,10.06,10.06,0,0,0,3.74,1.57,3.18,3.18,0,0,1-.74-.83,13.68,13.68,0,0,0,2.05.61,1.58,1.58,0,0,0,0-1A4.53,4.53,0,0,0,376.6,87.24Z" fill="#efc68f"/><path d="M360.08,77.51l.5-.22A14,14,0,0,0,364,81.58a16,16,0,0,1,6.24-.92v.06c-.53,0-1.06,0-1.59.06a13.26,13.26,0,0,0-4.28,1.11,24.06,24.06,0,0,0,5.37,3.24,5.15,5.15,0,0,1,3.72.14l0,.07a13.61,13.61,0,0,0-3.49-.12,44.44,44.44,0,0,0,4.57,1.69l0,.07a31.21,31.21,0,0,1-6.39-2.33A14.17,14.17,0,0,0,370,87.49l0,.05a5.18,5.18,0,0,1-2.11-3A23.65,23.65,0,0,1,365,82.76,16.73,16.73,0,0,0,366.61,88l-.05,0a12.77,12.77,0,0,1-1.34-2.63,5.92,5.92,0,0,1-.39-2.76A17.12,17.12,0,0,1,360.08,77.51Z" fill="#d8a96f"/><path d="M385.37,258.71s-2.54,2.13-3.86,2.15c0,0-.73,1.73,0,2.39,0,0-1.77.91-6.62-1,0,0,2.87,2.89,3.27,4.82,0,0-4.49,1.72-8.65.4,0,0-.38.56,0,.82,0,0-3-.21-6.21-5.36,0,0-1.22-5.39,1.66-7.59a1.78,1.78,0,0,0,.08,1.18,11.22,11.22,0,0,1,8.38-5.42,5.11,5.11,0,0,1-.46,3.94s3.49-1.18,6-.72a4.58,4.58,0,0,0-1.4.87,21.45,21.45,0,0,1,3.18,0,2.36,2.36,0,0,1-.45,1.48A6.74,6.74,0,0,1,385.37,258.71Z" fill="#efc68f"/><path d="M357.82,265.91l.63.5a21,21,0,0,1,6.58-4.75,23.88,23.88,0,0,0,8.55,3.86l0-.1c-.75-.22-1.51-.44-2.24-.72a20,20,0,0,1-5.68-3.32,34.75,34.75,0,0,1,9-2.45c1.43,1.28,3.54,1.37,5.36,1.3v-.1a20.71,20.71,0,0,1-5-1.25,66.51,66.51,0,0,1,7.22-.56v-.1a45.7,45.7,0,0,0-10.08.73,21,21,0,0,1,3.94-3.27l0-.09c-1.64.72-3.46,1.71-4.22,3.43a34.26,34.26,0,0,0-4.91,1.35,24.69,24.69,0,0,1,4.51-6.84l-.07-.07a19.73,19.73,0,0,0-3,3.21,8.9,8.9,0,0,0-1.68,3.78A25.42,25.42,0,0,0,357.82,265.91Z" fill="#d8a96f"/><path d="M268.52,257.49s-2.53-2.13-3.85-2.15c0,0-.74-1.73,0-2.39,0,0-1.78-.91-6.62,1,0,0,2.86-2.89,3.27-4.82,0,0-4.49-1.72-8.65-.4,0,0-.38-.56,0-.82,0,0-3,.21-6.21,5.36,0,0-1.22,5.39,1.66,7.59a1.81,1.81,0,0,1,.07-1.18,11.25,11.25,0,0,0,8.38,5.43,5.11,5.11,0,0,0-.45-4s3.49,1.18,6,.72a4.45,4.45,0,0,1-1.4-.87,21.45,21.45,0,0,0,3.18,0,2.36,2.36,0,0,0-.45-1.48A6.71,6.71,0,0,0,268.52,257.49Z" fill="#efc68f"/><path d="M241,250.3l.63-.51a21,21,0,0,0,6.58,4.75,23.72,23.72,0,0,1,8.55-3.86l0,.1c-.76.22-1.51.44-2.25.72a20,20,0,0,0-5.67,3.32,34.78,34.78,0,0,0,9,2.45c1.44-1.28,3.55-1.36,5.37-1.3v.1a20.9,20.9,0,0,0-5,1.25,66.69,66.69,0,0,0,7.23.56v.1a45.7,45.7,0,0,1-10.08-.73,21,21,0,0,0,3.94,3.27l0,.09c-1.64-.72-3.47-1.71-4.22-3.43a33.91,33.91,0,0,1-4.91-1.35,24.88,24.88,0,0,0,4.5,6.84l-.06.07a19.3,19.3,0,0,1-3-3.21,8.85,8.85,0,0,1-1.68-3.78A25.55,25.55,0,0,1,241,250.3Z" fill="#d8a96f"/><path d="M71.25,260.91s-1.87-1.57-2.84-1.59c0,0-.55-1.27,0-1.76,0,0-1.32-.67-4.89.73,0,0,2.11-2.13,2.41-3.56a11,11,0,0,0-6.38-.3s-.28-.41,0-.6c0,0-2.2.15-4.59,4,0,0-.9,4,1.22,5.6a1.28,1.28,0,0,1,.06-.86,8.29,8.29,0,0,0,6.19,4,3.79,3.79,0,0,0-.34-2.91,10.94,10.94,0,0,0,4.43.53,3.36,3.36,0,0,1-1-.64,14.85,14.85,0,0,0,2.35,0,1.74,1.74,0,0,0-.33-1.09A5,5,0,0,0,71.25,260.91Z" fill="#efc68f"/><path d="M50.91,255.6l.47-.37a15.23,15.23,0,0,0,4.86,3.5,17.68,17.68,0,0,1,6.31-2.85V256c-.55.16-1.11.33-1.65.53a14.59,14.59,0,0,0-4.19,2.45,25.4,25.4,0,0,0,6.64,1.81,5.56,5.56,0,0,1,4-1v.07a15.49,15.49,0,0,0-3.72.93,49.11,49.11,0,0,0,5.34.41v.07a34,34,0,0,1-7.45-.53,15.35,15.35,0,0,0,2.92,2.41l0,.07a5.64,5.64,0,0,1-3.11-2.53,25,25,0,0,1-3.63-1A18.35,18.35,0,0,0,61,264.74l-.05.05a14.13,14.13,0,0,1-2.2-2.37,6.45,6.45,0,0,1-1.24-2.79A18.76,18.76,0,0,1,50.91,255.6Z" fill="#d8a96f"/></g></g></svg>