<svg width="24" height="24" viewBox="0 0 24 24" fill="none" xmlns="http://www.w3.org/2000/svg">
<path d="M16.4998 3.64307C15.5809 3.64292 14.6788 3.88913 13.8874 4.35607C13.096 4.823 12.4442 5.49358 12 6.29797C11.5558 5.49358 10.904 4.823 10.1126 4.35607C9.32117 3.88913 8.41904 3.64292 7.50015 3.64307C6.13623 3.64307 4.82817 4.18488 3.86373 5.14932C2.8993 6.11375 2.35748 7.42181 2.35748 8.78573C2.35748 15.8569 10.6224 20.3567 12 20.3567C13.3776 20.3567 21.6425 15.8569 21.6425 8.78573C21.6425 7.42181 21.1007 6.11375 20.1362 5.14932C19.1718 4.18488 17.8637 3.64307 16.4998 3.64307ZM7.50015 6.2144C6.08206 6.2144 4.92881 7.36764 4.92881 8.78573C4.92881 8.95622 4.86109 9.11973 4.74053 9.24028C4.61998 9.36084 4.45647 9.42856 4.28598 9.42856C4.11549 9.42856 3.95198 9.36084 3.83143 9.24028C3.71088 9.11973 3.64315 8.95622 3.64315 8.78573C3.64315 6.6586 5.37301 4.92873 7.50015 4.92873C7.67064 4.92873 7.83414 4.99646 7.9547 5.11701C8.07525 5.23757 8.14298 5.40108 8.14298 5.57157C8.14298 5.74206 8.07525 5.90556 7.9547 6.02612C7.83414 6.14667 7.67064 6.2144 7.50015 6.2144Z" fill="#EB6309"/>
</svg>
