<?xml version="1.0" encoding="UTF-8" standalone="no"?>
<!-- Created with Inkscape (http://www.inkscape.org/) -->

<svg width="800" height="800" viewBox="0 0 211.66666 211.66666" version="1.1" id="svg946"
    sodipodi:docname="icon-giftcardedited.svg" inkscape:version="1.1.1 (3bf5ae0d25, 2021-09-20)"
    xmlns:inkscape="http://www.inkscape.org/namespaces/inkscape" xmlns:sodipodi="http://sodipodi.sourceforge.net/DTD/sodipodi-0.dtd"
    xmlns="http://www.w3.org/2000/svg">
  <sodipodi:namedview
     id="namedview6"
     pagecolor="#ffffff"
     bordercolor="#111111"
     borderopacity="1"
     inkscape:pageshadow="0"
     inkscape:pageopacity="0"
     inkscape:pagecheckerboard="1"
     showgrid="false"
     inkscape:zoom="0.325"
     inkscape:cx="401.53846"
     inkscape:cy="404.61538"
     inkscape:window-width="1366"
     inkscape:window-height="705"
     inkscape:window-x="-8"
     inkscape:window-y="-8"
     inkscape:window-maximized="1"
     inkscape:current-layer="svg946" />
  <defs
     id="defs943" />
  <path
     id="path1456"
     style="display:inline;fill:#2b2d42;fill-opacity:1;stroke:none;stroke-width:3.08152;stroke-linejoin:round;stroke-opacity:0"
     d="m 47.763328,42.202076 c -15.585816,0 -28.133168,12.547351 -28.133167,28.133164 v 15.14998 h 20.211685 a 18.674757,18.674757 0 0 1 0.05013,-0.130741 18.674757,18.674757 0 0 1 1.454174,-2.520259 18.674757,18.674757 0 0 1 1.827794,-2.263429 18.674757,18.674757 0 0 1 2.156976,-1.952336 18.674757,18.674757 0 0 1 2.43396,-1.593699 18.674757,18.674757 0 0 1 2.652551,-1.196311 18.674757,18.674757 0 0 1 2.805512,-0.769462 18.674757,18.674757 0 0 1 2.891298,-0.324527 18.674757,18.674757 0 0 1 2.906797,0.128156 18.674757,18.674757 0 0 1 2.850989,0.578776 18.674757,18.674757 0 0 1 2.726968,1.013892 18.674757,18.674757 0 0 1 2.536277,1.425755 18.674757,18.674757 0 0 1 2.197283,1.733227 V 42.202076 Z m 39.496812,0 v 36.309926 a 18.674757,18.674757 0 0 1 0.375687,-0.327112 18.674757,18.674757 0 0 1 3.152264,-1.809708 18.674757,18.674757 0 0 1 3.4432,-1.164785 18.674757,18.674757 0 0 1 3.603398,-0.475941 18.674757,18.674757 0 0 1 3.627171,0.230992 18.674757,18.674757 0 0 1 3.514,0.929661 18.674757,18.674757 0 0 1 3.26698,1.592667 18.674757,18.674757 0 0 1 2.89698,2.195214 18.674757,18.674757 0 0 1 2.41691,2.714564 18.674757,18.674757 0 0 1 1.81901,3.087666 H 192.8506 V 70.33524 c 0,-15.585813 -12.54788,-28.133164 -28.13369,-28.133164 z M 56.844426,83.073998 A 10.79451,10.79451 0 0 0 46.417673,94.105366 10.79451,10.79451 0 0 0 57.331217,104.65614 10.79451,10.79451 0 0 0 68.003953,93.862487 l -0.01085,-0.486791 A 10.79451,10.79451 0 0 0 56.844426,83.073998 Z m 39.634273,0 A 10.79451,10.79451 0 0 0 86.051946,94.105366 10.79451,10.79451 0 0 0 96.96549,104.65614 10.79451,10.79451 0 0 0 107.63823,93.862487 l -0.0108,-0.486791 A 10.79451,10.79451 0 0 0 96.478699,83.073998 Z M 19.630161,103.41281 v 36.97242 c 0,15.58581 12.547351,28.13316 28.133167,28.13316 h 21.569225 v -48.07251 l -9.768396,11.48767 c -0.128085,0.15062 -0.26207,0.29283 -0.401526,0.42685 -0.139454,0.134 -0.284583,0.25944 -0.434081,0.37671 -0.1495,0.11729 -0.303773,0.22614 -0.461989,0.3266 -0.158213,0.10046 -0.320159,0.19294 -0.485759,0.27647 -0.165603,0.0835 -0.334769,0.15831 -0.506428,0.22479 -0.171659,0.0665 -0.346059,0.1243 -0.522449,0.17364 -0.17639,0.0493 -0.354542,0.0904 -0.534334,0.12247 -0.17979,0.0321 -0.361254,0.055 -0.543118,0.0698 -0.181864,0.0147 -0.364128,0.0208 -0.546738,0.0181 -0.182607,-0.003 -0.365228,-0.0143 -0.547254,-0.0346 -0.182025,-0.0203 -0.363521,-0.0493 -0.543636,-0.0873 -0.180113,-0.038 -0.359013,-0.0853 -0.535885,-0.14108 -0.176871,-0.0558 -0.351689,-0.12057 -0.523999,-0.1943 -0.172302,-0.0737 -0.34209,-0.15631 -0.508495,-0.24804 -0.166404,-0.0917 -0.329681,-0.19245 -0.48886,-0.30231 -0.159178,-0.10986 -0.314462,-0.229 -0.465087,-0.35709 -0.150625,-0.12808 -0.292836,-0.26207 -0.426847,-0.40152 -0.134012,-0.13946 -0.259432,-0.28407 -0.376722,-0.43357 -0.11729,-0.1495 -0.226136,-0.30377 -0.326593,-0.46199 -0.100463,-0.1582 -0.192945,-0.32067 -0.276472,-0.48627 -0.08353,-0.1656 -0.15831,-0.33425 -0.224792,-0.50591 -0.06649,-0.17166 -0.124299,-0.34606 -0.173633,-0.52245 -0.04933,-0.17639 -0.0904,-0.35506 -0.122473,-0.53485 -0.03207,-0.17979 -0.05505,-0.36075 -0.06976,-0.5426 -0.01471,-0.18187 -0.02085,-0.36465 -0.01809,-0.54726 0.0028,-0.18261 0.01429,-0.36523 0.03462,-0.54725 0.02035,-0.18203 0.0493,-0.36353 0.08733,-0.54364 0.03803,-0.18011 0.08525,-0.3585 0.141076,-0.53536 0.05583,-0.17688 0.120574,-0.35222 0.194305,-0.52452 0.07373,-0.1723 0.156305,-0.34158 0.248047,-0.50798 0.09174,-0.16641 0.192447,-0.32968 0.302308,-0.48886 0.109855,-0.15918 0.228996,-0.31446 0.357084,-0.46509 l 11.348659,-13.34647 a 18.674757,18.674757 0 0 1 -2.040184,0.56741 18.674757,18.674757 0 0 1 -3.216341,0.31626 18.674757,18.674757 0 0 1 -3.223059,-0.2434 18.674757,18.674757 0 0 1 -3.132111,-0.7953 18.674757,18.674757 0 0 1 -2.948657,-1.32395 18.674757,18.674757 0 0 1 -2.676321,-1.81178 18.674757,18.674757 0 0 1 -2.323372,-2.24637 18.674757,18.674757 0 0 1 -1.628841,-2.23862 z m 94.462969,0 a 18.674757,18.674757 0 0 1 -0.97048,1.55856 18.674757,18.674757 0 0 1 -2.91972,2.95227 18.674757,18.674757 0 0 1 -3.49901,2.23449 18.674757,18.674757 0 0 1 -3.90674,1.40612 18.674757,18.674757 0 0 1 -4.120682,0.50798 18.674757,18.674757 0 0 1 -0.53847,-0.0543 l 10.644832,12.5181 c 0.25617,0.30123 0.47591,0.62063 0.65939,0.95343 0.18349,0.33281 0.33069,0.67875 0.44235,1.03249 0.11165,0.35374 0.18771,0.71547 0.22841,1.07952 0.0407,0.36405 0.0459,0.73078 0.0165,1.09451 -0.0294,0.36373 -0.0936,0.72416 -0.19224,1.07694 -0.0987,0.35277 -0.23189,0.69767 -0.39894,1.02887 -0.16705,0.33121 -0.36797,0.64875 -0.60255,0.94775 -0.23458,0.299 -0.50283,0.57944 -0.80408,0.83561 -0.30125,0.25616 -0.62062,0.47591 -0.95343,0.65939 -0.33281,0.18348 -0.67876,0.33069 -1.0325,0.44235 -0.35375,0.11165 -0.71546,0.18772 -1.07952,0.22841 -0.36404,0.0407 -0.73078,0.046 -1.09451,0.0165 -0.36373,-0.0294 -0.72415,-0.0936 -1.07693,-0.19224 -0.35278,-0.0987 -0.69767,-0.23189 -1.02888,-0.39894 -0.3312,-0.16705 -0.64874,-0.36797 -0.94774,-0.60255 -0.29901,-0.23458 -0.57944,-0.50284 -0.83561,-0.80409 L 87.26014,116.8554 v 51.66299 h 77.45677 c 15.58581,0 28.13368,-12.54735 28.13369,-28.13316 v -36.97242 z m 15.78043,12.04733 h 43.89086 c 0.1162,0 0.23151,0.003 0.34624,0.009 0.11472,0.006 0.22899,0.0144 0.34209,0.0258 0.1131,0.0114 0.22508,0.026 0.33642,0.0429 0.11134,0.0169 0.2218,0.0361 0.33124,0.0584 0.10943,0.0223 0.21816,0.0474 0.32556,0.0749 0.10741,0.0275 0.21363,0.0573 0.31885,0.0899 0.10522,0.0326 0.20921,0.0679 0.31212,0.10542 0.1029,0.0375 0.20444,0.0775 0.30489,0.11989 0.10045,0.0423 0.19981,0.0868 0.29766,0.13384 0.0979,0.047 0.19427,0.0963 0.28939,0.14779 0.0951,0.0516 0.18887,0.10529 0.28112,0.16123 0.0923,0.056 0.18308,0.11396 0.27233,0.17415 0.0892,0.0602 0.17694,0.12275 0.26304,0.18707 0.0861,0.0643 0.1704,0.13067 0.25321,0.19896 0.0828,0.0683 0.164,0.13871 0.2434,0.21084 0.0794,0.0721 0.15723,0.14586 0.23306,0.22169 0.0758,0.0758 0.14957,0.15367 0.22169,0.23306 0.0721,0.0794 0.14255,0.16057 0.21084,0.24339 0.0683,0.0828 0.13464,0.16712 0.19895,0.25322 0.0643,0.0861 0.12688,0.17378 0.18707,0.26303 0.0602,0.0892 0.1182,0.18008 0.17415,0.27234 0.0559,0.0922 0.10969,0.18599 0.16123,0.28112 0.0515,0.0951 0.10078,0.19153 0.1478,0.28939 0.047,0.0979 0.0915,0.19669 0.13384,0.29714 0.0423,0.10046 0.0823,0.20249 0.11989,0.3054 0.0375,0.1029 0.0728,0.20742 0.10542,0.31265 0.0326,0.10522 0.0624,0.21144 0.0899,0.31884 0.0275,0.1074 0.0526,0.2156 0.0749,0.32504 0.0223,0.10943 0.042,0.21992 0.0589,0.33125 0.0169,0.11134 0.031,0.22383 0.0424,0.33693 0.0114,0.1131 0.0201,0.22635 0.0258,0.34106 0.006,0.11472 0.009,0.23107 0.009,0.34727 0,0.11621 -0.003,0.231 -0.009,0.34571 -0.006,0.11474 -0.0144,0.229 -0.0258,0.3421 -0.0114,0.11309 -0.0255,0.22559 -0.0424,0.33693 -0.0169,0.11133 -0.0366,0.22182 -0.0589,0.33125 -0.0223,0.10944 -0.0474,0.21764 -0.0749,0.32504 -0.0275,0.10739 -0.0573,0.21363 -0.0899,0.31885 -0.0326,0.10522 -0.0679,0.20974 -0.10542,0.31264 -0.0375,0.10291 -0.0775,0.20392 -0.11989,0.30437 -0.0423,0.10045 -0.0868,0.20032 -0.13384,0.29818 -0.047,0.0979 -0.0962,0.19425 -0.1478,0.28939 -0.0515,0.0951 -0.1053,0.18885 -0.16123,0.28111 -0.0559,0.0922 -0.11395,0.1831 -0.17415,0.27234 -0.0602,0.0892 -0.12276,0.17643 -0.18707,0.26251 -0.0643,0.0861 -0.13066,0.17092 -0.19895,0.25374 -0.0683,0.0828 -0.1387,0.16399 -0.21084,0.24339 -0.0721,0.0794 -0.14586,0.15723 -0.22169,0.23306 -0.0758,0.0758 -0.15367,0.14956 -0.23306,0.2217 -0.0794,0.0721 -0.16058,0.14255 -0.2434,0.21084 -0.0828,0.0683 -0.16711,0.13464 -0.25321,0.19895 -0.0861,0.0643 -0.1738,0.12584 -0.26304,0.18603 -0.0892,0.0602 -0.18007,0.11821 -0.27233,0.17416 -0.0923,0.0559 -0.18599,0.10969 -0.28112,0.16122 -0.0951,0.0515 -0.19153,0.10181 -0.28939,0.14883 -0.0978,0.047 -0.19721,0.0915 -0.29766,0.13384 -0.10045,0.0423 -0.20199,0.0824 -0.30489,0.1199 -0.10291,0.0375 -0.2069,0.0728 -0.31212,0.10541 -0.10522,0.0326 -0.21144,0.0619 -0.31885,0.0894 -0.1074,0.0275 -0.21613,0.0527 -0.32556,0.0749 -0.10944,0.0223 -0.2199,0.042 -0.33124,0.0589 -0.11134,0.0169 -0.22332,0.0309 -0.33642,0.0424 -0.1131,0.0114 -0.22737,0.0201 -0.34209,0.0258 -0.11473,0.006 -0.23004,0.009 -0.34624,0.009 h -43.89086 c -0.11621,0 -0.2315,-0.003 -0.34623,-0.009 -0.11472,-0.006 -0.22901,-0.0144 -0.3421,-0.0258 -0.11311,-0.0114 -0.22507,-0.0255 -0.33641,-0.0424 -0.11133,-0.0169 -0.22182,-0.0366 -0.33125,-0.0589 -0.10944,-0.0223 -0.21817,-0.0474 -0.32556,-0.0749 -0.1074,-0.0275 -0.21362,-0.0568 -0.31884,-0.0894 -0.10522,-0.0326 -0.20922,-0.0679 -0.31213,-0.10541 -0.1029,-0.0375 -0.20444,-0.0776 -0.30489,-0.1199 -0.10044,-0.0423 -0.19981,-0.0868 -0.29765,-0.13384 -0.0979,-0.047 -0.19426,-0.0973 -0.28939,-0.14883 -0.0951,-0.0515 -0.18886,-0.10529 -0.28112,-0.16122 -0.0923,-0.0559 -0.1831,-0.11396 -0.27234,-0.17416 -0.0893,-0.0602 -0.17693,-0.12172 -0.26303,-0.18603 -0.0861,-0.0643 -0.17091,-0.13066 -0.25373,-0.19895 -0.0828,-0.0683 -0.16349,-0.1387 -0.24288,-0.21084 -0.0794,-0.0721 -0.15723,-0.14588 -0.23306,-0.2217 -0.0758,-0.0758 -0.15008,-0.15367 -0.22221,-0.23306 -0.0721,-0.0794 -0.14203,-0.16058 -0.21032,-0.24339 -0.0683,-0.0828 -0.13465,-0.16762 -0.19896,-0.25374 -0.0643,-0.0861 -0.12688,-0.17326 -0.18707,-0.26251 -0.0602,-0.0892 -0.11821,-0.18009 -0.17414,-0.27234 -0.0559,-0.0923 -0.1097,-0.18599 -0.16124,-0.28111 -0.0516,-0.0951 -0.10077,-0.19154 -0.14779,-0.28939 -0.047,-0.0979 -0.092,-0.19773 -0.13436,-0.29818 -0.0423,-0.10045 -0.0818,-0.20146 -0.11937,-0.30437 -0.0375,-0.1029 -0.0728,-0.20742 -0.10542,-0.31264 -0.0326,-0.10522 -0.0629,-0.21146 -0.0904,-0.31885 -0.0275,-0.1074 -0.0521,-0.2156 -0.0744,-0.32504 -0.0223,-0.10943 -0.042,-0.21992 -0.0589,-0.33125 -0.0169,-0.11134 -0.031,-0.22384 -0.0424,-0.33693 -0.0114,-0.1131 -0.0201,-0.22736 -0.0258,-0.3421 -0.006,-0.11471 -0.009,-0.2295 -0.009,-0.34571 0,-0.1162 0.003,-0.23255 0.009,-0.34727 0.006,-0.11471 0.0144,-0.22796 0.0258,-0.34106 0.0114,-0.1131 0.0255,-0.22559 0.0424,-0.33693 0.0169,-0.11133 0.0366,-0.22182 0.0589,-0.33125 0.0223,-0.10944 0.0469,-0.21764 0.0744,-0.32504 0.0275,-0.1074 0.0578,-0.21362 0.0904,-0.31884 0.0326,-0.10523 0.0679,-0.20975 0.10542,-0.31265 0.0375,-0.10291 0.077,-0.20494 0.11937,-0.3054 0.0424,-0.10045 0.0874,-0.19928 0.13436,-0.29714 0.047,-0.0979 0.0962,-0.19427 0.14779,-0.28939 0.0515,-0.0951 0.10529,-0.18887 0.16124,-0.28112 0.0559,-0.0923 0.11394,-0.1831 0.17414,-0.27234 0.0602,-0.0892 0.12276,-0.17693 0.18707,-0.26303 0.0643,-0.0861 0.13067,-0.1704 0.19896,-0.25322 0.0683,-0.0828 0.1382,-0.164 0.21032,-0.24339 0.0721,-0.0794 0.14638,-0.15722 0.22221,-0.23306 0.0758,-0.0758 0.15367,-0.14956 0.23306,-0.22169 0.0794,-0.0721 0.16007,-0.14255 0.24288,-0.21084 0.0828,-0.0683 0.16763,-0.13465 0.25373,-0.19896 0.0861,-0.0643 0.17378,-0.12687 0.26303,-0.18707 0.0892,-0.0602 0.18009,-0.1182 0.27234,-0.17415 0.0923,-0.0559 0.18599,-0.10968 0.28112,-0.16123 0.0951,-0.0515 0.19152,-0.10077 0.28939,-0.14779 0.0978,-0.047 0.19721,-0.0915 0.29765,-0.13384 0.10045,-0.0424 0.20199,-0.0824 0.30489,-0.11989 0.10291,-0.0375 0.20691,-0.0728 0.31213,-0.10542 0.10522,-0.0326 0.21144,-0.0624 0.31884,-0.0899 0.10739,-0.0275 0.21612,-0.0526 0.32556,-0.0749 0.10943,-0.0223 0.21992,-0.0415 0.33125,-0.0584 0.11134,-0.0169 0.2233,-0.0315 0.33641,-0.0429 0.11309,-0.0114 0.22738,-0.0201 0.3421,-0.0258 0.11473,-0.006 0.23002,-0.009 0.34623,-0.009 z m 0.57568,23.78821 h 43.89086 c 0.23242,0 0.46213,0.0118 0.68833,0.0346 0.2262,0.0228 0.44879,0.0567 0.66766,0.10129 0.21887,0.0446 0.43396,0.0997 0.6444,0.16484 0.21043,0.0652 0.41613,0.14011 0.61702,0.2248 0.2009,0.0847 0.39679,0.17905 0.58704,0.28215 0.19025,0.10309 0.37497,0.21499 0.55346,0.33538 0.35699,0.24078 0.68938,0.51524 0.9927,0.81855 0.30331,0.30332 0.57778,0.63572 0.81856,0.99271 0.12039,0.17849 0.23229,0.3632 0.33538,0.55345 0.10309,0.19025 0.19694,0.38615 0.28163,0.58705 0.0847,0.20089 0.16013,0.40657 0.22531,0.61701 0.0652,0.21044 0.12028,0.42553 0.16485,0.64441 0.0446,0.21887 0.0785,0.44146 0.10129,0.66766 0.0228,0.22619 0.0346,0.45591 0.0346,0.68833 0,0.23241 -0.0118,0.46213 -0.0346,0.68833 -0.0228,0.2262 -0.0567,0.44878 -0.10129,0.66766 -0.0446,0.21887 -0.0997,0.43396 -0.16485,0.6444 -0.0652,0.21044 -0.14062,0.41612 -0.22531,0.61702 -0.0847,0.2009 -0.17854,0.39679 -0.28163,0.58704 -0.10309,0.19025 -0.21499,0.37496 -0.33538,0.55346 -0.24078,0.35698 -0.51525,0.68939 -0.81856,0.9927 -0.30332,0.30332 -0.63571,0.57778 -0.9927,0.81856 -0.17849,0.12039 -0.36321,0.23228 -0.55346,0.33538 -0.19025,0.10309 -0.38614,0.19746 -0.58704,0.28215 -0.20089,0.0847 -0.40659,0.15961 -0.61702,0.22479 -0.21044,0.0652 -0.42553,0.12028 -0.6444,0.16485 -0.21887,0.0446 -0.44146,0.0785 -0.66766,0.10129 -0.2262,0.0228 -0.45591,0.0346 -0.68833,0.0346 h -43.89086 c -0.23241,0 -0.46213,-0.0118 -0.68833,-0.0346 -0.2262,-0.0228 -0.44879,-0.0567 -0.66766,-0.10129 -0.21887,-0.0446 -0.43397,-0.0997 -0.64441,-0.16485 -0.21044,-0.0652 -0.41611,-0.1401 -0.61701,-0.22479 -0.2009,-0.0847 -0.39681,-0.17906 -0.58705,-0.28215 -0.19025,-0.1031 -0.37496,-0.21499 -0.55345,-0.33538 -0.35698,-0.24078 -0.6894,-0.51524 -0.99271,-0.81856 -0.30332,-0.30331 -0.57777,-0.63572 -0.81855,-0.9927 -0.12039,-0.1785 -0.23228,-0.36321 -0.33538,-0.55346 -0.10309,-0.19025 -0.19747,-0.38614 -0.28215,-0.58704 -0.0847,-0.2009 -0.15962,-0.40658 -0.2248,-0.61702 -0.0652,-0.21044 -0.12029,-0.42553 -0.16484,-0.6444 -0.0446,-0.21888 -0.0785,-0.44146 -0.10129,-0.66766 -0.0228,-0.2262 -0.0346,-0.45592 -0.0346,-0.68833 0,-0.23242 0.0118,-0.46214 0.0346,-0.68833 0.0228,-0.2262 0.0567,-0.44879 0.10129,-0.66766 0.0446,-0.21888 0.0997,-0.43397 0.16484,-0.64441 0.0652,-0.21044 0.14011,-0.41612 0.2248,-0.61701 0.0847,-0.2009 0.17906,-0.3968 0.28215,-0.58705 0.1031,-0.19025 0.21499,-0.37496 0.33538,-0.55345 0.24078,-0.35699 0.51523,-0.68939 0.81855,-0.99271 0.30331,-0.30331 0.63573,-0.57777 0.99271,-0.81855 0.17849,-0.12039 0.3632,-0.23229 0.55345,-0.33538 0.19024,-0.1031 0.38615,-0.19746 0.58705,-0.28215 0.2009,-0.0847 0.40657,-0.15962 0.61701,-0.2248 0.21044,-0.0652 0.42554,-0.12028 0.64441,-0.16484 0.21887,-0.0446 0.44146,-0.0785 0.66766,-0.10129 0.2262,-0.0228 0.45592,-0.0346 0.68833,-0.0346 z" />
</svg>
