<svg width="24" height="24" viewBox="0 0 24 24" fill="none" xmlns="http://www.w3.org/2000/svg">
<path d="M20.1319 12.5524C19.8969 11.9951 18.6223 11.3424 18.0258 11.169L17.383 10.5823L17.3071 10.5288C16.6891 10.2943 16.0403 10.1509 15.381 10.1031C15.0434 9.89056 14.6821 9.71828 14.3045 9.58978C13.8835 9.48272 12.9372 9.77092 12.5496 9.89888L12.4495 9.93188L12.382 10.0133C12.0223 10.4485 10.8475 11.9247 10.8475 12.6635C10.8475 13.0372 11.2047 13.373 11.6175 13.7635C11.8135 13.93 11.9909 14.1171 12.1466 14.3216C12.1657 14.4937 12.1952 14.6646 12.235 14.8331C12.327 15.2731 12.481 16.0138 12.2955 16.302C12.0433 16.7562 11.8862 17.2571 11.8339 17.774C11.7816 18.2909 11.8351 18.8131 11.9912 19.3086C12.0461 19.4972 12.1466 19.6695 12.2838 19.8101C12.4209 19.9508 12.5905 20.0556 12.7777 20.1153C12.8742 20.1409 12.9737 20.1532 13.0736 20.152C13.7735 20.152 14.611 19.5756 15.3612 19.0597C15.6336 18.8557 15.923 18.6755 16.2262 18.521C16.8807 18.2644 17.1931 17.421 17.4211 16.8047C17.4676 16.6669 17.5229 16.5321 17.5865 16.4013C17.9414 15.9458 18.4027 15.5843 18.93 15.3486C19.66 14.9849 20.4615 13.336 20.1319 12.5524Z" fill="#EB6309"/>
<path d="M12 1C9.82441 1 7.69767 1.64514 5.88873 2.85383C4.07979 4.06253 2.66989 5.78049 1.83733 7.79048C1.00477 9.80047 0.786929 12.0122 1.21137 14.146C1.6358 16.2798 2.68345 18.2398 4.22183 19.7782C5.76021 21.3165 7.72022 22.3642 9.85401 22.7886C11.9878 23.2131 14.1995 22.9952 16.2095 22.1627C18.2195 21.3301 19.9375 19.9202 21.1462 18.1113C22.3549 16.3023 23 14.1756 23 12C22.9967 9.08363 21.8367 6.28765 19.7745 4.22547C17.7123 2.16328 14.9164 1.0033 12 1ZM12 22.2667C9.60443 22.2689 7.28423 21.4293 5.44474 19.8947L6.13004 18.868C6.4873 18.7769 6.80465 18.5707 7.03314 18.2814C7.52154 17.4014 6.90737 16.1136 6.72147 15.7627C6.7037 15.4107 6.64211 15.0622 6.53814 14.7254C6.39734 14.3734 5.81837 14.0346 5.49094 13.8663C5.25334 13.4579 4.78364 12.5412 4.78364 12C4.77848 11.8848 4.7963 11.7697 4.83605 11.6615C4.8758 11.5532 4.93669 11.4539 5.01518 11.3695C5.09366 11.285 5.18818 11.2169 5.29321 11.1693C5.39824 11.1217 5.5117 11.0955 5.62697 11.0921C6.22866 10.9725 6.7582 10.6187 7.09914 10.1087C7.4427 10.0039 8.19474 9.73033 8.45104 9.2819C8.72567 8.80046 8.4195 7.6946 8.2402 7.14826C8.33343 6.71389 8.31858 6.26326 8.19694 5.83597C8.02354 5.42722 7.74434 5.07208 7.38807 4.8071C7.15827 4.2799 6.85657 3.78706 6.49157 3.34263C7.7196 2.55779 9.10154 2.04517 10.5443 1.8393C10.3527 2.15113 10.2854 2.52366 10.3559 2.88283C10.4813 3.22823 10.9748 3.48307 11.3902 3.6411C11.3378 4.04957 11.3334 4.718 11.7701 5.0678C12.2068 5.4176 12.7421 5.26507 13.0982 5.16717L13.2342 5.1305C13.2975 5.62206 13.3178 6.11821 13.2947 6.6133L13.2899 6.75996L13.3893 6.86997C13.4285 6.91323 14.3657 7.93623 15.3473 8.0741C15.3977 8.0812 15.4486 8.08463 15.4995 8.08436C16.389 8.08436 17.4186 7.072 17.7644 6.70313C18.6166 6.50328 19.4536 6.24328 20.2691 5.92507C21.3942 7.45368 22.0733 9.26446 22.2307 11.156C22.3882 13.0475 22.0178 14.9456 21.1608 16.6392C20.3038 18.3328 18.9938 19.7555 17.3766 20.749C15.7593 21.7425 13.8981 22.2678 12 22.2667Z" fill="#EB6309"/>
</svg>
