<svg width="24" height="24" viewBox="0 0 24 24" fill="none" xmlns="http://www.w3.org/2000/svg">
<path fill-rule="evenodd" clip-rule="evenodd" d="M10.9445 1.01099C12.2369 1.01244 13.476 1.52649 14.3898 2.44036C15.3037 3.35422 15.8177 4.59328 15.8192 5.88568V6.90985C15.8192 7.12843 15.7324 7.33806 15.5778 7.49263C15.4232 7.64719 15.2136 7.73402 14.995 7.73402C14.7764 7.73402 14.5668 7.64719 14.4123 7.49263C14.2577 7.33806 14.1709 7.12843 14.1709 6.90985V5.88568C14.17 5.03027 13.8298 4.21014 13.2249 3.60527C12.62 3.0004 11.7999 2.6602 10.9445 2.65933H5.5874C4.73238 2.66049 3.91276 3.00089 3.30848 3.60579C2.70419 4.21069 2.36463 5.03066 2.36434 5.88568V18.1153C2.36493 18.9701 2.70461 19.7898 3.30886 20.3944C3.91312 20.9991 4.73257 21.3394 5.5874 21.3405H10.9577C11.8096 21.3394 12.6263 21.0005 13.2288 20.3982C13.8314 19.7959 14.1705 18.9793 14.172 18.1274V17.0911C14.172 16.8725 14.2588 16.6629 14.4134 16.5083C14.5679 16.3538 14.7775 16.2669 14.9961 16.2669C15.2147 16.2669 15.4243 16.3538 15.5789 16.5083C15.7335 16.6629 15.8203 16.8725 15.8203 17.0911V18.1274C15.8186 19.4164 15.3056 20.6521 14.3941 21.5634C13.4825 22.4748 12.2467 22.9874 10.9577 22.9889H5.5874C4.29558 22.9871 3.0572 22.473 2.14395 21.5594C1.2307 20.6457 0.717166 19.4071 0.716003 18.1153L0.716003 5.88568C0.717166 4.59376 1.23067 3.35504 2.14389 2.4412C3.0571 1.52736 4.29548 1.01302 5.5874 1.01099L10.9445 1.01099ZM19.8236 8.21314L23.0411 11.4164C23.0708 11.445 23.0961 11.4747 23.1192 11.5054L23.0422 11.4164C23.1196 11.4925 23.1809 11.5833 23.2224 11.6836C23.264 11.7838 23.2849 11.8914 23.284 11.9999L23.2785 12.0681L23.2763 12.112V12.1175L23.284 11.9999C23.284 12.1101 23.2619 12.2192 23.2191 12.3208C23.1762 12.4223 23.1135 12.5142 23.0345 12.5911L19.8236 15.7878C19.7471 15.8645 19.6563 15.9253 19.5562 15.9667C19.4562 16.0081 19.349 16.0293 19.2407 16.0291C19.1324 16.0289 19.0253 16.0073 18.9254 15.9655C18.8255 15.9237 18.7349 15.8626 18.6587 15.7856C18.5047 15.6308 18.4184 15.4212 18.4188 15.2027C18.4192 14.9843 18.5063 14.775 18.6609 14.6208L20.4631 12.8241H9.22803C9.00945 12.8241 8.79982 12.7373 8.64526 12.5827C8.4907 12.4281 8.40386 12.2185 8.40386 11.9999C8.40386 11.7813 8.4907 11.5717 8.64526 11.4171C8.79982 11.2626 9.00945 11.1758 9.22803 11.1758H20.4653L18.6609 9.38016C18.5843 9.30382 18.5235 9.21314 18.4819 9.11329C18.4403 9.01343 18.4188 8.90637 18.4186 8.7982C18.4184 8.69004 18.4395 8.58289 18.4807 8.48289C18.5219 8.38288 18.5824 8.29196 18.6587 8.21533C18.7351 8.13871 18.8258 8.07787 18.9256 8.03628C19.0255 7.9947 19.1325 7.9732 19.2407 7.97299C19.3489 7.97279 19.456 7.99389 19.556 8.03509C19.656 8.0763 19.7469 8.1368 19.8236 8.21314Z" fill="#EB6309"/>
</svg>
