<svg width="400" height="401" viewBox="0 0 400 401" fill="none" xmlns="http://www.w3.org/2000/svg">
<g clip-path="url(#clip0_1936_2773)">
<path d="M146.211 69.0783H212.014C213.579 69.0783 215.081 69.6951 216.18 70.8036C217.289 71.9121 217.905 73.405 217.905 74.9694V107.151C217.905 108.716 217.289 110.217 216.18 111.317C215.072 112.425 213.579 113.042 212.014 113.042H156.17C155.392 113.042 154.632 112.89 153.908 112.595C153.193 112.3 152.541 111.862 151.995 111.317C151.45 110.772 151.012 110.119 150.717 109.404C150.422 108.689 150.27 107.92 150.27 107.142V73.1457L146.211 69.0872V69.0783Z" fill="#F5F5F5"/>
<path d="M184.347 97.8632V118.46C184.347 120.247 183.632 121.973 182.362 123.242C181.093 124.512 179.377 125.218 177.58 125.218H103.58C102.695 125.218 101.81 125.039 100.996 124.699C100.183 124.36 99.4316 123.859 98.8059 123.233C98.1801 122.607 97.6795 121.857 97.3398 121.043C97.0001 120.221 96.8213 119.345 96.8213 118.46V101.063L87.5869 91.3464L177.517 91.0603C178.411 91.0603 179.305 91.2212 180.128 91.5609C180.95 91.9006 181.71 92.4012 182.345 93.0359C182.979 93.6706 183.48 94.4215 183.82 95.2529C184.159 96.0842 184.338 96.9692 184.329 97.8632H184.347Z" fill="#E0E0E0"/>
<path d="M107.745 103.567L174.889 103.254V101.198L107.745 101.51V103.567Z" fill="#F5F5F5"/>
<path d="M107.745 110.352L174.889 110.039V107.974L107.745 108.287V110.352Z" fill="#F5F5F5"/>
<path d="M133.974 115.143H107.415V117.208H133.974V115.143Z" fill="#F5F5F5"/>
<path d="M247.236 295.138C236.169 284.375 235.99 267.712 238.868 253.239C239.351 250.816 239.512 248.215 240.996 246.275C242.489 244.335 245.43 243.307 247.388 244.702C249.05 245.846 249.515 248.072 250.212 249.967C251.178 252.506 252.85 254.723 255.022 256.359C256.443 257.423 258.276 258.218 259.938 257.628C262.227 256.806 262.942 253.954 263.327 251.532C264.033 247.017 264.748 242.512 265.454 238.015C265.704 235.575 266.348 233.197 267.349 230.962C267.868 229.862 268.637 228.897 269.602 228.164C270.567 227.422 271.694 226.921 272.892 226.707C275.305 226.439 277.925 228.235 278.023 230.685C277.951 231.695 277.817 232.705 277.612 233.706C277.504 234.198 277.558 234.717 277.746 235.181C277.934 235.646 278.264 236.048 278.684 236.335C279.176 236.478 279.695 236.495 280.186 236.37C280.678 236.245 281.143 236.013 281.518 235.664C284.325 233.492 286.757 230.873 288.714 227.905C290.672 224.946 292.979 222.219 295.571 219.797C298.271 217.508 301.739 215.917 305.243 216.275C308.739 216.641 312.073 219.385 312.395 222.925C312.717 226.465 310.16 229.612 307.541 232.017C303.661 235.575 299.29 238.56 294.561 240.876C293.658 241.198 292.88 241.797 292.344 242.592C291.557 244.121 292.827 245.971 294.328 246.758C296.036 247.652 298.02 247.822 299.862 248.313C301.703 248.805 303.625 250.012 304.037 251.907C304.627 254.544 302.132 256.788 299.826 258.156C295.213 260.882 290.163 262.786 284.906 263.805C282.993 264.02 281.134 264.574 279.417 265.45C277.773 266.46 276.557 268.499 277.147 270.34C277.737 272.182 279.864 273.093 281.786 273.049C283.69 272.825 285.586 272.441 287.427 271.895C290.949 271.18 295.195 272.11 296.858 275.328C297.341 276.428 297.573 277.617 297.52 278.815C297.466 280.012 297.135 281.184 296.563 282.229C295.383 284.294 293.81 286.109 291.924 287.557C285.648 293.019 278.05 296.72 269.879 298.285C261.744 299.706 254.485 299.25 247.289 295.201" fill="#996C22"/>
<path d="M245.269 305.892C247.048 299.25 249.462 292.796 252.474 286.619C256.193 279.083 260.341 271.77 264.891 264.717L268.44 259.139C269.602 257.315 270.764 255.501 272.016 253.811C274.411 250.548 276.977 247.428 279.713 244.443C282.314 241.582 284.88 238.963 287.293 236.522C289.707 234.082 292.031 231.874 294.212 229.934C297.645 226.868 301.31 224.07 305.181 221.576C306.558 220.7 307.63 220.047 308.381 219.618L309.222 219.135L309.517 218.983L309.239 219.171L308.417 219.689C307.693 220.136 306.629 220.816 305.27 221.71C301.435 224.248 297.797 227.073 294.373 230.148C292.246 232.097 289.93 234.323 287.517 236.755C285.112 239.186 282.564 241.832 279.981 244.693C277.263 247.67 274.706 250.79 272.329 254.043C271.095 255.742 269.951 257.539 268.78 259.371C267.609 261.204 266.438 263.072 265.231 264.95C260.69 271.994 256.533 279.288 252.805 286.789C249.783 292.939 247.352 299.366 245.537 305.972" fill="#2B2B2B"/>
<path d="M272.141 253.811C272.078 253.462 272.06 253.105 272.078 252.747V249.833C272.078 247.366 272.32 243.969 272.543 240.241C272.767 236.513 272.892 233.098 272.919 230.649V227.744C272.883 227.386 272.883 227.029 272.919 226.68C273.008 227.029 273.053 227.386 273.053 227.744C273.115 228.432 273.169 229.424 273.205 230.649C273.267 233.125 273.205 236.522 272.963 240.241C272.722 243.96 272.525 247.276 272.364 249.833C272.302 250.986 272.248 251.952 272.204 252.747C272.221 253.105 272.203 253.462 272.141 253.811Z" fill="#2B2B2B"/>
<path d="M304.162 253.087C303.742 253.105 303.313 253.087 302.893 253.033C302.079 253.033 300.917 252.881 299.469 252.81C296.573 252.658 292.559 252.577 288.143 252.685C283.718 252.792 279.713 253.069 276.825 253.355C275.377 253.48 274.215 253.623 273.402 253.704C272.99 253.775 272.561 253.811 272.141 253.811C272.543 253.677 272.955 253.588 273.375 253.534C274.17 253.382 275.332 253.203 276.79 253.033C279.677 252.676 283.682 252.345 288.134 252.22C291.924 252.122 295.714 252.211 299.496 252.488C300.944 252.604 302.106 252.747 302.919 252.864C303.34 252.899 303.76 252.98 304.162 253.087Z" fill="#2B2B2B"/>
<path d="M252.957 286.118C252.894 285.984 252.841 285.85 252.805 285.707C252.706 285.376 252.59 284.983 252.456 284.491C252.161 283.427 251.777 281.899 251.312 280.004C250.391 276.195 249.301 270.903 248.112 265.084C246.932 259.264 245.984 253.927 245.099 250.11C244.688 248.242 244.348 246.722 244.098 245.587C243.991 245.086 243.91 244.684 243.83 244.353C243.794 244.21 243.776 244.067 243.767 243.915C243.83 244.049 243.883 244.192 243.919 244.335L244.268 245.542C244.563 246.606 244.947 248.135 245.412 250.039C246.333 253.829 247.423 259.13 248.612 264.959C249.792 270.787 250.793 276.124 251.625 279.932C252.036 281.782 252.385 283.32 252.626 284.446L252.894 285.68C252.93 285.823 252.948 285.966 252.957 286.118Z" fill="#2B2B2B"/>
<path d="M296.411 279.574C296.268 279.619 296.125 279.655 295.973 279.673L294.713 279.878L290.056 280.594C286.122 281.192 280.705 282.086 274.716 283.079C268.726 284.071 263.3 284.911 259.349 285.421C257.373 285.689 255.791 285.877 254.682 285.984L253.404 286.109C253.252 286.127 253.109 286.127 252.957 286.109C253.091 286.047 253.243 286.011 253.395 286.002L254.664 285.796L259.313 285.081C263.246 284.482 268.673 283.597 274.662 282.596C280.651 281.595 286.078 280.763 290.02 280.254C291.995 279.995 293.587 279.798 294.695 279.691L295.965 279.574C296.26 279.557 296.411 279.557 296.411 279.574Z" fill="#2B2B2B"/>
<path d="M145.702 148.281C144.719 147.459 143.968 146.395 143.53 145.188C143.092 143.982 142.975 142.685 143.199 141.425C143.449 140.164 143.941 138.967 144.656 137.903C145.371 136.839 146.292 135.927 147.356 135.221C147.812 134.846 148.348 134.577 148.92 134.425C149.492 134.273 150.091 134.256 150.672 134.354C151.191 134.542 151.655 134.872 152.004 135.292C152.362 135.722 152.594 136.231 152.684 136.776C152.835 137.858 152.701 138.958 152.299 139.977C151.065 143.561 149.206 146.789 145.702 148.219" fill="#C8A443"/>
<path d="M142.385 154.351C140.374 152.554 137.96 151.258 135.341 150.57C132.731 149.891 129.986 149.837 127.349 150.418C126.017 150.731 124.507 151.482 124.292 152.796C124.078 154.11 125.284 155.299 126.42 155.996C128.923 157.391 131.792 158.016 134.653 157.784C137.513 157.552 140.24 156.479 142.493 154.7" fill="#C8A443"/>
<path d="M123.21 126.085C124.328 125.826 125.481 125.79 126.616 125.978C127.743 126.174 128.824 126.594 129.79 127.211C131.712 128.472 133.321 130.152 134.492 132.128C136.861 135.874 137.692 140.889 137.8 145.314C132.892 145.126 128.699 141.264 126.697 139.163C123.496 135.856 119.805 127.962 123.219 126.085" fill="#C8A443"/>
<path d="M149.814 161.074C149.367 160.484 148.956 159.867 148.589 159.223C147.311 156.738 146.381 154.083 145.818 151.348C145.264 148.576 145.478 145.698 146.435 143.034C146.739 142.238 147.132 141.479 147.615 140.772C147.776 140.504 147.981 140.263 148.223 140.066C147.66 141.058 147.168 142.086 146.766 143.15C145.934 145.769 145.773 148.559 146.31 151.258C146.873 153.958 147.749 156.586 148.911 159.08" fill="#2B2B2B"/>
<path d="M149.859 161.136L147.302 157.829C145.175 155.049 142.162 151.196 138.774 146.985C135.386 142.775 132.383 139.02 130.112 136.329C129.048 135.015 128.136 133.934 127.466 133.129C127.126 132.745 126.813 132.334 126.536 131.904C126.921 132.235 127.278 132.593 127.6 132.968C128.27 133.692 129.218 134.774 130.371 136.106C132.678 138.761 135.806 142.498 139.168 146.699C142.529 150.901 145.461 154.798 147.535 157.65C148.599 159.071 149.412 160.233 149.975 161.038" fill="#2B2B2B"/>
<path d="M130.424 153.368C130.692 153.234 130.97 153.144 131.265 153.1C131.613 153.01 131.971 152.948 132.328 152.912C132.784 152.832 133.24 152.787 133.705 152.76C134.912 152.689 136.119 152.733 137.308 152.894C138.765 153.109 140.195 153.484 141.572 154.012C142.948 154.557 144.254 155.254 145.487 156.077C146.479 156.765 147.4 157.543 148.241 158.41C148.616 158.776 148.893 159.143 149.161 159.474C149.385 159.733 149.59 160.01 149.778 160.305C150.1 160.788 150.055 161.011 150.037 161.029C149.403 160.216 148.723 159.429 147.999 158.687C147.141 157.873 146.211 157.131 145.228 156.479C144.021 155.692 142.734 155.022 141.393 154.485C140.043 153.976 138.649 153.6 137.227 153.359C136.056 153.18 134.876 153.1 133.696 153.127C131.685 153.153 130.442 153.457 130.433 153.359L130.424 153.368Z" fill="#2B2B2B"/>
<path d="M202.744 340.488C239.53 340.488 269.343 338.735 269.343 336.572C269.343 334.409 239.521 332.657 202.744 332.657C165.967 332.657 136.146 334.409 136.146 336.572C136.146 338.735 165.967 340.488 202.744 340.488Z" fill="#EBEBEB"/>
<path d="M240.013 319.998L164.573 319.65C162.419 319.641 160.282 319.203 158.298 318.371C156.304 317.54 154.498 316.315 152.987 314.787C151.468 313.258 150.27 311.434 149.447 309.441C148.634 307.448 148.214 305.311 148.223 303.148L149.018 114.044C149.036 109.69 150.779 105.524 153.872 102.458C156.957 99.3918 161.14 97.6755 165.485 97.6844L240.924 98.0331C243.079 98.042 245.215 98.48 247.2 99.3114C249.193 100.143 250.999 101.367 252.51 102.896C254.03 104.425 255.227 106.248 256.05 108.242C256.863 110.235 257.284 112.381 257.275 114.535L256.479 303.648C256.461 308.002 254.718 312.168 251.634 315.234C248.55 318.3 244.366 320.016 240.013 320.007V319.998Z" fill="#2B2B2B"/>
<path d="M240.826 104.559L226.157 104.496C225.191 104.514 224.279 104.916 223.609 105.605C222.938 106.302 222.572 107.232 222.59 108.188V110.843C222.608 111.8 222.241 112.729 221.571 113.418C220.9 114.106 219.988 114.508 219.032 114.526L190.515 114.401C189.55 114.374 188.638 113.963 187.976 113.266C187.315 112.569 186.957 111.63 186.975 110.673V108.018C187.011 107.062 186.662 106.132 186.019 105.426C185.375 104.72 184.472 104.3 183.516 104.255H165.574C164.064 104.237 162.562 104.523 161.158 105.095C159.755 105.658 158.476 106.499 157.404 107.562C156.322 108.626 155.473 109.887 154.883 111.281C154.293 112.676 153.989 114.169 153.98 115.679L153.202 300.26C153.202 301.771 153.488 303.264 154.051 304.667C154.624 306.062 155.464 307.34 156.528 308.413C157.591 309.486 158.852 310.335 160.246 310.925C161.641 311.506 163.134 311.81 164.645 311.819L239.932 312.168C241.443 312.168 242.945 311.881 244.339 311.309C245.743 310.737 247.012 309.897 248.085 308.833C249.158 307.769 250.007 306.5 250.597 305.105C251.178 303.711 251.482 302.218 251.491 300.707L252.269 116.126C252.269 114.616 251.983 113.114 251.419 111.719C250.847 110.316 250.007 109.046 248.943 107.974C247.879 106.901 246.619 106.043 245.224 105.462C243.83 104.881 242.337 104.568 240.826 104.568V104.559Z" fill="#FBFBFB"/>
<path d="M200.107 178.273C200.957 178.407 251.956 189 251.956 189L252.01 178.273H200.107Z" fill="#EBEBEB"/>
<path d="M246.69 71.2863C246.78 71.2863 246.86 75.3627 246.86 80.3777C246.86 85.3927 246.771 89.4691 246.69 89.4691C246.61 89.4691 246.521 85.3927 246.521 80.3777C246.521 75.3627 246.592 71.2863 246.69 71.2863Z" fill="#C8A443"/>
<path d="M278.89 92.2135C278.89 92.3029 275.243 94.0193 270.648 96.0396C266.053 98.0688 262.298 99.6332 262.263 99.5438C262.218 99.4544 265.919 97.7559 270.514 95.7178C275.109 93.6796 278.863 92.1241 278.89 92.2135Z" fill="#C8A443"/>
<path d="M278.086 60.4875C278.041 60.6038 277.978 60.72 277.916 60.8272L277.353 61.8016C276.861 62.633 276.137 63.8309 275.225 65.2969C273.401 68.2291 270.773 72.216 267.761 76.5606C264.757 80.9051 262.12 84.8742 260.296 87.7706C259.366 89.192 258.625 90.3541 258.07 91.2033L257.462 92.133C257.4 92.2492 257.319 92.3565 257.23 92.4548C257.275 92.3297 257.328 92.2135 257.4 92.1062L257.963 91.1497C258.455 90.3094 259.179 89.1115 260.091 87.6544C261.914 84.7133 264.542 80.7263 267.555 76.3729C270.559 72.0194 273.196 68.0682 275.073 65.1718L277.299 61.7301L277.907 60.8004C278.005 60.5591 278.077 60.4786 278.086 60.4875Z" fill="#C8A443"/>
<path d="M301.686 139.834H198.883C197.819 139.834 196.791 140.254 196.04 141.014C195.289 141.765 194.86 142.784 194.86 143.847V175.681C194.86 176.744 195.28 177.764 196.04 178.514C196.791 179.265 197.819 179.686 198.883 179.686H206.544C207.16 183.002 207.885 187.204 207.885 187.204L214.822 179.686H301.695C302.758 179.686 303.786 179.265 304.537 178.514C305.288 177.764 305.717 176.744 305.717 175.681V143.847C305.717 142.784 305.297 141.765 304.537 141.014C303.786 140.263 302.758 139.834 301.695 139.834H301.686Z" fill="#C8A443"/>
<path d="M213.194 147.781V156.506H211.594L207.795 151.017H207.732V156.506H205.882V147.781H207.5L211.272 153.27H211.353V147.781H213.194Z" fill="white"/>
<path d="M217.646 156.631C216.985 156.631 216.412 156.488 215.93 156.211C215.447 155.925 215.08 155.531 214.812 155.022C214.553 154.512 214.419 153.922 214.419 153.252C214.419 152.581 214.553 151.982 214.812 151.482C215.072 150.972 215.447 150.579 215.93 150.302C216.412 150.016 216.985 149.873 217.646 149.873C218.308 149.873 218.88 150.016 219.362 150.302C219.845 150.579 220.221 150.981 220.48 151.482C220.739 151.982 220.873 152.581 220.873 153.252C220.873 153.922 220.739 154.512 220.48 155.022C220.221 155.531 219.845 155.925 219.362 156.211C218.88 156.488 218.308 156.631 217.646 156.631ZM217.646 155.227C217.95 155.227 218.2 155.138 218.406 154.968C218.603 154.798 218.763 154.557 218.862 154.262C218.969 153.967 219.023 153.627 219.023 153.243C219.023 152.858 218.969 152.519 218.862 152.224C218.763 151.929 218.603 151.687 218.406 151.517C218.2 151.348 217.95 151.258 217.646 151.258C217.342 151.258 217.083 151.348 216.877 151.517C216.672 151.687 216.52 151.929 216.412 152.224C216.305 152.519 216.26 152.858 216.26 153.243C216.26 153.627 216.314 153.967 216.412 154.262C216.52 154.557 216.672 154.798 216.877 154.968C217.083 155.138 217.342 155.227 217.646 155.227Z" fill="white"/>
<path d="M232.182 147.781V156.506H230.581L226.782 151.017H226.72V156.506H224.869V147.781H226.487L230.26 153.27H230.34V147.781H232.182Z" fill="white"/>
<path d="M236.633 156.631C235.972 156.631 235.4 156.488 234.917 156.211C234.434 155.925 234.068 155.531 233.8 155.022C233.54 154.512 233.406 153.922 233.406 153.252C233.406 152.581 233.54 151.982 233.8 151.482C234.059 150.972 234.434 150.579 234.917 150.302C235.4 150.016 235.972 149.873 236.633 149.873C237.295 149.873 237.867 150.016 238.35 150.302C238.832 150.579 239.208 150.981 239.467 151.482C239.726 151.982 239.861 152.581 239.861 153.252C239.861 153.922 239.726 154.512 239.467 155.022C239.208 155.531 238.832 155.925 238.35 156.211C237.867 156.488 237.295 156.631 236.633 156.631ZM236.633 155.227C236.937 155.227 237.188 155.138 237.393 154.968C237.599 154.798 237.751 154.557 237.849 154.262C237.956 153.967 238.01 153.627 238.01 153.243C238.01 152.858 237.956 152.519 237.849 152.224C237.751 151.929 237.59 151.687 237.393 151.517C237.197 151.348 236.937 151.258 236.633 151.258C236.329 151.258 236.07 151.348 235.865 151.517C235.659 151.687 235.507 151.929 235.4 152.224C235.301 152.519 235.248 152.858 235.248 153.243C235.248 153.627 235.301 153.967 235.4 154.262C235.507 154.557 235.659 154.798 235.865 154.968C236.07 155.138 236.329 155.227 236.633 155.227Z" fill="white"/>
<path d="M244.536 149.962V151.321H240.585V149.962H244.536ZM241.488 148.398H243.303V154.494C243.303 154.664 243.329 154.789 243.383 154.888C243.437 154.977 243.508 155.04 243.598 155.084C243.687 155.12 243.803 155.138 243.919 155.138C244.009 155.138 244.089 155.138 244.179 155.12C244.268 155.102 244.331 155.093 244.375 155.084L244.661 156.434C244.572 156.461 244.438 156.497 244.277 156.533C244.116 156.568 243.91 156.595 243.678 156.604C243.24 156.622 242.856 156.559 242.525 156.434C242.194 156.3 241.944 156.094 241.765 155.817C241.586 155.531 241.497 155.183 241.497 154.754V148.416L241.488 148.398Z" fill="white"/>
<path d="M245.716 156.506V149.962H247.531V156.506H245.716ZM246.628 149.122C246.36 149.122 246.127 149.032 245.931 148.854C245.743 148.675 245.645 148.451 245.645 148.201C245.645 147.951 245.743 147.736 245.931 147.557C246.127 147.379 246.36 147.28 246.628 147.28C246.896 147.28 247.128 147.37 247.316 147.557C247.513 147.736 247.611 147.951 247.611 148.201C247.611 148.451 247.513 148.675 247.316 148.854C247.128 149.032 246.896 149.122 246.628 149.122Z" fill="white"/>
<path d="M252.519 149.962V151.321H248.479V149.962H252.519ZM249.399 156.506V149.488C249.399 149.014 249.489 148.621 249.676 148.308C249.864 147.995 250.123 147.763 250.445 147.602C250.767 147.45 251.142 147.37 251.554 147.37C251.831 147.37 252.09 147.388 252.314 147.432C252.546 147.477 252.725 147.513 252.832 147.548L252.51 148.907C252.439 148.88 252.349 148.863 252.242 148.845C252.135 148.827 252.036 148.818 251.929 148.818C251.661 148.818 251.473 148.88 251.366 149.006C251.259 149.131 251.205 149.301 251.205 149.524V156.506H249.39H249.399Z" fill="white"/>
<path d="M256.354 156.631C255.684 156.631 255.103 156.488 254.62 156.202C254.137 155.916 253.771 155.513 253.511 155.013C253.252 154.503 253.127 153.922 253.127 153.261C253.127 152.599 253.252 152 253.511 151.5C253.771 150.99 254.146 150.597 254.629 150.311C255.112 150.025 255.684 149.882 256.345 149.882C256.917 149.882 257.418 149.989 257.847 150.194C258.276 150.4 258.616 150.695 258.866 151.071C259.116 151.446 259.25 151.884 259.277 152.394H257.561C257.516 152.063 257.382 151.804 257.177 151.607C256.971 151.41 256.703 151.303 256.372 151.303C256.086 151.303 255.845 151.383 255.63 151.535C255.424 151.687 255.263 151.902 255.147 152.197C255.031 152.483 254.968 152.841 254.968 153.252C254.968 153.663 255.022 154.021 255.138 154.316C255.255 154.611 255.415 154.834 255.63 154.986C255.845 155.138 256.086 155.218 256.372 155.218C256.578 155.218 256.765 155.174 256.935 155.093C257.105 155.004 257.239 154.888 257.346 154.727C257.454 154.566 257.525 154.369 257.561 154.137H259.277C259.25 154.637 259.116 155.075 258.866 155.46C258.625 155.835 258.294 156.13 257.865 156.345C257.436 156.559 256.935 156.667 256.354 156.667V156.631Z" fill="white"/>
<path d="M262.316 156.631C261.896 156.631 261.521 156.559 261.199 156.416C260.868 156.264 260.609 156.05 260.421 155.764C260.234 155.478 260.135 155.111 260.135 154.682C260.135 154.316 260.207 154.012 260.332 153.77C260.466 153.52 260.645 153.323 260.877 153.171C261.11 153.019 261.369 152.903 261.664 152.832C261.959 152.751 262.272 152.697 262.594 152.671C262.978 152.635 263.282 152.59 263.514 152.563C263.747 152.528 263.917 152.474 264.024 152.402C264.131 152.331 264.185 152.224 264.185 152.09V152.063C264.185 151.795 264.095 151.58 263.926 151.437C263.756 151.285 263.514 151.214 263.21 151.214C262.88 151.214 262.62 151.285 262.433 151.428C262.236 151.571 262.111 151.75 262.048 151.964L260.368 151.83C260.457 151.437 260.618 151.088 260.868 150.802C261.119 150.507 261.44 150.284 261.834 150.132C262.227 149.971 262.692 149.891 263.219 149.891C263.586 149.891 263.934 149.935 264.265 150.016C264.605 150.105 264.9 150.23 265.159 150.409C265.418 150.588 265.624 150.82 265.776 151.097C265.928 151.374 266 151.705 266 152.099V156.515H264.274V155.612H264.221C264.113 155.817 263.979 155.996 263.8 156.148C263.622 156.3 263.416 156.425 263.166 156.506C262.915 156.595 262.629 156.631 262.308 156.631H262.316ZM262.835 155.379C263.103 155.379 263.336 155.326 263.541 155.218C263.747 155.111 263.908 154.968 264.024 154.78C264.14 154.602 264.203 154.396 264.203 154.164V153.466C264.149 153.502 264.069 153.538 263.97 153.565C263.872 153.591 263.765 153.618 263.639 153.645C263.514 153.672 263.398 153.69 263.273 153.708C263.148 153.726 263.041 153.743 262.942 153.752C262.728 153.779 262.54 153.833 262.379 153.904C262.218 153.976 262.093 154.065 262.004 154.181C261.914 154.298 261.87 154.441 261.87 154.611C261.87 154.861 261.959 155.049 262.138 155.174C262.316 155.299 262.549 155.361 262.826 155.361L262.835 155.379Z" fill="white"/>
<path d="M270.907 149.962V151.321H266.956V149.962H270.907ZM267.859 148.398H269.674V154.494C269.674 154.664 269.7 154.789 269.754 154.888C269.808 154.977 269.879 155.04 269.969 155.084C270.058 155.12 270.174 155.138 270.29 155.138C270.38 155.138 270.46 155.138 270.55 155.12C270.639 155.102 270.702 155.093 270.746 155.084L271.032 156.434C270.943 156.461 270.809 156.497 270.648 156.533C270.487 156.568 270.282 156.595 270.049 156.604C269.611 156.622 269.227 156.559 268.896 156.434C268.565 156.3 268.315 156.094 268.136 155.817C267.957 155.531 267.868 155.183 267.868 154.754V148.416L267.859 148.398Z" fill="white"/>
<path d="M272.087 156.506V149.962H273.902V156.506H272.087ZM272.999 149.122C272.731 149.122 272.498 149.032 272.302 148.854C272.114 148.675 272.016 148.451 272.016 148.201C272.016 147.951 272.114 147.736 272.302 147.557C272.498 147.379 272.731 147.28 272.999 147.28C273.267 147.28 273.5 147.37 273.687 147.557C273.884 147.736 273.982 147.951 273.982 148.201C273.982 148.451 273.884 148.675 273.687 148.854C273.5 149.032 273.267 149.122 272.999 149.122Z" fill="white"/>
<path d="M278.327 156.631C277.665 156.631 277.093 156.488 276.61 156.211C276.128 155.925 275.761 155.531 275.493 155.022C275.234 154.512 275.1 153.922 275.1 153.252C275.1 152.581 275.234 151.982 275.493 151.482C275.752 150.972 276.128 150.579 276.61 150.302C277.093 150.016 277.665 149.873 278.327 149.873C278.988 149.873 279.56 150.016 280.043 150.302C280.526 150.579 280.901 150.981 281.161 151.482C281.42 151.982 281.554 152.581 281.554 153.252C281.554 153.922 281.42 154.512 281.161 155.022C280.901 155.531 280.526 155.925 280.043 156.211C279.56 156.488 278.988 156.631 278.327 156.631ZM278.327 155.227C278.631 155.227 278.881 155.138 279.087 154.968C279.292 154.798 279.444 154.557 279.542 154.262C279.65 153.967 279.703 153.627 279.703 153.243C279.703 152.858 279.65 152.519 279.542 152.224C279.444 151.929 279.292 151.687 279.087 151.517C278.881 151.348 278.631 151.258 278.327 151.258C278.023 151.258 277.764 151.348 277.558 151.517C277.352 151.687 277.2 151.929 277.093 152.224C276.995 152.519 276.941 152.858 276.941 153.243C276.941 153.627 276.995 153.967 277.093 154.262C277.2 154.557 277.352 154.798 277.558 154.968C277.764 155.138 278.023 155.227 278.327 155.227Z" fill="white"/>
<path d="M284.549 152.724V156.506H282.734V149.962H284.468V151.115H284.549C284.692 150.731 284.933 150.436 285.282 150.212C285.621 149.989 286.041 149.873 286.524 149.873C286.98 149.873 287.373 149.971 287.713 150.168C288.053 150.364 288.312 150.65 288.5 151.017C288.688 151.383 288.786 151.821 288.786 152.331V156.497H286.971V152.653C286.971 152.251 286.873 151.938 286.667 151.714C286.462 151.491 286.176 151.374 285.809 151.374C285.568 151.374 285.353 151.428 285.156 151.535C284.969 151.643 284.826 151.795 284.718 151.991C284.611 152.188 284.566 152.429 284.558 152.715L284.549 152.724Z" fill="white"/>
<path d="M295.661 151.83L293.998 151.929C293.971 151.786 293.909 151.661 293.81 151.544C293.712 151.428 293.596 151.339 293.435 151.267C293.283 151.196 293.104 151.16 292.889 151.16C292.603 151.16 292.371 151.223 292.174 151.339C291.978 151.455 291.888 151.616 291.888 151.804C291.888 151.956 291.951 152.09 292.076 152.197C292.201 152.304 292.416 152.394 292.72 152.456L293.909 152.698C294.543 152.832 295.017 153.037 295.33 153.323C295.643 153.609 295.804 153.994 295.804 154.468C295.804 154.897 295.679 155.272 295.428 155.594C295.178 155.916 294.829 156.175 294.391 156.354C293.953 156.533 293.453 156.622 292.889 156.622C292.022 156.622 291.334 156.443 290.815 156.077C290.306 155.71 290.002 155.218 289.913 154.593L291.7 154.494C291.754 154.763 291.888 154.959 292.094 155.102C292.299 155.236 292.568 155.308 292.889 155.308C293.211 155.308 293.462 155.245 293.658 155.12C293.855 154.995 293.953 154.834 293.953 154.637C293.953 154.476 293.882 154.342 293.748 154.235C293.614 154.128 293.399 154.047 293.113 153.985L291.978 153.761C291.334 153.636 290.86 153.413 290.547 153.1C290.234 152.787 290.082 152.385 290.082 151.893C290.082 151.473 290.199 151.106 290.422 150.811C290.655 150.507 290.976 150.275 291.388 150.105C291.808 149.935 292.29 149.855 292.854 149.855C293.685 149.855 294.329 150.034 294.811 150.382C295.285 150.731 295.571 151.205 295.643 151.813L295.661 151.83Z" fill="white"/>
<path d="M241.336 162.173H243.401L245.394 165.928H245.484L247.477 162.173H249.551L246.36 167.814V170.898H244.527V167.814L241.336 162.173Z" fill="white"/>
<path d="M252.134 171.014C251.455 171.014 250.883 170.88 250.391 170.603C249.908 170.326 249.533 169.942 249.274 169.441C249.014 168.931 248.88 168.341 248.88 167.644C248.88 166.947 249.014 166.384 249.274 165.874C249.533 165.365 249.908 164.971 250.382 164.685C250.865 164.399 251.419 164.256 252.063 164.256C252.492 164.256 252.894 164.328 253.27 164.462C253.645 164.596 253.976 164.801 254.253 165.079C254.539 165.356 254.754 165.704 254.914 166.116C255.075 166.527 255.147 167.018 255.147 167.573V168.073H249.613V166.947H253.439C253.439 166.688 253.386 166.455 253.27 166.25C253.153 166.044 253.001 165.892 252.796 165.776C252.599 165.66 252.367 165.606 252.099 165.606C251.83 165.606 251.58 165.669 251.366 165.794C251.151 165.919 250.99 166.089 250.874 166.303C250.758 166.518 250.695 166.75 250.686 167.01V168.082C250.686 168.404 250.749 168.69 250.865 168.923C250.99 169.155 251.16 169.343 251.383 169.468C251.607 169.593 251.866 169.664 252.17 169.664C252.376 169.664 252.554 169.638 252.724 169.575C252.894 169.521 253.037 169.432 253.153 169.316C253.27 169.2 253.368 169.066 253.431 168.896L255.111 169.003C255.022 169.405 254.852 169.763 254.584 170.058C254.324 170.353 253.985 170.585 253.565 170.755C253.153 170.916 252.671 171.005 252.134 171.005V171.014Z" fill="white"/>
<path d="M259.814 164.354V165.713H255.862V164.354H259.814ZM256.765 162.79H258.58V168.887C258.58 169.057 258.607 169.182 258.66 169.28C258.714 169.369 258.785 169.432 258.875 169.477C258.964 169.513 259.08 169.53 259.197 169.53C259.286 169.53 259.367 169.53 259.456 169.513C259.545 169.495 259.608 169.486 259.653 169.477L259.939 170.827C259.849 170.853 259.724 170.889 259.554 170.925C259.393 170.961 259.188 170.988 258.955 170.996C258.517 171.014 258.133 170.952 257.802 170.827C257.471 170.693 257.221 170.487 257.042 170.201C256.864 169.915 256.774 169.566 256.774 169.137V162.799L256.765 162.79Z" fill="white"/>
</g>
<defs>
<clipPath id="clip0_1936_2773">
<rect width="224.826" height="280" fill="white" transform="translate(87.5869 60.4875)"/>
</clipPath>
</defs>
</svg>
