<svg width="400" height="401" viewBox="0 0 400 401" fill="none" xmlns="http://www.w3.org/2000/svg">
<path d="M98.4074 250.646C104.743 250.646 109.879 249.298 109.879 247.635C109.879 245.972 104.743 244.624 98.4074 244.624C92.0715 244.624 86.9353 245.972 86.9353 247.635C86.9353 249.298 92.0715 250.646 98.4074 250.646Z" fill="#C8A443"/>
<path d="M99.963 148.883C94.5531 148.371 88.4909 157.515 87.979 164.209C87.4772 170.914 86.3832 180.378 84.707 185.317C83.0309 190.255 74.7405 201.406 74.9914 210.118C75.2423 218.829 83.3721 229.719 98.0259 229.549C112.69 229.378 115.781 223.436 116.122 220.917C116.463 218.398 114.526 212.566 114.777 208.361C115.028 204.156 116.875 199.639 116.152 193.436C115.56 188.267 109.749 179.114 109.659 175.34C109.568 171.566 113.322 150.128 99.9429 148.873L99.963 148.883Z" fill="#C8A443"/>
<path d="M83.0811 211.633C83.3219 211.392 83.7134 211.382 83.9543 211.633L97.795 225.193V192.704L88.25 183.349C88.0091 183.108 87.9991 182.717 88.25 182.476C88.4909 182.235 88.8823 182.225 89.1232 182.476L97.8051 190.987V169.99C97.8051 169.649 98.0861 169.368 98.4273 169.368C98.7686 169.368 99.0496 169.649 99.0496 169.99V181.804L105.413 175.571C105.654 175.33 106.045 175.34 106.286 175.571C106.527 175.812 106.517 176.203 106.286 176.444L99.0597 183.53V218.99L106.808 211.402C107.049 211.161 107.44 211.171 107.681 211.402C107.922 211.643 107.912 212.035 107.681 212.275L99.0697 220.706V246.772C99.0697 247.113 98.7887 247.394 98.4474 247.394C98.1062 247.394 97.8251 247.113 97.8251 246.772V226.909L83.1212 212.496C82.8803 212.255 82.8703 211.864 83.1212 211.623L83.0811 211.633Z" fill="#996C22"/>
<path d="M72.2615 254.811C77.716 254.811 82.1377 253.652 82.1377 252.222C82.1377 250.792 77.716 249.632 72.2615 249.632C66.807 249.632 62.3853 250.792 62.3853 252.222C62.3853 253.652 66.807 254.811 72.2615 254.811Z" fill="#C8A443"/>
<path d="M73.5964 167.19C68.9393 166.748 63.7102 174.617 63.2786 180.388C62.847 186.16 61.9035 194.31 60.4683 198.565C59.033 202.821 51.8868 212.416 52.0976 219.913C52.3184 227.411 59.314 236.795 71.9303 236.645C84.5566 236.504 87.2264 231.375 87.5074 229.218C87.7884 227.06 86.1324 222.021 86.3532 218.408C86.574 214.795 88.1598 210.89 87.5375 205.561C87.0257 201.114 82.0173 193.226 81.947 189.984C81.8768 186.742 85.0986 168.274 73.5763 167.19H73.5964Z" fill="#996C22"/>
<path d="M59.053 221.228C59.2638 221.017 59.595 221.017 59.8058 221.228L71.7195 232.911V204.928L63.4993 196.869C63.2885 196.668 63.2885 196.327 63.4993 196.116C63.7101 195.905 64.0413 195.905 64.2521 196.116L71.7295 203.443V185.367C71.7295 185.076 71.9704 184.835 72.2615 184.835C72.5525 184.835 72.7934 185.076 72.7934 185.367V195.544L78.2735 190.174C78.4843 189.964 78.8155 189.974 79.0263 190.174C79.227 190.385 79.227 190.716 79.0263 190.927L72.8034 197.03V227.572L79.4679 221.038C79.6786 220.827 80.0099 220.837 80.2206 221.038C80.4214 221.248 80.4214 221.58 80.2206 221.79L72.8135 229.057V251.499C72.8135 251.79 72.5726 252.031 72.2815 252.031C71.9905 252.031 71.7496 251.79 71.7496 251.499V234.397L59.0831 221.991C58.8724 221.79 58.8724 221.449 59.0831 221.238L59.053 221.228Z" fill="#C8A443"/>
<path d="M325.36 252.222C331.463 252.222 336.41 250.923 336.41 249.321C336.41 247.719 331.463 246.421 325.36 246.421C319.257 246.421 314.309 247.719 314.309 249.321C314.309 250.923 319.257 252.222 325.36 252.222Z" fill="#C8A443"/>
<path d="M323.864 154.253C329.073 153.761 334.915 162.563 335.396 169.017C335.878 175.47 336.932 184.584 338.538 189.341C340.144 194.099 348.133 204.828 347.892 213.219C347.651 221.61 339.823 232.088 325.711 231.927C311.599 231.767 308.608 226.036 308.287 223.617C307.966 221.198 309.823 215.578 309.582 211.533C309.341 207.488 307.564 203.132 308.257 197.16C308.829 192.192 314.419 183.369 314.51 179.736C314.6 176.103 310.977 155.457 323.864 154.253Z" fill="#C8A443"/>
<path d="M340.124 214.664C339.893 214.433 339.522 214.423 339.281 214.664L325.952 227.722V196.437L335.146 187.424C335.376 187.193 335.386 186.822 335.146 186.581C334.915 186.35 334.543 186.34 334.302 186.581L325.942 194.771V174.557C325.942 174.226 325.681 173.965 325.35 173.965C325.018 173.965 324.757 174.226 324.757 174.557V185.939L318.635 179.937C318.404 179.706 318.023 179.716 317.792 179.937C317.561 180.168 317.571 180.549 317.792 180.78L324.747 187.595V221.74L317.29 214.433C317.059 214.202 316.678 214.213 316.447 214.433C316.216 214.664 316.226 215.046 316.447 215.276L324.737 223.396V248.488C324.737 248.819 324.998 249.08 325.33 249.08C325.661 249.08 325.922 248.819 325.922 248.488V229.368L340.084 215.497C340.314 215.266 340.325 214.895 340.084 214.654L340.124 214.664Z" fill="#996C22"/>
<path d="M212.747 309.713C276.914 309.713 328.933 300.065 328.933 288.164C328.933 276.263 276.914 266.615 212.747 266.615C148.579 266.615 96.5605 276.263 96.5605 288.164C96.5605 300.065 148.579 309.713 212.747 309.713Z" fill="#C9D3E9"/>
<path d="M253.657 254.54C253.657 254.54 289.488 235.079 307.956 244.202C326.423 253.326 301.582 268.712 301.582 268.712C301.582 268.712 243.208 295.641 235.189 295.972C235.189 295.972 190.987 296.926 187.163 296.735C183.339 296.544 107.109 262.369 109.679 255.092C112.248 247.816 131.298 244.905 169.94 256.819C208.581 268.732 253.667 254.52 253.667 254.52L253.657 254.54Z" fill="#2B2B2B"/>
<path d="M192.462 282.573C192.462 282.573 208.963 274.694 209.966 283.246C211.793 285.133 213.168 297.558 209.234 297.779C205.299 298 190.605 297.95 188.979 297.779C187.354 297.608 186.169 287.682 186.169 287.682L192.452 282.573H192.462Z" fill="#202020"/>
<path d="M233.824 280.325C233.824 280.325 220.134 276.31 216.681 281.58C215.226 283.577 211.783 297.508 214.794 297.94C220.796 298.813 238.33 297.307 239.394 296.785C240.458 296.263 240.147 288.706 240.207 288.515C240.267 288.324 233.834 280.325 233.834 280.325H233.824Z" fill="#202020"/>
<path d="M170.582 259.458C169.899 259.197 170.07 256.759 170.933 256.166C171.796 255.574 171.947 255.343 171.676 254.641C171.405 253.938 168.856 253.155 168.815 252.172C168.775 251.188 170.421 249.472 170.301 248.609C170.18 247.745 168.735 245.598 168.805 243.992C168.876 242.386 173.463 231.586 172.991 226.718C172.519 221.851 169.558 175.27 177.196 171.084C184.824 166.899 202.258 161.73 218.277 161.58C234.286 161.429 249.552 176.394 251.719 177.147C253.887 177.899 259.538 180.649 262.8 183.761C266.062 186.872 264.055 206.324 264.055 206.324C264.055 206.324 258.033 226.989 256.949 231.636C255.865 236.283 255.052 245.828 253.647 246.451C252.241 247.073 250.385 248.609 250.344 249.974C250.304 251.339 254.259 253.276 254.57 254.33C254.881 255.383 237.156 265.571 226.828 267.518C216.5 269.455 206.664 269.616 196.638 267.96C186.611 266.304 174.366 260.914 170.572 259.458H170.582Z" fill="#996C22"/>
<path d="M229.859 276.832C229.207 278.047 229.016 280.335 229.859 282.252C230.702 284.169 236.584 297.99 236.855 299.867C237.126 301.743 248.618 296.976 253.586 295.36C258.554 293.744 320.642 274.022 314.791 252.543C308.939 231.064 276.49 253.025 272.245 255.695C267.999 258.364 244.734 271.764 239.324 273.701C233.914 275.638 229.859 276.832 229.859 276.832Z" fill="#252525"/>
<path d="M194.941 277.826C195.263 277.896 193.737 283.206 193.406 285.243C193.074 287.28 189.983 300.399 188.317 300.077C186.651 299.756 156.089 290.653 148.34 288.545C140.592 286.437 99.9229 275.527 106.517 251.419C113.121 227.301 153.981 258.214 155.898 259.458C157.815 260.703 177.287 273.952 194.931 277.826H194.941Z" fill="#252525"/>
<path d="M209.966 283.246C209.966 283.246 208.862 279.632 206.965 279.954C205.068 280.275 202.529 290.532 211.783 297.508C212.737 298.331 211.02 300.077 207.728 300.318C205.701 300.459 203.804 297.658 202.8 296.193C200.552 292.921 198.324 288.665 198.565 284.581C198.735 281.62 200.612 278.86 203.362 277.715C204.958 277.053 206.664 277.364 207.989 278.458C209.414 279.632 209.956 281.469 209.966 283.256V283.246Z" fill="#1D1D1D"/>
<path d="M216.259 282.945C217.032 281.971 217.634 280.365 218.929 279.974C220.826 279.392 221.509 282.101 221.629 283.446C221.86 286.116 221.338 288.836 220.204 291.265C218.999 293.844 217.153 295.661 215.045 297.498C214.091 298.321 215.808 300.067 219.1 300.308C221.127 300.449 223.024 297.648 224.028 296.183C226.276 292.911 228.504 288.655 228.263 284.57C228.123 282.182 226.848 279.893 224.901 278.498C224.078 277.906 223.125 277.464 222.111 277.394C220.615 277.294 219.19 278.047 218.156 279.07C217.644 279.572 217.203 280.164 216.862 280.797C216.671 281.138 216.51 281.499 216.41 281.881C216.35 282.091 216.39 282.824 216.29 282.955L216.259 282.945Z" fill="#1D1D1D"/>
<path d="M128.187 269.094L135.855 272.326L137.019 276.662L137.32 279.723C137.21 282.101 137.37 292.198 138.434 293.865C139.498 295.531 139.749 297.347 138.735 297.849C137.721 298.351 133.536 294.467 133.586 289.729L134.178 285.815L131.067 275.447L128.187 269.094Z" fill="#FEC3B0"/>
<path d="M263.402 184.604C262.439 184.484 253.727 190.987 252.713 198.103C251.7 205.22 254.229 224.691 257.671 228.886C261.114 233.082 260.02 231.877 264.687 237.207C269.354 242.536 279.522 244.985 282.081 244.965C284.159 244.945 285.032 244.985 292.69 243.771C299.776 242.647 298.541 218.809 296.413 215.327C294.286 211.844 274.593 199.137 274.593 199.137C274.593 199.137 271.562 196.618 270.81 194.48C270.057 192.342 266.423 184.985 263.402 184.594V184.604Z" fill="url(#paint0_linear_1936_2917)"/>
<path d="M227.842 142.69C227.842 142.69 227.37 137.853 225.423 138.555C223.476 139.258 216.842 147.929 222.031 155.698C227.22 163.466 227.842 156.13 227.842 156.13V142.7V142.69Z" fill="#F4AD9A"/>
<path d="M242.385 177.347C240.127 179.796 230.462 190.837 225.373 190.465C220.284 190.084 211.502 184.694 212.947 176.033C214.393 167.371 220.605 157.394 221.167 157.013C221.729 156.631 233.473 157.705 233.473 157.705L243.449 162.794L244.453 175.28L242.385 177.347Z" fill="#F4AD9A"/>
<path d="M224.138 181.322C220.575 179.495 218.437 175.42 217.715 171.586C216.741 166.457 218.357 161.309 221.167 157.013C227.34 143.594 229.147 141.958 229.147 141.958L235.42 134.36H244.152L256.708 143.463L262.92 153.57L261.857 157.464L253.074 168.947C253.074 168.947 246.55 173.212 244.473 175.29C241.934 177.829 239.675 180.378 236.243 181.753C232.81 183.129 228.836 183.038 225.333 181.834C224.931 181.693 224.54 181.523 224.168 181.332L224.138 181.322Z" fill="url(#paint1_linear_1936_2917)"/>
<path d="M222.031 155.688C222.031 155.688 222.101 153.65 222.924 151.774C223.747 149.897 228.163 140.753 228.625 139.358C229.086 137.963 231.525 125.276 243.67 124.283C255.814 123.289 266.795 132.393 268.832 138.485C270.87 144.577 272.044 158.548 261.937 164.4C251.83 170.251 250.214 171.988 248.708 172.801C247.203 173.614 254.309 162.142 256.246 160.516C258.183 158.89 260.532 156.772 260.572 155.457C260.612 154.142 252.302 153.821 248.508 151.191C244.714 148.562 240.85 143.483 239.926 136.779C239.796 135.815 238.28 135.544 237.417 136.297C236.102 137.441 235.661 139.8 234.787 140.803C233.593 142.178 228.605 144.768 227.199 146.695C225.794 148.622 222.041 155.688 222.041 155.688H222.031Z" fill="#030508"/>
<path d="M279.863 189.873C278.698 189.452 275.647 187.525 274.061 184.142C272.476 180.76 269.986 173.624 267.086 170.181C264.185 166.738 256.517 159.723 253.426 160.506C252.693 160.696 254.289 162.222 255.463 162.764C256.638 163.306 259.026 166.357 258.514 167.27C258.003 168.184 252.994 170.261 252.994 173.212C252.994 177.127 257.169 175.962 259.679 177.478C262.84 179.395 268.862 185.246 270.789 192.362C272.716 199.478 274.553 194.42 274.553 194.42L281.719 193.607L279.853 189.873H279.863Z" fill="#FEC3B0"/>
<path d="M281.137 189.743C282.282 189.944 283.315 192.222 283.496 193.928C283.677 195.634 288.324 204.587 292.158 209.184C295.992 213.781 298.401 215.618 298.401 228.726C298.401 230.191 300.82 242.536 295.811 243.219C290.803 243.901 282.011 247.354 278.558 236.053C275.105 224.751 273.028 218.458 272.476 214.785C271.924 211.111 267.778 198.776 267.427 197.019C267.076 195.263 267.678 192.593 271.341 192.292C273.841 192.081 273.269 192.443 276.259 191.72C277.173 191.499 279.441 189.442 281.137 189.743Z" fill="#C8A443"/>
<path d="M132.091 291.034L141.566 289.559L141.766 291.245L132.292 292.72L132.091 291.034Z" fill="url(#paint2_linear_1936_2917)"/>
<path d="M117.939 292.008C118.26 291.606 118.732 291.325 119.284 291.265L131.198 289.86C132.312 289.729 133.325 290.522 133.456 291.646C133.586 292.761 132.793 293.774 131.669 293.905L119.756 295.31C118.642 295.44 117.628 294.647 117.497 293.523C117.427 292.961 117.598 292.419 117.929 292.008H117.939Z" fill="#1A2E35"/>
<path d="M164.55 277.595C158.357 272.617 149.304 273.59 144.326 279.783C139.347 285.976 140.321 295.029 146.514 300.007C152.706 304.985 161.76 304.012 166.738 297.819C171.716 291.626 170.743 282.573 164.55 277.595ZM165.172 296.554C163.626 298.482 161.619 299.816 159.441 300.539C155.587 301.824 151.181 301.171 147.778 298.441C142.459 294.156 141.616 286.377 145.891 281.048C148.802 277.434 153.329 275.879 157.604 276.611C159.622 276.953 161.579 277.796 163.285 279.171C168.605 283.456 169.448 291.235 165.172 296.564V296.554Z" fill="#1A2E35"/>
<path opacity="0.8" d="M147.778 298.431C142.459 294.146 141.616 286.367 145.891 281.038C148.802 277.424 153.329 275.869 157.604 276.601C159.622 276.943 161.579 277.786 163.285 279.161C168.605 283.446 169.448 291.225 165.172 296.554C163.626 298.481 161.619 299.816 159.441 300.539C155.587 301.824 151.181 301.171 147.778 298.441V298.431Z" fill="#E8E8EA"/>
<g style="mix-blend-mode:screen" opacity="0.5">
<path d="M155.838 293.423C155.185 286.849 153.65 281.57 154.643 279.532C155.205 278.368 156.4 277.274 157.614 276.611C159.632 276.953 161.589 277.796 163.295 279.171C168.615 283.456 169.458 291.235 165.182 296.564C163.636 298.492 161.629 299.826 159.451 300.549C158.006 299.736 156.299 297.99 155.848 293.433L155.838 293.423Z" fill="#B2B2B2"/>
</g>
<g style="mix-blend-mode:overlay">
<path d="M160.194 279.131C160.294 279.01 160.465 278.97 160.615 279.04C161.258 279.371 161.86 279.773 162.432 280.225C162.583 280.345 162.603 280.556 162.482 280.706C162.362 280.857 162.151 280.877 162 280.757C161.468 280.325 160.896 279.954 160.294 279.642C160.124 279.552 160.063 279.351 160.154 279.181C160.164 279.161 160.174 279.141 160.194 279.121V279.131Z" fill="#B8FCFF"/>
<path d="M163.145 281.399C163.145 281.399 163.165 281.369 163.185 281.359C163.325 281.228 163.536 281.238 163.667 281.379C167.3 285.343 167.491 291.496 164.108 295.691C163.656 296.253 163.145 296.775 162.603 297.237C162.462 297.357 162.241 297.337 162.121 297.197C162 297.056 162.02 296.835 162.161 296.715C162.673 296.283 163.155 295.792 163.576 295.27C166.748 291.335 166.567 285.564 163.165 281.841C163.054 281.72 163.044 281.529 163.155 281.399H163.145Z" fill="#B8FCFF"/>
</g>
<path d="M133.576 289.729C133.576 287.16 131.308 289.478 131.107 291.646C130.906 293.814 131.208 298.461 132.322 300.629C133.436 302.797 136.206 305.979 133.636 308.047C131.95 309.402 129.391 307.485 128.086 306.441C126.48 305.146 124.945 303.881 123.73 302.185C121.111 298.542 120.498 294.597 120.679 290.231C120.86 285.865 121.221 281.329 123.389 277.314C126.982 270.659 128.197 269.094 128.197 269.094L135.865 272.326L137.029 276.662L137.33 279.723L133.596 289.719L133.576 289.729Z" fill="#FEC3B0"/>
<path d="M175.992 172.219C174.346 173.674 172.198 177.799 170.612 179.776C169.026 181.753 164.279 189.381 162.984 192.603C161.689 195.825 152.184 217.334 149.113 222.714C146.042 228.093 128.789 249.422 126.049 255.514C123.309 261.606 123.369 275.618 123.389 277.304C123.389 277.304 133.054 275.608 137.32 279.723C137.32 279.723 148.461 262.439 150.408 259.699C152.355 256.959 163.897 241.964 164.349 241.121C164.801 240.278 176.373 221.479 177.287 217.294C178.2 213.108 182.164 178.421 175.992 172.219Z" fill="#C8A443"/>
<path d="M99.5215 91.4424H215.467C216.671 91.4424 217.825 91.9241 218.678 92.7672C219.532 93.6103 220.003 94.7645 220.003 95.969V131.871C220.003 133.075 219.522 134.219 218.678 135.072C217.825 135.915 216.671 136.397 215.467 136.397H206.825C206.132 140.141 205.309 144.878 205.309 144.878L197.491 136.397H99.5215C98.3171 136.397 97.1628 135.915 96.3097 135.072C95.4566 134.219 94.9849 133.075 94.9849 131.871V95.969C94.9849 94.7645 95.4666 93.6203 96.3097 92.7672C97.1628 91.9141 98.3171 91.4424 99.5215 91.4424Z" fill="#C8A443"/>
<path d="M123.088 109.338H120.749L116.193 101.871V109.338H113.854V97.9864H116.193L120.749 105.474V97.9864H123.078V109.338H123.088Z" fill="white"/>
<path d="M125.828 105.042C125.828 104.209 125.988 103.456 126.31 102.804C126.631 102.152 127.093 101.64 127.705 101.288C128.317 100.937 129.01 100.746 129.812 100.746C130.947 100.746 131.88 101.098 132.603 101.79C133.325 102.483 133.727 103.436 133.807 104.631V105.203C133.817 106.498 133.456 107.531 132.743 108.314C132.021 109.097 131.047 109.489 129.833 109.489C128.618 109.489 127.645 109.097 126.922 108.314C126.199 107.531 125.838 106.478 125.838 105.133V105.032L125.828 105.042ZM128.076 105.203C128.076 106.006 128.227 106.618 128.528 107.04C128.829 107.461 129.26 107.672 129.823 107.672C130.385 107.672 130.796 107.461 131.097 107.04C131.408 106.618 131.559 105.946 131.559 105.032C131.559 104.119 131.408 103.637 131.097 103.206C130.796 102.774 130.365 102.553 129.802 102.553C129.24 102.553 128.829 102.764 128.528 103.195C128.227 103.627 128.076 104.289 128.076 105.193V105.203Z" fill="white"/>
<path d="M145.932 105.183H144.065V109.338H141.726V97.9864H145.942C147.287 97.9864 148.32 98.2875 149.043 98.8796C149.766 99.4818 150.137 100.325 150.137 101.409C150.137 102.182 149.967 102.834 149.635 103.346C149.304 103.868 148.792 104.279 148.11 104.581L150.569 109.218V109.328H148.06L145.932 105.173V105.183ZM144.065 103.286H145.952C146.544 103.286 146.996 103.135 147.317 102.834C147.638 102.533 147.799 102.122 147.799 101.6C147.799 101.078 147.648 100.646 147.347 100.335C147.046 100.024 146.574 99.8733 145.942 99.8733H144.065V103.276V103.286Z" fill="white"/>
<path d="M156.852 109.499C155.617 109.499 154.603 109.117 153.831 108.364C153.058 107.602 152.666 106.598 152.666 105.333V105.112C152.666 104.269 152.827 103.507 153.158 102.844C153.489 102.172 153.951 101.66 154.553 101.298C155.155 100.937 155.838 100.757 156.611 100.757C157.765 100.757 158.668 101.118 159.331 101.851C159.993 102.583 160.324 103.607 160.324 104.942V105.865H154.955C155.025 106.417 155.246 106.859 155.617 107.19C155.988 107.521 156.45 107.692 157.012 107.692C157.885 107.692 158.558 107.381 159.05 106.748L160.154 107.993C159.812 108.475 159.361 108.846 158.779 109.107C158.207 109.378 157.564 109.509 156.862 109.509L156.852 109.499ZM156.591 102.563C156.139 102.563 155.778 102.714 155.507 103.015C155.226 103.316 155.055 103.747 154.975 104.32H158.106V104.139C158.096 103.637 157.966 103.246 157.705 102.975C157.444 102.704 157.072 102.563 156.601 102.563H156.591Z" fill="white"/>
<path d="M167.37 107.009C167.37 106.738 167.23 106.518 166.959 106.357C166.688 106.196 166.246 106.056 165.644 105.936C163.637 105.514 162.633 104.661 162.633 103.376C162.633 102.623 162.944 102.001 163.566 101.499C164.189 100.997 165.002 100.746 166.005 100.746C167.079 100.746 167.932 100.997 168.575 101.499C169.217 102.001 169.538 102.664 169.538 103.466H167.29C167.29 103.145 167.19 102.874 166.979 102.664C166.768 102.453 166.447 102.352 166.005 102.352C165.624 102.352 165.333 102.443 165.122 102.613C164.911 102.784 164.811 103.005 164.811 103.266C164.811 103.527 164.931 103.717 165.162 103.868C165.403 104.018 165.794 104.149 166.356 104.269C166.919 104.38 167.39 104.51 167.772 104.651C168.966 105.092 169.558 105.845 169.558 106.919C169.558 107.692 169.227 108.314 168.565 108.786C167.902 109.258 167.049 109.499 166.005 109.499C165.303 109.499 164.67 109.368 164.118 109.117C163.566 108.866 163.145 108.515 162.824 108.083C162.512 107.642 162.352 107.17 162.352 106.658H164.49C164.51 107.06 164.66 107.361 164.931 107.582C165.202 107.792 165.574 107.903 166.035 107.903C166.467 107.903 166.788 107.822 167.009 107.662C167.23 107.501 167.34 107.28 167.34 107.019L167.37 107.009Z" fill="white"/>
<path d="M177.256 108.485C176.704 109.157 175.932 109.499 174.948 109.499C174.045 109.499 173.352 109.238 172.88 108.716C172.409 108.194 172.158 107.431 172.148 106.427V100.897H174.406V106.357C174.406 107.24 174.807 107.672 175.61 107.672C176.413 107.672 176.895 107.411 177.186 106.879V100.897H179.444V109.338H177.327L177.266 108.485H177.256Z" fill="white"/>
<path d="M184.714 109.338H182.456V97.3641H184.714V109.338Z" fill="white"/>
<path d="M190.465 98.8294V100.907H191.91V102.563H190.465V106.769C190.465 107.08 190.525 107.3 190.646 107.441C190.766 107.571 190.997 107.642 191.328 107.642C191.579 107.642 191.8 107.622 191.991 107.592V109.298C191.549 109.428 191.097 109.499 190.626 109.499C189.05 109.499 188.237 108.706 188.207 107.11V102.563H186.972V100.907H188.207V98.8294H190.465Z" fill="white"/>
<path d="M198.936 107.009C198.936 106.738 198.795 106.518 198.524 106.357C198.253 106.196 197.812 106.056 197.21 105.936C195.202 105.514 194.199 104.661 194.199 103.376C194.199 102.091 194.51 102.001 195.132 101.499C195.754 100.997 196.567 100.746 197.571 100.746C198.645 100.746 199.498 100.997 200.14 101.499C200.783 102.001 201.104 102.664 201.104 103.466H198.856C198.856 103.145 198.755 102.874 198.544 102.664C198.334 102.453 198.012 102.352 197.571 102.352C197.189 102.352 196.898 102.443 196.688 102.613C196.477 102.784 196.376 103.005 196.376 103.266C196.376 103.527 196.497 103.717 196.728 103.868C196.969 104.018 197.36 104.149 197.922 104.269C198.484 104.38 198.956 104.51 199.337 104.651C200.532 105.092 201.124 105.845 201.124 106.919C201.124 107.692 200.793 108.314 200.13 108.786C199.468 109.258 198.615 109.499 197.571 109.499C196.868 109.499 196.236 109.368 195.684 109.117C195.132 108.866 194.71 108.515 194.389 108.083C194.078 107.642 193.917 107.17 193.917 106.658H196.055C196.075 107.06 196.226 107.361 196.497 107.582C196.768 107.792 197.139 107.903 197.601 107.903C198.033 107.903 198.354 107.822 198.575 107.662C198.795 107.501 198.906 107.28 198.906 107.019L198.936 107.009Z" fill="white"/>
<path d="M140.482 123.861H135.995V128.498H133.656V117.147H141.044V119.044H135.995V121.974H140.482V123.861Z" fill="white"/>
<path d="M142.931 124.202C142.931 123.369 143.091 122.617 143.412 121.964C143.734 121.312 144.195 120.8 144.808 120.449C145.41 120.087 146.112 119.907 146.915 119.907C148.049 119.907 148.983 120.258 149.706 120.951C150.428 121.643 150.83 122.597 150.91 123.791V124.363C150.92 125.658 150.559 126.692 149.846 127.474C149.123 128.257 148.15 128.649 146.935 128.649C145.721 128.649 144.747 128.257 144.025 127.474C143.302 126.692 142.941 125.638 142.941 124.293V124.192L142.931 124.202ZM145.179 124.363C145.179 125.166 145.329 125.778 145.631 126.2C145.932 126.621 146.363 126.832 146.925 126.832C147.487 126.832 147.899 126.621 148.2 126.2C148.511 125.778 148.662 125.106 148.662 124.192C148.662 123.41 148.511 122.797 148.2 122.366C147.889 121.934 147.457 121.713 146.905 121.713C146.353 121.713 145.932 121.924 145.631 122.356C145.329 122.787 145.179 123.45 145.179 124.353V124.363Z" fill="white"/>
<path d="M158.568 127.645C158.016 128.318 157.243 128.659 156.259 128.659C155.356 128.659 154.664 128.398 154.192 127.876C153.72 127.354 153.469 126.591 153.459 125.588V120.057H155.718V125.517C155.718 126.401 156.119 126.832 156.922 126.832C157.725 126.832 158.207 126.571 158.498 126.039V120.057H160.756V128.498H158.638L158.578 127.645H158.568Z" fill="white"/>
<path d="M165.714 120.067L165.784 121.041C166.387 120.288 167.2 119.907 168.213 119.907C169.107 119.907 169.769 120.168 170.211 120.69C170.652 121.212 170.873 122.004 170.883 123.048V128.498H168.635V123.098C168.635 122.617 168.534 122.275 168.324 122.055C168.113 121.834 167.772 121.733 167.29 121.733C166.658 121.733 166.176 122.004 165.865 122.546V128.498H163.616V120.057H165.734L165.714 120.067Z" fill="white"/>
<path d="M173.432 124.223C173.432 122.908 173.723 121.864 174.316 121.081C174.908 120.298 175.711 119.907 176.735 119.907C177.558 119.907 178.23 120.218 178.772 120.83V116.524H181.03V128.498H178.993L178.882 127.605C178.32 128.308 177.598 128.659 176.714 128.659C175.721 128.659 174.928 128.267 174.326 127.485C173.723 126.702 173.422 125.618 173.422 124.223H173.432ZM175.681 124.393C175.681 125.186 175.821 125.788 176.092 126.21C176.363 126.631 176.765 126.842 177.297 126.842C177.989 126.842 178.481 126.551 178.772 125.959V122.627C178.491 122.035 178.009 121.743 177.317 121.743C176.233 121.743 175.691 122.627 175.691 124.393H175.681Z" fill="white"/>
<defs>
<linearGradient id="paint0_linear_1936_2917" x1="256.186" y1="211.372" x2="346.648" y2="230.633" gradientUnits="userSpaceOnUse">
<stop stop-color="#C8A443"/>
<stop offset="1" stop-color="#996C22"/>
</linearGradient>
<linearGradient id="paint1_linear_1936_2917" x1="224.971" y1="153.108" x2="251.067" y2="166.558" gradientUnits="userSpaceOnUse">
<stop stop-color="#FEC3B0"/>
<stop offset="1" stop-color="#F4AD9A"/>
</linearGradient>
<linearGradient id="paint2_linear_1936_2917" x1="132.216" y1="291.762" x2="142.631" y2="290.442" gradientUnits="userSpaceOnUse">
<stop stop-color="#86A1B3"/>
<stop offset="0.18" stop-color="#839EAF"/>
<stop offset="0.33" stop-color="#7B94A5"/>
<stop offset="0.47" stop-color="#6E8594"/>
<stop offset="0.61" stop-color="#5C6F7B"/>
<stop offset="0.73" stop-color="#45535C"/>
<stop offset="0.86" stop-color="#283036"/>
<stop offset="0.98" stop-color="#070809"/>
<stop offset="1"/>
</linearGradient>
</defs>
</svg>
