<svg width="87" height="40" viewBox="0 0 87 40" fill="none" xmlns="http://www.w3.org/2000/svg">
<path d="M19.6657 8.77352C19.6657 9.20136 19.5625 9.60246 19.3562 9.97682C19.1576 10.3512 18.8405 10.653 18.4051 10.8822C17.9772 11.1114 17.4348 11.226 16.7777 11.226H15.4369V14.2972H13.8325V6.29816H16.7777C17.3966 6.29816 17.9237 6.40512 18.3592 6.61904C18.7947 6.83296 19.1194 7.1271 19.3333 7.50146C19.5549 7.87582 19.6657 8.29984 19.6657 8.77352ZM16.709 9.93098C17.1521 9.93098 17.4806 9.83166 17.6945 9.63302C17.9085 9.42674 18.0154 9.14024 18.0154 8.77352C18.0154 7.99424 17.5799 7.6046 16.709 7.6046H15.4369V9.93098H16.709ZM23.6239 14.4004C23.0127 14.4004 22.4627 14.2667 21.9737 13.9993C21.4847 13.7242 21.0989 13.3384 20.8162 12.8418C20.5412 12.3452 20.4037 11.7722 20.4037 11.1228C20.4037 10.4734 20.545 9.90042 20.8277 9.40382C21.118 8.90722 21.5115 8.52522 22.0081 8.25782C22.5047 7.98278 23.0586 7.84526 23.6698 7.84526C24.281 7.84526 24.8349 7.98278 25.3315 8.25782C25.8281 8.52522 26.2177 8.90722 26.5004 9.40382C26.7907 9.90042 26.9359 10.4734 26.9359 11.1228C26.9359 11.7722 26.7869 12.3452 26.4889 12.8418C26.1986 13.3384 25.8013 13.7242 25.2971 13.9993C24.8005 14.2667 24.2428 14.4004 23.6239 14.4004ZM23.6239 13.0023C23.9143 13.0023 24.1855 12.9335 24.4376 12.796C24.6974 12.6508 24.9036 12.4369 25.0564 12.1542C25.2092 11.8715 25.2856 11.5277 25.2856 11.1228C25.2856 10.5193 25.1252 10.057 24.8043 9.73616C24.4911 9.40764 24.1053 9.24338 23.6469 9.24338C23.1885 9.24338 22.8026 9.40764 22.4894 9.73616C22.1838 10.057 22.031 10.5193 22.031 11.1228C22.031 11.7264 22.18 12.1924 22.4779 12.5209C22.7835 12.8418 23.1655 13.0023 23.6239 13.0023ZM36.914 7.9484L35.0575 14.2972H33.3271L32.1696 9.86222L31.0121 14.2972H29.2702L27.4022 7.9484H29.0296L30.1526 12.7845L31.3674 7.9484H33.0635L34.2553 12.7731L35.3784 7.9484H36.914ZM43.684 10.9853C43.684 11.2145 43.6688 11.4208 43.6382 11.6041H38.9969C39.0351 12.0625 39.1955 12.4216 39.4782 12.6814C39.7609 12.9411 40.1085 13.071 40.5211 13.071C41.117 13.071 41.541 12.8151 41.7931 12.3032H43.5236C43.3402 12.9144 42.9888 13.4186 42.4693 13.8159C41.9498 14.2056 41.3118 14.4004 40.5555 14.4004C39.9443 14.4004 39.3942 14.2667 38.9052 13.9993C38.4239 13.7242 38.0457 13.3384 37.7707 12.8418C37.5033 12.3452 37.3696 11.7722 37.3696 11.1228C37.3696 10.4658 37.5033 9.88896 37.7707 9.39236C38.0381 8.89576 38.4124 8.51376 38.8938 8.24636C39.3751 7.97896 39.929 7.84526 40.5555 7.84526C41.159 7.84526 41.6976 7.97514 42.1713 8.2349C42.6526 8.49466 43.0232 8.8652 43.2829 9.34652C43.5503 9.8202 43.684 10.3665 43.684 10.9853ZM42.0223 10.5269C42.0147 10.1143 41.8657 9.78582 41.5754 9.54134C41.2851 9.28922 40.9298 9.16316 40.5096 9.16316C40.1123 9.16316 39.7762 9.2854 39.5011 9.52988C39.2337 9.76672 39.0695 10.0991 39.0084 10.5269H42.0223ZM46.4595 8.93396C46.6658 8.5978 46.9332 8.33422 47.2617 8.14322C47.5979 7.95222 47.9799 7.85672 48.4077 7.85672V9.54134H47.9837C47.4794 9.54134 47.0974 9.65976 46.8377 9.8966C46.5856 10.1334 46.4595 10.546 46.4595 11.1343V14.2972H44.8551V7.9484H46.4595V8.93396ZM49.0758 11.0999C49.0758 10.4581 49.2018 9.88896 49.454 9.39236C49.7137 8.89576 50.0652 8.51376 50.5083 8.24636C50.9514 7.97896 51.4442 7.84526 51.9866 7.84526C52.3992 7.84526 52.7926 7.93694 53.167 8.1203C53.5414 8.29602 53.8393 8.53286 54.0609 8.83082V5.81684H55.6882V14.2972H54.0609V13.3575C53.8622 13.6708 53.5834 13.9229 53.2243 14.1139C52.8652 14.3049 52.4488 14.4004 51.9752 14.4004C51.4404 14.4004 50.9514 14.2629 50.5083 13.9878C50.0652 13.7128 49.7137 13.327 49.454 12.8304C49.2018 12.3261 49.0758 11.7493 49.0758 11.0999ZM54.0723 11.1228C54.0723 10.7332 53.9959 10.4008 53.8431 10.1258C53.6903 9.84312 53.4841 9.6292 53.2243 9.48404C52.9645 9.33124 52.6857 9.25484 52.3877 9.25484C52.0898 9.25484 51.8147 9.32742 51.5626 9.47258C51.3105 9.61774 51.1042 9.83166 50.9438 10.1143C50.791 10.3894 50.7146 10.7179 50.7146 11.0999C50.7146 11.4819 50.791 11.8181 50.9438 12.1084C51.1042 12.3911 51.3105 12.6088 51.5626 12.7616C51.8224 12.9144 52.0974 12.9908 52.3877 12.9908C52.6857 12.9908 52.9645 12.9182 53.2243 12.7731C53.4841 12.6203 53.6903 12.4063 53.8431 12.1313C53.9959 11.8486 54.0723 11.5125 54.0723 11.1228ZM64.524 10.1946C64.9748 10.2786 65.3453 10.504 65.6357 10.8707C65.926 11.2374 66.0711 11.6576 66.0711 12.1313C66.0711 12.5591 65.9642 12.9373 65.7503 13.2658C65.544 13.5867 65.2422 13.8388 64.8449 14.0222C64.4476 14.2056 63.9778 14.2972 63.4353 14.2972H59.9859V6.29816H63.2864C63.8288 6.29816 64.2948 6.38602 64.6845 6.56174C65.0818 6.73746 65.3797 6.98194 65.5784 7.29518C65.7846 7.60842 65.8878 7.96368 65.8878 8.36096C65.8878 8.827 65.7617 9.21664 65.5096 9.52988C65.2651 9.84312 64.9366 10.0647 64.524 10.1946ZM61.5903 9.59864H63.0572C63.4392 9.59864 63.7333 9.5146 63.9396 9.34652C64.1459 9.1708 64.249 8.9225 64.249 8.60162C64.249 8.28074 64.1459 8.03244 63.9396 7.85672C63.7333 7.681 63.4392 7.59314 63.0572 7.59314H61.5903V9.59864ZM63.2061 12.9908C63.5958 12.9908 63.8976 12.8991 64.1115 12.7158C64.333 12.5324 64.4438 12.2726 64.4438 11.9365C64.4438 11.5927 64.3292 11.3253 64.1 11.1343C63.8708 10.9356 63.5614 10.8363 63.1718 10.8363H61.5903V12.9908H63.2061ZM73.4236 7.9484L69.4929 17.2998H67.7853L69.1605 14.1368L66.6164 7.9484H68.4156L70.0544 12.3834L71.7161 7.9484H73.4236Z" fill="black"/>
<path d="M0.677887 29.9333H0.764085C1.74673 29.9333 2.2122 29.3299 2.2122 28.4507C2.2122 27.7611 2.17772 27.0888 2.126 26.4337C2.09152 25.7614 2.0398 25.0718 2.0398 24.3305C2.05704 22.2962 2.74662 21.5032 4.52228 21.5032H4.91879C5.02222 21.5032 5.09118 21.5722 5.09118 21.6756V22.4342C5.09118 22.5376 5.02222 22.6066 4.91879 22.6066H4.59124C3.72927 22.6066 3.33276 22.8824 3.33276 24.3995C3.33276 25.0201 3.36724 25.589 3.38448 26.1924C3.41896 26.8302 3.45343 27.4853 3.45343 28.2266C3.45343 29.0369 3.35 29.8816 2.6949 30.3298C3.35 30.7953 3.45343 31.6745 3.45343 32.433C3.45343 33.1743 3.41896 33.8294 3.38448 34.4673C3.35 35.0707 3.33276 35.6396 3.33276 36.2602C3.33276 37.7773 3.7465 38.0531 4.59124 38.0531H4.91879C5.02222 38.0531 5.09118 38.122 5.09118 38.2255V38.984C5.09118 39.0874 5.02222 39.1564 4.91879 39.1564H4.52228C2.74662 39.1564 2.05704 38.3634 2.05704 36.3464C2.05704 35.6051 2.09152 34.8983 2.14324 34.2259C2.17772 33.5708 2.22944 32.933 2.22944 32.2606C2.22944 31.3297 1.78121 30.7436 0.781324 30.7436H0.677887C0.574451 30.7436 0.505493 30.6746 0.505493 30.5712V30.1057C0.505493 30.0023 0.59169 29.9333 0.677887 29.9333Z" fill="#1E1E1C"/>
<path d="M85.9958 29.9333H85.9096C84.9269 29.9333 84.4615 29.3299 84.4615 28.4507C84.4615 27.7611 84.496 27.0888 84.5477 26.4337C84.5822 25.7614 84.6339 25.0718 84.6339 24.3305C84.6339 22.3135 83.9443 21.5205 82.1686 21.5205H81.7721C81.6687 21.5205 81.5997 21.5894 81.5997 21.6929V22.4514C81.5997 22.5548 81.6687 22.6238 81.7721 22.6238H82.0997C82.9616 22.6238 83.3581 22.8996 83.3581 24.4167C83.3581 25.0373 83.3237 25.6062 83.3064 26.2096C83.272 26.8475 83.2375 27.5026 83.2375 28.2439C83.2375 29.0541 83.3409 29.8988 83.996 30.3471C83.3409 30.8125 83.2375 31.6917 83.2375 32.4503C83.2375 33.1916 83.272 33.8467 83.3064 34.4845C83.3409 35.0879 83.3581 35.6568 83.3581 36.2774C83.3581 37.7945 82.9444 38.0703 82.0997 38.0703H81.7721C81.6687 38.0703 81.5997 38.1393 81.5997 38.2427V39.0013C81.5997 39.1047 81.6687 39.1736 81.7721 39.1736H82.1686C83.9443 39.1736 84.6339 38.3806 84.6339 36.3636C84.6339 35.6223 84.5994 34.9155 84.5477 34.2432C84.5132 33.5881 84.4615 32.9502 84.4615 32.2779C84.4615 31.3469 84.9097 30.7608 85.9096 30.7608H85.9958C86.0992 30.7608 86.1682 30.6919 86.1682 30.5884V30.123C86.1682 30.0023 86.0992 29.9333 85.9958 29.9333Z" fill="#1E1E1C"/>
<path d="M15.6244 28.2266C15.6244 29.3472 15.09 30.1919 14.0039 30.7263C14.7452 30.9332 15.2969 31.3125 15.6589 31.8469C16.0209 32.3813 16.2106 33.0192 16.2106 33.7605C16.2106 34.2949 16.1071 34.7776 15.9175 35.2086C15.7106 35.6396 15.4348 36.0016 15.0728 36.2947C14.7107 36.5877 14.2625 36.8119 13.7453 36.9843C13.2281 37.1394 12.642 37.2256 12.0214 37.2256H6.19446V25.2787H11.8317C14.3659 25.2787 15.6244 26.2613 15.6244 28.2266ZM13.0902 28.6921C13.0902 27.7784 12.5041 27.3129 11.3146 27.3129H8.83209V30.1057H11.5042C12.5558 30.1057 13.0902 29.6403 13.0902 28.6921ZM13.5729 33.6053C13.5729 32.4675 12.9523 31.8986 11.6938 31.8986H8.83209V35.1741H11.6594C12.9351 35.1741 13.5729 34.6569 13.5729 33.6053Z" fill="#FDCF00"/>
<path d="M19.9687 30.1747H20.0032C20.2445 29.6058 20.6065 29.1575 21.1065 28.83C21.6064 28.5024 22.1581 28.33 22.7615 28.33C22.9339 28.33 23.1063 28.3645 23.2787 28.4162V30.6229C23.0028 30.5712 22.7098 30.5367 22.4339 30.5367C20.8651 30.5367 20.0894 31.4676 20.0894 33.3122V37.2084H17.7103V28.5714H19.9687V30.1747Z" fill="#FDCF00"/>
<path d="M24.3992 36.536C23.8648 36.0706 23.6062 35.4499 23.6062 34.6225C23.6062 34.2259 23.6579 33.8639 23.7786 33.5536C23.8993 33.2433 24.0889 32.9847 24.3647 32.7606C24.6406 32.5365 25.0026 32.3641 25.4681 32.2089C25.9335 32.071 26.4852 31.9676 27.1575 31.8986C27.6402 31.8469 28.0367 31.7952 28.3298 31.7262C28.6401 31.6573 28.847 31.5883 28.9677 31.5021C29.2263 31.347 29.3469 31.1229 29.3469 30.8125C29.3469 30.416 29.2263 30.1402 29.0021 29.9506C28.7608 29.7609 28.3815 29.6747 27.8299 29.6747C27.3299 29.6747 26.9506 29.7782 26.6921 29.9678C26.4335 30.1747 26.2783 30.5022 26.2438 30.9677H23.8648C23.9165 30.0195 24.313 29.2955 25.0371 28.8128C25.7611 28.3301 26.7265 28.0715 27.9505 28.0715C30.4675 28.0887 31.726 28.899 31.726 30.5367V35.1224C31.726 35.9499 31.8294 36.5705 32.019 36.967H29.6055C29.5538 36.8291 29.5193 36.6912 29.5021 36.5533C29.4676 36.4154 29.4504 36.2774 29.4504 36.1223C28.7435 36.8291 27.7781 37.1911 26.5369 37.1911C25.6405 37.2256 24.9336 36.9843 24.3992 36.536ZM26.2266 35.1569C26.399 35.3293 26.6059 35.4499 26.8472 35.5361C27.1058 35.6223 27.3644 35.6568 27.6575 35.6223C27.9505 35.6051 28.2091 35.5189 28.4677 35.3637C28.7263 35.2258 28.9332 35.0017 29.0883 34.7259C29.2607 34.4501 29.3469 34.088 29.3469 33.657V32.7434C29.1401 32.9502 28.6746 33.0881 27.9161 33.1571C27.2437 33.2433 26.761 33.364 26.4507 33.5708C26.1404 33.7605 25.9852 34.088 25.9852 34.519C25.9852 34.7776 26.0714 34.9845 26.2266 35.1569Z" fill="#FDCF00"/>
<path d="M36.0187 37.2256H33.6396V28.5714H36.0187V37.2256ZM36.4669 25.6407C36.4669 26.5372 35.7428 27.2785 34.8292 27.2785C33.9327 27.2785 33.1914 26.5544 33.1914 25.6407C33.1914 24.727 33.9155 24.003 34.8292 24.003C35.7256 24.003 36.4669 24.727 36.4669 25.6407Z" fill="#FDCF00"/>
<path d="M40.1389 29.7782H40.1906C40.7767 28.8128 41.6732 28.3473 42.8454 28.3473C43.9488 28.3473 44.7418 28.6231 45.2417 29.1748C45.7417 29.7264 45.983 30.6229 45.983 31.8297V37.2084H43.604V32.3124C43.604 31.6055 43.5005 31.0711 43.2764 30.7263C43.0523 30.3815 42.6558 30.2091 42.0869 30.2091C41.4318 30.2091 40.9664 30.3988 40.6905 30.778C40.3974 31.1573 40.2595 31.8124 40.2595 32.7089V37.2084H37.8805V28.5714H40.1389V29.7782Z" fill="#FDCF00"/>
<path d="M53.1546 24.7787H55.5854V36.9842H53.1546V33.9329L52.2065 33.0192L49.7757 36.967H46.8278L50.5342 31.3814L47.2243 28.1404H50.1032L53.1546 31.3125V24.7787Z" fill="black"/>
<path d="M58.5678 36.6912C57.8782 36.3464 57.3438 35.812 56.9301 35.0707C56.5163 34.3466 56.3094 33.5191 56.3094 32.5537C56.3094 32.1055 56.3612 31.6745 56.4646 31.2608C56.568 30.847 56.7232 30.4505 56.9301 30.1057C57.1369 29.7437 57.3783 29.4334 57.6541 29.1403C57.9472 28.8472 58.2575 28.6231 58.6023 28.4335C59.2919 28.0715 60.0332 27.8818 60.8262 27.8818C61.6537 27.8818 62.395 28.0715 63.0501 28.4507C63.7052 28.83 64.2223 29.3989 64.5844 30.1402C64.9464 30.8643 65.136 31.709 65.136 32.6916V32.864C65.136 32.933 65.136 33.0192 65.1188 33.1226H58.7402C58.7574 33.8467 58.9471 34.3983 59.2919 34.7776C59.6367 35.1569 60.1711 35.3637 60.8951 35.3637C61.3434 35.3637 61.7399 35.2603 62.1191 35.0362C62.4812 34.8121 62.7225 34.5363 62.8259 34.2259H64.9636C64.3258 36.2257 62.9466 37.2084 60.8262 37.1911C60.0159 37.2256 59.2574 37.0532 58.5678 36.6912ZM62.0674 30.1747C61.7743 29.8816 61.3261 29.7265 60.74 29.7265C60.1538 29.7265 59.6884 29.8988 59.3436 30.2264C58.9988 30.5539 58.8092 31.0194 58.7402 31.6056H62.688C62.5846 30.9505 62.3777 30.4677 62.0674 30.1747Z" fill="black"/>
<path d="M68.0322 36.605C67.584 36.2774 67.3427 35.7258 67.3427 34.95V29.7782H65.8773V28.1576H67.3427V25.5028H69.7734V28.1576H71.5491V29.7782H69.7734V34.157C69.7734 34.5707 69.8424 34.8465 69.9803 34.9845C70.1182 35.1224 70.394 35.1913 70.8078 35.1913C71.1353 35.1913 71.3767 35.1741 71.5663 35.1224V37.0187C71.3939 37.036 71.1871 37.0532 70.9457 37.0704C70.7044 37.0877 70.4285 37.0877 70.1182 37.0877C69.1873 37.0877 68.4805 36.9153 68.0322 36.605Z" fill="black"/>
<path d="M73.4109 36.3981C72.6869 35.8464 72.3249 35.0879 72.3076 34.1225H74.6177C74.6177 34.5707 74.7901 34.9327 75.1349 35.2086C75.4797 35.4844 75.9279 35.6051 76.4796 35.6051C76.9278 35.6051 77.307 35.5016 77.6174 35.312C77.9277 35.1051 78.0656 34.8293 78.0656 34.4845C78.0656 34.2604 77.9794 34.0708 77.7898 33.9156C77.6001 33.7605 77.3415 33.6398 76.9967 33.5191C76.8243 33.4674 76.6175 33.3984 76.3416 33.3295C76.0831 33.2605 75.7727 33.1916 75.3935 33.1226C74.8073 33.0019 74.3074 32.8468 73.8592 32.6571C73.4282 32.4675 73.0834 32.2089 72.8593 31.8986C72.6179 31.5883 72.4973 31.209 72.4973 30.7608C72.4973 30.1747 72.6352 29.6747 72.911 29.2437C73.1868 28.8127 73.6178 28.4852 74.204 28.2611C74.7556 28.037 75.4624 27.9335 76.3416 27.9335C77.5312 27.9335 78.4621 28.1749 79.1344 28.6576C79.7895 29.1403 80.1688 29.8299 80.2378 30.7608H77.9277C77.8932 30.3471 77.738 30.0367 77.4622 29.8471C77.1864 29.6575 76.7899 29.5713 76.2727 29.5713C75.3762 29.5713 74.928 29.8471 74.928 30.3988C74.928 30.6056 74.997 30.778 75.1521 30.916C75.3073 31.0539 75.5314 31.1745 75.8417 31.278C76.1175 31.3814 76.4451 31.4676 76.8243 31.5366C77.9104 31.7607 78.7034 31.9676 79.1689 32.2089C79.6171 32.433 79.9619 32.7089 80.1688 33.0192C80.3757 33.3295 80.4791 33.726 80.4791 34.2087C80.4791 35.2086 80.1171 35.9671 79.393 36.5015C78.669 37.0187 77.6863 37.2945 76.4451 37.2945C75.1349 37.2256 74.1178 36.9498 73.4109 36.3981Z" fill="black"/>
</svg>
