<svg width="123" height="24" viewBox="0 0 123 24" fill="none" xmlns="http://www.w3.org/2000/svg">
<path d="M6.6332 10.8024C6.6332 11.1686 6.54492 11.5119 6.36835 11.8323C6.19833 12.1528 5.92694 12.4111 5.5542 12.6072C5.18799 12.8034 4.72369 12.9015 4.1613 12.9015H3.01363V15.5304H1.64035V8.68359H4.1613C4.69099 8.68359 5.14221 8.77514 5.51496 8.95824C5.88771 9.14135 6.16563 9.39311 6.34874 9.71355C6.53838 10.034 6.6332 10.3969 6.6332 10.8024ZM4.10244 11.7931C4.48173 11.7931 4.76292 11.7081 4.94603 11.538C5.12913 11.3615 5.22068 11.1163 5.22068 10.8024C5.22068 10.1353 4.84794 9.80183 4.10244 9.80183H3.01363V11.7931H4.10244ZM10.0213 15.6186C9.49811 15.6186 9.02727 15.5042 8.60875 15.2753C8.19022 15.0399 7.85998 14.7097 7.61802 14.2846C7.3826 13.8595 7.26489 13.3691 7.26489 12.8132C7.26489 12.2574 7.38587 11.7669 7.62783 11.3419C7.87633 10.9168 8.21311 10.5898 8.63817 10.3609C9.06324 10.1255 9.53734 10.0078 10.0605 10.0078C10.5837 10.0078 11.0578 10.1255 11.4828 10.3609C11.9079 10.5898 12.2414 10.9168 12.4834 11.3419C12.7319 11.7669 12.8561 12.2574 12.8561 12.8132C12.8561 13.3691 12.7286 13.8595 12.4735 14.2846C12.225 14.7097 11.885 15.0399 11.4534 15.2753C11.0283 15.5042 10.551 15.6186 10.0213 15.6186ZM10.0213 14.4219C10.2698 14.4219 10.5019 14.3631 10.7177 14.2454C10.9401 14.1211 11.1166 13.938 11.2474 13.6961C11.3782 13.4541 11.4436 13.1598 11.4436 12.8132C11.4436 12.2966 11.3063 11.901 11.0316 11.6263C10.7635 11.3451 10.4332 11.2045 10.0409 11.2045C9.64851 11.2045 9.31827 11.3451 9.05016 11.6263C8.78858 11.901 8.65779 12.2966 8.65779 12.8132C8.65779 13.3298 8.78531 13.7288 9.04035 14.0099C9.30192 14.2846 9.6289 14.4219 10.0213 14.4219ZM21.3969 10.0961L19.8078 15.5304H18.3266L17.3359 11.7342L16.3452 15.5304H14.8542L13.2553 10.0961H14.6482L15.6095 14.2356L16.6493 10.0961H18.101L19.1212 14.2257L20.0824 10.0961H21.3969ZM27.1916 12.6955C27.1916 12.8917 27.1785 13.0683 27.1524 13.2252H23.1797C23.2124 13.6176 23.3497 13.9249 23.5917 14.1473C23.8336 14.3696 24.1312 14.4808 24.4843 14.4808C24.9944 14.4808 25.3573 14.2617 25.5731 13.8236H27.0543C26.8973 14.3467 26.5965 14.7783 26.1519 15.1184C25.7072 15.4519 25.1611 15.6186 24.5137 15.6186C23.9906 15.6186 23.5197 15.5042 23.1012 15.2753C22.6892 15.0399 22.3655 14.7097 22.1301 14.2846C21.9012 13.8595 21.7868 13.3691 21.7868 12.8132C21.7868 12.2508 21.9012 11.7571 22.1301 11.3321C22.359 10.907 22.6794 10.58 23.0914 10.3511C23.5034 10.1223 23.9775 10.0078 24.5137 10.0078C25.0303 10.0078 25.4914 10.119 25.8968 10.3413C26.3088 10.5637 26.626 10.8808 26.8483 11.2928C27.0772 11.6983 27.1916 12.1658 27.1916 12.6955ZM25.7693 12.3032C25.7628 11.95 25.6352 11.6688 25.3867 11.4596C25.1382 11.2438 24.8342 11.1359 24.4745 11.1359C24.1344 11.1359 23.8467 11.2405 23.6113 11.4498C23.3824 11.6525 23.2418 11.937 23.1895 12.3032H25.7693ZM29.5673 10.9397C29.7438 10.652 29.9727 10.4263 30.2539 10.2629C30.5416 10.0994 30.8686 10.0176 31.2348 10.0176V11.4596H30.8719C30.4403 11.4596 30.1133 11.5609 29.891 11.7637C29.6752 11.9664 29.5673 12.3195 29.5673 12.823V15.5304H28.194V10.0961H29.5673V10.9397ZM31.8067 12.7936C31.8067 12.2443 31.9146 11.7571 32.1304 11.3321C32.3527 10.907 32.6535 10.58 33.0328 10.3511C33.4121 10.1223 33.8339 10.0078 34.2982 10.0078C34.6513 10.0078 34.9881 10.0863 35.3085 10.2432C35.629 10.3936 35.884 10.5964 36.0736 10.8514V8.2716H37.4665V15.5304H36.0736V14.726C35.9036 14.9941 35.6649 15.2099 35.3576 15.3734C35.0502 15.5369 34.6938 15.6186 34.2884 15.6186C33.8306 15.6186 33.4121 15.5009 33.0328 15.2655C32.6535 15.0301 32.3527 14.6999 32.1304 14.2748C31.9146 13.8432 31.8067 13.3495 31.8067 12.7936ZM36.0835 12.8132C36.0835 12.4797 36.0181 12.1953 35.8873 11.9598C35.7565 11.7179 35.5799 11.5348 35.3576 11.4105C35.1352 11.2797 34.8965 11.2143 34.6415 11.2143C34.3865 11.2143 34.1511 11.2765 33.9353 11.4007C33.7194 11.525 33.5429 11.7081 33.4056 11.95C33.2748 12.1854 33.2094 12.4666 33.2094 12.7936C33.2094 13.1206 33.2748 13.4083 33.4056 13.6568C33.5429 13.8988 33.7194 14.0852 33.9353 14.2159C34.1576 14.3467 34.393 14.4121 34.6415 14.4121C34.8965 14.4121 35.1352 14.35 35.3576 14.2257C35.5799 14.095 35.7565 13.9119 35.8873 13.6764C36.0181 13.4345 36.0835 13.1467 36.0835 12.8132ZM45.0295 12.0187C45.4154 12.0906 45.7325 12.2835 45.981 12.5974C46.2295 12.9113 46.3538 13.271 46.3538 13.6764C46.3538 14.0426 46.2622 14.3663 46.0791 14.6475C45.9026 14.9222 45.6442 15.138 45.3042 15.2949C44.9641 15.4519 44.562 15.5304 44.0977 15.5304H41.1451V8.68359H43.9702C44.4345 8.68359 44.8334 8.75879 45.1669 8.9092C45.5069 9.0596 45.762 9.26886 45.932 9.53698C46.1085 9.8051 46.1968 10.1092 46.1968 10.4492C46.1968 10.8481 46.0889 11.1816 45.8731 11.4498C45.6639 11.7179 45.3827 11.9075 45.0295 12.0187ZM42.5184 11.5086H43.774C44.1009 11.5086 44.3527 11.4367 44.5293 11.2928C44.7058 11.1424 44.7941 10.9299 44.7941 10.6552C44.7941 10.3806 44.7058 10.168 44.5293 10.0176C44.3527 9.86722 44.1009 9.79202 43.774 9.79202H42.5184V11.5086ZM43.9015 14.4121C44.235 14.4121 44.4933 14.3337 44.6764 14.1767C44.8661 14.0198 44.9609 13.7974 44.9609 13.5097C44.9609 13.2154 44.8628 12.9865 44.6666 12.823C44.4704 12.653 44.2056 12.568 43.8721 12.568H42.5184V14.4121H43.9015ZM52.6471 10.0961L49.2826 18.1004H47.821L48.9981 15.393L46.8205 10.0961H48.3605L49.7632 13.8922L51.1855 10.0961H52.6471Z" fill="black"/>
<path d="M58.609 11.1452H58.6733C59.4072 11.1452 59.7548 10.6946 59.7548 10.038C59.7548 9.52299 59.7291 9.02088 59.6904 8.53165C59.6647 8.02954 59.6261 7.51456 59.6261 6.96095C59.6389 5.44175 60.1539 4.84952 61.48 4.84952H61.7761C61.8534 4.84952 61.9049 4.90102 61.9049 4.97826V5.54475C61.9049 5.62199 61.8534 5.67349 61.7761 5.67349H61.5315C60.8878 5.67349 60.5917 5.87948 60.5917 7.01245C60.5917 7.47593 60.6174 7.90079 60.6303 8.35141C60.656 8.82777 60.6818 9.317 60.6818 9.87061C60.6818 10.4757 60.6045 11.1066 60.1153 11.4413C60.6045 11.7889 60.6818 12.4455 60.6818 13.012C60.6818 13.5656 60.656 14.0548 60.6303 14.5312C60.6045 14.9818 60.5917 15.4067 60.5917 15.8702C60.5917 17.0031 60.9006 17.2091 61.5315 17.2091H61.7761C61.8534 17.2091 61.9049 17.2606 61.9049 17.3379V17.9043C61.9049 17.9816 61.8534 18.0331 61.7761 18.0331H61.48C60.1539 18.0331 59.6389 17.4409 59.6389 15.9345C59.6389 15.3809 59.6647 14.8531 59.7033 14.351C59.7291 13.8617 59.7677 13.3854 59.7677 12.8833C59.7677 12.188 59.4329 11.7503 58.6862 11.7503H58.609C58.5317 11.7503 58.4802 11.6988 58.4802 11.6216V11.2739C58.4802 11.1967 58.5446 11.1452 58.609 11.1452Z" fill="#1E1E1C"/>
<path d="M122.325 11.1452H122.261C121.527 11.1452 121.18 10.6946 121.18 10.0379C121.18 9.52297 121.205 9.02086 121.244 8.53162C121.27 8.02951 121.308 7.51453 121.308 6.96092C121.308 5.4546 120.793 4.86237 119.467 4.86237H119.171C119.094 4.86237 119.042 4.91386 119.042 4.99111V5.55759C119.042 5.63484 119.094 5.68634 119.171 5.68634H119.416C120.059 5.68634 120.356 5.89233 120.356 7.0253C120.356 7.48878 120.33 7.91364 120.317 8.36425C120.291 8.84061 120.265 9.32985 120.265 9.88345C120.265 10.4886 120.343 11.1194 120.832 11.4542C120.343 11.8018 120.265 12.4584 120.265 13.0249C120.265 13.5785 120.291 14.0677 120.317 14.5441C120.343 14.9947 120.356 15.4195 120.356 15.883C120.356 17.016 120.047 17.222 119.416 17.222H119.171C119.094 17.222 119.042 17.2735 119.042 17.3507V17.9172C119.042 17.9944 119.094 18.0459 119.171 18.0459H119.467C120.793 18.0459 121.308 17.4537 121.308 15.9474C121.308 15.3938 121.283 14.8659 121.244 14.3638C121.218 13.8746 121.18 13.3982 121.18 12.8961C121.18 12.2009 121.514 11.7631 122.261 11.7631H122.325C122.403 11.7631 122.454 11.7116 122.454 11.6344V11.2868C122.454 11.1967 122.403 11.1452 122.325 11.1452Z" fill="#1E1E1C"/>
<path d="M69.7713 9.8705C69.7713 10.7073 69.3722 11.3382 68.5611 11.7373C69.1147 11.8918 69.5267 12.1751 69.797 12.5742C70.0674 12.9733 70.209 13.4496 70.209 14.0032C70.209 14.4024 70.1318 14.7628 69.9901 15.0847C69.8357 15.4066 69.6297 15.6769 69.3593 15.8958C69.0889 16.1147 68.7542 16.282 68.368 16.4108C67.9817 16.5267 67.544 16.591 67.0805 16.591H62.7289V7.66895H66.9389C68.8314 7.66895 69.7713 8.4028 69.7713 9.8705ZM67.8787 10.2181C67.8787 9.53576 67.441 9.18815 66.5526 9.18815H64.6987V11.2738H66.6943C67.4796 11.2738 67.8787 10.9262 67.8787 10.2181ZM68.2392 13.8874C68.2392 13.0376 67.7757 12.6128 66.8359 12.6128H64.6987V15.059H66.8101C67.7628 15.059 68.2392 14.6727 68.2392 13.8874Z" fill="#FDCF00"/>
<path d="M73.0157 11.3253H73.0414C73.2217 10.9004 73.492 10.5657 73.8654 10.3211C74.2388 10.0764 74.6507 9.94769 75.1014 9.94769C75.2301 9.94769 75.3588 9.97344 75.4876 10.0121V11.66C75.2816 11.6214 75.0627 11.5956 74.8567 11.5956C73.6851 11.5956 73.1058 12.2909 73.1058 13.6684V16.5781H71.3291V10.1279H73.0157V11.3253Z" fill="#FDCF00"/>
<path d="M76.3245 16.0761C75.9254 15.7284 75.7323 15.265 75.7323 14.647C75.7323 14.3509 75.7709 14.0805 75.861 13.8488C75.9512 13.617 76.0928 13.4239 76.2988 13.2565C76.5048 13.0892 76.7751 12.9604 77.1228 12.8445C77.4704 12.7415 77.8824 12.6643 78.3845 12.6128C78.745 12.5742 79.0411 12.5355 79.2599 12.4841C79.4917 12.4326 79.6462 12.3811 79.7363 12.3167C79.9294 12.2008 80.0195 12.0334 80.0195 11.8017C80.0195 11.5056 79.9294 11.2996 79.762 11.158C79.5818 11.0163 79.2986 10.952 78.8866 10.952C78.5132 10.952 78.23 11.0292 78.0368 11.1708C77.8437 11.3253 77.7279 11.57 77.7021 11.9176H75.9254C75.964 11.2095 76.2602 10.6687 76.8009 10.3082C77.3416 9.94776 78.0626 9.75464 78.9767 9.75464C80.8564 9.76751 81.7962 10.3726 81.7962 11.5957V15.0203C81.7962 15.6383 81.8735 16.1018 82.0151 16.3979H80.2127C80.174 16.2949 80.1483 16.1919 80.1354 16.0889C80.1097 15.9859 80.0968 15.8829 80.0968 15.7671C79.5689 16.2949 78.8479 16.5653 77.921 16.5653C77.2515 16.591 76.7236 16.4108 76.3245 16.0761ZM77.6892 15.0461C77.818 15.1748 77.9725 15.265 78.1527 15.3293C78.3458 15.3937 78.539 15.4195 78.7578 15.3937C78.9767 15.3808 79.1698 15.3165 79.3629 15.2006C79.5561 15.0976 79.7105 14.9302 79.8264 14.7242C79.9552 14.5182 80.0195 14.2479 80.0195 13.926V13.2437C79.865 13.3981 79.5174 13.5011 78.9509 13.5526C78.4488 13.617 78.0883 13.7071 77.8566 13.8616C77.6249 14.0033 77.509 14.2479 77.509 14.5697C77.509 14.7629 77.5734 14.9173 77.6892 15.0461Z" fill="#FDCF00"/>
<path d="M85.0019 16.5909H83.2252V10.1279H85.0019V16.5909ZM85.3367 7.93918C85.3367 8.60866 84.7959 9.16227 84.1136 9.16227C83.4441 9.16227 82.8905 8.62153 82.8905 7.93918C82.8905 7.25683 83.4312 6.71609 84.1136 6.71609C84.7831 6.71609 85.3367 7.25683 85.3367 7.93918Z" fill="#FDCF00"/>
<path d="M88.079 11.0293H88.1177C88.5554 10.3083 89.2249 9.96069 90.1003 9.96069C90.9243 9.96069 91.5165 10.1667 91.8899 10.5787C92.2633 10.9907 92.4435 11.6601 92.4435 12.5614V16.5782H90.6668V12.9218C90.6668 12.394 90.5896 11.9949 90.4222 11.7374C90.2548 11.4799 89.9587 11.3511 89.5339 11.3511C89.0446 11.3511 88.697 11.4928 88.491 11.776C88.2721 12.0593 88.1691 12.5485 88.1691 13.218V16.5782H86.3925V10.1281H88.079V11.0293Z" fill="#FDCF00"/>
<path d="M97.7993 7.29584H99.6146V16.411H97.7993V14.1322L97.0912 13.4499L95.2759 16.3982H93.0743L95.8424 12.2268L93.3705 9.80638H95.5205L97.7993 12.1753V7.29584Z" fill="black"/>
<path d="M101.842 16.1919C101.327 15.9344 100.928 15.5353 100.619 14.9816C100.31 14.4409 100.155 13.8229 100.155 13.102C100.155 12.7672 100.194 12.4454 100.271 12.1364C100.349 11.8274 100.464 11.5313 100.619 11.2738C100.773 11.0034 100.954 10.7717 101.16 10.5528C101.378 10.3339 101.61 10.1666 101.868 10.0249C102.383 9.75457 102.936 9.61295 103.529 9.61295C104.147 9.61295 104.7 9.75457 105.189 10.0378C105.679 10.321 106.065 10.7459 106.335 11.2995C106.606 11.8402 106.747 12.4711 106.747 13.205V13.3337C106.747 13.3852 106.747 13.4496 106.734 13.5268H101.971C101.984 14.0676 102.125 14.4795 102.383 14.7628C102.64 15.046 103.039 15.2005 103.58 15.2005C103.915 15.2005 104.211 15.1233 104.494 14.9559C104.764 14.7885 104.945 14.5825 105.022 14.3508H106.618C106.142 15.8442 105.112 16.5781 103.529 16.5652C102.923 16.591 102.357 16.4622 101.842 16.1919ZM104.456 11.3253C104.237 11.1064 103.902 10.9905 103.464 10.9905C103.026 10.9905 102.679 11.1193 102.421 11.3639C102.164 11.6085 102.022 11.9561 101.971 12.3939H104.919C104.842 11.9046 104.687 11.5441 104.456 11.3253Z" fill="black"/>
<path d="M108.91 16.1276C108.575 15.883 108.395 15.471 108.395 14.8916V11.0293H107.301V9.81905H108.395V7.83636H110.21V9.81905H111.537V11.0293H110.21V14.2994C110.21 14.6084 110.262 14.8144 110.365 14.9174C110.468 15.0204 110.674 15.0719 110.983 15.0719C111.228 15.0719 111.408 15.059 111.549 15.0204V16.4366C111.421 16.4495 111.266 16.4623 111.086 16.4752C110.906 16.4881 110.7 16.4881 110.468 16.4881C109.773 16.4881 109.245 16.3593 108.91 16.1276Z" fill="black"/>
<path d="M112.927 15.9728C112.386 15.5609 112.116 14.9944 112.103 14.2734H113.828C113.828 14.6081 113.957 14.8785 114.214 15.0845C114.472 15.2905 114.807 15.3806 115.219 15.3806C115.553 15.3806 115.837 15.3034 116.068 15.1618C116.3 15.0073 116.403 14.8013 116.403 14.5438C116.403 14.3764 116.339 14.2348 116.197 14.1189C116.055 14.003 115.862 13.9129 115.605 13.8228C115.476 13.7842 115.322 13.7327 115.116 13.6812C114.922 13.6297 114.691 13.5782 114.407 13.5267C113.97 13.4366 113.596 13.3207 113.262 13.1791C112.94 13.0374 112.682 12.8443 112.515 12.6126C112.335 12.3808 112.245 12.0976 112.245 11.7629C112.245 11.3251 112.348 10.9518 112.554 10.6299C112.76 10.308 113.081 10.0634 113.519 9.89605C113.931 9.72868 114.459 9.65143 115.116 9.65143C116.004 9.65143 116.699 9.83167 117.201 10.1922C117.69 10.5526 117.974 11.0676 118.025 11.7629H116.3C116.274 11.4539 116.158 11.2221 115.952 11.0805C115.746 10.9389 115.45 10.8745 115.064 10.8745C114.395 10.8745 114.06 11.0805 114.06 11.4925C114.06 11.647 114.111 11.7757 114.227 11.8787C114.343 11.9817 114.51 12.0718 114.742 12.1491C114.948 12.2263 115.193 12.2907 115.476 12.3422C116.287 12.5096 116.879 12.6641 117.227 12.8443C117.562 13.0117 117.819 13.2177 117.974 13.4494C118.128 13.6812 118.205 13.9773 118.205 14.3378C118.205 15.0845 117.935 15.651 117.394 16.0501C116.854 16.4363 116.12 16.6423 115.193 16.6423C114.214 16.5908 113.455 16.3848 112.927 15.9728Z" fill="black"/>
</svg>
