<svg width="24" height="24" viewBox="0 0 24 24" fill="none" xmlns="http://www.w3.org/2000/svg">
<path fill-rule="evenodd" clip-rule="evenodd" d="M10.0935 2.73086C10.0935 2.32722 10.4207 2 10.8244 2C15.5686 2 19.4096 5.84099 19.4096 10.5852C19.4096 15.3294 15.5686 19.1704 10.8244 19.1704C6.08019 19.1704 2.2392 15.3294 2.2392 10.5852C2.2392 7.5296 3.83246 4.85132 6.23538 3.33064C6.57646 3.11479 7.02794 3.21631 7.24379 3.55739C7.45965 3.89847 7.35813 4.34995 7.01705 4.5658C5.02011 5.82956 3.70092 8.05095 3.70092 10.5852C3.70092 14.5221 6.88748 17.7087 10.8244 17.7087C14.7613 17.7087 17.9478 14.5221 17.9478 10.5852C17.9478 6.64828 14.7613 3.46172 10.8244 3.46172C10.4207 3.46172 10.0935 3.13451 10.0935 2.73086Z" fill="#EB6309"/>
<path fill-rule="evenodd" clip-rule="evenodd" d="M17.6835 17.9228C17.969 17.6374 18.4317 17.6374 18.7171 17.9228L21.5468 20.7525C21.8322 21.0379 21.8322 21.5007 21.5468 21.7861C21.2614 22.0715 20.7986 22.0715 20.5132 21.7861L17.6835 18.9564C17.3981 18.671 17.3981 18.2082 17.6835 17.9228Z" fill="#EB6309"/>
</svg>
