<svg width="24" height="24" viewBox="0 0 24 24" fill="none" xmlns="http://www.w3.org/2000/svg">
<path d="M15.75 3.5C15.75 3.23478 15.8554 2.98043 16.0429 2.79289C16.2304 2.60536 16.4848 2.5 16.75 2.5C18.3413 2.5 19.8674 3.13214 20.9926 4.25736C22.1179 5.38258 22.75 6.9087 22.75 8.5V16.5C22.75 18.0913 22.1179 19.6174 20.9926 20.7426C19.8674 21.8679 18.3413 22.5 16.75 22.5H8.75C7.1587 22.5 5.63258 21.8679 4.50736 20.7426C3.38214 19.6174 2.75 18.0913 2.75 16.5C2.75 16.2348 2.85536 15.9804 3.04289 15.7929C3.23043 15.6054 3.48478 15.5 3.75 15.5C4.01522 15.5 4.26957 15.6054 4.45711 15.7929C4.64464 15.9804 4.75 16.2348 4.75 16.5C4.75 17.5609 5.17143 18.5783 5.92157 19.3284C6.67172 20.0786 7.68913 20.5 8.75 20.5H16.75C17.8109 20.5 18.8283 20.0786 19.5784 19.3284C20.3286 18.5783 20.75 17.5609 20.75 16.5V8.5C20.75 7.43913 20.3286 6.42172 19.5784 5.67157C18.8283 4.92143 17.8109 4.5 16.75 4.5C16.4848 4.5 16.2304 4.39464 16.0429 4.20711C15.8554 4.01957 15.75 3.76522 15.75 3.5Z" fill="black"/>
<mask id="mask0_640_35862" style="mask-type:luminance" maskUnits="userSpaceOnUse" x="1" y="1" width="17" height="14">
<path d="M1.25 1.5H17.25V14.5H1.25V1.5Z" fill="white"/>
<path d="M10.6215 3.68004L15.1795 8.42704C15.1887 8.4366 15.1958 8.44787 15.2005 8.4602C15.2053 8.47253 15.2075 8.48567 15.2071 8.49888C15.2068 8.51208 15.2038 8.52508 15.1984 8.53712C15.1929 8.54916 15.1852 8.56001 15.1755 8.56904L10.6195 12.841C10.6053 12.8546 10.5873 12.8637 10.5679 12.8672C10.5485 12.8706 10.5285 12.8682 10.5104 12.8603C10.4924 12.8524 10.477 12.8393 10.4664 12.8227C10.4557 12.8061 10.4502 12.7868 10.4505 12.767C10.4545 12.135 10.4635 10.407 10.4495 10C10.4325 9.50004 8.14555 9.43004 7.08955 10C6.06855 10.552 4.70555 11.92 3.90855 12.772C3.70655 12.989 3.33155 12.818 3.36655 12.524L3.38655 12.358C3.61355 10.468 3.97955 8.43304 5.41555 7.18404C5.49014 7.1185 5.56826 7.05707 5.64955 7.00004C6.93255 6.10904 9.73955 6.40904 10.3365 6.48504C10.3508 6.48691 10.3653 6.48569 10.3791 6.48144C10.3928 6.4772 10.4055 6.47004 10.4162 6.46045C10.4269 6.45086 10.4355 6.43907 10.4412 6.42589C10.447 6.4127 10.4498 6.39843 10.4495 6.38404V3.74904C10.4494 3.72906 10.4553 3.70949 10.4664 3.69287C10.4775 3.67626 10.4933 3.66335 10.5118 3.65581C10.5304 3.64828 10.5507 3.64647 10.5703 3.65061C10.5898 3.65475 10.6077 3.66465 10.6215 3.67904V3.68004Z" fill="black"/>
</mask>
<g mask="url(#mask0_640_35862)">
<path d="M16.2619 7.38813L11.7039 2.64113L9.53995 4.71813L14.0979 9.46613L16.2619 7.38813ZM8.94995 3.74813V6.38413H11.9499V3.74913H8.94995V3.74813ZM1.89795 12.1801L1.87795 12.3471L4.85595 12.7041L4.87595 12.5381L1.89795 12.1801ZM5.00495 13.7981C5.38795 13.3871 5.89795 12.8631 6.42495 12.3831C6.97395 11.8831 7.45895 11.5061 7.80295 11.3211L6.37695 8.68013C5.69995 9.04613 4.99295 9.62813 4.40495 10.1641C3.85388 10.6712 3.3228 11.1996 2.81295 11.7481L5.00495 13.7971V13.7981ZM8.94995 10.0501C8.96195 10.4171 8.95395 12.1021 8.94995 12.7571L11.9499 12.7751C11.9539 12.1661 11.9629 10.3941 11.9479 9.94813L8.94995 10.0501ZM11.6449 13.9341L16.2009 9.66313L14.1489 7.47313L9.59295 11.7451L11.6449 13.9341ZM7.80295 11.3201C7.87695 11.2801 8.04995 11.2151 8.32595 11.1651C8.58795 11.1171 8.87795 11.0951 9.14095 11.0981C9.42095 11.1021 9.59195 11.1331 9.64695 11.1481C9.68195 11.1591 9.58895 11.1401 9.45595 11.0421C9.3026 10.9253 9.1775 10.7755 9.08991 10.6038C9.00232 10.4321 8.95448 10.2428 8.94995 10.0501L11.9479 9.94813C11.9249 9.25113 11.4979 8.82013 11.2319 8.62313C11.0055 8.46218 10.7527 8.34204 10.4849 8.26813C10.0587 8.15421 9.6192 8.09705 9.17795 8.09813C8.35995 8.08813 7.22795 8.21913 6.37595 8.67913L7.80195 11.3191L7.80295 11.3201ZM10.5259 4.99713C9.75721 4.90116 8.98244 4.86206 8.20795 4.88013C7.24795 4.90813 5.82795 5.05013 4.79395 5.76813L6.50595 8.23213C6.75595 8.05813 7.37995 7.90513 8.29395 7.87913C9.11995 7.85513 9.88295 7.93913 10.1469 7.97313L10.5259 4.99713ZM4.79395 5.76813C4.66395 5.85813 4.54395 5.95513 4.43095 6.05213L6.40095 8.31513C6.44395 8.27813 6.47895 8.25113 6.50595 8.23213L4.79395 5.76813ZM8.95095 12.7581C8.94295 14.1651 10.6209 14.8951 11.6459 13.9351L9.59395 11.7461C10.4899 10.9061 11.9589 11.5461 11.9509 12.7761L8.95095 12.7581ZM1.87795 12.3461C1.66395 14.1261 3.84395 15.0381 5.00495 13.7961L2.81295 11.7481C3.21795 11.3151 3.79295 11.3021 4.17195 11.4751C4.55395 11.6501 4.92895 12.1021 4.85595 12.7031L1.87795 12.3461ZM4.87595 12.5361C5.10995 10.5881 5.45495 9.13813 6.40095 8.31513L4.43095 6.05213C2.50595 7.72813 2.11695 10.3481 1.89795 12.1801L4.87595 12.5381V12.5361ZM8.94995 6.38513C8.95022 6.18658 8.99272 5.99036 9.07462 5.80949C9.15653 5.62862 9.27597 5.46724 9.42502 5.33607C9.57407 5.20489 9.74932 5.10692 9.93913 5.04866C10.1289 4.99039 10.329 4.97217 10.5259 4.99713L10.1479 7.97413C10.3735 8.00284 10.6027 7.98313 10.82 7.91632C11.0374 7.84951 11.238 7.73713 11.4085 7.58668C11.5791 7.43622 11.7156 7.25114 11.8089 7.04378C11.9023 6.83642 11.9503 6.61154 11.9499 6.38413H8.94995V6.38513ZM11.7039 2.64113C10.7059 1.59913 8.94995 2.30713 8.94995 3.74913H11.9499C11.9499 5.00913 10.4129 5.62713 9.53995 4.71813L11.7039 2.64113ZM14.0979 9.46713C13.9696 9.33352 13.8691 9.17577 13.8022 9.00303C13.7352 8.83028 13.7033 8.64596 13.7081 8.46077C13.713 8.27558 13.7545 8.09319 13.8303 7.92417C13.9062 7.75515 14.0148 7.60186 14.1499 7.47513L16.2019 9.66513C16.3565 9.52033 16.4808 9.34628 16.5676 9.15309C16.6543 8.95989 16.7019 8.75139 16.7075 8.53967C16.7131 8.32795 16.6766 8.11723 16.6001 7.91973C16.5236 7.72223 16.4087 7.54088 16.2619 7.38813L14.0979 9.46713Z" fill="black"/>
</g>
</svg>
