<svg width="24" height="24" viewBox="0 0 24 24" fill="none" xmlns="http://www.w3.org/2000/svg">
<path d="M20.425 13.7441H20.3268C19.5408 13.6458 18.9021 13.4493 18.3126 13.0072C18.2635 12.958 18.2635 12.958 18.2144 12.958C17.9196 12.7124 17.674 12.8598 17.5266 12.9089L17.4775 12.958C16.7406 13.4984 15.9055 13.7932 14.9229 13.7932C13.8913 13.7932 13.0562 13.4984 12.2701 12.9089C11.9754 12.7124 11.7789 12.9089 11.7789 12.9089C10.9929 13.5476 10.1086 13.8423 9.07697 13.8423C8.09445 13.8423 7.21019 13.5476 6.4733 12.958C6.42417 12.9089 6.37505 12.9089 6.37505 12.8598C6.12942 12.6633 5.88379 12.8598 5.88379 12.8598C5.1469 13.4493 4.31176 13.7441 3.37837 13.7932C3.37837 13.7932 3.08362 13.7932 3.08362 14.1371V21.4568C3.08362 21.6042 3.18187 21.9481 3.624 22.0463H12.7123C13.2035 21.9481 13.2527 21.6042 13.2527 21.4568V20.0322V16.2495C13.3018 16.1021 13.3509 15.9547 13.7439 15.9547H18.1161C18.2635 16.0038 18.4109 16.1021 18.4109 16.446V21.3586C18.4109 21.8989 18.8039 21.9972 18.9021 21.9972H20.2776C20.3759 21.9972 20.7689 21.8989 20.7689 21.3586V14.2844C20.818 13.8914 20.6215 13.7932 20.425 13.7441ZM10.649 19.3935V19.5409C10.649 19.7374 10.5507 20.0322 10.0595 20.0322H6.08029C5.63816 20.0322 5.53991 19.8357 5.49078 19.6392V19.4427V16.6425C5.49078 15.9547 5.88379 15.9056 6.03117 15.9056H10.2069C10.3542 15.9056 10.6981 16.0038 10.6981 16.5442C10.649 17.5267 10.649 18.4601 10.649 19.3935Z" fill="#EB6309"/>
<path d="M20.0321 11.779C21.1128 12.0738 22.0462 11.8773 22.8322 11.0913C23.3235 10.6 23.6674 10.0105 23.7656 9.37185V9.2736C23.6674 9.02797 23.5691 8.78234 23.4709 8.58584C22.2919 6.47343 21.162 4.36102 20.0321 2.24861C19.8847 1.95386 19.5408 1.95386 19.4426 1.95386H4.45919C4.45919 1.95386 4.01706 1.95386 3.86968 2.24861C2.69066 4.36102 1.56077 6.52256 0.430878 8.58584C0.332627 8.78234 0.234375 9.0771 0.234375 9.37185V9.4701C0.332627 10.1579 0.627381 10.7474 1.11864 11.1895C2.0029 11.9755 2.98542 12.172 4.16444 11.779C4.80307 11.5334 5.24521 11.1404 5.63821 10.5509L5.78559 10.4035C6.03122 10.2561 6.32597 10.3052 6.52248 10.5509C6.71898 10.8456 6.96461 11.1404 7.25936 11.3369C8.0945 11.9755 9.02789 12.0738 10.0104 11.779C10.649 11.5825 11.1403 11.1404 11.4842 10.5509C11.6807 10.2561 12.1719 10.207 12.3684 10.5509C12.4667 10.6491 12.5158 10.7965 12.6141 10.8948C13.1053 11.4843 13.744 11.8281 14.4809 11.9264C15.1686 12.0246 15.8564 11.8281 16.495 11.4351C16.8389 11.1895 17.1336 10.8948 17.3302 10.5509C17.5758 10.2561 18.0179 10.2561 18.2144 10.5509C18.6074 11.1895 19.0987 11.5825 19.8356 11.779H20.0321Z" fill="#EB6309"/>
</svg>
