<svg width="24" height="24" viewBox="0 0 24 24" fill="none" xmlns="http://www.w3.org/2000/svg">
<path d="M22.5 1H5.50003C5.36742 1 5.24025 1.05268 5.14648 1.14645C5.05271 1.24021 5.00003 1.36739 5.00003 1.5V20.5C5.00003 20.8978 4.842 21.2794 4.56069 21.5607C4.27939 21.842 3.89786 22 3.50003 22C3.10221 22 2.72067 21.842 2.43937 21.5607C2.15807 21.2794 2.00003 20.8978 2.00003 20.5V13H3.50003C3.63264 13 3.75982 12.9473 3.85358 12.8536C3.94735 12.7598 4.00003 12.6326 4.00003 12.5C4.00003 12.3674 3.94735 12.2402 3.85358 12.1464C3.75982 12.0527 3.63264 12 3.50003 12H1.50003C1.36742 12 1.24025 12.0527 1.14648 12.1464C1.05271 12.2402 1.00003 12.3674 1.00003 12.5V20.5C1.00082 21.1628 1.26447 21.7982 1.73314 22.2669C2.20181 22.7356 2.83723 22.9992 3.50003 23H20.5C21.1628 22.9992 21.7983 22.7356 22.2669 22.2669C22.7356 21.7982 22.9992 21.1628 23 20.5V1.5C23 1.36739 22.9474 1.24021 22.8536 1.14645C22.7598 1.05268 22.6326 1 22.5 1ZM19 18H9.00003C8.86742 18 8.74024 17.9473 8.64648 17.8536C8.55271 17.7598 8.50003 17.6326 8.50003 17.5C8.50003 17.3674 8.55271 17.2402 8.64648 17.1464C8.74024 17.0527 8.86742 17 9.00003 17H19C19.1326 17 19.2598 17.0527 19.3536 17.1464C19.4474 17.2402 19.5 17.3674 19.5 17.5C19.5 17.6326 19.4474 17.7598 19.3536 17.8536C19.2598 17.9473 19.1326 18 19 18ZM19 14H9.00003C8.86742 14 8.74024 13.9473 8.64648 13.8536C8.55271 13.7598 8.50003 13.6326 8.50003 13.5C8.50003 13.3674 8.55271 13.2402 8.64648 13.1464C8.74024 13.0527 8.86742 13 9.00003 13H19C19.1326 13 19.2598 13.0527 19.3536 13.1464C19.4474 13.2402 19.5 13.3674 19.5 13.5C19.5 13.6326 19.4474 13.7598 19.3536 13.8536C19.2598 13.9473 19.1326 14 19 14ZM19.5 9.5C19.5 9.63261 19.4474 9.75979 19.3536 9.85355C19.2598 9.94732 19.1326 10 19 10H9.00003C8.86742 10 8.74024 9.94732 8.64648 9.85355C8.55271 9.75979 8.50003 9.63261 8.50003 9.5V5.5C8.50003 5.36739 8.55271 5.24021 8.64648 5.14645C8.74024 5.05268 8.86742 5 9.00003 5H19C19.1326 5 19.2598 5.05268 19.3536 5.14645C19.4474 5.24021 19.5 5.36739 19.5 5.5V9.5Z" fill="#EB6309"/>
</svg>
