<svg width="30" height="30" viewBox="0 0 30 30" fill="none" xmlns="http://www.w3.org/2000/svg">
<path fill-rule="evenodd" clip-rule="evenodd" d="M25.8369 27.5C26.7509 27.5 27.5 26.7509 27.5 25.8369V18.3293H24.1739V25.8369C24.1739 26.7499 24.923 27.5 25.8369 27.5ZM23.7273 27.5C23.3653 27.042 23.1483 26.464 23.1483 25.8369V3.37848C23.1483 2.89543 22.7529 2.5 22.2698 2.5H6.2725C6.63454 2.958 6.85155 3.53601 6.85155 4.16306V26.6204C6.85155 27.1035 7.24698 27.4989 7.73003 27.4989L23.7273 27.5ZM9.43273 24.2637C8.75771 24.2637 8.75771 23.2381 9.43273 23.2381H20.5661C21.2411 23.2381 21.2411 24.2637 20.5661 24.2637H9.43273ZM9.43273 20.9929C8.75771 20.9929 8.75771 19.9673 9.43273 19.9673H20.5661C21.2411 19.9673 21.2411 20.9929 20.5661 20.9929H9.43273ZM9.43273 17.7232C8.75771 17.7232 8.75771 16.6976 9.43273 16.6976H20.5661C21.2411 16.6976 21.2411 17.7232 20.5661 17.7232H9.43273ZM14.4866 6.24878C14.4866 5.57377 15.5122 5.57377 15.5122 6.24878V6.54718C17.026 6.8226 17.7115 8.26135 16.8893 8.52112C16.6191 8.60668 16.3312 8.45644 16.2467 8.18622C15.9399 7.2149 13.7291 7.38704 13.7291 8.33646C13.7291 9.70529 17.2961 8.46374 17.2961 10.9813C17.2961 11.9401 16.4375 12.6026 15.5131 12.7705C15.5131 13.0502 15.5444 13.5823 14.9997 13.5823C14.4562 13.5823 14.4864 13.0502 14.4864 12.7705C12.9726 12.4951 12.2871 11.0564 13.1093 10.7966C13.3795 10.711 13.6674 10.8613 13.7519 11.1315C14.0587 12.1028 16.2695 11.9317 16.2695 10.9813C16.2695 9.61347 12.7025 10.854 12.7025 8.33646C12.7025 7.37766 13.5611 6.71515 14.4855 6.54718L14.4866 6.24878ZM4.16306 2.50019C3.25015 2.50019 2.5 3.24929 2.5 4.16324V11.6709H5.82606V4.16324C5.82606 3.25033 5.07701 2.50019 4.16306 2.50019Z" fill="black"/>
</svg>
