<svg width="24" height="24" viewBox="0 0 24 24" fill="none" xmlns="http://www.w3.org/2000/svg">
<g clip-path="url(#clip0_137_766)">
<path d="M14.5814 6.11779C14.5362 5.85337 14.3071 5.65991 14.0387 5.65991H1.66081C1.30409 5.65991 1.01525 5.94908 1.01525 6.30515C1.01525 6.66186 1.30409 6.95071 1.66081 6.95071H4.67314C5.02986 6.95071 5.3187 7.23993 5.3187 7.59632C5.3187 7.95271 5.02986 8.24188 4.67314 8.24188H0.645593C0.289202 8.24188 3.05176e-05 8.53105 3.05176e-05 8.88744C3.05176e-05 9.24383 0.289202 9.53263 0.645593 9.53263H6.13531C6.45031 9.53263 6.70587 9.78857 6.70587 10.1036C6.70587 10.4186 6.45031 10.6741 6.13531 10.6741H3.2187C2.86198 10.6741 2.57314 10.9633 2.57314 11.3197C2.57314 11.6761 2.86198 11.9653 3.2187 11.9653H5.36825C5.68353 11.9653 5.93914 12.2209 5.93914 12.5359C5.93914 12.8508 5.68353 13.1064 5.36825 13.1064H2.40073C2.04401 13.1064 1.75517 13.3956 1.75517 13.752C1.75517 14.1084 2.04401 14.3976 2.40073 14.3976H6.47952L6.73676 15.8526H8.21426C8.12736 16.0638 8.07781 16.2943 8.07781 16.5369C8.07781 17.5328 8.8849 18.3399 9.88081 18.3399C10.8763 18.3399 11.6834 17.5328 11.6834 16.5369C11.6834 16.2943 11.6339 16.0638 11.547 15.8526H16.2364L14.5814 6.11779ZM10.6567 16.5369C10.6567 16.9656 10.3095 17.3128 9.88076 17.3128C9.45177 17.3128 9.10452 16.9656 9.10452 16.5369C9.10452 16.2386 9.27453 15.9826 9.52133 15.8526H10.2399C10.4866 15.9826 10.6567 16.2385 10.6567 16.5369Z" fill="#EB6309"/>
<path d="M23.9812 14.722L23.2406 11.0685L20.5364 6.90796H15.6129L17.1379 15.8526H18.9389C18.8523 16.0637 18.8027 16.2942 18.8027 16.5369C18.8027 17.5327 19.6099 18.3399 20.6054 18.3399C21.6013 18.3399 22.4084 17.5327 22.4084 16.5369C22.4084 16.2942 22.3588 16.0637 22.2719 15.8526H23.0567C23.3398 15.8526 23.6079 15.7257 23.7871 15.5064C23.966 15.2875 24.0375 14.9993 23.9812 14.722ZM18.3998 8.57249H19.6333L21.2347 11.0356H18.82L18.3998 8.57249ZM21.3816 16.5369C21.3816 16.9656 21.0344 17.3128 20.6054 17.3128C20.177 17.3128 19.8295 16.9656 19.8295 16.5369C19.8295 16.2386 19.9999 15.9826 20.2463 15.8526H20.9648C21.2116 15.9826 21.3816 16.2385 21.3816 16.5369Z" fill="#EB6309"/>
</g>
<defs>
<clipPath id="clip0_137_766">
<rect width="24" height="24" fill="white"/>
</clipPath>
</defs>
</svg>
