<svg width="24" height="24" viewBox="0 0 24 24" fill="none" xmlns="http://www.w3.org/2000/svg">
<path d="M11.9982 11.0007C14.7596 11.0007 16.9982 8.76216 16.9982 6.00073C16.9982 3.23931 14.7596 1.00073 11.9982 1.00073C9.23675 1.00073 6.99817 3.23931 6.99817 6.00073C6.99817 8.76216 9.23675 11.0007 11.9982 11.0007Z" fill="#EB6309"/>
<path d="M19.1542 15.0748C18.8462 14.6127 18.4454 14.2198 17.9773 13.9211C17.5092 13.6224 16.984 13.4244 16.4352 13.3398C13.493 12.8887 10.4993 12.8887 7.55717 13.3398C7.00886 13.424 6.48413 13.6216 6.01648 13.92C5.54883 14.2184 5.14854 14.611 4.84117 15.0728C4.21417 16.0158 4.01117 17.1888 4.30717 18.3648C4.59288 19.5099 5.21397 20.5437 6.09086 21.3336C6.96776 22.1236 8.06053 22.6338 9.22917 22.7988C11.0313 23.061 12.8616 23.066 14.6652 22.8138C15.8635 22.649 16.9847 22.1283 17.8836 21.319C18.7826 20.5098 19.4179 19.4492 19.7072 18.2748C19.8424 17.7322 19.863 17.1675 19.7678 16.6165C19.6726 16.0656 19.4636 15.5405 19.1542 15.0748Z" fill="#EB6309"/>
</svg>
